<svg id="a16b1cf7-a3e2-4612-83d4-870a500031f5" data-name="Layer 1" xmlns="http://www.w3.org/2000/svg" viewBox="0 0 143.6079 66.05318"><defs><style>.f32b090a-dadb-4e7a-9835-33a16d028d6e{fill:#009640;}.f0d916d8-5988-483e-9663-06b4e92059ab{fill:#1d1d1b;}.f53f47ca-9bfa-47f7-a3fa-c49bfcfd8a92{fill:none;stroke:#1d1d1b;stroke-width:0.7475px;}.b1799b49-d02b-4aa3-89d2-7122dce33cc6{fill:#dd052b;}</style></defs><g id="be60dd95-0a58-4656-b031-15740a32f4e5" data-name="By Schneider Electric"><path class="f32b090a-dadb-4e7a-9835-33a16d028d6e" d="M9.811,74.92564a.83735.83735,0,0,1-.2276.6767.87591.87591,0,0,1-.5761.1866h-.1944a.9379.9379,0,0,1-.6035-.1817.84715.84715,0,0,1-.2266-.6885v-8c0-.0351.0694-.0781.2071-.1298a1.36783,1.36783,0,0,1,.4804-.0782,1.329,1.329,0,0,1,.4082.0645.89277.89277,0,0,1,.3623.2285,1.20015,1.20015,0,0,1,.2666.4482,2.15445,2.15445,0,0,1,.1036.7276l.0058,2.1191a2.45871,2.45871,0,0,1,.8584-.7617,2.49625,2.49625,0,0,1,1.1963-.2793,2.91994,2.91994,0,0,1,1.1768.2344,2.68849,2.68849,0,0,1,.9297.6621,3.06647,3.06647,0,0,1,.6113,1.0469,4.02462,4.02462,0,0,1,.2217,1.372,4.1013,4.1013,0,0,1-.2149,1.3584,3.05491,3.05491,0,0,1-.6054,1.0528,2.78649,2.78649,0,0,1-.9375.68259,2.90349,2.90349,0,0,1-1.211.24711,2.34632,2.34632,0,0,1-1.2568-.3184,2.21356,2.21356,0,0,1-.7744-.7734Zm0-1.9922a1.5,1.5,0,0,0,.124.6181,1.4561,1.4561,0,0,0,.3389.4815,1.52987,1.52987,0,0,0,.5019.3115,1.73782,1.73782,0,0,0,.626.1104,1.50621,1.50621,0,0,0,1.1933-.5137,1.96789,1.96789,0,0,0,.4502-1.3457,1.998,1.998,0,0,0-.4433-1.3643,1.49829,1.49829,0,0,0-1.1865-.5068,1.69917,1.69917,0,0,0-.9913.2793,1.7508,1.7508,0,0,0-.6132.7598Z" transform="translate(-7.88025 -11.77624)"/><path class="f32b090a-dadb-4e7a-9835-33a16d028d6e" d="M17.42225,77.77034a2.2499,2.2499,0,0,1-.5977.0586,3.78739,3.78739,0,0,1-.6953-.07811,2.67945,2.67945,0,0,1-.6435-.22069,1.15215,1.15215,0,0,1-.4493-.3711.73112.73112,0,0,1-.1103-.5196,1.30774,1.30774,0,0,1,.3643-.663,4.21732,4.21732,0,0,0,.871.27339,2.79837,2.79837,0,0,0,.7344.03221.96766.96766,0,0,0,.6309-.3056,2.87753,2.87753,0,0,0,.2207-.293.943.943,0,0,0,.1035-.2012.28407.28407,0,0,0,.0264-.1562.83988.83988,0,0,1-.3643-.11721.65463.65463,0,0,1-.2334-.28519l-2.1846-5.0703c-.0078-.0254.0137-.0693.0655-.1299a.91975.91975,0,0,1,.2138-.1758,1.99719,1.99719,0,0,1,.3262-.1562,1.10059,1.10059,0,0,1,.3965-.0713.99593.99593,0,0,1,.584.1816,1.41652,1.41652,0,0,1,.4424.7286l1.3779,3.6269,1.2226-3.6142a1.35384,1.35384,0,0,1,.4415-.7344.98919.98919,0,0,1,.5722-.1885,1.09874,1.09874,0,0,1,.377.0654,1.44447,1.44447,0,0,1,.3183.15529,1.75407,1.75407,0,0,1,.2207.16991c.0567.0518.0801.0908.0723.1162l-2.3145,6.0586a5.45121,5.45121,0,0,1-.2539.5391,2.77529,2.77529,0,0,1-.3828.54,2.82679,2.82679,0,0,1-.5664.4746A2.658,2.658,0,0,1,17.42225,77.77034Z" transform="translate(-7.88025 -11.77624)"/><path class="f0d916d8-5988-483e-9663-06b4e92059ab" d="M32.42025,73.18634a2.42478,2.42478,0,0,1-.4209,1.4248,2.6747,2.6747,0,0,1-1.1748.9209,4.40007,4.40007,0,0,1-1.7285.3194c-.1816,0-.4053-.0118-.6689-.0352a7.57086,7.57086,0,0,1-1.0508-.19241,8.28478,8.28478,0,0,1-1.3643-.46779v-2.1543a9.55831,9.55831,0,0,0,1.3037.6856,3.46278,3.46278,0,0,0,1.3741.2734,1.1946,1.1946,0,0,0,.875-.2256.66132.66132,0,0,0,.1992-.4218.72263.72263,0,0,0-.3408-.6006,4.84971,4.84971,0,0,0-.9912-.50491,7.88406,7.88406,0,0,1-1.2637-.66309,3.00808,3.00808,0,0,1-.8877-.8994,2.31861,2.31861,0,0,1-.3447-1.2773,2.33936,2.33936,0,0,1,1.4111-2.2041,4.01319,4.01319,0,0,1,1.748-.3438,6.10431,6.10431,0,0,1,1.3575.1426,5.85536,5.85536,0,0,1,1.0293.3222,3.97527,3.97527,0,0,1,.5566.2793v2.0645a7.26284,7.26284,0,0,0-1.2012-.6914,3.34884,3.34884,0,0,0-1.416-.3047,1.09362,1.09362,0,0,0-.7168.1904.59778.59778,0,0,0-.2217.46979.57753.57753,0,0,0,.2207.45111,3.90118,3.90118,0,0,0,.7891.46389,15.912,15.912,0,0,1,1.626.85741,3.19928,3.19928,0,0,1,.9551.8799A2.1193,2.1193,0,0,1,32.42025,73.18634Z" transform="translate(-7.88025 -11.77624)"/><path class="f0d916d8-5988-483e-9663-06b4e92059ab" d="M39.38615,75.43924q-.2871.10845-.6036.2002a5.52816,5.52816,0,0,1-.7138.15139,5.81187,5.81187,0,0,1-.8662.06061,4.05782,4.05782,0,0,1-1.794-.3584,2.98565,2.98565,0,0,1-1.1299-.9014,3.353,3.353,0,0,1-.5488-1.1074,3.87791,3.87791,0,0,1-.1523-.9961,3.782,3.782,0,0,1,.1552-.9961,3.33471,3.33471,0,0,1,.542-1.0908,2.96167,2.96167,0,0,1,1.1211-.8819,4.12872,4.12872,0,0,1,1.8067-.3554,5.50564,5.50564,0,0,1,1.1679.1015,7.19991,7.19991,0,0,1,.9141.2725v1.79389a6.23853,6.23853,0,0,0-1.7461-.35539,1.70845,1.70845,0,0,0-1.082.3691,1.35731,1.35731,0,0,0-.4727,1.1426,1.5339,1.5339,0,0,0,.2344.8681,1.41244,1.41244,0,0,0,.5967.51759,1.725,1.725,0,0,0,.7236.16511,3.47152,3.47152,0,0,0,.7813-.1016q.4365-.1011,1.0664-.292Z" transform="translate(-7.88025 -11.77624)"/><path class="f0d916d8-5988-483e-9663-06b4e92059ab" d="M47.39485,75.742h-2.2812v-3.3526q0-.0381.0029-.0732c.002-.0225.0039-.0723.0039-.14841a1.85523,1.85523,0,0,0-.1972-.85059.75879.75879,0,0,0-.7481-.3877,1.12243,1.12243,0,0,0-.7617.289,3.78354,3.78354,0,0,0-.6279.7266V75.742h-2.2813v-8.7969h2.2813v3.2598a3.208,3.208,0,0,1,1.1162-.8223,3.15339,3.15339,0,0,1,1.1728-.2187q2.32035,0,2.3203,2.6093Z" transform="translate(-7.88025 -11.77624)"/><path class="f0d916d8-5988-483e-9663-06b4e92059ab" d="M55.66635,75.742h-2.2812v-3.4854a2.30344,2.30344,0,0,0-.1748-.9306.74484.74484,0,0,0-.7647-.3965,1.098,1.098,0,0,0-.4912.1045,1.44063,1.44063,0,0,0-.3808.2705,2.7566,2.7566,0,0,0-.2823.3174c-.0761.1015-.1543.20889-.2353.3232V75.742h-2.2813v-6.4688h2.2813v.9317a3.28736,3.28736,0,0,1,1.081-.8086,3.0316,3.0316,0,0,1,1.208-.2324q2.32035,0,2.3213,2.7812Z" transform="translate(-7.88025 -11.77624)"/><path class="f0d916d8-5988-483e-9663-06b4e92059ab" d="M63.67125,73.05454h-4.5615a1.59692,1.59692,0,0,0,.6553.9678,1.97164,1.97164,0,0,0,1.1836.3759,6.14809,6.14809,0,0,0,2.5576-.64941v1.417a6.87118,6.87118,0,0,1-1.2168.47271,6.51842,6.51842,0,0,1-1.8203.2129,4.29811,4.29811,0,0,1-2.0332-.4444,2.96517,2.96517,0,0,1-1.2549-1.2051,3.53986,3.53986,0,0,1-.416-1.7255,3.45881,3.45881,0,0,1,.416-1.7041,2.89712,2.89712,0,0,1,1.2549-1.1807,4.42968,4.42968,0,0,1,2.0332-.4277,3.594,3.594,0,0,1,1.5215.3388,2.7824,2.7824,0,0,1,1.207,1.1094,3.74334,3.74334,0,0,1,.4736,1.9863Zm-2.1406-1.125a1.49209,1.49209,0,0,0-.3096-.9893,1.09659,1.09659,0,0,0-.8906-.3701,1.217,1.217,0,0,0-.9297.376,1.37682,1.37682,0,0,0-.3545.9834Z" transform="translate(-7.88025 -11.77624)"/><path class="f0d916d8-5988-483e-9663-06b4e92059ab" d="M67.18685,75.742h-2.2812v-6.4688h2.2812Zm-.1836-7.958a.91464.91464,0,0,1-.2841.6787.95475.95475,0,0,1-1.5039-.1934.954.954,0,0,1-.126-.4853.94.94,0,0,1,.2783-.6787.90887.90887,0,0,1,.6758-.2852.972.972,0,0,1,.9599.9639Z" transform="translate(-7.88025 -11.77624)"/><path class="f0d916d8-5988-483e-9663-06b4e92059ab" d="M75.60435,75.742h-2.2807v-.584a3.75754,3.75754,0,0,1-.7666.498,2.61572,2.61572,0,0,1-1.1163.1954,3.0094,3.0094,0,0,1-1.3867-.3487,2.77816,2.77816,0,0,1-1.1201-1.0888,3.60189,3.60189,0,0,1-.4385-1.8614,4.14908,4.14908,0,0,1,.3311-1.6533,2.856,2.856,0,0,1,1.0371-1.2529,2.99472,2.99472,0,0,1,1.7295-.4824,3.15826,3.15826,0,0,1,1.0303.1396,2.8622,2.8622,0,0,1,.7002.3564v-2.7148h2.2807Zm-2.2807-2.0518v-2.4726a7.01512,7.01512,0,0,0-.628-.3174,1.36273,1.36273,0,0,0-.5322-.0957,1.10185,1.10185,0,0,0-.9014.458,1.95936,1.95936,0,0,0-.3603,1.2451,1.74662,1.74662,0,0,0,.3789,1.25,1.194,1.194,0,0,0,.8828.3906,1.458,1.458,0,0,0,.6689-.1308A2.57473,2.57473,0,0,0,73.32365,73.69024Z" transform="translate(-7.88025 -11.77624)"/><path class="f0d916d8-5988-483e-9663-06b4e92059ab" d="M83.68445,73.05454h-4.5605a1.591,1.591,0,0,0,.6542.9678,1.97185,1.97185,0,0,0,1.1836.3759,6.15184,6.15184,0,0,0,2.5586-.64941v1.417a6.86508,6.86508,0,0,1-1.2168.47271,6.52235,6.52235,0,0,1-1.8203.2129,4.29559,4.29559,0,0,1-2.0332-.4444,2.96749,2.96749,0,0,1-1.2558-1.2051,3.53992,3.53992,0,0,1-.4161-1.7255,3.45886,3.45886,0,0,1,.4161-1.7041,2.89943,2.89943,0,0,1,1.2558-1.1807,4.43,4.43,0,0,1,2.0332-.4277,3.597,3.597,0,0,1,1.5215.3388,2.79273,2.79273,0,0,1,1.207,1.1094,3.7518,3.7518,0,0,1,.4727,1.9863Zm-2.1406-1.125a1.49713,1.49713,0,0,0-.3086-.9893,1.09672,1.09672,0,0,0-.8906-.3701,1.21549,1.21549,0,0,0-.9297.376,1.377,1.377,0,0,0-.3555.9834Z" transform="translate(-7.88025 -11.77624)"/><path class="f0d916d8-5988-483e-9663-06b4e92059ab" d="M90.48525,69.62483l-.8438,2.28421a1.544,1.544,0,0,0-1.0547-.4951,1.18268,1.18268,0,0,0-.8339.3281,3.18848,3.18848,0,0,0-.6758,1.2119V75.742h-2.2813v-6.4688h2.2813v1.55859a3.17319,3.17319,0,0,1,.7617-1.12109,1.75285,1.75285,0,0,1,1.2812-.5468,1.8478,1.8478,0,0,1,.6758.1132A5.17348,5.17348,0,0,1,90.48525,69.62483Z" transform="translate(-7.88025 -11.77624)"/><path class="f0d916d8-5988-483e-9663-06b4e92059ab" d="M96.67075,68.242h4.25v.9531h-3.1718V71.492h3.0781v.9687h-3.0781v2.3282h3.2812v.9531h-4.3594Z" transform="translate(-7.88025 -11.77624)"/><path class="f0d916d8-5988-483e-9663-06b4e92059ab" d="M104.15125,68.242h.9844v7.5h-.9844Z" transform="translate(-7.88025 -11.77624)"/><path class="f0d916d8-5988-483e-9663-06b4e92059ab" d="M112.84065,73.35144H109.372a1.64284,1.64284,0,0,0,.4746,1.1396,1.54521,1.54521,0,0,0,1.125.4229,2.93767,2.93767,0,0,0,1.7754-.5938v.9473a3.25368,3.25368,0,0,1-.8926.4248,3.76652,3.76652,0,0,1-1.0371.1279,2.32374,2.32374,0,0,1-1.3183-.3389,2.47828,2.47828,0,0,1-.8086-.913,2.80529,2.80529,0,0,1-.3028-1.3262,2.63216,2.63216,0,0,1,.6406-1.8389,2.13063,2.13063,0,0,1,1.6583-.708,1.95048,1.95048,0,0,1,1.5683.6885,2.74909,2.74909,0,0,1,.5859,1.8437Zm-3.4531-.5782h2.4844a1.39966,1.39966,0,0,0-.3477-.914,1.11818,1.11818,0,0,0-.8378-.3203,1.20212,1.20212,0,0,0-.8614.3203A1.61278,1.61278,0,0,0,109.38755,72.77324Z" transform="translate(-7.88025 -11.77624)"/><path class="f0d916d8-5988-483e-9663-06b4e92059ab" d="M119.70005,74.60144v.9619a4.18036,4.18036,0,0,1-1.4472.2724,2.52063,2.52063,0,0,1-1.8594-.6894,2.489,2.489,0,0,1-.6934-1.8487,2.62566,2.62566,0,0,1,.6778-1.8857,2.33717,2.33717,0,0,1,1.7812-.7168,3.04639,3.04639,0,0,1,.6914.0723,4.63847,4.63847,0,0,1,.7559.27239v1.04591a2.62128,2.62128,0,0,0-1.3926-.4843,1.425,1.425,0,0,0-1.0996.4687,1.69734,1.69734,0,0,0-.4297,1.1953,1.61374,1.61374,0,0,0,.4629,1.2139,1.71486,1.71486,0,0,0,1.248.4502A3.27861,3.27861,0,0,0,119.70005,74.60144Z" transform="translate(-7.88025 -11.77624)"/><path class="f0d916d8-5988-483e-9663-06b4e92059ab" d="M122.20205,71.58283l1.8437-1.80959v1.0313h1.5469v.875h-1.5469v2.4297q0,.85245.6953.8515a2.16871,2.16871,0,0,0,1.1016-.3437v.9043a2.46505,2.46505,0,0,1-1.2246.3144,1.61881,1.61881,0,0,1-1.1133-.3925,1.14592,1.14592,0,0,1-.2305-.2667,1.43179,1.43179,0,0,1-.1523-.3876,4.40865,4.40865,0,0,1-.0605-.91311V71.67954h-.8594Z" transform="translate(-7.88025 -11.77624)"/><path class="f0d916d8-5988-483e-9663-06b4e92059ab" d="M129.68835,70.80454v1.123l.0547-.0859q.7119-1.14555,1.4258-1.1465a1.75279,1.75279,0,0,1,1.1601.5606l-.5175.8613a1.4591,1.4591,0,0,0-.9512-.4844,1.0145,1.0145,0,0,0-.8223.45219,1.69912,1.69912,0,0,0-.3496,1.07031V75.742h-.9844v-4.9375Z" transform="translate(-7.88025 -11.77624)"/><path class="f0d916d8-5988-483e-9663-06b4e92059ab" d="M135.61215,68.72644a.576.576,0,0,1,.4141.1669.55179.55179,0,0,1,.1719.4082.587.587,0,0,1-.586.5811.54565.54565,0,0,1-.3984-.17481.55895.55895,0,0,1-.1719-.40629.55233.55233,0,0,1,.1719-.4003A.54529.54529,0,0,1,135.61215,68.72644Zm-.4922,2.0781h.9844V75.742H135.12Z" transform="translate(-7.88025 -11.77624)"/><path class="f0d916d8-5988-483e-9663-06b4e92059ab" d="M143.30944,74.60144v.9619a4.1809,4.1809,0,0,1-1.4473.2724,2.5204,2.5204,0,0,1-1.8593-.6894,2.489,2.489,0,0,1-.6934-1.8487,2.626,2.626,0,0,1,.6777-1.8857,2.33754,2.33754,0,0,1,1.7813-.7168,3.047,3.047,0,0,1,.6914.0723,4.63456,4.63456,0,0,1,.7558.27239v1.04591a2.62071,2.62071,0,0,0-1.3925-.4843,1.425,1.425,0,0,0-1.09959.4687,1.6973,1.6973,0,0,0-.42971,1.1953,1.61374,1.61374,0,0,0,.4629,1.2139,1.71486,1.71486,0,0,0,1.248.4502A3.27861,3.27861,0,0,0,143.30944,74.60144Z" transform="translate(-7.88025 -11.77624)"/><line id="f40922f3-5b9d-49be-b060-bf9af83c717b" data-name="filet" class="f53f47ca-9bfa-47f7-a3fa-c49bfcfd8a92" x1="0.6348" y1="46.2041" x2="135.42531" y2="46.2041"/></g><polygon class="b1799b49-d02b-4aa3-89d2-7122dce33cc6" points="24.192 36.945 19.395 28.392 36.726 28.392 28.022 9.957 15.264 36.945 0 36.945 19.984 0.516 36.061 0.516 55.898 36.945 24.192 36.945"/><path class="b1799b49-d02b-4aa3-89d2-7122dce33cc6" d="M63.85385,27.55844h19.024c4.7968,0,6.7109-.2969,6.7109-3.6885,0-3.24711-1.5469-3.6152-6.4902-3.6152H63.77865l-4.2793-7.96291h26.8453c12.6875,0,17.4043,5.53421,17.4043,11.43061,0,5.6797-4.3497,11.9463-18.2852,11.9463h-6.3477v13.0528H63.77865V27.55844Z" transform="translate(-7.88025 -11.77624)"/><path class="b1799b49-d02b-4aa3-89d2-7122dce33cc6" d="M143.50084,45.99394a38.956,38.956,0,0,1-16.29879,3.17289c-18.2891,0-24.5567-10.17869-24.5567-18.586,0-10.61619,9.2911-18.80459,25.2969-18.80459a42.77682,42.77682,0,0,1,15.18749,2.5068v10.5459a25.6737,25.6737,0,0,0-12.75779-3.3926c-7.6699,0-13.9375,3.4649-13.9375,8.9951,0,5.459,6.416,9,14.0859,9,4.4278,0,8.03909-.8838,12.98049-3.1718Z" transform="translate(-7.88025 -11.77624)"/><path class="f0d916d8-5988-483e-9663-06b4e92059ab" d="M145.79674,14.72054a.19758.19758,0,0,1-.2266-.209V14.489c0-.1318.0801-.2031.2266-.2031h2.1602c.1474,0,.22161.0713.22161.2031v.0225a.19334.19334,0,0,1-.22161.209h-.835v2.415a.196.196,0,0,1-.2168.2217h-.0654c-.1377,0-.208-.0762-.208-.2217v-2.415Z" transform="translate(-7.88025 -11.77624)"/><path class="f0d916d8-5988-483e-9663-06b4e92059ab" d="M148.60044,17.13554v-2.5996a.25569.25569,0,0,1,.2783-.2695h.127c.1894,0,.2412.0713.3164.2451l.7217,1.6289.7265-1.6289c.07621-.17871.1328-.2451.3116-.2451H151.2a.26111.26111,0,0,1,.2881.2695v2.5996c0,.1455-.0615.2217-.2031.2217h-.0664c-.1367,0-.1924-.0762-.1924-.2217v-2.2412l-.6758,1.5196a.3372.3372,0,0,1-.6221,0l-.666-1.5059v2.2275c0,.1455-.0566.2217-.1982.2217h-.0752C148.65714,17.35724,148.60044,17.281,148.60044,17.13554Z" transform="translate(-7.88025 -11.77624)"/></svg>