<svg width="16" height="15" viewBox="0 0 16 15" fill="none" xmlns="http://www.w3.org/2000/svg">
<path d="M15.0401 8.11726C15.4306 7.72674 15.4306 7.09357 15.0401 6.70305L8.67615 0.339088C8.28563 -0.0514359 7.65246 -0.0514359 7.26194 0.339088C6.87142 0.729613 6.87142 1.36278 7.26194 1.7533L12.9188 7.41016L7.26194 13.067C6.87142 13.4575 6.87142 14.0907 7.26194 14.4812C7.65246 14.8717 8.28563 14.8717 8.67615 14.4812L15.0401 8.11726ZM1.76891 6.41016C1.21662 6.41016 0.768906 6.85787 0.768906 7.41016C0.768906 7.96244 1.21662 8.41016 1.76891 8.41016L1.76891 6.41016ZM14.333 6.41016L1.76891 6.41016L1.76891 8.41016L14.333 8.41016L14.333 6.41016Z" fill="white"/>
</svg>
