<svg xmlns="http://www.w3.org/2000/svg" id="b220eb9d-de76-4bc2-897e-1d74ef5901a3" data-name="Layer 3" viewBox="0 0 480.001 571.2389"><path d="M240.4939,325.3374a33.2016,33.2016,0,1,0,33.2016,33.2015A33.2394,33.2394,0,0,0,240.4939,325.3374Z" style="fill:none;stroke:#fff;stroke-linecap:round;stroke-linejoin:round;stroke-width:10px"></path><path d="M375.8886,471.8833V441.5439a4.58,4.58,0,0,0-7.2734-3.7048l-12.2364,8.8992-12.2365-8.8992a4.5791,4.5791,0,0,0-7.2723,3.7048v30.3394H318.3459" style="fill:none;stroke:#fff;stroke-linecap:round;stroke-linejoin:round;stroke-width:10px"></path><path d="M53.8773,557.1745H428.8256" style="fill:none;stroke:#fff;stroke-linecap:round;stroke-linejoin:round;stroke-width:10px"></path><path d="M162.07,471.8821H145.8352V441.5428a4.58,4.58,0,0,0-7.2734-3.7048l-12.2365,8.8991-12.2365-8.8991a4.58,4.58,0,0,0-7.2734,3.7048v30.3393" style="fill:none;stroke:#fff;stroke-linecap:round;stroke-linejoin:round;stroke-width:10px"></path><polyline points="162.513 557.175 162.513 408.341 171.229 408.341 185.54 408.341 185.54 440.627 202.999 440.627 202.999 408.341 231.059 408.341 231.059 440.627 249.767 440.627 249.767 408.341 277.416 408.341 277.416 440.627 295.075 440.627 295.075 408.341 318.314 408.341 318.314 557.175" style="fill:none;stroke:#fff;stroke-linecap:round;stroke-linejoin:round;stroke-width:10px"></polyline><line x1="273.6955" y1="199.4006" x2="211.2525" y2="199.4006" style="fill:none;stroke:#fff;stroke-linecap:round;stroke-linejoin:round;stroke-width:10px"></line><line x1="171.2287" y1="520.3204" x2="309.1868" y2="520.3204" style="fill:none;stroke:#ff006e;stroke-linecap:round;stroke-linejoin:round;stroke-width:12px"></line><polyline points="217.58 23.903 240.494 29.616 226.332 50.841" style="fill:none;stroke:#fff;stroke-linecap:round;stroke-linejoin:round;stroke-width:5px"></polyline><polyline points="254.677 50.841 240.494 29.616 240.494 58.812" style="fill:none;stroke:#fff;stroke-linecap:round;stroke-linejoin:round;stroke-width:5px"></polyline><line x1="213.0168" y1="217.1097" x2="213.0168" y2="280.0781" style="fill:none;stroke:#fff;stroke-linecap:round;stroke-linejoin:round;stroke-width:10px"></line><line x1="240.4939" y1="217.1097" x2="240.4939" y2="280.0781" style="fill:none;stroke:#fff;stroke-linecap:round;stroke-linejoin:round;stroke-width:10px"></line><line x1="267.971" y1="217.1097" x2="267.971" y2="280.0781" style="fill:none;stroke:#fff;stroke-linecap:round;stroke-linejoin:round;stroke-width:10px"></line><line x1="197.5609" y1="308.7367" x2="283.427" y2="308.7378" style="fill:none;stroke:#fff;stroke-linecap:round;stroke-linejoin:round;stroke-width:10px"></line><polyline points="240.494 342.367 240.494 358.539 256.522 358.539" style="fill:none;stroke:#ff006e;stroke-linecap:round;stroke-linejoin:round;stroke-width:5px"></polyline><line x1="187.8294" y1="460.4333" x2="187.8294" y2="497.068" style="fill:none;stroke:#ff006e;stroke-linecap:round;stroke-linejoin:round;stroke-width:12px"></line><line x1="214.4479" y1="460.4333" x2="214.4479" y2="497.068" style="fill:none;stroke:#fff;stroke-linecap:round;stroke-linejoin:round;stroke-width:10px"></line><line x1="241.0664" y1="460.4333" x2="241.0664" y2="497.068" style="fill:none;stroke:#ff006e;stroke-linecap:round;stroke-linejoin:round;stroke-width:12px"></line><line x1="267.6848" y1="460.4333" x2="267.6848" y2="497.068" style="fill:none;stroke:#fff;stroke-linecap:round;stroke-linejoin:round;stroke-width:10px"></line><line x1="294.3033" y1="460.4333" x2="294.3033" y2="497.068" style="fill:none;stroke:#ff006e;stroke-linecap:round;stroke-linejoin:round;stroke-width:12px"></line><line x1="162.5126" y1="381.4732" x2="162.5126" y2="408.3412" style="fill:none;stroke:#fff;stroke-linecap:round;stroke-linejoin:round;stroke-width:10px"></line><line x1="318.3138" y1="381.4732" x2="318.3138" y2="408.3412" style="fill:none;stroke:#fff;stroke-linecap:round;stroke-linejoin:round;stroke-width:10px"></line><path d="M428.8256,557.1745a4.58,4.58,0,0,0,4.5795-4.5795V441.5416a4.5781,4.5781,0,0,0-7.2711-3.7036l-12.2365,8.8991L401.65,437.838a4.5793,4.5793,0,0,0-7.2711,3.7059v30.3394h-18.49" style="fill:none;stroke:#ff006e;stroke-linecap:round;stroke-linejoin:round;stroke-width:12px"></path><path d="M106.8154,471.8821h-18.49V441.5428a4.5794,4.5794,0,0,0-7.2711-3.706L68.8077,446.736l-12.2365-8.8992a4.58,4.58,0,0,0-7.2734,3.7048V552.595a4.58,4.58,0,0,0,4.5795,4.5795" style="fill:none;stroke:#ff006e;stroke-linecap:round;stroke-linejoin:round;stroke-width:12px"></path><path d="M197.5609,308.7367h-8.0141a4.58,4.58,0,0,0-4.58,4.5795v95.025" style="fill:none;stroke:#fff;stroke-linecap:round;stroke-linejoin:round;stroke-width:12px"></path><path d="M211.2525,199.4006H202.14a4.58,4.58,0,0,0-4.5795,4.5795V308.7367" style="fill:none;stroke:#ff006e;stroke-linecap:round;stroke-linejoin:round;stroke-width:12px"></path><path d="M296.0207,408.3412V313.3173a4.58,4.58,0,0,0-4.5795-4.5795H283.427" style="fill:none;stroke:#fff;stroke-linecap:round;stroke-linejoin:round;stroke-width:12px"></path><path d="M269.7354,199.4018,244.9945,68.321a4.58,4.58,0,0,0-9.0011,0l-24.7409,131.08" style="fill:none;stroke:#ff006e;stroke-linecap:round;stroke-linejoin:round;stroke-width:12px"></path><polyline points="240.494 7.253 240.494 29.616 263.408 23.903" style="fill:none;stroke:#fff;stroke-linecap:round;stroke-linejoin:round;stroke-width:5px"></polyline><path d="M283.427,308.7378V203.9813a4.58,4.58,0,0,0-4.5795-4.5795h-9.1121" style="fill:none;stroke:#ff006e;stroke-linecap:round;stroke-linejoin:round;stroke-width:12px"></path></svg>