<svg xmlns="http://www.w3.org/2000/svg" id="ac489600-cfae-40d6-84e8-5d8e3a84b26a" data-name="Слой 4" viewBox="0 0 480.00101 480.00101"><defs><style>.a6507e03-7ac1-4719-be5a-812b5bc87c85,.a8915138-8cb1-4556-974b-1271e1ba4be9{fill:none;stroke-linecap:round;stroke-linejoin:round;stroke-width:13px;}.a6507e03-7ac1-4719-be5a-812b5bc87c85{stroke:#fff;}.a8915138-8cb1-4556-974b-1271e1ba4be9{stroke:#ff006e;}</style></defs><path class="a6507e03-7ac1-4719-be5a-812b5bc87c85" d="M222.95742,399.26506H257.0436L291.87535,437.084h70.089"></path><path class="a8915138-8cb1-4556-974b-1271e1ba4be9" d="M114.58116,437.084h73.54451l34.83175-37.81889"></path><path class="a6507e03-7ac1-4719-be5a-812b5bc87c85" d="M343.4645,168.0873l-18.95224,25.32078a96.51734,96.51734,0,0,1,9.57368,23.16774l1.12181,4.17367,30.21212,6.048v30.37936l-30.21909,6.041-1.1218,4.17367a96.40124,96.40124,0,0,1-9.57368,23.16775l-2.167,3.74863,17.0849,25.62037-21.48155,21.48155-25.62737-17.07793-3.74167,2.16a97.32438,97.32438,0,0,1-23.17471,9.58064l-4.17367,1.1218-6.02711,30.21215H224.81779l-6.041-30.21212-4.17367-1.1218a96.7535,96.7535,0,0,1-23.17471-9.58065l-3.74169-2.16-25.62735,17.07794L136.5365,315.88707l18.95227-25.32776"></path><circle class="a6507e03-7ac1-4719-be5a-812b5bc87c85" cx="427.22076" cy="331.34177" r="13.93548"></circle><circle class="a8915138-8cb1-4556-974b-1271e1ba4be9" cx="100.64567" cy="437.08395" r="13.93548"></circle><path class="a6507e03-7ac1-4719-be5a-812b5bc87c85" d="M240.00051,172.30976a69.67742,69.67742,0,1,0,69.67742,69.67741A69.7565,69.7565,0,0,0,240.00051,172.30976Z"></path><path class="a8915138-8cb1-4556-974b-1271e1ba4be9" d="M240.00051,214.11621a27.871,27.871,0,1,0,27.871,27.871A27.899,27.899,0,0,0,240.00051,214.11621Z"></path><path class="a6507e03-7ac1-4719-be5a-812b5bc87c85" d="M361.96437,46.8904h-70.089L257.0436,84.37349H222.95741L188.12567,46.8904H114.58116"></path><circle class="a6507e03-7ac1-4719-be5a-812b5bc87c85" cx="375.89985" cy="46.8904" r="13.93548"></circle><circle class="a6507e03-7ac1-4719-be5a-812b5bc87c85" cx="100.64567" cy="46.8904" r="13.93548"></circle><polyline class="a6507e03-7ac1-4719-be5a-812b5bc87c85" points="140.578 164.046 114.651 151.337 65.807 151.407"></polyline><polyline class="a6507e03-7ac1-4719-be5a-812b5bc87c85" points="343.465 168.087 369.391 155.378 418.235 155.448"></polyline><polyline class="a6507e03-7ac1-4719-be5a-812b5bc87c85" points="136.537 316.013 110.61 328.723 61.766 328.653"></polyline><polyline class="a6507e03-7ac1-4719-be5a-812b5bc87c85" points="338.514 318.632 364.441 331.342 413.285 331.272"></polyline><circle class="a8915138-8cb1-4556-974b-1271e1ba4be9" cx="47.83017" cy="328.72276" r="13.93548"></circle><circle class="a8915138-8cb1-4556-974b-1271e1ba4be9" cx="375.89985" cy="437.08395" r="13.93548"></circle><path class="a8915138-8cb1-4556-974b-1271e1ba4be9" d="M155.48877,290.55931a96.40165,96.40165,0,0,1-9.57368-23.16775l-1.1218-4.17367-30.21213-6.041V226.79749l30.21909-6.041,1.1218-4.17367a96.40212,96.40212,0,0,1,9.57368-23.16775l2.167-3.74865L140.57781,164.046l21.48155-21.48155,25.62735,17.07793,3.74864-2.16a96.80066,96.80066,0,0,1,23.16775-9.58065l4.17368-1.1218,6.0271-30.21213h30.37935l6.041,30.21213,4.17367,1.1218a96.51706,96.51706,0,0,1,23.16775,9.58065l3.74863,2.16,25.62737-17.07793L343.4645,168.0873"></path><circle class="a8915138-8cb1-4556-974b-1271e1ba4be9" cx="51.87148" cy="151.40653" r="13.93548"></circle><circle class="a8915138-8cb1-4556-974b-1271e1ba4be9" cx="432.17083" cy="155.37786" r="13.93548"></circle></svg>