<svg xmlns="http://www.w3.org/2000/svg" id="Capa_1" data-name="Capa 1" viewBox="0 0 480 480"><defs><style>.cls-1,.cls-2{fill:none;stroke-linecap:round;stroke-linejoin:round;stroke-width:13px;}.cls-1{stroke:#ff006e;}.cls-2{stroke:#fff;}</style></defs><path class="cls-1" d="M463.89,267.1a59.79,59.79,0,0,0-52.71-59.29,52.34,52.34,0,0,0-51.77-45.19c-1.08,0-2.14,0-3.2.09A119,119,0,0,0,245.62,73.22c-3.87-.16-7.54-.16-11.49,0a119.09,119.09,0,0,0-110.37,89.56,59.94,59.94,0,0,0-53.53,44.88"></path><path class="cls-2" d="M411.65,408.9a37.32,37.32,0,0,0,13.15-72.22,43.5,43.5,0,0,0-5.52-11.89,63.69,63.69,0,0,0,8.06-2.62,50.89,50.89,0,0,0,4.83-2.31l.88-.46.94-.53c.74-.43,1.49-.85,2.38-1.39a60,60,0,0,0,27.44-48.88,10.77,10.77,0,0,0,.08-1.5"></path><path class="cls-1" d="M254.3,408.9H411.65"></path><path class="cls-2" d="M70.23,207.66A59.79,59.79,0,0,0,16.11,267.1a12.56,12.56,0,0,0,.08,1.5,59.75,59.75,0,0,0,37.65,54.07"></path><path class="cls-2" d="M195.27,200.25a74.59,74.59,0,0,0-50.65,27.37"></path><path class="cls-2" d="M406.19,311.77a44.56,44.56,0,0,0-32-6.72,52,52,0,0,0-60.91-9.82"></path><path class="cls-2" d="M313.32,295.23a37.3,37.3,0,0,0-36-28.13h-.38a74.63,74.63,0,0,0-81.67-66.85"></path><path class="cls-1" d="M217.62,408.9l-131.25-.2L75.61,397.94l9.9-17.33c-.76-1.65-1.47-3.33-2.1-5l-19.23-5.26V329.85l19.23-5.26c.63-1.68,1.34-3.36,2.1-5l-9.9-17.33,28.62-28.63,17.34,9.89q2.5-1.14,5-2.09l5.26-19.23"></path><path class="cls-2" d="M131.8,262.19h40.54l5.26,19.23c1.68.63,3.35,1.32,5,2.09L200,273.62l28.62,28.63-9.89,17.33c.76,1.65,1.46,3.33,2.09,5L240,329.85V350.1"></path><circle class="cls-2" cx="152.12" cy="343.38" r="38.8"></circle><path class="cls-2" d="M217.62,408.9l10.95-11-9.89-17.33c.76-1.65,1.46-3.33,2.09-5L240,370.34V350.1"></path></svg>