<svg xmlns="http://www.w3.org/2000/svg" id="accd4e9c-48cd-4c0c-aef1-cee681788d7b" data-name="Слой 5" viewBox="0 0 480.00101 480.00101"><defs><style>.b3ede1cf-c37b-4549-bc35-fb44f60782e9,.bda6abcd-a93d-4cd3-a03d-c8da575951b0,.f0a49f34-3cd0-474d-bae3-9dafcd808558{fill:none;stroke-linecap:round;stroke-linejoin:round;}.f0a49f34-3cd0-474d-bae3-9dafcd808558{stroke:#ff006e;}.bda6abcd-a93d-4cd3-a03d-c8da575951b0,.f0a49f34-3cd0-474d-bae3-9dafcd808558{stroke-width:13px;}.b3ede1cf-c37b-4549-bc35-fb44f60782e9,.bda6abcd-a93d-4cd3-a03d-c8da575951b0{stroke:#fff;}.b3ede1cf-c37b-4549-bc35-fb44f60782e9{stroke-width:9px;}</style></defs><path class="f0a49f34-3cd0-474d-bae3-9dafcd808558" d="M22.486,190.06245c13.91465-.65452,10.06521,13.17235,22.24119,6.33227,0,0,.41165,8.09311.42744,8.16266.85392,3.76262-.8782,9.73.8397,15.67436,5.24608,18.15279,29.163,10.18484,38.86436,23.77923l12.14535,17.02011a17.79914,17.79914,0,0,1,2.486,15.5676l-3.48785,11.15481c-17.53948,48.49657,24.72564,55.21416,34.94166,97.82884,10.06542,5.3919,4.54679-49.53366,27.71005-63.79206"></path><path class="bda6abcd-a93d-4cd3-a03d-c8da575951b0" d="M196.23266,460.31316s-5.64529-2.12189,2.72673-10.49391c11.54585-11.54585-19.3148-23.61063-28.1299-30.43906-6.35346-4.92158-15.33631-18.87033-21.84629-23.58292-6.41949-4.64709-23.66426-4.98393-27.486,1.96069-5.52832,10.04576-26.973,12.75071-26.973,12.75071"></path><path class="bda6abcd-a93d-4cd3-a03d-c8da575951b0" d="M361.05092,271.709c-1.60831-3.24722-5.95724-6.71235-12.41531-9.08588-7.86139-2.8893-35.16237-5.09478-49.078,16.21036l-9.998,16.41284a38.52189,38.52189,0,0,0-5.55816,14.27954c-2.47169,16.92772,10.31382,26.7983,12.41835,39.11016,5.68867,33.27964-10.00853,49.11078-11.58447,63.42533a27.78,27.78,0,0,1-6.34044,14.85094l-24.92558,37.44636"></path><path class="f0a49f34-3cd0-474d-bae3-9dafcd808558" d="M376.39208,62.39937s-23.45,11.89178-26.427,15.92336c-10.07844,13.649-6.07345,25.65966-20.157,35.12044a17.47741,17.47741,0,0,0-3.046,26.41614L328.22,141.4256a51.60908,51.60908,0,0,1,10.54055,53.82631,19.54935,19.54935,0,0,0,1.75093,17.50664c1.82706,2.89983,12.96353,3.8345,14.9181,19.49854"></path><path class="bda6abcd-a93d-4cd3-a03d-c8da575951b0" d="M171.45242,158.24933c.9564-1.05965-8.67611-29.58972,11.13285-39.48113,17.91264-8.9445,16.30507-28.08008,16.30507-28.08008,0-6.90482-5.389-25.38071,14.204-43.01438l33.89448-30.87585"></path><path class="bda6abcd-a93d-4cd3-a03d-c8da575951b0" d="M158.65387,321.79027s24.15707-4.96192,30.67944-9.66558c11.15322-8.04322,18.19179-20.26733,30.10788-27.12667a25.14555,25.14555,0,0,0,12.58812-20.34173A23.99634,23.99634,0,0,0,221.963,242.95743l-8.77739-6.56532c-10.916-8.164-30.6803-27.66782-37.50289-39.48591"></path><path class="bda6abcd-a93d-4cd3-a03d-c8da575951b0" d="M464.7239,240.71737s-13.12546,6.55912-22.252,6.52467c-15.36357-.058-9.23668-28.12989-32.80326-14.08729"></path><path class="f0a49f34-3cd0-474d-bae3-9dafcd808558" d="M150.30629,240.041c-14.39067-19.26281-29.57849-45.11368-29.57849-61.138a29.57805,29.57805,0,1,1,59.1561,0c0,16.02609-15.18781,41.877-29.57761,61.138Z"></path><path class="b3ede1cf-c37b-4549-bc35-fb44f60782e9" d="M150.30629,167.93977a10.96232,10.96232,0,1,0,10.96232,10.96232,10.97482,10.97482,0,0,0-10.96232-10.96232Z"></path><path class="b3ede1cf-c37b-4549-bc35-fb44f60782e9" d="M394.58,244.48631A12.22922,12.22922,0,1,0,382.3508,256.716,12.24349,12.24349,0,0,0,394.58,244.48631Z"></path><path class="bda6abcd-a93d-4cd3-a03d-c8da575951b0" d="M352.76751,406.81514c-12.58489-16.84566-25.86691-39.45271-25.86691-53.4663a25.86653,25.86653,0,1,1,51.73306,0c0,14.01511-13.282,36.62216-25.86615,53.46629Z"></path><path class="bda6abcd-a93d-4cd3-a03d-c8da575951b0" d="M352.76751,342.87952a10.46856,10.46856,0,1,0,10.46856,10.46855,10.48049,10.48049,0,0,0-10.46856-10.46855Z"></path><path class="bda6abcd-a93d-4cd3-a03d-c8da575951b0" d="M90.57033,180.78907c-12.81775-17.15736-26.34552-40.18271-26.34552-54.45559a26.34514,26.34514,0,1,1,52.69027,0c0,14.27443-13.52777,37.29978-26.34475,54.45558Z"></path><path class="b3ede1cf-c37b-4549-bc35-fb44f60782e9" d="M90.56994,116.11594a10.7232,10.7232,0,1,0,10.7232,10.7232,10.73543,10.73543,0,0,0-10.7232-10.7232Z"></path><path class="f0a49f34-3cd0-474d-bae3-9dafcd808558" d="M240.71737,464.7239a224.00653,224.00653,0,0,0,0-448.01306l.00005,0"></path><path class="f0a49f34-3cd0-474d-bae3-9dafcd808558" d="M352.77228,244.48609c.32084-16.30646,13.26889-29.57762,29.57849-29.57762a29.61129,29.61129,0,0,1,29.5785,29.57762c0,16.02433-15.1852,41.87259-29.57235,61.12926a232.98742,232.98742,0,0,1-21.306-33.90635S352.52806,256.89857,352.77228,244.48609Z"></path><path class="bda6abcd-a93d-4cd3-a03d-c8da575951b0" d="M240.71742,16.71087c-51.97039,0-103.60906,17.0352-142.60815,51.25024-5.99918,5.26326-17.52848,16.31877-23.106,22.027-39.03379,39.94857-58.29245,94.83964-58.29245,150.72928A223.88553,223.88553,0,0,0,240.71737,464.7239"></path></svg>