<svg xmlns="http://www.w3.org/2000/svg" id="af20823a-4d18-4ed5-ad22-3d36fdd92040" data-name="Layer 2" viewBox="0 0 480.001 480.001"><path d="M204.955,124.69m0,0H44.0323A29.0323,29.0323,0,0,0,15,153.7222V400.4964a29.0322,29.0322,0,0,0,29.0323,29.0322H435.9677A29.0322,29.0322,0,0,0,465,400.4964V153.7222A29.0323,29.0323,0,0,0,435.9677,124.69H264.0127" style="fill:none;stroke:#fff;stroke-linecap:round;stroke-linejoin:round;stroke-width:11px"></path><path d="M183.5339,306.1415H161.76v-9.1742a50.9511,50.9511,0,0,0,19.633-27.1161" style="fill:none;stroke:#fff;stroke-linecap:round;stroke-linejoin:round;stroke-width:11px"></path><path d="M38.3726,393.2383a7.2581,7.2581,0,0,0,7.258,7.2581H219.8242a7.2581,7.2581,0,0,0,7.258-7.2581V349.69a43.5919,43.5919,0,0,0-43.5483-43.5484" style="fill:none;stroke:#ff006e;stroke-linecap:round;stroke-linejoin:round;stroke-width:11px"></path><path d="M72.6814,226.506c-11.9454,1.0729-15.4851,10.0848-13.156,21.85,2.1642,10.9319,8.6389,20.7614,16.4884,21.5123a47.2264,47.2264,0,0,0,8.0846-.0171,50.9517,50.9517,0,0,0,19.5967,27.1161v9.1742H81.9209A43.5919,43.5919,0,0,0,38.3726,349.69v43.5484" style="fill:none;stroke:#fff;stroke-linecap:round;stroke-linejoin:round;stroke-width:11px"></path><path d="M181.3927,269.8512h4.1225c11.9934.0482,17.7307-8.374,20.9162-21.9259,2.52-10.7186-1.9951-20.0146-12.925-21.3467" style="fill:none;stroke:#fff;stroke-linecap:round;stroke-linejoin:round;stroke-width:11px"></path><line x1="182.6238" y1="264.9659" x2="192.0361" y2="231.746" style="fill:none;stroke:#fff;stroke-linecap:round;stroke-linejoin:round;stroke-width:11px"></line><line x1="74.782" y1="230.8847" x2="83.3946" y2="264.9659" style="fill:none;stroke:#fff;stroke-linecap:round;stroke-linejoin:round;stroke-width:11px"></line><path d="M74.1053,226.3028s34,3.4577,45.3544,3.0049c11.2-.4467,20.56-8.853,25.0621-19.1178,0,0,27.5824,17.4959,48.9846,16.3887" style="fill:none;stroke:#fff;stroke-linecap:round;stroke-linejoin:round;stroke-width:11px"></path><path d="M118.2113,303.9641a49.476,49.476,0,0,0,29.0322,0" style="fill:none;stroke:#ff006e;stroke-linecap:round;stroke-linejoin:round;stroke-width:11px"></path><path d="M423.05,167.7231H234.34a7.2581,7.2581,0,0,0-7.2581,7.258v87.0968a7.2581,7.2581,0,0,0,7.2581,7.2581H423.05a7.2581,7.2581,0,0,0,7.2581-7.2581V174.9811A7.2581,7.2581,0,0,0,423.05,167.7231Z" style="fill:none;stroke:#fff;stroke-linecap:round;stroke-linejoin:round;stroke-width:11px"></path><path d="M277.8887,240.3037A21.7742,21.7742,0,1,0,256.1145,218.53,21.7742,21.7742,0,0,0,277.8887,240.3037Z" style="fill:none;stroke:#fff;stroke-linecap:round;stroke-linejoin:round;stroke-width:11px"></path><path d="M321.4371,205.5138h79.8387" style="fill:none;stroke:#ff006e;stroke-linecap:round;stroke-linejoin:round;stroke-width:11px"></path><path d="M321.4371,229.1369h79.8387" style="fill:none;stroke:#fff;stroke-linecap:round;stroke-linejoin:round;stroke-width:11px"></path><path d="M279.9787,312.319h75.83" style="fill:none;stroke:#fff;stroke-linecap:round;stroke-linejoin:round;stroke-width:11px"></path><path d="M386.76,312.319h43.5484" style="fill:none;stroke:#fff;stroke-linecap:round;stroke-linejoin:round;stroke-width:11px"></path><path d="M256.1145,341.3512H430.3081" style="fill:none;stroke:#ff006e;stroke-linecap:round;stroke-linejoin:round;stroke-width:11px"></path><path d="M256.1145,370.3835H430.3081" style="fill:none;stroke:#fff;stroke-linecap:round;stroke-linejoin:round;stroke-width:11px"></path><path d="M256.1145,399.4158H430.3081" style="fill:none;stroke:#ff006e;stroke-linecap:round;stroke-linejoin:round;stroke-width:11px"></path><line x1="277.8887" y1="145.6914" x2="190.9288" y2="145.6914" style="fill:none;stroke:#fff;stroke-linecap:round;stroke-linejoin:round;stroke-width:11px"></line><path d="M204.955,138.8531V80.7783a29.5275,29.5275,0,0,1,29.5275-29.5274h.0027a29.5275,29.5275,0,0,1,29.5275,29.5274v58.0748" style="fill:none;stroke:#fff;stroke-linecap:round;stroke-linejoin:round;stroke-width:11px"></path><circle cx="234.9556" cy="80.7593" r="9.4976" style="fill:none;stroke:#ff006e;stroke-linecap:round;stroke-linejoin:round;stroke-width:8px"></circle><path d="M193.5064,226.5786s5.426-16.965,0-35.0657c-7.7451-25.8377-14.9818-34.6877-40.9651-40.7657a40.2394,40.2394,0,0,0-33.4045,6.8075c-16.7945-7.5667-27.139,5.5457-37.4647,15.8718-13.1035,14.58-8.9907,53.0795-8.9907,53.0795" style="fill:none;stroke:#ff006e;stroke-linecap:round;stroke-linejoin:round;stroke-width:11px"></path></svg>