<svg xmlns="http://www.w3.org/2000/svg" id="ac4b8108-c90e-40a4-b1c9-ae8f0f80ff2e" data-name="Layer 2" viewBox="0 0 480 571.24"><path d="M340.86,292.89l57.48-33.8" style="fill:none;stroke:#ff006e;stroke-linecap:round;stroke-linejoin:round;stroke-width:10px"></path><polyline points="287.22 249.8 268.61 249.8 278.77 193.05" style="fill:none;stroke:#fff;stroke-linecap:round;stroke-linejoin:round;stroke-width:10px"></polyline><polygon points="217.55 249.8 242.14 193.05 268.61 249.8 217.55 249.8" style="fill:none;stroke:#fff;stroke-linecap:round;stroke-linejoin:round;stroke-width:10px"></polygon><polyline points="205.51 193.05 217.55 249.8 187.11 249.8" style="fill:none;stroke:#fff;stroke-linecap:round;stroke-linejoin:round;stroke-width:10px"></polyline><line x1="296.17" y1="344.72" x2="188.26" y2="344.72" style="fill:none;stroke:#ff006e;stroke-linecap:round;stroke-linejoin:round;stroke-width:10px"></line><line x1="260.18" y1="111.95" x2="224.11" y2="111.95" style="fill:none;stroke:#fff;stroke-linecap:round;stroke-linejoin:round;stroke-width:10px"></line><line x1="224.82" y1="28.69" x2="260.89" y2="28.69" style="fill:none;stroke:#fff;stroke-linecap:round;stroke-linejoin:round;stroke-width:10px"></line><line x1="242.85" y1="10.65" x2="242.85" y2="56.63" style="fill:none;stroke:#fff;stroke-linecap:round;stroke-linejoin:round;stroke-width:10px"></line><line x1="108.15" y1="263.89" x2="108.15" y2="370.34" style="fill:none;stroke:#fff;stroke-linecap:round;stroke-linejoin:round;stroke-width:10px"></line><line x1="89.58" y1="233.07" x2="126.94" y2="233.07" style="fill:none;stroke:#fff;stroke-linecap:round;stroke-linejoin:round;stroke-width:10px"></line><path d="M108.15,262.87l.13-48.5" style="fill:none;stroke:#fff;stroke-linecap:round;stroke-linejoin:round;stroke-width:10px"></path><line x1="380.2" y1="443.15" x2="380.2" y2="476.12" style="fill:none;stroke:#fff;stroke-linecap:round;stroke-linejoin:round;stroke-width:10px"></line><path d="M193.88,290.44c5.68.48,20.22,2.85,24.72,6.67a4.3,4.3,0,0,0,5.63,0,27.38,27.38,0,0,1,35.82,0,4.29,4.29,0,0,0,5.62,0c4.48-3.79,19.05-6.18,24.73-6.67" style="fill:none;stroke:#fff;stroke-linecap:round;stroke-linejoin:round;stroke-width:10px"></path><line x1="197.06" y1="249.8" x2="287.22" y2="249.8" style="fill:none;stroke:#ff006e;stroke-linecap:round;stroke-linejoin:round;stroke-width:10px"></line><line x1="224.11" y1="139.8" x2="260.18" y2="139.8" style="fill:none;stroke:#fff;stroke-linecap:round;stroke-linejoin:round;stroke-width:10px"></line><line x1="380.3" y1="190.47" x2="380.3" y2="234.72" style="fill:none;stroke:#fff;stroke-linecap:round;stroke-linejoin:round;stroke-width:10px"></line><line x1="362.26" y1="208.51" x2="398.34" y2="208.51" style="fill:none;stroke:#fff;stroke-linecap:round;stroke-linejoin:round;stroke-width:10px"></line><path d="M349.09,324.11l67.47-38.49" style="fill:none;stroke:#fff;stroke-linecap:round;stroke-linejoin:round;stroke-width:10px"></path><path d="M358.81,332.74a40.39,40.39,0,0,0,42.78.12l9.72-8.51" style="fill:none;stroke:#fff;stroke-linecap:round;stroke-linejoin:round;stroke-width:10px"></path><path d="M71.46,357.09l9.72,6.7C72.4,356.45,70.73,340.39,76,331c7.34-13.16,14.14-21.92,17.87-28.27,11.2-19.08,13.42-38.85,14.3-39.83" style="fill:none;stroke:#ff006e;stroke-linecap:round;stroke-linejoin:round;stroke-width:10px"></path><path d="M81.18,363.79a59.34,59.34,0,0,0,54.2,0l9.71-6.71" style="fill:none;stroke:#ff006e;stroke-linecap:round;stroke-linejoin:round;stroke-width:10px"></path><path d="M220.54,455.86V411.39A20.5,20.5,0,0,1,241,390.9h0a20.49,20.49,0,0,1,20.49,20.49v44.47" style="fill:none;stroke:#fff;stroke-linecap:round;stroke-linejoin:round;stroke-width:10px"></path><line x1="178.49" y1="459.64" x2="307.84" y2="459.64" style="fill:none;stroke:#ff006e;stroke-linecap:round;stroke-linejoin:round;stroke-width:10px"></line><line x1="176.44" y1="386.63" x2="307.84" y2="386.63" style="fill:none;stroke:#fff;stroke-linecap:round;stroke-linejoin:round;stroke-width:10px"></line><path d="M66.58,552.78V527.62A11.6,11.6,0,0,1,78.18,516h0a11.6,11.6,0,0,1,11.6,11.6v25.16" style="fill:none;stroke:#fff;stroke-linecap:round;stroke-linejoin:round;stroke-width:10px"></path><path d="M121.52,552.78V527.62A11.6,11.6,0,0,1,133.13,516h0a11.6,11.6,0,0,1,11.6,11.6v25.16" style="fill:none;stroke:#ff006e;stroke-linecap:round;stroke-linejoin:round;stroke-width:10px"></path><path d="M176.46,552.78V527.63A11.61,11.61,0,0,1,188.07,516h0a11.61,11.61,0,0,1,11.62,11.61v25.15" style="fill:none;stroke:#fff;stroke-linecap:round;stroke-linejoin:round;stroke-width:10px"></path><path d="M231.39,552.78V527.64A11.63,11.63,0,0,1,243,516h0a11.62,11.62,0,0,1,11.62,11.62v25.14" style="fill:none;stroke:#ff006e;stroke-linecap:round;stroke-linejoin:round;stroke-width:10px"></path><path d="M286.33,552.78V527.65A11.63,11.63,0,0,1,298,516h0a11.63,11.63,0,0,1,11.64,11.63v25.13" style="fill:none;stroke:#fff;stroke-linecap:round;stroke-linejoin:round;stroke-width:10px"></path><path d="M341.27,552.78V527.66A11.64,11.64,0,0,1,352.91,516h0a11.64,11.64,0,0,1,11.64,11.64v25.12" style="fill:none;stroke:#ff006e;stroke-linecap:round;stroke-linejoin:round;stroke-width:10px"></path><path d="M396.21,552.78V527.66A11.64,11.64,0,0,1,407.85,516h0a11.65,11.65,0,0,1,11.65,11.64v25.12" style="fill:none;stroke:#fff;stroke-linecap:round;stroke-linejoin:round;stroke-width:10px"></path><line x1="380.3" y1="352.29" x2="380.3" y2="373.39" style="fill:none;stroke:#ff006e;stroke-linecap:round;stroke-linejoin:round;stroke-width:10px"></line><path d="M242.85,56.63c-2.09,5.19-9.54,10.42-14.37,15.41-6.44,6.66-10.7,14.5-10.7,22.18,0,6.24,2.4,13.39,6.33,17.73V139.8l-35,100.28h-2a4.86,4.86,0,1,0,0,9.72h9.95l-8.95,94.92H181.3a4.85,4.85,0,0,0-4.86,4.86V494.05H150.59V437.49a4.85,4.85,0,0,0-.11-9.7h-5.39V357.08" style="fill:none;stroke:#ff006e;stroke-linecap:round;stroke-linejoin:round;stroke-width:10px"></path><path d="M435.91,556.55a4.87,4.87,0,0,0,4.86-4.86V498.91a4.86,4.86,0,0,0-4.86-4.86h-4.64V418.76h2.8a4.86,4.86,0,0,0,4.65-6.29l-11-35.65a4.86,4.86,0,0,0-4.65-3.43H411.31v-49" style="fill:none;stroke:#ff006e;stroke-linecap:round;stroke-linejoin:round;stroke-width:10px"></path><line x1="411.31" y1="373.39" x2="349.09" y2="373.39" style="fill:none;stroke:#ff006e;stroke-linecap:round;stroke-linejoin:round;stroke-width:10px"></line><line x1="329.32" y1="418.77" x2="431.27" y2="418.76" style="fill:none;stroke:#ff006e;stroke-linecap:round;stroke-linejoin:round;stroke-width:10px"></line><path d="M135.38,363.79c8.77-7.34,10.45-23.4,5.2-32.82-7.35-13.16-14.15-21.92-17.88-28.27-11.2-19.08-13.41-38.85-14.3-39.83" style="fill:none;stroke:#ff006e;stroke-linecap:round;stroke-linejoin:round;stroke-width:10px"></path><path d="M380.3,234.72c-3.74,9.58-14.38,19.88-22,29-9.86,11.85-17.81,24.12-17.81,36.23a38.29,38.29,0,0,0,8.59,24.14v49.28H337.35a4.87,4.87,0,0,0-4.65,3.43l-11,35.65a4.86,4.86,0,0,0,4.64,6.3h3v75.28H307.84V349.58a4.86,4.86,0,0,0-4.85-4.86h-6.82l-8.95-94.92h9.95a4.86,4.86,0,0,0,0-9.72h-2l-35-100.27V112a24.29,24.29,0,0,0,7.75-17.73c0-7.6-4.34-15.35-10.73-22-4.62-4.83-12.46-10.47-14.35-15.56" style="fill:none;stroke:#fff;stroke-linecap:round;stroke-linejoin:round;stroke-width:10px"></path><path d="M411.31,324.35A38.27,38.27,0,0,0,420.1,300c0-12-8.33-23.88-17.84-36-7.59-9.64-18.6-19.84-22-29.29" style="fill:none;stroke:#fff;stroke-linecap:round;stroke-linejoin:round;stroke-width:10px"></path><path d="M108.15,262.87c-4.82,10-15.82,17.61-26.79,28.49-12.5,12.4-23,25.37-23,38.29,0,10.56,5,20.2,13.1,27.44v70.7H66.08a4.85,4.85,0,0,0-.11,9.7v56.56H48.37a4.85,4.85,0,0,0-4.86,4.86v52.78a4.86,4.86,0,0,0,4.86,4.86H435.91" style="fill:none;stroke:#fff;stroke-linecap:round;stroke-linejoin:round;stroke-width:10px"></path><path d="M145.09,357.08c8.13-7.24,13.1-16.87,13.1-27.43,0-12.76-9.87-26.37-23-38-10.41-9.19-22.65-18.91-27-28.78" style="fill:none;stroke:#fff;stroke-linecap:round;stroke-linejoin:round;stroke-width:10px"></path><line x1="65.97" y1="494.05" x2="431.27" y2="494.05" style="fill:none;stroke:#fff;stroke-linecap:round;stroke-linejoin:round;stroke-width:10px"></line><line x1="141.72" y1="431.57" x2="66.58" y2="431.57" style="fill:none;stroke:#fff;stroke-linecap:round;stroke-linejoin:round;stroke-width:10px"></line><line x1="104.15" y1="459.64" x2="104.15" y2="480.97" style="fill:none;stroke:#fff;stroke-linecap:round;stroke-linejoin:round;stroke-width:10px"></line></svg>