<svg xmlns="http://www.w3.org/2000/svg" id="a13f6eba-9cb0-4a8d-9dcf-c441b8f7ef0e" data-name="Слой 3" viewBox="0 0 480.00101 480.00101"><defs><style>.aa03c0bb-0b17-456d-b0c4-6b4777a547c1,.e66cbda5-78de-4be9-9fd1-d2eebc7f7d2b{fill:none;stroke-linecap:round;stroke-linejoin:round;stroke-width:13px;}.aa03c0bb-0b17-456d-b0c4-6b4777a547c1{stroke:#fff;}.e66cbda5-78de-4be9-9fd1-d2eebc7f7d2b{stroke:#ff006e;}</style></defs><path class="aa03c0bb-0b17-456d-b0c4-6b4777a547c1" d="M459.85542,275.64532v-90.2427H440.65134V104.32427H423.2221V43.00871H114.05243V73.66606H89.753v59.25406H70.54887V236.42525a63.72163,63.72163,0,0,0-24.78095,50.42787v19.64177H20.43426V443.05445H183.69981a15.03294,15.03294,0,0,0,14.88883-13.13886"></path><path class="aa03c0bb-0b17-456d-b0c4-6b4777a547c1" d="M64.8057,306.06024V289.54831a44.19354,44.19354,0,0,1,88.38707,0v16.51193Z"></path><polyline class="aa03c0bb-0b17-456d-b0c4-6b4777a547c1" points="363.699 104.324 131.482 104.324 131.482 132.92"></polyline><line class="aa03c0bb-0b17-456d-b0c4-6b4777a547c1" x1="423.2221" y1="104.32428" x2="398.9218" y2="104.32428"></line><line class="e66cbda5-78de-4be9-9fd1-d2eebc7f7d2b" x1="131.48164" y1="73.2845" x2="363.6988" y2="73.2845"></line><path class="e66cbda5-78de-4be9-9fd1-d2eebc7f7d2b" d="M411.072,185.40264H256.25322l-22.553-44.27941a14.95168,14.95168,0,0,0-13.38345-8.2031H131.48164"></path><path class="aa03c0bb-0b17-456d-b0c4-6b4777a547c1" d="M392.279,146.49543H278.02828"></path><path class="aa03c0bb-0b17-456d-b0c4-6b4777a547c1" d="M419.5128,340.79636H290.35215v48.8384H419.5128Z"></path><line class="e66cbda5-78de-4be9-9fd1-d2eebc7f7d2b" x1="290.35215" y1="310.91997" x2="419.5128" y2="310.91997"></line><path class="e66cbda5-78de-4be9-9fd1-d2eebc7f7d2b" d="M198.7191,429.91559V306.49573H173.3863V287.73221c0-34.69381-27.34093-63.70043-62.0214-64.66218a63.449,63.449,0,0,0-27.94321,5.60441"></path><path class="e66cbda5-78de-4be9-9fd1-d2eebc7f7d2b" d="M198.58864,429.91559H459.85542V305.68385"></path></svg>