<svg xmlns="http://www.w3.org/2000/svg" id="Слой_2" data-name="Слой 2" viewBox="0 0 480 480"><defs><style>.cls-1,.cls-2{fill:none;stroke-linecap:round;stroke-linejoin:round;stroke-width:13px;}.cls-1{stroke:#ff006e;}.cls-2{stroke:#fff;}</style></defs><path class="cls-1" d="M466.49,203.77l-22.19-.2,10.77-10.76-9.9-17.33c.76-1.65,1.46-3.33,2.09-5l19.23-5.26V124.72l-19.23-5.26c-.63-1.68-1.33-3.36-2.09-5l9.9-17.32L426.44,68.49,409.1,78.38c-1.66-.76-3.33-1.47-5-2.1l-5.26-19.23H369.07"></path><polyline class="cls-2" points="12.3 423.34 466.49 423.34 466.49 203.77"></polyline><line class="cls-1" x1="12.3" y1="115.69" x2="12.3" y2="423.34"></line><path class="cls-2" d="M369.07,57.05H358.34l-5.26,19.23q-2.52.94-5,2.1l-17.34-9.89L302.1,97.12l9.9,17.32c-.76,1.66-1.46,3.34-2.09,5l-19.23,5.26V145H217.42V115.69l-205.12,0"></path><line class="cls-1" x1="317.05" y1="196.24" x2="293.61" y2="196.24"></line><line class="cls-2" x1="273.09" y1="196.24" x2="249.65" y2="196.24"></line><line class="cls-2" x1="230.6" y1="196.24" x2="218.88" y2="196.24"></line><polyline class="cls-2" points="217.42 232.87 217.42 218.22 334.63 218.22 334.63 174.27 217.42 174.27"></polyline><line class="cls-2" x1="217.42" y1="286.23" x2="334.63" y2="286.23"></line><polyline class="cls-2" points="217.42 394.04 334.63 394.04 334.63 350.08 217.42 350.08"></polyline><path class="cls-1" d="M363.93,170.26V146.47l-14.51-.12"></path><line class="cls-1" x1="419.61" y1="255.05" x2="396.17" y2="255.05"></line><line class="cls-2" x1="377.12" y1="255.05" x2="365.4" y2="255.05"></line><polyline class="cls-2" points="363.93 291.48 363.93 276.83 437.19 276.83 437.19 232.87 363.93 232.87"></polyline><line class="cls-2" x1="363.93" y1="313.99" x2="437.19" y2="313.99"></line><polyline class="cls-2" points="363.93 394.04 437.19 394.04 437.19 350.08 363.93 350.08"></polyline><path class="cls-2" d="M363.93,186.36a43.93,43.93,0,1,0-29.3-41.4H290.68"></path><rect class="cls-2" x="41.6" y="144.96" width="146.52" height="43.95"></rect><line class="cls-2" x1="126.58" y1="166.94" x2="103.14" y2="166.94"></line><line class="cls-1" x1="170.53" y1="166.94" x2="147.09" y2="166.94"></line><line class="cls-2" x1="82.62" y1="166.94" x2="59.18" y2="166.94"></line><path class="cls-2" d="M43.24,260.14H189.75"></path><path class="cls-2" d="M41.6,387.55H188.12V327.27H41.6Z"></path><path class="cls-2" d="M113.39,357.41H101.67"></path><path class="cls-1" d="M142.7,357.41H131"></path><path class="cls-2" d="M84.09,357.41H72.37"></path><line class="cls-1" x1="217.42" y1="144.96" x2="217.42" y2="423.34"></line><line class="cls-1" x1="363.93" y1="170.26" x2="363.93" y2="423.34"></line></svg>