<svg width="117" height="118" viewBox="0 0 117 118" fill="none" xmlns="http://www.w3.org/2000/svg">
<path d="M96.1416 26H112.578" stroke="white" stroke-width="2" stroke-linecap="round" stroke-linejoin="round"/>
<path d="M5.44043 26H23.8355" stroke="#FF006E" stroke-width="2" stroke-linecap="round" stroke-linejoin="round"/>
<path d="M95.3027 62.4811H112.579" stroke="#FF006E" stroke-width="2" stroke-linecap="round" stroke-linejoin="round"/>
<path d="M5.44043 62.4811H12.7845" stroke="#FF006E" stroke-width="2" stroke-linecap="round" stroke-linejoin="round"/>
<path d="M93.9033 97.4524H112.578" stroke="white" stroke-width="2" stroke-linecap="round" stroke-linejoin="round"/>
<path d="M5.44043 97.4524H23.276" stroke="white" stroke-width="2" stroke-linecap="round" stroke-linejoin="round"/>
<path d="M76.9297 12.752C67.6579 7.51659 52.6553 7.34563 43.265 12.3711C38.5671 14.8831 35.9595 18.322 35.9172 22.0514C35.1035 22.9392 33.6035 25.9392 33.6035 25.9392C33.6035 25.9392 32.3551 28.6381 32.214 31.3222C32.1173 31.5414 32.1911 27.0087 31.4996 93.2028C31.4512 97.4764 34.362 101.488 39.6956 104.5C50.8764 110.813 69.0748 110.677 79.6327 104.366C83.5769 102.008 86.9963 98.4121 87.0489 93.8331C87.8568 27.7993 87.8617 33.2632 87.7127 31.4622C87.5937 30.0243 86.8986 27.5711 85.9995 26C85.2885 24.7574 84.9837 24.441 83.9995 23C82.9995 17.5 81.3565 15.2518 76.9297 12.752Z" stroke="white" stroke-width="2" stroke-linecap="round" stroke-linejoin="round"/>
<path d="M36.0601 25.6238C37.1227 28.004 39.2965 30.1818 42.4392 31.9566C52.0582 37.3883 67.7757 37.3456 77.0329 31.8122C79.7802 30.1701 81.6999 28.1843 82.6861 26.0107" stroke="white" stroke-width="2" stroke-linecap="round" stroke-linejoin="round"/>
<path d="M33.1484 37.0896C34.5164 39.3084 36.7619 41.3404 39.7889 43.0499C50.503 49.1002 67.8466 49.2949 78.6939 43.4902C81.3012 42.0941 83.846 40.1839 85.4672 37.6838" stroke="white" stroke-width="2" stroke-linecap="round" stroke-linejoin="round"/>
<path d="M32.6733 82.5338C42.4617 92.4444 66.6381 94.1492 80.1555 86.0693C81.931 85.0368 83.5385 83.7399 84.9223 82.2234" stroke="white" stroke-width="2" stroke-linecap="round" stroke-linejoin="round"/>
<path d="M33.1836 90.2819C42.972 100.193 67.1484 101.897 80.6657 93.8175C82.4413 92.7849 84.0487 91.488 85.4326 89.9716" stroke="#FF006E" stroke-width="2" stroke-linecap="round" stroke-linejoin="round"/>
<path d="M33.0044 50.8045C35.3991 52.9788 38.7475 54.8742 42.8218 56.3456C56.1461 61.1573 71.7651 59.5956 80.9829 54.0858C82.5685 53.1581 84.023 52.0233 85.3081 50.7117" stroke="white" stroke-width="2" stroke-linecap="round" stroke-linejoin="round"/>
<path d="M59.8179 18.3268C57.8524 18.3041 55.994 18.707 54.5848 19.4609C53.1074 20.2525 52.2856 21.3402 52.272 22.519C52.3117 23.4094 52.6893 24.2513 53.3282 24.8738C54.5797 26.1785 56.7302 26.8589 59.7202 26.8959C61.8359 26.9222 63.8354 26.4393 65.244 25.5973C66.3317 24.9472 67.2518 23.956 67.2661 22.6959" stroke="white" stroke-width="2" stroke-linecap="round" stroke-linejoin="round"/>
<path d="M60.0983 12.6507C55.5915 12.5985 51.3301 13.5221 48.0988 15.251C44.7111 17.0662 42.8266 19.5604 42.7955 22.2632C42.7921 22.377 42.738 25.0778 45.2172 27.6629C48.087 30.6546 53.0181 32.2146 59.8742 32.2996C64.7255 32.3598 69.3102 31.2526 72.5401 29.322C75.0343 27.8312 77.1442 25.5583 77.177 22.6689" stroke="#FF006E" stroke-width="2" stroke-linecap="round" stroke-linejoin="round"/>
<path d="M70.6786 61.1412C65.4497 63.4188 56.9539 62.2636 56.8689 62.2516C56.7141 62.2299 56.5563 62.2521 56.4136 62.3157C56.2708 62.3792 56.1489 62.4816 56.0616 62.6111L48.5278 73.8024C48.4442 73.9268 48.3958 74.0715 48.3878 74.2212C48.3798 74.3708 48.4124 74.5198 48.4821 74.6525C48.5519 74.7852 48.6563 74.8966 48.7843 74.9749C48.9123 75.0532 49.059 75.0956 49.2091 75.0975L53.1081 75.1433L47.6739 84.5163C47.5818 84.6762 47.5456 84.8621 47.5708 85.0449C47.5961 85.2276 47.6814 85.3967 47.8134 85.5257C47.9454 85.6548 48.1167 85.7363 48.3002 85.7576C48.4837 85.779 48.6691 85.7388 48.8272 85.6435L67.5552 74.2805C67.7092 74.1864 67.8285 74.0449 67.895 73.8772C67.9615 73.7096 67.9717 73.5249 67.924 73.351C67.8763 73.1771 67.7733 73.0234 67.6306 72.913C67.4878 72.8026 67.313 72.7414 67.1324 72.7388L63.0114 72.6905L71.6488 62.4382C71.7698 62.2947 71.8385 62.1145 71.8439 61.9271C71.8494 61.7396 71.7912 61.5559 71.6788 61.4056C71.5663 61.2554 71.4064 61.1475 71.2248 61.0995C71.0432 61.0515 70.8507 61.0662 70.6786 61.1412Z" stroke="#FF006E" stroke-width="2" stroke-linecap="round" stroke-linejoin="round"/>
<path d="M101.723 90.8708C107.304 90.8329 109.85 90.7858 112.159 90.7858" stroke="white" stroke-width="2" stroke-linecap="round" stroke-linejoin="round"/>
<path d="M11.7236 50.7117C14.0833 55.5633 16.9448 60.1552 20.2612 64.4126" stroke="white" stroke-width="2" stroke-linecap="round" stroke-linejoin="round"/>
<path d="M6.53906 37.1824C7.4748 40.9151 7.91139 41.7925 9.34102 45.3487" stroke="white" stroke-width="2" stroke-linecap="round" stroke-linejoin="round"/>
<path d="M96.4761 80.9412C99.1697 80.9106 111.306 80.8193 114 80.8193" stroke="white" stroke-width="2" stroke-linecap="round" stroke-linejoin="round"/>
<path d="M23.1025 38.4862C23.5938 39.9873 24.1202 41.4702 24.6819 42.9347" stroke="white" stroke-width="2" stroke-linecap="round" stroke-linejoin="round"/>
<path d="M98.9319 93.5716C100.473 93.5716 101.722 92.3243 101.722 90.7858C101.722 89.2472 100.473 88 98.9319 88C97.3909 88 96.1416 89.2472 96.1416 90.7858C96.1416 92.3243 97.3909 93.5716 98.9319 93.5716Z" stroke="white" stroke-width="2" stroke-linecap="round" stroke-linejoin="round"/>
<path d="M10.3987 50.7115C11.9398 50.7115 13.1891 49.4642 13.1891 47.9257C13.1891 46.3871 11.9398 45.1399 10.3987 45.1399C8.85768 45.1399 7.6084 46.3871 7.6084 47.9257C7.6084 49.4642 8.85768 50.7115 10.3987 50.7115Z" stroke="#FF006E" stroke-width="2" stroke-linecap="round" stroke-linejoin="round"/>
<path d="M22.3206 38.2546C23.8603 38.1897 25.056 36.891 24.9913 35.3539C24.9266 33.8167 23.6259 32.6231 22.0862 32.6879C20.5465 32.7527 19.3508 34.0514 19.4155 35.5886C19.4803 37.1258 20.7809 38.3194 22.3206 38.2546Z" stroke="#FF006E" stroke-width="2" stroke-linecap="round" stroke-linejoin="round"/>
<path d="M5.79034 37.1823C7.33141 37.1823 8.58069 35.9351 8.58069 34.3965C8.58069 32.858 7.33141 31.6107 5.79034 31.6107C4.24928 31.6107 3 32.858 3 34.3965C3 35.9351 4.24928 37.1823 5.79034 37.1823Z" stroke="#FF006E" stroke-width="2" stroke-linecap="round" stroke-linejoin="round"/>
<path d="M21.8333 69.499C23.3744 69.499 24.6237 68.2517 24.6237 66.7132C24.6237 65.1746 23.3744 63.9274 21.8333 63.9274C20.2922 63.9274 19.043 65.1746 19.043 66.7132C19.043 68.2517 20.2922 69.499 21.8333 69.499Z" stroke="white" stroke-width="2" stroke-linecap="round" stroke-linejoin="round"/>
<path d="M6.72589 80.4007C8.26695 80.4007 9.51623 79.1534 9.51623 77.6149C9.51623 76.0763 8.26695 74.8291 6.72589 74.8291C5.18483 74.8291 3.93555 76.0763 3.93555 77.6149C3.93555 79.1534 5.18483 80.4007 6.72589 80.4007Z" stroke="white" stroke-width="2" stroke-linecap="round" stroke-linejoin="round"/>
<path d="M8.78662 79.3784C12.4953 83.3082 14.8222 85.0912 19.2546 88.1586" stroke="white" stroke-width="2" stroke-linecap="round" stroke-linejoin="round"/>
<path d="M21.4417 92.6735C22.9828 92.6735 24.232 91.4263 24.232 89.8877C24.232 88.3492 22.9828 87.1019 21.4417 87.1019C19.9006 87.1019 18.6514 88.3492 18.6514 89.8877C18.6514 91.4263 19.9006 92.6735 21.4417 92.6735Z" stroke="#001F73" stroke-width="2" stroke-linecap="round" stroke-linejoin="round"/>
<path d="M39.5859 61.7697L45.0415 65.6801" stroke="white" stroke-width="2" stroke-linecap="round" stroke-linejoin="round"/>
<path d="M43.5897 75.3645L39.9531 76.2736" stroke="white" stroke-width="2" stroke-linecap="round" stroke-linejoin="round"/>
<path d="M73.5576 66.7133L80.1323 62.4812" stroke="white" stroke-width="2" stroke-linecap="round" stroke-linejoin="round"/>
<path d="M70.7729 75.3645L72.5912 76.2736" stroke="white" stroke-width="2" stroke-linecap="round" stroke-linejoin="round"/>
</svg>
