<svg width="135" height="114" viewBox="0 0 135 114" fill="none" xmlns="http://www.w3.org/2000/svg">
<path d="M130.895 35.5367V15.7704H132.104V4.3828H76.9346V15.7704H77.9722V110.074" stroke="white" stroke-width="2" stroke-linecap="round" stroke-linejoin="round"/>
<path d="M130.895 110.074V38.6423" stroke="white" stroke-width="2" stroke-linecap="round" stroke-linejoin="round"/>
<path d="M98.5335 19.7111H82.7705V33.5036H98.5335V19.7111Z" stroke="white" stroke-width="2" stroke-linecap="round" stroke-linejoin="round"/>
<path d="M98.5335 36.4592H82.7705V50.2518H98.5335V36.4592Z" stroke="white" stroke-width="2" stroke-linecap="round" stroke-linejoin="round"/>
<path d="M98.5335 53.2074H82.7705V67H98.5335V53.2074Z" stroke="white" stroke-width="2" stroke-linecap="round" stroke-linejoin="round"/>
<path d="M98.5335 69.9554H82.7705V83.748H98.5335V69.9554Z" stroke="white" stroke-width="2" stroke-linecap="round" stroke-linejoin="round"/>
<path d="M104.444 83.7481L104.444 19.7111" stroke="#FF006E" stroke-width="2" stroke-linecap="round" stroke-linejoin="round"/>
<path d="M126.118 53.2074H110.355V67H126.118V53.2074Z" stroke="white" stroke-width="2" stroke-linecap="round" stroke-linejoin="round"/>
<path d="M126.118 36.4592H110.355V50.2518H126.118V36.4592Z" stroke="white" stroke-width="2" stroke-linecap="round" stroke-linejoin="round"/>
<path d="M126.118 20.6963H110.355V33.5037H126.118V20.6963Z" stroke="white" stroke-width="2" stroke-linecap="round" stroke-linejoin="round"/>
<path d="M126.118 69.9554H110.355V83.748H126.118V69.9554Z" stroke="white" stroke-width="2" stroke-linecap="round" stroke-linejoin="round"/>
<path d="M132.104 15.7703H76.9346" stroke="#FF006E" stroke-width="2" stroke-linecap="round" stroke-linejoin="round"/>
<path d="M77.9727 88.3341H130.895" stroke="white" stroke-width="2" stroke-linecap="round" stroke-linejoin="round"/>
<path d="M87.8301 93.5103V96.6162H92.4997V110.074" stroke="#001F73" stroke-width="2" stroke-linecap="round" stroke-linejoin="round"/>
<path d="M116.367 110.074V96.6162H121.037V93.5103" stroke="#001F73" stroke-width="2" stroke-linecap="round" stroke-linejoin="round"/>
<path d="M102.877 96.616H95.6133V110.074H102.877V96.616Z" stroke="white" stroke-width="2" stroke-linecap="round" stroke-linejoin="round"/>
<path d="M113.254 96.616H105.99V110.074H113.254V96.616Z" stroke="white" stroke-width="2" stroke-linecap="round" stroke-linejoin="round"/>
<path d="M75.4619 110.074H134" stroke="white" stroke-width="2" stroke-linecap="round" stroke-linejoin="round"/>
<path d="M63.0664 110.348L68.9775 110.348" stroke="white" stroke-width="2" stroke-linecap="round" stroke-linejoin="round"/>
<path d="M60.1108 69.9554L60.1108 107.392" stroke="white" stroke-width="2" stroke-linecap="round" stroke-linejoin="round"/>
<path d="M60.1108 6.90356L60.1108 45.3258" stroke="white" stroke-width="2" stroke-linecap="round" stroke-linejoin="round"/>
<path d="M68.9775 4.19055L63.0664 4.19055" stroke="white" stroke-width="2" stroke-linecap="round" stroke-linejoin="round"/>
<path d="M64.0518 58.1332L72.9184 58.1332" stroke="white" stroke-width="2" stroke-linecap="round" stroke-linejoin="round"/>
<path d="M121.037 93.5105H87.8306" stroke="#FF006E" stroke-width="2" stroke-linecap="round" stroke-linejoin="round"/>
<path d="M27.6001 31.5333V54.1926" stroke="white" stroke-width="2" stroke-linecap="round" stroke-linejoin="round"/>
<path d="M47.3037 54.1926H6.91113V62.0741H47.3037V54.1926Z" stroke="white" stroke-width="2" stroke-linecap="round" stroke-linejoin="round"/>
<path d="M14.7926 60.1036C15.8808 60.1036 16.763 59.2214 16.763 58.1332C16.763 57.045 15.8808 56.1628 14.7926 56.1628C13.7044 56.1628 12.8223 57.045 12.8223 58.1332C12.8223 59.2214 13.7044 60.1036 14.7926 60.1036Z" stroke="white" stroke-width="2" stroke-linecap="round" stroke-linejoin="round"/>
<path d="M43.363 58.1332H27.6001" stroke="#FF006E" stroke-width="2" stroke-linecap="round" stroke-linejoin="round"/>
<path d="M9.8667 30.548C9.92589 28.3734 10.6428 26.2632 11.9287 24.4783C13.2147 22.6934 15.0133 21.3121 17.1023 20.5052C19.1913 19.6982 21.479 19.5009 23.6827 19.9378C25.8863 20.3746 27.9093 21.4264 29.5015 22.9631C32.3943 22.009 35.5605 22.2046 38.3042 23.507C41.048 24.8095 43.1447 27.1121 44.1338 29.9088C44.2052 30.1161 44.2767 30.3408 44.3303 30.5481H44.3482" stroke="white" stroke-width="2" stroke-linecap="round" stroke-linejoin="round"/>
<path d="M44.307 30.5481C46.567 30.5464 48.743 31.4013 50.3936 32.9394C52.0443 34.4775 53.0459 36.5837 53.1953 38.8306C53.3447 41.0775 52.6307 43.2969 51.1982 45.0386C49.7657 46.7803 47.7219 47.9138 45.4814 48.2092C45.0921 48.26 44.6997 48.2841 44.307 48.2812H9.905C7.58699 48.281 5.3604 47.3802 3.69828 45.7704C2.03615 44.1605 1.06947 41.9683 1.0036 39.6596C0.937733 37.3509 1.77787 35.1075 3.34553 33.4062C4.91319 31.7048 7.08482 30.6795 9.39907 30.5481" stroke="#FF006E" stroke-width="2" stroke-linecap="round" stroke-linejoin="round"/>
<path d="M27.6001 62.074V66.9999" stroke="white" stroke-width="2" stroke-linecap="round" stroke-linejoin="round"/>
<path d="M27.6001 75.8667V80.7926" stroke="white" stroke-width="2" stroke-linecap="round" stroke-linejoin="round"/>
<path d="M47.3037 66.9999H6.91113V75.8665H47.3037V66.9999Z" stroke="white" stroke-width="2" stroke-linecap="round" stroke-linejoin="round"/>
<path d="M14.7926 72.911C15.8808 72.911 16.763 72.0288 16.763 70.9406C16.763 69.8524 15.8808 68.9702 14.7926 68.9702C13.7044 68.9702 12.8223 69.8524 12.8223 70.9406C12.8223 72.0288 13.7044 72.911 14.7926 72.911Z" stroke="#FF006E" stroke-width="2" stroke-linecap="round" stroke-linejoin="round"/>
<path d="M43.3629 71.9258H26.6147" stroke="white" stroke-width="2" stroke-linecap="round" stroke-linejoin="round"/>
<path d="M47.3037 80.7925H6.91113V88.674H47.3037V80.7925Z" stroke="white" stroke-width="2" stroke-linecap="round" stroke-linejoin="round"/>
<path d="M14.7926 86.7037C15.8808 86.7037 16.763 85.8215 16.763 84.7333C16.763 83.6451 15.8808 82.7629 14.7926 82.7629C13.7044 82.7629 12.8223 83.6451 12.8223 84.7333C12.8223 85.8215 13.7044 86.7037 14.7926 86.7037Z" stroke="white" stroke-width="2" stroke-linecap="round" stroke-linejoin="round"/>
<path d="M43.363 84.7333H27.6001" stroke="#FF006E" stroke-width="2" stroke-linecap="round" stroke-linejoin="round"/>
<path d="M16.7627 36.4592V42.3703H37.4516V38.3239" stroke="white" stroke-width="2" stroke-linecap="round" stroke-linejoin="round"/>
<path d="M16.7628 36.4593C17.8511 36.4593 18.7332 35.5771 18.7332 34.4889C18.7332 33.4007 17.8511 32.5186 16.7628 32.5186C15.6746 32.5186 14.7925 33.4007 14.7925 34.4889C14.7925 35.5771 15.6746 36.4593 16.7628 36.4593Z" stroke="#FF006E" stroke-width="2" stroke-linecap="round" stroke-linejoin="round"/>
<path d="M37.4518 38.4295C38.54 38.4295 39.4222 37.5473 39.4222 36.4591C39.4222 35.3709 38.54 34.4888 37.4518 34.4888C36.3636 34.4888 35.4814 35.3709 35.4814 36.4591C35.4814 37.5473 36.3636 38.4295 37.4518 38.4295Z" stroke="#FF006E" stroke-width="2" stroke-linecap="round" stroke-linejoin="round"/>
<path d="M26.6149 31.5333C27.7031 31.5333 28.5853 30.6511 28.5853 29.5629C28.5853 28.4747 27.7031 27.5925 26.6149 27.5925C25.5267 27.5925 24.6445 28.4747 24.6445 29.5629C24.6445 30.6511 25.5267 31.5333 26.6149 31.5333Z" stroke="white" stroke-width="2" stroke-linecap="round" stroke-linejoin="round"/>
<path d="M60.1111 62.0741C62.2876 62.0741 64.0519 60.3098 64.0519 58.1334C64.0519 55.957 62.2876 54.1926 60.1111 54.1926C57.9347 54.1926 56.1704 55.957 56.1704 58.1334C56.1704 60.3098 57.9347 62.0741 60.1111 62.0741Z" stroke="#FF006E" stroke-width="2" stroke-linecap="round" stroke-linejoin="round"/>
<path d="M60.3896 112.319C61.6317 112.319 62.6386 111.314 62.6386 110.075C62.6386 108.836 61.6317 107.831 60.3896 107.831C59.1475 107.831 58.1406 108.836 58.1406 110.075C58.1406 111.314 59.1475 112.319 60.3896 112.319Z" stroke="#FF006E" stroke-width="2" stroke-linecap="round" stroke-linejoin="round"/>
<path d="M60.3896 6.46515C61.6317 6.46515 62.6386 5.46062 62.6386 4.22146C62.6386 2.98231 61.6317 1.97778 60.3896 1.97778C59.1475 1.97778 58.1406 2.98231 58.1406 4.22146C58.1406 5.46062 59.1475 6.46515 60.3896 6.46515Z" stroke="#FF006E" stroke-width="2" stroke-linecap="round" stroke-linejoin="round"/>
</svg>
