<svg width="122" height="121" viewBox="0 0 122 121" fill="none" xmlns="http://www.w3.org/2000/svg">
<path d="M48 53L48 61" stroke="white" stroke-width="2" stroke-linecap="round" stroke-linejoin="round"/>
<path d="M57.3445 73.865H16.3164V60.5H73.2938" stroke="white" stroke-width="2" stroke-linecap="round" stroke-linejoin="round"/>
<path d="M28.0628 70.0015C29.7792 70.0015 31.1705 68.6048 31.1705 66.882C31.1705 65.1592 29.7792 63.7626 28.0628 63.7626C26.3465 63.7626 24.9551 65.1592 24.9551 66.882C24.9551 68.6048 26.3465 70.0015 28.0628 70.0015Z" stroke="#FF006E" stroke-width="2" stroke-linecap="round" stroke-linejoin="round"/>
<path d="M62.9816 69.9728H47.9639V63.7626H67.8628" stroke="white" stroke-width="2" stroke-linecap="round" stroke-linejoin="round"/>
<path d="M20.0513 23.8967C20.1457 20.2946 21.2897 16.7993 23.3419 13.8428C25.3941 10.8863 28.2644 8.5983 31.5981 7.26164C34.9318 5.92497 38.5827 5.59824 42.0993 6.32184C45.616 7.04543 48.8443 8.78763 51.3852 11.3331C56.0017 9.75265 61.0544 10.0767 65.433 12.234C69.8115 14.3912 73.1577 18.2053 74.736 22.8378C74.8501 23.1812 74.9641 23.5533 75.0496 23.8967H75.0781" stroke="white" stroke-width="2" stroke-linecap="round" stroke-linejoin="round"/>
<path d="M29 37C29.0481 35.194 29.6302 33.4415 30.6744 31.9592C31.7187 30.4768 33.1792 29.3297 34.8755 28.6595C36.5718 27.9893 38.4296 27.8255 40.219 28.1883C42.0084 28.5511 43.6511 29.4246 44.944 30.7008C47.2931 29.9084 49.8641 30.0709 52.0921 31.1525C54.3201 32.2341 56.0228 34.1464 56.8259 36.4691C56.8839 36.6413 56.942 36.8278 56.9855 37H57" stroke="white" stroke-width="2" stroke-linecap="round" stroke-linejoin="round"/>
<path d="M75.1068 23.868C78.673 23.8654 82.1067 25.2244 84.7113 27.6695C87.3159 30.1146 88.8964 33.4626 89.1322 37.0344C89.3679 40.6061 88.2413 44.1342 85.9809 46.9028C83.7204 49.6715 80.4954 51.4734 76.9601 51.943C76.3457 52.0239 75.7265 52.0621 75.1068 52.0575H20.8212C17.1627 52.0583 13.6482 50.6269 11.0245 48.0677C8.40076 45.5085 6.87477 42.0231 6.77082 38.3523C6.66686 34.6815 7.99314 31.1147 10.4678 28.41C12.9424 25.7053 16.3703 24.0759 20.0229 23.868" stroke="#FF006E" stroke-width="2" stroke-linecap="round" stroke-linejoin="round"/>
<path d="M51.5 11.5C49 12 47.5 14 47 15.5" stroke="white" stroke-width="2" stroke-linecap="round" stroke-linejoin="round"/>
<path d="M56.8353 37C58.6531 36.9986 60.4033 37.7217 61.7309 39.0228C63.0585 40.3238 63.8641 42.1053 63.9843 44.0059C64.1045 45.9065 63.5302 47.7838 62.378 49.257C61.2258 50.7302 59.582 51.689 57.7799 51.9389C57.4668 51.9819 57.1511 52.0023 56.8353 51.9998H29.1647C27.2999 52.0002 25.5084 51.2386 24.1711 49.8768C22.8337 48.515 22.0559 46.6604 22.0029 44.7072C21.9499 42.7539 22.6259 40.856 23.8873 39.4168C25.1487 37.9776 26.896 37.1106 28.7578 37" stroke="#FF006E" stroke-width="2" stroke-linecap="round" stroke-linejoin="round"/>
<path d="M47.9922 73.865V81.449" stroke="white" stroke-width="2" stroke-linecap="round" stroke-linejoin="round"/>
<path d="M47.9922 94.7852V102.341" stroke="white" stroke-width="2" stroke-linecap="round" stroke-linejoin="round"/>
<path d="M54 94.8154H16.2314V81.4504H57" stroke="white" stroke-width="2" stroke-linecap="round" stroke-linejoin="round"/>
<path d="M27.9779 90.9217C29.6942 90.9217 31.0856 89.5251 31.0856 87.8023C31.0856 86.0795 29.6942 84.6829 27.9779 84.6829C26.2615 84.6829 24.8701 86.0795 24.8701 87.8023C24.8701 89.5251 26.2615 90.9217 27.9779 90.9217Z" stroke="#FF006E" stroke-width="2" stroke-linecap="round" stroke-linejoin="round"/>
<path d="M36.5594 90.9217C38.2757 90.9217 39.6671 89.5251 39.6671 87.8023C39.6671 86.0795 38.2757 84.6829 36.5594 84.6829C34.843 84.6829 33.4517 86.0795 33.4517 87.8023C33.4517 89.5251 34.843 90.9217 36.5594 90.9217Z" stroke="white" stroke-width="2" stroke-linecap="round" stroke-linejoin="round"/>
<path d="M36.1077 70.2389C37.8241 70.2389 39.2155 68.8423 39.2155 67.1194C39.2155 65.3966 37.8241 64 36.1077 64C34.3914 64 33 65.3966 33 67.1194C33 68.8423 34.3914 70.2389 36.1077 70.2389Z" stroke="white" stroke-width="2" stroke-linecap="round" stroke-linejoin="round"/>
<path d="M55.1839 90.8945H47.8789V84.6814H53" stroke="#FF006E" stroke-width="2" stroke-linecap="round" stroke-linejoin="round"/>
<path d="M68.9913 115.707H16.3169V102.342H55.5" stroke="white" stroke-width="2" stroke-linecap="round" stroke-linejoin="round"/>
<path d="M28.0345 111.813C29.7508 111.813 31.1422 110.417 31.1422 108.694C31.1422 106.971 29.7508 105.574 28.0345 105.574C26.3181 105.574 24.9268 106.971 24.9268 108.694C24.9268 110.417 26.3181 111.813 28.0345 111.813Z" stroke="#FF006E" stroke-width="2" stroke-linecap="round" stroke-linejoin="round"/>
<path d="M36.6165 111.813C38.3329 111.813 39.7243 110.417 39.7243 108.694C39.7243 106.971 38.3329 105.574 36.6165 105.574C34.9002 105.574 33.5088 106.971 33.5088 108.694C33.5088 110.417 34.9002 111.813 36.6165 111.813Z" stroke="white" stroke-width="2" stroke-linecap="round" stroke-linejoin="round"/>
<path d="M55.5002 111.786H47.9648V105.573H54.5002" stroke="white" stroke-width="2" stroke-linecap="round" stroke-linejoin="round"/>
<path d="M109.934 61.0511C110.046 61.0256 110.163 61.0227 110.277 61.0425C110.391 61.0623 110.5 61.1045 110.597 61.1666C110.695 61.2288 110.779 61.3096 110.846 61.4045C110.912 61.4995 110.959 61.6066 110.984 61.7199L113.034 70.9789" stroke="#FF006E" stroke-width="2" stroke-linecap="round" stroke-linejoin="round"/>
<path d="M68.9365 70.3102L109.934 61.0511" stroke="white" stroke-width="2" stroke-linecap="round" stroke-linejoin="round"/>
<path d="M62.1011 80.2235V75.2854C62.1008 75.0518 62.193 74.8277 62.3573 74.6624C62.5217 74.497 62.7447 74.404 62.9774 74.4037H114.226C114.458 74.4034 114.682 74.4959 114.846 74.6609C115.011 74.8259 115.104 75.0498 115.104 75.2833V99.9762C115.104 100.21 115.012 100.434 114.848 100.599C114.683 100.765 114.46 100.858 114.228 100.858H84.5329" stroke="white" stroke-width="2" stroke-linecap="round" stroke-linejoin="round"/>
<path d="M98.5127 54.9205C98.7188 54.8343 98.9497 54.8298 99.159 54.9079C99.3682 54.986 99.5402 55.1408 99.6401 55.3412L101.69 59.4564" stroke="#FF006E" stroke-width="2" stroke-linecap="round" stroke-linejoin="round"/>
<path d="M73.9146 65.2084L98.5127 54.9205" stroke="white" stroke-width="2" stroke-linecap="round" stroke-linejoin="round"/>
<path d="M81.4284 80.2822H73.2935" stroke="#FF006E" stroke-width="2" stroke-linecap="round" stroke-linejoin="round"/>
<path d="M89.6275 95.038C91.087 95.0381 92.5138 94.6036 93.7273 93.7897C94.9409 92.9758 95.8867 91.8189 96.4452 90.4654C97.0038 89.1119 97.1499 87.6226 96.8652 86.1857C96.5804 84.7488 95.8776 83.429 94.8456 82.3931C93.8135 81.3571 92.4986 80.6517 91.0672 80.3658C89.6357 80.08 88.1519 80.2267 86.8035 80.7874C85.4551 81.348 84.3026 82.2974 83.4917 83.5155C82.6808 84.7337 82.248 86.1658 82.248 87.6308C82.248 88.6035 82.4389 89.5668 82.8098 90.4654C83.1806 91.3641 83.7242 92.1807 84.4094 92.8685C85.0947 93.5564 85.9082 94.102 86.8035 94.4742C87.6988 94.8465 88.6584 95.0381 89.6275 95.038Z" stroke="white" stroke-width="2" stroke-linecap="round" stroke-linejoin="round"/>
<path d="M60.5 108C60.6858 108.65 63.6634 109.817 70.8626 109.817C78.0619 109.817 81.3142 108.633 81.5 108" stroke="#FF006E" stroke-width="2" stroke-linecap="round" stroke-linejoin="round"/>
<path d="M60.5 101.5C60.6858 102.15 63.6634 103.335 70.8627 103.335C78.0619 103.335 81.3142 102.133 81.5 101.5" stroke="white" stroke-width="2" stroke-linecap="round" stroke-linejoin="round"/>
<path d="M60.5 95C60.6858 95.6504 63.6634 96.8596 70.8626 96.8596C78.0619 96.8597 81.3142 95.6328 81.5 95" stroke="#FF006E" stroke-width="2" stroke-linecap="round" stroke-linejoin="round"/>
<path d="M59.7871 87.6331C60.0332 88.2964 63.7252 89.9769 70.8629 89.9769C78.0511 89.9769 81.7406 88.2705 81.9387 87.6541V87.647" stroke="white" stroke-width="2" stroke-linecap="round" stroke-linejoin="round"/>
<path d="M99.6382 94.9784H105.575L109.248 90.9456V84.2585L105.191 80.2822H99.6382" stroke="white" stroke-width="2" stroke-linecap="round" stroke-linejoin="round"/>
<path d="M91.522 85.1694C90.9247 83.8214 88.5432 84.0226 88.002 85.3125C87.8916 85.5964 87.8658 85.9065 87.928 86.2049C87.9901 86.5033 88.1375 86.7771 88.352 86.9929C88.9102 87.6027 89.8075 87.6204 90.4926 88.0298C90.7198 88.1536 90.9202 88.3215 91.0823 88.5236C91.2444 88.7258 91.3649 88.9583 91.4368 89.2075C91.6753 90.2235 90.9613 91.14 89.8676 91.2709C88.9818 91.3771 88.1552 91.1956 87.6187 90.4319" stroke="#FF006E" stroke-width="2" stroke-linecap="round" stroke-linejoin="round"/>
<path d="M89.6274 82.7667V84.262" stroke="#FF006E" stroke-width="2" stroke-linecap="round" stroke-linejoin="round"/>
<path d="M89.5703 91.2952V92.7145" stroke="#FF006E" stroke-width="2" stroke-linecap="round" stroke-linejoin="round"/>
<path d="M71.0613 82.7667C76.4934 82.7667 82.3355 84.0548 82.3355 86.8819V93.5L81.5002 95L82.3355 96.5V100L81.5002 101.5L82.3355 103V106.5L82.0002 108L82.3355 109V111.573C82.3355 114.4 76.4935 115.688 71.0613 115.688C65.6291 115.688 59.7871 114.4 59.7871 111.573V109.5L60.5002 108L59.7871 106.5V103L60.5002 102L59.7871 100V96.5L60.5002 95L59.7871 93.5V86.8819C59.7871 84.0548 65.6292 82.7667 71.0613 82.7667Z" stroke="white" stroke-width="2" stroke-linecap="round" stroke-linejoin="round"/>
<path d="M74.5 24C72.6667 23.8333 70 24.5 68 26.4999" stroke="white" stroke-width="2" stroke-linecap="round" stroke-linejoin="round"/>
</svg>
