<svg width="97" height="109" viewBox="0 0 97 109" fill="none" xmlns="http://www.w3.org/2000/svg">
<g clip-path="url(#clip0_1140:473)">
<path d="M41.6328 18.9722V54.1804" stroke="white" stroke-width="2" stroke-linecap="round" stroke-linejoin="round"/>
<path d="M64.5757 67.2818H10.1958V54.1804H73.0697V63.4945" stroke="white" stroke-width="2" stroke-linecap="round" stroke-linejoin="round"/>
<path d="M21.8644 63.4944C23.5693 63.4944 24.9515 62.1253 24.9515 60.4365C24.9515 58.7476 23.5693 57.3785 21.8644 57.3785C20.1595 57.3785 18.7773 58.7476 18.7773 60.4365C18.7773 62.1253 20.1595 63.4944 21.8644 63.4944Z" stroke="#FF006E" stroke-width="2" stroke-linecap="round" stroke-linejoin="round"/>
<path d="M30.3605 63.4944C32.0654 63.4944 33.4475 62.1253 33.4475 60.4365C33.4475 58.7476 32.0654 57.3785 30.3605 57.3785C28.6556 57.3785 27.2734 58.7476 27.2734 60.4365C27.2734 62.1253 28.6556 63.4944 30.3605 63.4944Z" stroke="white" stroke-width="2" stroke-linecap="round" stroke-linejoin="round"/>
<path d="M67.4338 57.3785H41.6328V63.4663H67.4338V57.3785Z" stroke="white" stroke-width="2" stroke-linecap="round" stroke-linejoin="round"/>
<path d="M13.9058 18.2988C13.9996 14.7678 15.136 11.3414 17.1745 8.44318C19.213 5.545 22.0643 3.30211 25.3758 1.9918C28.6873 0.681492 32.3138 0.361204 35.8071 1.07053C39.3004 1.77986 42.5072 3.48771 45.0312 5.98294C49.6169 4.43369 54.636 4.75134 58.9854 6.86608C63.3348 8.98082 66.6587 12.7196 68.2265 17.2608C68.3398 17.5975 68.4531 17.9622 68.5381 18.2988H68.5664" stroke="white" stroke-width="2" stroke-linecap="round" stroke-linejoin="round"/>
<path d="M68.5948 18.2708C72.1372 18.2681 75.548 19.6004 78.1353 21.9972C80.7226 24.3941 82.2926 27.6761 82.5268 31.1774C82.761 34.6788 81.6419 38.1373 79.3965 40.8513C77.1511 43.5654 73.9475 45.3318 70.4357 45.7921C69.8254 45.8714 69.2103 45.9089 68.5948 45.9043H14.6705C11.0364 45.9051 7.54523 44.502 4.93899 41.9932C2.33275 39.4844 0.816914 36.0678 0.713651 32.4694C0.610387 28.871 1.92783 25.3745 4.38599 22.7232C6.84415 20.0718 10.2492 18.4745 13.8775 18.2708" stroke="#FF006E" stroke-width="2" stroke-linecap="round" stroke-linejoin="round"/>
<path d="M41.6611 67.2819V74.7163" stroke="white" stroke-width="2" stroke-linecap="round" stroke-linejoin="round"/>
<path d="M41.6611 87.7896V95.1959" stroke="white" stroke-width="2" stroke-linecap="round" stroke-linejoin="round"/>
<path d="M50.4186 87.791V87.8191H10.1113V74.7177H55.1681" stroke="white" stroke-width="2" stroke-linecap="round" stroke-linejoin="round"/>
<path d="M21.7794 84.0022C23.4844 84.0022 24.8665 82.6331 24.8665 80.9443C24.8665 79.2554 23.4844 77.8864 21.7794 77.8864C20.0745 77.8864 18.6924 79.2554 18.6924 80.9443C18.6924 82.6331 20.0745 84.0022 21.7794 84.0022Z" stroke="#FF006E" stroke-width="2" stroke-linecap="round" stroke-linejoin="round"/>
<path d="M30.3038 84.0022C32.0088 84.0022 33.3909 82.6331 33.3909 80.9443C33.3909 79.2554 32.0088 77.8864 30.3038 77.8864C28.5989 77.8864 27.2168 79.2554 27.2168 80.9443C27.2168 82.6331 28.5989 84.0022 30.3038 84.0022Z" stroke="white" stroke-width="2" stroke-linecap="round" stroke-linejoin="round"/>
<path d="M50.7755 83.9756H41.5483V77.885H52.9902" stroke="#FF006E" stroke-width="2" stroke-linecap="round" stroke-linejoin="round"/>
<path d="M62.5201 108.299H10.1963V95.1974H51.812" stroke="white" stroke-width="2" stroke-linecap="round" stroke-linejoin="round"/>
<path d="M21.8361 104.482C23.541 104.482 24.9231 103.113 24.9231 101.424C24.9231 99.7352 23.541 98.3661 21.8361 98.3661C20.1311 98.3661 18.749 99.7352 18.749 101.424C18.749 103.113 20.1311 104.482 21.8361 104.482Z" stroke="#FF006E" stroke-width="2" stroke-linecap="round" stroke-linejoin="round"/>
<path d="M30.3605 104.482C32.0654 104.482 33.4475 103.113 33.4475 101.424C33.4475 99.7352 32.0654 98.3661 30.3605 98.3661C28.6556 98.3661 27.2734 99.7352 27.2734 101.424C27.2734 103.113 28.6556 104.482 30.3605 104.482Z" stroke="white" stroke-width="2" stroke-linecap="round" stroke-linejoin="round"/>
<path d="M59.0539 104.455H41.6333V98.3647H53.3782" stroke="white" stroke-width="2" stroke-linecap="round" stroke-linejoin="round"/>
<path d="M24.9229 27.2482V35.6084H58.2007V29.8853" stroke="white" stroke-width="2" stroke-linecap="round" stroke-linejoin="round"/>
<path d="M24.923 27.2763C26.6279 27.2763 28.01 25.9072 28.01 24.2183C28.01 22.5295 26.6279 21.1604 24.923 21.1604C23.2181 21.1604 21.8359 22.5295 21.8359 24.2183C21.8359 25.9072 23.2181 27.2763 24.923 27.2763Z" stroke="#FF006E" stroke-width="2" stroke-linecap="round" stroke-linejoin="round"/>
<path d="M58.2008 29.9134C59.9058 29.9134 61.2879 28.5443 61.2879 26.8554C61.2879 25.1666 59.9058 23.7975 58.2008 23.7975C56.4959 23.7975 55.1138 25.1666 55.1138 26.8554C55.1138 28.5443 56.4959 29.9134 58.2008 29.9134Z" stroke="#FF006E" stroke-width="2" stroke-linecap="round" stroke-linejoin="round"/>
<path d="M41.5763 18.9722C43.2812 18.9722 44.6634 17.6031 44.6634 15.9143C44.6634 14.2254 43.2812 12.8563 41.5763 12.8563C39.8714 12.8563 38.4893 14.2254 38.4893 15.9143C38.4893 17.6031 39.8714 18.9722 41.5763 18.9722Z" stroke="#FF006E" stroke-width="2" stroke-linecap="round" stroke-linejoin="round"/>
<path d="M74.916 76.3646V78.4532" stroke="#FF006E" stroke-width="2" stroke-linecap="round" stroke-linejoin="round"/>
<path d="M83.3984 79.1871L81.896 80.6754" stroke="white" stroke-width="2" stroke-linecap="round" stroke-linejoin="round"/>
<path d="M87.382 87.1246H85.1387" stroke="#FF006E" stroke-width="2" stroke-linecap="round" stroke-linejoin="round"/>
<path d="M81.8643 95.1302L83.3987 96.6502" stroke="white" stroke-width="2" stroke-linecap="round" stroke-linejoin="round"/>
<path d="M75.1299 97.2289V99.4726" stroke="#FF006E" stroke-width="2" stroke-linecap="round" stroke-linejoin="round"/>
<path d="M68.5505 93.8954L66.9033 95.527" stroke="white" stroke-width="2" stroke-linecap="round" stroke-linejoin="round"/>
<path d="M66.4297 87.1246H64.0537" stroke="#FF006E" stroke-width="2" stroke-linecap="round" stroke-linejoin="round"/>
<path d="M66.9033 80.3103L68.4106 81.8034" stroke="white" stroke-width="2" stroke-linecap="round" stroke-linejoin="round"/>
<path d="M74.916 81.2284V87.9187C74.916 88.023 74.9367 88.1263 74.977 88.2226C75.0173 88.319 75.0763 88.4066 75.1508 88.4803C75.2252 88.5541 75.3136 88.6126 75.4109 88.6525C75.5082 88.6924 75.6125 88.7129 75.7177 88.7129H79.2271" stroke="white" stroke-width="2" stroke-linecap="round" stroke-linejoin="round"/>
<path d="M91.6713 86.9469C91.4172 82.9033 89.6069 79.1104 86.6135 76.3497C83.6201 73.589 79.6716 72.0709 75.5818 72.1083C71.4921 72.1457 67.5726 73.7357 64.6311 76.5507C61.6896 79.3656 59.9503 83.191 59.7716 87.2385C59.5929 91.286 60.9884 95.2472 63.6705 98.3058C66.3526 101.364 70.117 103.287 74.1879 103.678C78.2587 104.069 82.3259 102.898 85.5512 100.407C88.7766 97.916 90.9142 94.2941 91.5238 90.288" stroke="white" stroke-width="2" stroke-linecap="round" stroke-linejoin="round"/>
<path d="M64.5757 70.7902C63.0582 71.7572 61.6759 72.9179 60.4644 74.2425" stroke="#FF006E" stroke-width="2" stroke-linecap="round" stroke-linejoin="round"/>
<path d="M67.5811 106.636C70.711 107.973 74.1274 108.52 77.5233 108.226C80.9192 107.932 84.1883 106.808 87.0368 104.953C89.8852 103.098 92.2238 100.571 93.8424 97.5991C95.461 94.6273 96.3089 91.3037 96.3099 87.927C96.3109 84.5503 95.4649 81.2263 93.8481 78.2536C92.2312 75.2809 89.8941 72.7526 87.0468 70.896C84.1994 69.0395 80.931 67.9127 77.5352 67.617C74.1395 67.3213 70.7228 67.8659 67.5921 69.202" stroke="white" stroke-width="2" stroke-linecap="round" stroke-linejoin="round"/>
<path d="M58.426 76.8719C56.9613 79.1219 55.9586 81.6357 55.4752 84.2697C54.9918 86.9037 55.0372 89.6063 55.6088 92.2229C56.1804 94.8395 57.267 97.3189 58.8064 99.5193C60.3459 101.72 62.308 103.598 64.5807 105.047" stroke="white" stroke-width="2" stroke-linecap="round" stroke-linejoin="round"/>
</g>
<defs>
<clipPath id="clip0_1140:473">
<rect width="97" height="109" fill="white"/>
</clipPath>
</defs>
</svg>
