<svg width="108" height="109" viewBox="0 0 108 109" fill="none" xmlns="http://www.w3.org/2000/svg">
<path d="M102.182 72.6487H64.873V80.5045H102.182V72.6487Z" stroke="white" stroke-width="2" stroke-linecap="round" stroke-linejoin="round"/>
<path d="M71.7454 78.5405C72.8299 78.5405 73.709 77.6612 73.709 76.5765C73.709 75.4918 72.8299 74.6125 71.7454 74.6125C70.6609 74.6125 69.7817 75.4918 69.7817 76.5765C69.7817 77.6612 70.6609 78.5405 71.7454 78.5405Z" stroke="#FF006E" stroke-width="2" stroke-linecap="round" stroke-linejoin="round"/>
<path d="M99.2365 76.5765H79.6001" stroke="#FF006E" stroke-width="2" stroke-linecap="round" stroke-linejoin="round"/>
<path d="M83.5273 80.5045V85.4144" stroke="white" stroke-width="2" stroke-linecap="round" stroke-linejoin="round"/>
<path d="M102.182 60.8649H64.873V67.7387H102.182V60.8649Z" stroke="white" stroke-width="2" stroke-linecap="round" stroke-linejoin="round"/>
<path d="M72 66C73.1046 66 74 65.1046 74 64C74 62.8954 73.1046 62 72 62C70.8954 62 70 62.8954 70 64C70 65.1046 70.8954 66 72 66Z" stroke="white" stroke-width="2" stroke-linecap="round" stroke-linejoin="round"/>
<path d="M98.2546 63.8108H79.6001" stroke="white" stroke-width="2" stroke-linecap="round" stroke-linejoin="round"/>
<path d="M83.5273 67.7388V72.6487" stroke="white" stroke-width="2" stroke-linecap="round" stroke-linejoin="round"/>
<path d="M83.5273 92.2883V97.1982" stroke="white" stroke-width="2" stroke-linecap="round" stroke-linejoin="round"/>
<path d="M102.182 85.4144H64.873V92.2883H102.182V85.4144Z" stroke="white" stroke-width="2" stroke-linecap="round" stroke-linejoin="round"/>
<path d="M71.7454 91.3063C72.8299 91.3063 73.709 90.427 73.709 89.3424C73.709 88.2577 72.8299 87.3784 71.7454 87.3784C70.6609 87.3784 69.7817 88.2577 69.7817 89.3424C69.7817 90.427 70.6609 91.3063 71.7454 91.3063Z" stroke="white" stroke-width="2" stroke-linecap="round" stroke-linejoin="round"/>
<path d="M98.2546 89.3423H79.6001" stroke="white" stroke-width="2" stroke-linecap="round" stroke-linejoin="round"/>
<path d="M102.182 97.1982H64.873V105.054H102.182V97.1982Z" stroke="white" stroke-width="2" stroke-linecap="round" stroke-linejoin="round"/>
<path d="M71.7454 103.09C72.8299 103.09 73.709 102.211 73.709 101.126C73.709 100.041 72.8299 99.1621 71.7454 99.1621C70.6609 99.1621 69.7817 100.041 69.7817 101.126C69.7817 102.211 70.6609 103.09 71.7454 103.09Z" stroke="#FF006E" stroke-width="2" stroke-linecap="round" stroke-linejoin="round"/>
<path d="M98.2546 101.126H79.6001" stroke="#FF006E" stroke-width="2" stroke-linecap="round" stroke-linejoin="round"/>
<path d="M87.3818 51V10.5798C87.3816 10.1179 87.223 9.67505 86.941 9.34844C86.659 9.02183 86.2766 8.8382 85.8778 8.83789H30.2275C30.0299 8.83766 29.8343 8.88263 29.6518 8.97021C29.4693 9.05779 29.3035 9.18626 29.164 9.34824L17.1316 23.2837C16.9917 23.4453 16.8808 23.6373 16.8052 23.8486C16.7295 24.06 16.6907 24.2866 16.6909 24.5153L16.6909 103.33C16.6912 103.792 16.8497 104.235 17.1317 104.562C17.4137 104.888 17.7962 105.072 18.195 105.072H56.2591" stroke="white" stroke-width="2" stroke-linecap="round" stroke-linejoin="round"/>
<path d="M51.0547 66.7748H26.5093" stroke="white" stroke-width="2" stroke-linecap="round" stroke-linejoin="round"/>
<path d="M51.0547 73.6487H26.5093" stroke="#FF006E" stroke-width="2" stroke-linecap="round" stroke-linejoin="round"/>
<path d="M51.0547 80.5225H26.5093" stroke="white" stroke-width="2" stroke-linecap="round" stroke-linejoin="round"/>
<path d="M51.0547 87.3964H26.5093" stroke="#FF006E" stroke-width="2" stroke-linecap="round" stroke-linejoin="round"/>
<path d="M51.0547 93.2883H26.5093" stroke="white" stroke-width="2" stroke-linecap="round" stroke-linejoin="round"/>
<path d="M64.4181 34.3694C67.26 29.1721 67.6297 24.1924 64.9196 21.4841C62.2103 18.775 57.2317 19.1447 52.0372 21.9856C46.841 19.1431 41.8624 18.7734 39.1532 21.4841C36.4431 24.1924 36.8126 29.1737 39.6546 34.3694C36.8126 39.5668 36.4431 44.5465 39.1532 47.2548C40.4018 48.5045 42.1325 49.0991 44.1447 49.0991C46.4965 49.0991 49.2365 48.2603 52.0355 46.7282C54.8346 48.2586 57.5738 49.0991 59.928 49.0991C61.9402 49.0991 63.6709 48.5045 64.9196 47.2548C67.6297 44.5465 67.26 39.5668 64.4181 34.3694Z" stroke="#FCFDFF" stroke-width="2" stroke-linecap="round" stroke-linejoin="round"/>
<path d="M64.7998 34.8475C63.1901 37.28 61.3368 39.5417 59.2686 41.5977C57.216 43.6694 54.9567 45.5249 52.5259 47.1351C50.097 45.5235 47.8385 43.6681 45.7856 41.5977C43.7163 39.5429 41.8628 37.281 40.2544 34.8475C43.4896 29.983 47.6625 25.8142 52.5283 22.5856C57.3941 25.8134 61.5664 29.9824 64.7999 34.8475H64.7998Z" stroke="white" stroke-width="2" stroke-linecap="round" stroke-linejoin="round"/>
<path d="M52.0363 37.3154C53.663 37.3154 54.9817 35.9964 54.9817 34.3694C54.9817 32.7424 53.663 31.4235 52.0363 31.4235C50.4095 31.4235 49.0908 32.7424 49.0908 34.3694C49.0908 35.9964 50.4095 37.3154 52.0363 37.3154Z" stroke="#FF006E" stroke-width="2" stroke-linecap="round" stroke-linejoin="round"/>
<circle cx="31" cy="34" r="2" fill="#FF006E"/>
<circle cx="52" cy="55" r="2" fill="white"/>
<circle cx="52" cy="14" r="2" fill="white"/>
<circle cx="73" cy="34" r="2" fill="white"/>
</svg>
