<svg width="108" height="112" viewBox="0 0 108 112" fill="none" xmlns="http://www.w3.org/2000/svg">
<path d="M29.2314 91.7275C25.4616 92.9156 21.3426 94.988 19.9069 99.021C19.9013 99.0364 19.896 99.0517 19.8906 99.0671" stroke="#FF006E" stroke-width="2" stroke-linecap="round" stroke-linejoin="round"/>
<path d="M88.1493 99.4296C86.6283 95.1805 82.6711 92.9406 78.436 91.5962" stroke="#FF006E" stroke-width="2" stroke-linecap="round" stroke-linejoin="round"/>
<path d="M54.02 18.1145C44.9715 18.1248 36.2965 21.7453 29.8982 28.1818C23.4999 34.6183 19.9009 43.345 19.8906 52.4475V99.4296C19.8906 102.824 23.5196 105.56 30.6764 107.559C36.9353 109.308 45.2256 110.272 54.02 110.272C62.8144 110.272 71.1047 109.308 77.3636 107.559C84.5205 105.56 88.1494 102.824 88.1494 99.4296V52.4475C88.1392 43.345 84.5401 34.6182 78.1418 28.1818C71.7435 21.7453 63.0685 18.1248 54.02 18.1145V18.1145Z" stroke="white" stroke-width="2" stroke-linecap="round" stroke-linejoin="round"/>
<path d="M3.56299 70.3558L14.3939 59.4603L4.49898 49.1549" stroke="white" stroke-width="2" stroke-linecap="round" stroke-linejoin="round"/>
<path d="M105.224 74.6161V67.3881C105.224 66.9088 105.034 66.4492 104.697 66.1103C104.361 65.7714 103.904 65.5811 103.427 65.5811H96.2422" stroke="white" stroke-width="2" stroke-linecap="round" stroke-linejoin="round"/>
<path d="M105.434 34.7504V27.5224C105.434 27.0431 105.245 26.5835 104.908 26.2446C104.571 25.9057 104.114 25.7153 103.638 25.7153H96.4526" stroke="#FF006E" stroke-width="2" stroke-linecap="round" stroke-linejoin="round"/>
<path d="M11.8525 17.0312L6.77172 22.1421C6.43485 22.481 6.24561 22.9406 6.24561 23.4199C6.24561 23.8991 6.43485 24.3587 6.77172 24.6976L11.8525 29.8086" stroke="#FF006E" stroke-width="2" stroke-linecap="round" stroke-linejoin="round"/>
<path d="M57.452 1.72827H50.2669C49.7905 1.7283 49.3337 1.91869 48.9968 2.25757C48.66 2.59644 48.4707 3.05604 48.4707 3.53527V10.7633" stroke="white" stroke-width="2" stroke-linecap="round" stroke-linejoin="round"/>
<path d="M10.7363 46.0906H3.55116C3.07476 46.0906 2.61787 46.281 2.281 46.6199C1.94413 46.9587 1.75488 47.4184 1.75488 47.8976V55.1256" stroke="white" stroke-width="2" stroke-linecap="round" stroke-linejoin="round"/>
<path d="M1.6875 93.8005V101.029C1.6875 101.508 1.87675 101.967 2.21362 102.306C2.55049 102.645 3.00738 102.836 3.48378 102.836H10.6689" stroke="#FF006E" stroke-width="2" stroke-linecap="round" stroke-linejoin="round"/>
<path d="M3.987 79.2878L14.3934 89.7563L3.91602 100.296" stroke="#FF006E" stroke-width="2" stroke-linecap="round" stroke-linejoin="round"/>
<path d="M27.2386 3.65845V23.4249H9.15479" stroke="#FF006E" stroke-width="2" stroke-linecap="round" stroke-linejoin="round"/>
<path d="M50.4272 3.65845L60.6849 13.9773L70.8347 3.76669" stroke="white" stroke-width="2" stroke-linecap="round" stroke-linejoin="round"/>
<path d="M103.607 27.5201L91.7178 39.4798L104.462 52.3007" stroke="#FF006E" stroke-width="2" stroke-linecap="round" stroke-linejoin="round"/>
<path d="M103.613 67.2791L93.5737 77.3784L106.313 90.1933" stroke="white" stroke-width="2" stroke-linecap="round" stroke-linejoin="round"/>
<path d="M68.2869 32.6549H39.6421C38.0752 32.6567 36.5729 33.2837 35.4649 34.3983C34.357 35.5129 33.7337 37.0241 33.7319 38.6003V94.5537C33.7337 96.13 34.357 97.6412 35.4649 98.7558C36.5729 99.8704 38.0752 100.497 39.6421 100.499H68.2869C69.8538 100.497 71.356 99.8704 72.464 98.7558C73.572 97.6412 74.1952 96.13 74.197 94.5537V38.6003C74.1952 37.0241 73.572 35.5129 72.464 34.3983C71.3561 33.2837 69.8538 32.6567 68.2869 32.6549V32.6549Z" stroke="white" stroke-width="2" stroke-linecap="round" stroke-linejoin="round"/>
<path d="M70.9937 45.093H36.8105V89.1918H70.9937V45.093Z" stroke="white" stroke-width="2" stroke-linecap="round" stroke-linejoin="round"/>
<path d="M55.6875 40.7272H46.4062" stroke="#FF006E" stroke-width="2" stroke-linecap="round" stroke-linejoin="round"/>
<path d="M57.1178 93.2594H50.811V96.4316H57.1178V93.2594Z" stroke="#FF006E" stroke-width="2" stroke-linecap="round" stroke-linejoin="round"/>
<path d="M40.5 50.0605V60.2424H52.3125V50.0605H40.5Z" stroke="white" stroke-width="2" stroke-linecap="round" stroke-linejoin="round"/>
<path d="M59.3217 51.3096H56.2129" stroke="#FF006E" stroke-width="2" stroke-linecap="round" stroke-linejoin="round"/>
<path d="M67.5 50.9091H63.2812" stroke="white" stroke-width="2" stroke-linecap="round" stroke-linejoin="round"/>
<path d="M67.8178 58.5454H56.2129" stroke="white" stroke-width="2" stroke-linecap="round" stroke-linejoin="round"/>
<path d="M40.5 67.0303V78.909H52.3125V67.0303H40.5Z" stroke="white" stroke-width="2" stroke-linecap="round" stroke-linejoin="round"/>
<path d="M59.3217 68.7272H56.2129" stroke="#FF006E" stroke-width="2" stroke-linecap="round" stroke-linejoin="round"/>
<path d="M67.5 68.7272H63.2812" stroke="white" stroke-width="2" stroke-linecap="round" stroke-linejoin="round"/>
<path d="M67.8178 75.515H56.2129" stroke="white" stroke-width="2" stroke-linecap="round" stroke-linejoin="round"/>
<path d="M53.1563 83.1515L40.5 83.1515" stroke="#FF006E" stroke-width="2" stroke-linecap="round" stroke-linejoin="round"/>
<path d="M59.9062 81.4545V84.8484H66.6562V81.4545H59.9062Z" stroke="white" stroke-width="2" stroke-linecap="round" stroke-linejoin="round"/>
<path d="M61.833 40.5701H59.585" stroke="white" stroke-width="2" stroke-linecap="round" stroke-linejoin="round"/>
</svg>
