<svg width="124" height="123" viewBox="0 0 124 123" fill="none" xmlns="http://www.w3.org/2000/svg">
<g clip-path="url(#clip0_1140:417)">
<path d="M34.0889 101.101V69.8949" stroke="white" stroke-width="2" stroke-linecap="round" stroke-linejoin="round"/>
<path d="M56.7839 87.4958L51.124 91.6641" stroke="#FF007A" stroke-width="2" stroke-linecap="round" stroke-linejoin="round"/>
<path d="M19.8778 71.7932C19.0572 71.7932 18.2549 72.0375 17.5726 72.4952C16.8902 72.9529 16.3584 73.6035 16.0444 74.3647C15.7303 75.1258 15.6481 75.9634 15.8082 76.7714C15.9683 77.5794 16.3635 78.3216 16.9438 78.9042C17.5241 79.4868 18.2634 79.8835 19.0683 80.0442C19.8732 80.205 20.7075 80.1225 21.4657 79.8072C22.2239 79.4919 22.8719 78.958 23.3279 78.273C23.7838 77.588 24.0271 76.7826 24.0271 75.9587C24.0271 74.854 23.59 73.7945 22.8118 73.0133C22.0337 72.2321 20.9783 71.7932 19.8778 71.7932V71.7932Z" stroke="white" stroke-width="2" stroke-linecap="round" stroke-linejoin="round"/>
<path d="M29.5967 69.8949V102.383" stroke="white" stroke-width="2" stroke-linecap="round" stroke-linejoin="round"/>
<path d="M83.3604 87.4958H51.124" stroke="#FF007A" stroke-width="2" stroke-linecap="round" stroke-linejoin="round"/>
<path d="M46.5186 70.1487V49.1084" stroke="white" stroke-width="2" stroke-linecap="round" stroke-linejoin="round"/>
<path d="M105.448 49.1084V80.0946" stroke="white" stroke-width="2" stroke-linecap="round" stroke-linejoin="round"/>
<path d="M53.7889 34.7355V26.9362C51.3205 25.653 49.283 23.6687 47.9305 21.2308C46.578 18.7928 45.9703 16.0091 46.1832 13.2267C46.3961 10.4444 47.4202 7.7865 49.1278 5.58455C50.8353 3.38259 53.1508 1.734 55.7855 0.84436V14.459L60.9174 17.9121L66.0523 14.459V1.33891C68.3682 2.37576 70.3641 4.01816 71.8313 6.09438C73.2986 8.17061 74.1833 10.6044 74.393 13.1414C74.6026 15.6783 74.1296 18.2252 73.0232 20.5158C71.9169 22.8064 70.2179 24.7565 68.104 26.1624V34.7355" stroke="white" stroke-width="2" stroke-linecap="round" stroke-linejoin="round"/>
<path d="M60.8711 26.343V34.0677" stroke="#FF007A" stroke-width="2" stroke-linecap="round" stroke-linejoin="round"/>
<path d="M109.471 92.4183C110.034 93.4379 110.171 94.6402 109.851 95.7607C109.53 96.8812 108.78 97.8282 107.764 98.3932C107.696 98.4312 107.627 98.4673 107.557 98.5015L91.1322 106.523L64.8877 111.602" stroke="white" stroke-width="2" stroke-linecap="round" stroke-linejoin="round"/>
<path d="M60.8711 59.3217V77.4123" stroke="#FF007A" stroke-width="2" stroke-linecap="round" stroke-linejoin="round"/>
<path d="M87 61.141V84.5006" stroke="#FF007A" stroke-width="2" stroke-linecap="round" stroke-linejoin="round"/>
<path d="M94 72L94 83" stroke="white" stroke-width="2" stroke-linecap="round" stroke-linejoin="round"/>
<path d="M18.9236 94.3635C18.5292 94.3635 18.1437 94.4809 17.8159 94.7009C17.488 94.9208 17.2324 95.2334 17.0815 95.5992C16.9306 95.9649 16.8911 96.3674 16.968 96.7557C17.0449 97.144 17.2348 97.5006 17.5137 97.7806C17.7925 98.0605 18.1478 98.2512 18.5346 98.3284C18.9213 98.4057 19.3222 98.366 19.6866 98.2145C20.0509 98.063 20.3623 97.8065 20.5814 97.4773C20.8005 97.1481 20.9174 96.7611 20.9175 96.3652V96.3652C20.9172 95.8344 20.7071 95.3254 20.3332 94.9501C19.9594 94.5747 19.4523 94.3638 18.9236 94.3635V94.3635Z" stroke="#FF007A" stroke-width="2" stroke-linecap="round" stroke-linejoin="round"/>
<path d="M86 28.0006C86.2574 29.1293 86.9457 30.1441 87.9481 30.873C88.9506 31.6019 90.2055 32.0001 91.5003 32C92.795 31.9999 94.0499 31.6016 95.0523 30.8726C96.0546 30.1436 96.7427 29.1287 97 28" stroke="#FF006E" stroke-width="2" stroke-linecap="round" stroke-linejoin="round"/>
<path d="M97 23.9994C96.7426 22.8707 96.0543 21.8559 95.0519 21.127C94.0495 20.3981 92.7945 19.9999 91.4997 20C90.205 20.0001 88.9501 20.3984 87.9477 21.1274C86.9454 21.8564 86.2573 22.8713 86 24" stroke="white" stroke-width="2" stroke-linecap="round" stroke-linejoin="round"/>
<path d="M97.9696 13.6881C97.3155 13.3504 96.6353 13.0664 95.9355 12.839L95.4982 10.2052L87.9802 10.2062L87.5426 12.839C86.8423 13.0654 86.1618 13.3492 85.5078 13.6874L83.3404 12.134L78.0238 17.4714L79.5711 19.6459C79.2345 20.3026 78.9519 20.9858 78.7259 21.6886L76.1037 22.1275L76.1021 29.6749L78.7259 30.1142C78.9524 30.8168 79.2353 31.4997 79.5717 32.1564L78.0231 34.3309" stroke="#FF006E" stroke-width="2" stroke-linecap="round" stroke-linejoin="round"/>
<path d="M103.265 33.5276C103.741 32.9253 104.575 30.6617 104.75 30.1137L107.373 29.6744L107.374 22.1273L104.75 21.688C104.524 20.9855 104.241 20.3026 103.904 19.646L105.452 17.4721L100.135 12.134L97.9697 13.6882" stroke="white" stroke-width="2" stroke-linecap="round" stroke-linejoin="round"/>
<path d="M83.3607 87.4958C83.573 86.3314 83.5274 85.1344 83.2272 83.9897C82.9269 82.845 82.3793 81.7807 81.6233 80.8724C80.8672 79.964 79.9212 79.2339 78.8525 78.7338C77.7838 78.2338 76.6185 77.976 75.4394 77.9789H62.4029C62.0566 77.979 61.7162 77.8896 61.4144 77.7192L50.7786 71.7138C48.6687 70.5221 46.2888 69.8957 43.8679 69.8949H29.5966C29.1792 68.7138 28.4079 67.6914 27.3887 66.9678C26.3695 66.2443 25.1522 65.8551 23.9039 65.8536H11.8252C11.2912 65.8536 10.7792 66.0666 10.4017 66.4456C10.0241 66.8246 9.81201 67.3387 9.81201 67.8747V67.8747V104.252" stroke="white" stroke-width="2" stroke-linecap="round" stroke-linejoin="round"/>
<path d="M75.7058 35.4047L82.8639 49.1084H94.9998L96.9998 46.5L100.5 49.1084H105.379H112.884L105.448 34.7362H46.5184L39.3047 49.1084H51.4998L55.4998 46.5L57.4998 49.1084H68.7143L75.7058 35.4047ZM75.7058 35.4047V77.9791" stroke="white" stroke-width="2" stroke-linecap="round" stroke-linejoin="round"/>
<path d="M9.81201 104.252C9.81202 104.788 10.0241 105.302 10.4017 105.681C10.7792 106.06 11.2912 106.273 11.8252 106.273H23.9039C25.1245 106.271 26.3159 105.898 27.3218 105.204C28.3276 104.51 29.1008 103.527 29.54 102.384C31.8189 102.668 33.6389 101.268 35.2959 102.265L45.8239 108.607C49.388 110.755 53.4184 112.001 57.5684 112.239C61.7184 112.476 65.8638 111.699 69.6481 109.972L107.801 93.3007C109.434 92.5874 110.727 91.2655 111.407 89.6137C112.087 87.962 112.102 86.1095 111.448 84.447V84.447C110.793 82.7798 109.516 81.4345 107.889 80.6962C106.262 79.9579 104.413 79.8846 102.733 80.492L83.3607 87.4959L77.6284 89.7109" stroke="#FF007A" stroke-width="2" stroke-linecap="round" stroke-linejoin="round"/>
<path d="M58 41.5L55.5 46.5M94 41.5L96.5 46" stroke="white" stroke-width="2" stroke-linecap="round" stroke-linejoin="round"/>
</g>
<defs>
<clipPath id="clip0_1140:417">
<rect width="124" height="123" fill="white"/>
</clipPath>
</defs>
</svg>
