<svg width="45" height="45" viewBox="0 0 45 45" fill="none" xmlns="http://www.w3.org/2000/svg">
<path d="M33.0837 22C33.6917 20.5681 34 19.0504 34 17.4898C34 11.1533 28.8533 6 22.5247 6C17.9517 6 13.8155 8.70954 12 12.9025" stroke="#001F73" stroke-width="1.5" stroke-miterlimit="10"/>
<path d="M22.5 24C21.6702 24 21 24.6702 21 25.5C21 26.3298 21.6702 27 22.5 27C23.3298 27 24 26.3298 24 25.5C24 24.6782 23.3298 24 22.5 24Z" stroke="#001F73" stroke-width="1.5" stroke-miterlimit="10"/>
<path d="M22.4977 22V21.059C22.4977 20.2067 22.4977 18.893 23.8046 18C25.9999 16.5 26.9999 16.2926 26.9999 14C26.9999 11.5 25.0181 10.1124 22.7183 10.0059C20.13 9.87272 18 12.5001 19.4999 15.5001" stroke="#001F73" stroke-width="1.5" stroke-miterlimit="10"/>
<path d="M11.2581 15C11.0946 15.7845 11.0086 16.5948 11 17.4138C11 19.4224 11.5162 21.3966 12.4969 23.1293C13.4519 24.8103 14.8197 26.2414 16.4629 27.2586C17.1254 27.6638 17.5555 28.3448 17.6587 29.1034L17.7792 30.0172C17.3232 30.1552 16.9877 30.5776 16.9877 31.0776V31.8362C16.9877 32.2845 17.263 32.681 17.6501 32.8448C17.6329 32.9224 17.6157 33.0086 17.6157 33.0948V33.8534C17.6157 34.4655 18.1061 34.9569 18.7169 34.9569H18.846L19.2073 36.6293C19.3794 37.4224 20.0934 38 20.9021 38H24.1196C24.9283 38 25.6424 37.4224 25.8144 36.6293L26.1757 34.9569M26.1757 34.9569H26.3048C26.9156 34.9569 27.406 34.4655 27.406 33.8534V33.0948C27.406 33.0086 27.3974 32.9224 27.3716 32.8448C27.7587 32.6724 28.034 32.2845 28.034 31.8362V31.0776C28.034 30.5776 27.6985 30.1552 27.2425 30.0172L27.363 29.1034C27.4662 28.3362 27.8964 27.6724 28.533 27.2759C29.9095 26.4224 31.0795 25.3103 32 23.9741M26.1757 34.9569H18.8546M27.1909 29.9655H17.7878" stroke="#001F73" stroke-width="1.5" stroke-miterlimit="10"/>
</svg>
