<svg width="189" height="96" viewBox="0 0 189 96" fill="none" xmlns="http://www.w3.org/2000/svg">
<g clip-path="url(#clip0)">
<path d="M100.016 78.8638C99.3025 79.1696 98.5346 79.3288 97.7581 79.3318C97.3085 79.3669 96.857 79.2936 96.4416 79.1179C96.0261 78.9421 95.6589 78.6692 95.3708 78.322C94.8651 77.5267 94.6279 76.59 94.694 75.6497C94.694 74.3197 94.9893 73.3468 95.5984 72.7249C95.9148 72.4498 96.2831 72.241 96.6815 72.1109C97.08 71.9808 97.5005 71.932 97.9181 71.9676C98.5381 71.9712 99.1563 72.0351 99.764 72.1584L99.6655 73.3222C99.1356 73.2474 98.601 73.2104 98.0658 73.2114C97.8062 73.1806 97.5432 73.2066 97.2946 73.2874C97.0461 73.3681 96.8179 73.5019 96.626 73.6793C96.2405 74.2598 96.0687 74.9564 96.1399 75.6497C96.0998 76.2574 96.2141 76.8653 96.4721 77.4169C96.6283 77.6463 96.8432 77.8296 97.0943 77.9476C97.3453 78.0657 97.6235 78.1142 97.8996 78.088C98.5012 78.0631 99.096 77.9511 99.6655 77.7555L100.016 78.8638Z" fill="#1D1D1B"/>
<path d="M100.681 79.221V72.0784H105.111V73.3098H102.077V74.9785H104.6V76.173H102.077V78.0203H105.111V79.2517L100.681 79.221Z" fill="#1D1D1B"/>
<path d="M109.64 79.2209C109.129 78.2788 108.686 77.3736 108.268 76.4623C107.954 76.4623 107.535 76.4623 107.271 76.4254V79.2209H105.874V72.1275C106.619 72.0382 107.369 71.9889 108.12 71.9797C109.584 71.9797 110.95 72.3369 110.95 74.1841C110.99 74.635 110.877 75.0863 110.629 75.465C110.381 75.8438 110.013 76.1279 109.584 76.2715C109.996 77.115 110.624 78.1987 111.246 79.2209H109.64ZM107.271 75.4156C107.776 75.4444 108.283 75.4071 108.778 75.3047C109.02 75.2527 109.232 75.1101 109.372 74.9062C109.511 74.7024 109.567 74.4528 109.529 74.2087C109.529 73.359 108.914 73.1989 108.231 73.1989C107.911 73.1989 107.566 73.1989 107.271 73.2358V75.4156Z" fill="#1D1D1B"/>
<path d="M113.098 79.221V73.273H111.166V72.0415H116.42V73.273H114.488V79.1964L113.098 79.221Z" fill="#1D1D1B"/>
<path d="M116.937 79.2209V72.0784H118.334V79.2209H116.937Z" fill="#1D1D1B"/>
<path d="M119.484 79.221V72.0784H124.019V73.3098H120.881V75.0955H123.471V76.327H120.881V79.2641L119.484 79.221Z" fill="#1D1D1B"/>
<path d="M124.677 79.2209V72.0784H126.074V79.2209H124.677Z" fill="#1D1D1B"/>
<path d="M127.225 79.221V72.0784H131.673V73.3098H128.597V74.9785H131.113V76.173H128.597V78.0203H131.673V79.2517L127.225 79.221Z" fill="#1D1D1B"/>
<path d="M132.417 72.1706C133.155 72.0549 133.899 71.9911 134.645 71.9797C137.063 71.9797 137.906 73.2112 137.906 75.6372C137.906 78.0633 137.063 79.3317 134.645 79.3317C133.901 79.333 133.158 79.296 132.417 79.2209V72.1706ZM133.814 78.0694C134.116 78.0694 134.27 78.0694 134.528 78.0694C136.097 78.0694 136.485 77.3983 136.485 75.6065C136.485 73.9378 136.097 73.1435 134.528 73.1435C134.29 73.1429 134.051 73.1552 133.814 73.1804V78.0694Z" fill="#1D1D1B"/>
<path d="M95.3706 27.0124V17.8933H96.7304V27.0124H95.3706Z" fill="#1D1D1B"/>
<path d="M98.1641 25.7379C98.8762 25.8559 99.596 25.9217 100.318 25.9349C101.004 26.0012 101.691 25.82 102.256 25.4238C102.382 25.3037 102.481 25.1582 102.547 24.9969C102.613 24.8355 102.644 24.6621 102.637 24.4879C102.637 23.5951 102.084 23.2995 100.515 22.8316C98.9456 22.3636 97.9365 21.7294 97.9365 20.1839C97.9295 19.834 98.0056 19.4874 98.1585 19.1727C98.3115 18.858 98.537 18.5841 98.8164 18.3736C99.4776 17.9233 100.27 17.7066 101.068 17.7579C101.914 17.774 102.757 17.8689 103.585 18.0411L103.413 19.1741C102.718 19.0494 102.014 18.9835 101.308 18.977C100.764 18.9323 100.217 19.0434 99.7331 19.2972C99.5977 19.3928 99.4881 19.5204 99.414 19.6686C99.34 19.8169 99.3037 19.9812 99.3086 20.147C99.3086 21.0829 100.035 21.3784 101.53 21.8033C103.025 22.2282 103.991 22.8808 103.991 24.4818C104.005 24.8662 103.929 25.2485 103.768 25.5982C103.608 25.9478 103.368 26.2551 103.068 26.4952C102.33 26.9888 101.449 27.2228 100.564 27.1602C99.6961 27.1461 98.8313 27.0554 97.9796 26.8893L98.1641 25.7379Z" fill="#1D1D1B"/>
<path d="M104.649 22.4498C104.649 19.3711 105.818 17.7517 108.581 17.7517C111.344 17.7517 112.513 19.3649 112.513 22.4498C112.513 25.5347 111.368 27.1541 108.581 27.1541C105.794 27.1541 104.649 25.5408 104.649 22.4498ZM111.128 22.4498C111.128 20.0423 110.402 18.9709 108.581 18.9709C106.76 18.9709 106.034 20.0423 106.034 22.4498C106.034 24.8573 106.754 25.9349 108.581 25.9349C110.409 25.9349 111.128 24.8573 111.128 22.4498Z" fill="#1D1D1B"/>
<path d="M112.839 27.0124L116.377 17.8933H117.478L113.971 27.0124H112.839Z" fill="#1D1D1B"/>
<path d="M118.291 27.0124V17.8933H119.644V27.0124H118.291Z" fill="#1D1D1B"/>
<path d="M121.213 27.0124V17.8933H126.634V19.1248H122.573V21.7478H125.895V22.9054H122.573V25.8056H126.634V27.037L121.213 27.0124Z" fill="#1D1D1B"/>
<path d="M133.851 26.4767C132.944 26.9216 131.95 27.1593 130.941 27.1725C130.378 27.2094 129.815 27.1094 129.3 26.881C128.784 26.6526 128.332 26.3026 127.981 25.8609C127.35 24.8447 127.053 23.656 127.132 22.4621C127.045 21.2012 127.4 19.9494 128.135 18.9216C128.527 18.5084 129.007 18.1896 129.54 17.9891C130.073 17.7886 130.644 17.7117 131.211 17.764C132.006 17.7705 132.798 17.8592 133.574 18.0287L133.445 19.1802C132.735 19.0486 132.014 18.9827 131.291 18.9831C130.896 18.9412 130.497 18.9936 130.125 19.1359C129.754 19.2783 129.422 19.5065 129.156 19.8021C128.678 20.6025 128.463 21.5328 128.541 22.4621C128.474 23.344 128.655 24.227 129.064 25.0112C129.281 25.3266 129.577 25.5791 129.923 25.7434C130.269 25.9077 130.651 25.978 131.033 25.9472C131.881 25.9194 132.716 25.7314 133.494 25.393L133.851 26.4767Z" fill="#1D1D1B"/>
<path d="M95.1921 41.7901V40.7126C97.7087 38.5144 99.4992 36.8026 99.4992 35.2879C99.4992 34.1549 98.6501 33.7485 97.6964 33.7485C96.9063 33.7762 96.1274 33.943 95.3952 34.2411L95.0137 33.1636C95.8894 32.7652 96.839 32.5555 97.801 32.5479C99.6468 32.5479 100.877 33.4653 100.877 35.2633C100.877 37.2459 98.8839 38.9577 96.9457 40.6017H101.007V41.8332L95.1921 41.7901Z" fill="#1D1D1B"/>
<path d="M103.074 41.7903C103.784 39.0161 104.864 36.3506 106.286 33.8657H101.733V32.6711H107.677V33.7856C106.23 36.2805 105.166 38.9788 104.52 41.7903H103.074Z" fill="#1D1D1B"/>
<path d="M108.409 37.2276C108.409 34.1489 109.024 32.5295 111.707 32.5295C114.389 32.5295 114.992 34.1736 114.992 37.2276C114.992 40.2817 114.377 41.9319 111.707 41.9319C109.036 41.9319 108.409 40.2755 108.409 37.2276ZM113.633 37.2276C113.633 35.0602 113.503 33.7179 111.707 33.7179C109.91 33.7179 109.768 35.0602 109.768 37.2276C109.768 39.395 109.879 40.7558 111.707 40.7558C113.534 40.7558 113.633 39.4074 113.633 37.2276Z" fill="#1D1D1B"/>
<path d="M115.964 37.2276C115.964 34.1489 116.58 32.5295 119.262 32.5295C121.945 32.5295 122.548 34.1736 122.548 37.2276C122.548 40.2817 121.933 41.9319 119.262 41.9319C116.592 41.9319 115.964 40.2755 115.964 37.2276ZM121.188 37.2276C121.188 35.0602 121.059 33.7179 119.262 33.7179C117.466 33.7179 117.324 35.0602 117.324 37.2276C117.324 39.395 117.441 40.7558 119.262 40.7558C121.084 40.7558 121.213 39.4074 121.213 37.2276H121.188Z" fill="#1D1D1B"/>
<path d="M124.905 41.7901V34.0441L123.059 34.7645L122.616 33.8655L125.077 32.6895H126.307V41.7901H124.905Z" fill="#1D1D1B"/>
<path d="M95.106 53.4893V46.3467H96.1704V53.4893H95.106Z" fill="#1D1D1B"/>
<path d="M100.391 53.4892V50.1272C100.391 49.4746 100.09 49.1605 99.5298 49.1605C99.1003 49.175 98.6796 49.2866 98.2992 49.4869V53.4892H97.2778V48.3662H98.0223L98.1085 48.828C98.5499 48.4744 99.0939 48.2735 99.659 48.2554C99.8971 48.2325 100.137 48.2633 100.362 48.3456C100.587 48.4279 100.79 48.5595 100.957 48.7309C101.124 48.9022 101.251 49.1088 101.327 49.3356C101.404 49.5623 101.429 49.8034 101.4 50.041V53.4892H100.391Z" fill="#1D1D1B"/>
<path d="M102.631 53.4892V49.179H101.875V48.4525L102.631 48.4094V47.8552C102.613 47.6341 102.638 47.4115 102.706 47.2002C102.773 46.9889 102.882 46.793 103.025 46.6237C103.396 46.3314 103.865 46.1925 104.336 46.2358C104.576 46.2358 104.846 46.2358 105.086 46.2789L105.031 47.1225C104.779 47.1225 104.545 47.1225 104.348 47.1225C104.151 47.1225 103.893 47.1225 103.794 47.2949C103.661 47.4894 103.604 47.7261 103.634 47.9599V48.3847H104.754V49.1975H103.634V53.5077L102.631 53.4892Z" fill="#1D1D1B"/>
<path d="M107.246 53.6001C106.952 53.6173 106.658 53.5761 106.38 53.4789C106.102 53.3817 105.846 53.2303 105.628 53.0336C105.188 52.4196 104.951 51.6832 104.951 50.9278C104.951 50.1724 105.188 49.4359 105.628 48.822C106.087 48.4553 106.658 48.2556 107.246 48.2556C107.834 48.2556 108.404 48.4553 108.864 48.822C109.304 49.4359 109.54 50.1724 109.54 50.9278C109.54 51.6832 109.304 52.4196 108.864 53.0336C108.645 53.2309 108.39 53.3826 108.112 53.4799C107.834 53.5771 107.54 53.618 107.246 53.6001ZM108.519 50.9278C108.567 50.422 108.439 49.9154 108.156 49.4931C108.039 49.3724 107.897 49.2786 107.739 49.218C107.582 49.1574 107.414 49.1315 107.246 49.1421C107.078 49.1308 106.911 49.1563 106.754 49.217C106.598 49.2776 106.457 49.3719 106.341 49.4931C106.054 49.9133 105.923 50.4211 105.972 50.9278C105.921 51.4328 106.052 51.9396 106.341 52.3563C106.456 52.4797 106.596 52.5758 106.753 52.6376C106.91 52.6994 107.078 52.7253 107.246 52.7134C107.414 52.7194 107.581 52.6907 107.738 52.6293C107.895 52.5679 108.037 52.475 108.156 52.3563C108.441 51.9376 108.57 51.4319 108.519 50.9278Z" fill="#1D1D1B"/>
<path d="M110.218 53.4892V48.3663H110.968L111.104 48.982H111.147C111.31 48.7349 111.536 48.5368 111.803 48.4088C112.07 48.2808 112.366 48.2278 112.66 48.2554C112.81 48.2477 112.96 48.2477 113.11 48.2554L113.042 49.179C112.839 49.1437 112.633 49.1272 112.427 49.1298C111.983 49.1067 111.546 49.2445 111.196 49.5177V53.4584L110.218 53.4892Z" fill="#1D1D1B"/>
<path d="M119.508 53.4893V50.0965C119.508 49.4808 119.201 49.1606 118.635 49.1606C118.215 49.1763 117.806 49.2992 117.447 49.5177C117.48 49.7214 117.499 49.9272 117.503 50.1335V53.4708H116.493V50.0965C116.493 49.4808 116.198 49.1606 115.632 49.1606C115.23 49.165 114.836 49.2732 114.488 49.4746V53.4893H113.479V48.3663H114.223L114.315 48.8281C114.751 48.4726 115.292 48.2713 115.854 48.2555C116.113 48.2376 116.372 48.2885 116.606 48.4031C116.839 48.5177 117.038 48.6919 117.183 48.9081C117.616 48.5177 118.169 48.2874 118.752 48.2555C119.896 48.2555 120.493 48.8712 120.493 50.1396V53.4893H119.508Z" fill="#1D1D1B"/>
<path d="M124.437 53.4893L124.326 53.0522C123.911 53.4109 123.379 53.6058 122.831 53.6002C122.611 53.6174 122.391 53.5884 122.183 53.515C121.975 53.4416 121.785 53.3255 121.625 53.174C121.465 53.0226 121.339 52.8392 121.254 52.6358C121.169 52.4324 121.128 52.2134 121.133 51.9931C121.123 51.76 121.166 51.5277 121.26 51.3142C121.354 51.1006 121.496 50.9116 121.674 50.7616C122.077 50.4815 122.563 50.3448 123.053 50.3737C123.403 50.3737 123.815 50.3737 124.172 50.4168V49.9858C124.179 49.874 124.164 49.7619 124.127 49.6562C124.09 49.5505 124.032 49.4532 123.957 49.37C123.693 49.1868 123.371 49.1078 123.053 49.1484C122.568 49.1544 122.086 49.2101 121.613 49.3146L121.453 48.4711C122.002 48.3219 122.569 48.2474 123.139 48.2494C123.683 48.1957 124.228 48.3376 124.677 48.6496C124.855 48.8139 124.993 49.0173 125.079 49.2438C125.166 49.4702 125.199 49.7137 125.175 49.955V53.4832L124.437 53.4893ZM124.172 51.1926C123.914 51.1926 123.557 51.1926 123.262 51.1926C122.517 51.1926 122.166 51.4574 122.166 52.0239C122.166 52.1361 122.19 52.247 122.237 52.3492C122.283 52.4513 122.351 52.5423 122.435 52.6159C122.52 52.6895 122.619 52.744 122.727 52.7757C122.835 52.8074 122.948 52.8156 123.059 52.7997C123.467 52.7997 123.864 52.668 124.191 52.4241L124.172 51.1926Z" fill="#1D1D1B"/>
<path d="M128.843 53.2676C128.461 53.4617 128.04 53.5669 127.612 53.5755C126.781 53.5755 126.308 53.1075 126.308 52.1778V49.1976H125.52V48.4525L126.314 48.4094L126.394 46.9009H127.292V48.3663H128.72V49.1976H127.292V52.0238C127.292 52.3994 127.36 52.6396 127.747 52.6396C128.004 52.6341 128.257 52.5709 128.486 52.4549L128.843 53.2676Z" fill="#1D1D1B"/>
<path d="M129.864 46.3159C130.013 46.3175 130.155 46.3779 130.26 46.484C130.365 46.5901 130.424 46.7332 130.424 46.8824C130.424 46.9557 130.409 47.0283 130.381 47.0959C130.353 47.1635 130.312 47.2249 130.26 47.2764C130.207 47.328 130.146 47.3687 130.078 47.3962C130.01 47.4236 129.937 47.4374 129.864 47.4366C129.791 47.4374 129.719 47.4236 129.651 47.3961C129.584 47.3685 129.522 47.3277 129.471 47.2761C129.419 47.2245 129.378 47.163 129.351 47.0954C129.323 47.0278 129.309 46.9554 129.31 46.8824C129.309 46.8086 129.322 46.7352 129.349 46.6665C129.376 46.5979 129.416 46.5353 129.468 46.4826C129.52 46.4298 129.581 46.3879 129.649 46.3592C129.717 46.3306 129.79 46.3159 129.864 46.3159ZM129.366 53.4893V48.3663H130.368V53.4893H129.366Z" fill="#1D1D1B"/>
<path d="M133.34 53.6001C133.047 53.618 132.752 53.5771 132.474 53.4799C132.197 53.3826 131.941 53.2309 131.722 53.0336C131.282 52.4196 131.046 51.6832 131.046 50.9278C131.046 50.1724 131.282 49.4359 131.722 48.822C132.182 48.4553 132.753 48.2556 133.34 48.2556C133.928 48.2556 134.499 48.4553 134.959 48.822C135.399 49.4359 135.635 50.1724 135.635 50.9278C135.635 51.6832 135.399 52.4196 134.959 53.0336C134.74 53.2309 134.484 53.3826 134.207 53.4799C133.929 53.5771 133.634 53.618 133.34 53.6001ZM134.614 50.9278C134.661 50.422 134.533 49.9154 134.251 49.4931C134 49.2607 133.67 49.1317 133.328 49.1317C132.986 49.1317 132.656 49.2607 132.405 49.4931C132.123 49.9154 131.995 50.422 132.042 50.9278C131.992 51.4319 132.12 51.9376 132.405 52.3563C132.521 52.4791 132.663 52.5748 132.821 52.6365C132.978 52.6982 133.147 52.7245 133.316 52.7134C133.484 52.7194 133.652 52.6907 133.808 52.6293C133.965 52.5679 134.107 52.475 134.226 52.3563C134.52 51.9409 134.658 51.4348 134.614 50.9278Z" fill="#1D1D1B"/>
<path d="M139.419 53.4892V50.1272C139.419 49.4746 139.124 49.1605 138.558 49.1605C138.128 49.175 137.708 49.2866 137.327 49.4869V53.4892H136.318V48.3662H137.063L137.149 48.828C137.59 48.4744 138.134 48.2735 138.7 48.2554C138.938 48.2325 139.178 48.2633 139.403 48.3456C139.627 48.4279 139.83 48.5595 139.998 48.7309C140.165 48.9022 140.291 49.1088 140.368 49.3356C140.445 49.5623 140.47 49.8034 140.441 50.041V53.4892H139.419Z" fill="#1D1D1B"/>
<path d="M143.493 52.4919C144.051 52.5834 144.614 52.6349 145.179 52.6458C145.717 52.6977 146.256 52.5558 146.699 52.2456C146.796 52.1507 146.873 52.0365 146.924 51.9104C146.974 51.7842 146.998 51.6488 146.994 51.5129C146.994 50.8171 146.563 50.5831 145.333 50.2198C144.102 49.8565 143.321 49.3516 143.321 48.1448C143.312 47.8727 143.367 47.6023 143.481 47.3553C143.595 47.1083 143.766 46.8915 143.979 46.7224C144.497 46.368 145.119 46.1968 145.745 46.236C146.407 46.2473 147.066 46.3216 147.714 46.4576L147.579 47.3443C147.034 47.2482 146.483 47.1967 145.93 47.1904C145.504 47.1567 145.077 47.2442 144.699 47.4428C144.593 47.5174 144.507 47.6172 144.449 47.7333C144.391 47.8494 144.363 47.9781 144.367 48.1078C144.367 48.8405 144.933 49.0499 146.108 49.407C147.283 49.7641 148.046 50.2506 148.046 51.5005C148.058 51.8013 147.999 52.1007 147.874 52.3745C147.749 52.6483 147.561 52.8889 147.326 53.0768C146.749 53.466 146.058 53.6502 145.364 53.6002C144.692 53.5865 144.023 53.5143 143.364 53.3847L143.493 52.4919Z" fill="#1D1D1B"/>
<path d="M152.556 53.1874C152.001 53.4463 151.397 53.5868 150.784 53.6C149.277 53.6 148.471 52.6579 148.471 50.9585C148.471 49.5484 149.086 48.2554 150.673 48.2554C151.904 48.2554 152.636 49.142 152.636 50.5151C152.634 50.7757 152.607 51.0354 152.556 51.291H149.48C149.474 51.6706 149.595 52.0413 149.824 52.3439C149.96 52.4721 150.121 52.5702 150.297 52.6317C150.473 52.6933 150.66 52.7169 150.846 52.701C151.352 52.6893 151.851 52.5806 152.316 52.3808L152.556 53.1874ZM151.683 50.4905C151.683 49.7208 151.461 49.1112 150.637 49.1112C149.812 49.1112 149.517 49.7824 149.517 50.4905H151.683Z" fill="#1D1D1B"/>
<path d="M156.931 53.1875C156.382 53.4472 155.784 53.5878 155.177 53.6C153.842 53.6 152.975 52.8427 152.975 50.9462C152.975 48.7726 154.07 48.2554 155.325 48.2554C155.801 48.2535 156.276 48.3052 156.74 48.4094L156.654 49.2591C156.269 49.1979 155.881 49.165 155.491 49.1606C154.507 49.1606 153.996 49.5485 153.996 50.9339C153.996 52.1654 154.414 52.7072 155.282 52.7072C155.756 52.693 156.223 52.5841 156.654 52.387L156.931 53.1875Z" fill="#1D1D1B"/>
<path d="M160.807 53.4892L160.727 53.052C160.284 53.4002 159.74 53.5947 159.177 53.6062C158.94 53.6281 158.701 53.5967 158.478 53.5143C158.255 53.4319 158.053 53.3006 157.887 53.1299C157.721 52.9593 157.596 52.7537 157.52 52.5282C157.444 52.3026 157.419 52.063 157.448 51.8267V48.3662H158.457V51.722C158.457 52.4239 158.758 52.6887 159.355 52.6887C159.767 52.6813 160.173 52.5825 160.543 52.3993V48.3662H161.552V53.4892H160.807Z" fill="#1D1D1B"/>
<path d="M162.555 53.4894V48.3664H163.312L163.441 48.9821H163.484C163.648 48.7351 163.876 48.537 164.144 48.4091C164.411 48.2812 164.708 48.2281 165.004 48.2556C165.151 48.2478 165.299 48.2478 165.447 48.2556L165.379 49.1792C165.176 49.1436 164.97 49.1271 164.764 49.1299C164.32 49.1069 163.883 49.2446 163.533 49.5178V53.4586L162.555 53.4894Z" fill="#1D1D1B"/>
<path d="M166.32 46.3159C166.395 46.3159 166.468 46.3306 166.537 46.359C166.606 46.3875 166.668 46.4292 166.721 46.4818C166.773 46.5344 166.815 46.5969 166.843 46.6656C166.872 46.7343 166.886 46.808 166.886 46.8824C166.886 46.956 166.87 47.0287 166.841 47.0964C166.813 47.164 166.771 47.2254 166.718 47.2768C166.666 47.3283 166.603 47.3689 166.535 47.3963C166.467 47.4237 166.394 47.4374 166.32 47.4366C166.174 47.4366 166.033 47.3782 165.929 47.2743C165.825 47.1703 165.767 47.0294 165.767 46.8824C165.766 46.8088 165.78 46.7358 165.807 46.6675C165.834 46.5992 165.875 46.537 165.926 46.4844C165.978 46.4318 166.039 46.3898 166.107 46.3609C166.174 46.332 166.247 46.3167 166.32 46.3159ZM165.822 53.4893V48.3663H166.831V53.4893H165.822Z" fill="#1D1D1B"/>
<path d="M170.541 53.2676C170.159 53.4617 169.739 53.5669 169.31 53.5755C168.48 53.5755 168.006 53.1075 168.006 52.1778V49.1976H167.237V48.4525L168.037 48.4094L168.117 46.9009H169.015V48.3663H170.436V49.1976H169.009V52.0238C169.009 52.3994 169.07 52.6396 169.458 52.6396C169.717 52.6348 169.971 52.5716 170.203 52.4549L170.541 53.2676Z" fill="#1D1D1B"/>
<path d="M171.938 55.5026C172.233 54.7206 172.479 54.0187 172.658 53.4892H172.11C171.593 52.0668 171.058 50.2073 170.597 48.3662H171.667C172.012 49.8748 172.387 51.3156 172.83 52.6764H172.898C173.304 51.4449 173.735 49.8255 174.067 48.3662H175.101C174.513 50.788 173.778 53.1713 172.898 55.5026H171.938Z" fill="#1D1D1B"/>
<path d="M100.988 65.1882C100.933 63.2794 100.847 61.3152 100.761 59.4311H100.705L99.0624 63.9752H97.918L96.2997 59.4311H96.2444C96.1582 61.3152 96.0721 63.2794 96.0167 65.1882H94.9399C95.0199 62.8115 95.1368 60.4286 95.2722 58.0457H96.8227L98.4656 62.7807H98.521L100.158 58.0457H101.708C101.844 60.4286 101.96 62.8115 102.04 65.1882H100.988Z" fill="#1D1D1B"/>
<path d="M106.027 65.1885L105.917 64.7513C105.502 65.1106 104.97 65.3055 104.422 65.2993C104.202 65.3167 103.982 65.2877 103.774 65.2142C103.567 65.1407 103.377 65.0245 103.218 64.8729C103.058 64.7214 102.932 64.5379 102.848 64.3345C102.764 64.1311 102.724 63.9123 102.729 63.6922C102.719 63.4592 102.763 63.2269 102.857 63.0133C102.951 62.7998 103.092 62.6107 103.271 62.4607C103.672 62.1806 104.155 62.0439 104.643 62.0728C105 62.0728 105.406 62.0728 105.763 62.1159V61.6849C105.775 61.4603 105.7 61.2395 105.554 61.0692C105.288 60.886 104.963 60.8071 104.643 60.8475C104.159 60.8535 103.676 60.9092 103.203 61.0138L103.049 60.1702C103.599 60.0203 104.166 59.9457 104.735 59.9485C105.279 59.8965 105.824 60.0382 106.274 60.3488C106.451 60.5139 106.588 60.7174 106.674 60.9437C106.76 61.1699 106.794 61.4129 106.772 61.6541V65.1823L106.027 65.1885ZM105.763 62.8918C105.511 62.8918 105.148 62.8918 104.852 62.8918C104.114 62.8918 103.757 63.1565 103.757 63.723C103.753 63.836 103.773 63.9486 103.816 64.053C103.859 64.1575 103.925 64.2513 104.008 64.328C104.091 64.4046 104.19 64.4624 104.297 64.4972C104.405 64.532 104.519 64.5431 104.631 64.5296C105.039 64.5296 105.436 64.3979 105.763 64.154V62.8918Z" fill="#1D1D1B"/>
<path d="M110.845 65.1884V61.8265C110.845 61.1738 110.55 60.8597 109.984 60.8597C109.554 60.8742 109.134 60.9858 108.753 61.1861V65.1884H107.744V60.0654H108.489L108.575 60.5273C109.016 60.1736 109.56 59.9727 110.125 59.9546C110.363 59.9317 110.604 59.9625 110.828 60.0448C111.053 60.1271 111.256 60.2588 111.423 60.4301C111.59 60.6014 111.717 60.808 111.794 61.0348C111.87 61.2615 111.895 61.5026 111.867 61.7403V65.1884H110.845Z" fill="#1D1D1B"/>
<path d="M115.774 65.1885L115.663 64.7513C115.248 65.1106 114.717 65.3055 114.168 65.2993C113.949 65.3167 113.728 65.2877 113.521 65.2142C113.313 65.1407 113.124 65.0245 112.964 64.8729C112.805 64.7214 112.679 64.5379 112.595 64.3345C112.511 64.1311 112.47 63.9123 112.476 63.6922C112.464 63.459 112.507 63.2262 112.601 63.0124C112.695 62.7987 112.838 62.6098 113.017 62.4607C113.418 62.1806 113.902 62.0439 114.39 62.0728C114.746 62.0728 115.153 62.0728 115.509 62.1159V61.6849C115.522 61.4603 115.447 61.2395 115.3 61.0692C115.034 60.886 114.71 60.8071 114.39 60.8475C113.905 60.8535 113.423 60.9092 112.95 61.0138L112.796 60.1702C113.345 60.0203 113.912 59.9457 114.482 59.9485C115.026 59.8965 115.57 60.0382 116.02 60.3488C116.197 60.5139 116.334 60.7174 116.42 60.9437C116.507 61.1699 116.54 61.4129 116.518 61.6541V65.1823L115.774 65.1885ZM115.509 62.8918C115.257 62.8918 114.894 62.8918 114.599 62.8918C113.86 62.8918 113.504 63.1565 113.504 63.723C113.499 63.836 113.519 63.9486 113.563 64.053C113.606 64.1575 113.671 64.2513 113.755 64.328C113.838 64.4046 113.936 64.4624 114.044 64.4972C114.151 64.532 114.265 64.5431 114.377 64.5296C114.785 64.5296 115.182 64.3979 115.509 64.154V62.8918Z" fill="#1D1D1B"/>
<path d="M120.438 64.899C120.076 65.1513 119.648 65.2906 119.207 65.2992C117.755 65.2992 117.226 64.3571 117.226 62.67C117.226 60.7489 117.841 59.9546 119.238 59.9546C119.983 59.9637 120.724 60.082 121.435 60.3056V65.6502C121.449 65.8769 121.415 66.1041 121.334 66.3165C121.253 66.5289 121.128 66.7216 120.967 66.8817C120.515 67.2156 119.958 67.3732 119.398 67.325C118.842 67.3154 118.289 67.2577 117.743 67.1526L117.878 66.2844C118.332 66.3624 118.79 66.4077 119.25 66.4199C119.594 66.4583 119.94 66.3756 120.229 66.1859C120.366 66.0108 120.436 65.7923 120.426 65.5701L120.438 64.899ZM120.438 60.9521C120.08 60.889 119.718 60.856 119.355 60.8536C118.475 60.8536 118.254 61.4693 118.254 62.7008C118.254 63.9323 118.487 64.4864 119.343 64.4864C119.722 64.4899 120.097 64.4056 120.438 64.2401V60.9521Z" fill="#1D1D1B"/>
<path d="M126.135 64.8867C125.579 65.1456 124.976 65.286 124.363 65.2992C122.856 65.2992 122.043 64.3571 122.043 62.6577C122.043 61.2538 122.69 59.9546 124.252 59.9546C125.483 59.9546 126.209 60.8413 126.209 62.2144C126.208 62.4747 126.184 62.7344 126.135 62.9902H123.059C123.047 63.3706 123.169 63.7431 123.403 64.0431C123.538 64.1708 123.698 64.2687 123.873 64.3302C124.048 64.3917 124.234 64.4156 124.418 64.4002C124.927 64.3884 125.428 64.2797 125.895 64.08L126.135 64.8867ZM125.231 62.1897C125.231 61.4201 125.009 60.8105 124.191 60.8105C123.372 60.8105 123.096 61.4816 123.059 62.1897H125.231Z" fill="#1D1D1B"/>
<path d="M132.904 65.1885V61.7957C132.904 61.18 132.596 60.8598 132.03 60.8598C131.612 60.8765 131.206 60.9994 130.849 61.2169C130.882 61.4206 130.9 61.6264 130.904 61.8327V65.17H129.895V61.7773C129.895 61.1615 129.593 60.8413 129.027 60.8413C128.627 60.846 128.235 60.9542 127.889 61.1554V65.17H126.88V60.0655H127.624L127.711 60.5273C128.146 60.1718 128.687 59.9705 129.249 59.9547C129.508 59.9368 129.768 59.9877 130.001 60.1023C130.234 60.2169 130.433 60.3911 130.578 60.6074C131.02 60.2117 131.585 59.9811 132.178 59.9547C133.316 59.9547 133.913 60.5704 133.913 61.8388V65.1885H132.904Z" fill="#1D1D1B"/>
<path d="M138.515 64.8867C137.959 65.1456 137.356 65.286 136.743 65.2992C135.236 65.2992 134.423 64.3571 134.423 62.6577C134.423 61.2538 135.069 59.9546 136.632 59.9546C137.863 59.9546 138.589 60.8413 138.589 62.2144C138.588 62.4747 138.564 62.7344 138.515 62.9902H135.439C135.43 63.3703 135.551 63.7419 135.783 64.0431C135.918 64.1708 136.078 64.2687 136.253 64.3302C136.428 64.3917 136.614 64.4156 136.798 64.4002C137.306 64.3884 137.808 64.2797 138.275 64.08L138.515 64.8867ZM137.635 62.1897C137.635 61.4201 137.414 60.8105 136.595 60.8105C135.777 60.8105 135.5 61.4755 135.457 62.1897H137.635Z" fill="#1D1D1B"/>
<path d="M142.367 65.1884V61.8265C142.367 61.1738 142.066 60.8597 141.499 60.8597C141.07 60.8742 140.649 60.9858 140.269 61.1861V65.1884H139.26V60.0654H140.004L140.09 60.5273C140.532 60.1736 141.076 59.9727 141.641 59.9546C141.879 59.9317 142.119 59.9625 142.344 60.0448C142.569 60.1271 142.772 60.2588 142.939 60.4301C143.106 60.6014 143.233 60.808 143.309 61.0348C143.386 61.2615 143.411 61.5026 143.382 61.7403V65.1884H142.367Z" fill="#1D1D1B"/>
<path d="M146.994 64.9666C146.612 65.1607 146.191 65.2659 145.763 65.2745C144.933 65.2745 144.459 64.8065 144.459 63.8768V60.8966H143.696V60.1515L144.49 60.1084L144.57 58.5999H145.468V60.0653H146.895V60.8966H145.468V63.7228C145.468 64.0984 145.536 64.3386 145.923 64.3386C146.18 64.333 146.432 64.2699 146.662 64.1538L146.994 64.9666Z" fill="#1D1D1B"/>
<path d="M145.394 96.0001H43.5996C43.3241 95.9794 43.0666 95.8552 42.8787 95.6525C42.6908 95.4499 42.5864 95.1836 42.5864 94.9071C42.5864 94.6307 42.6908 94.3644 42.8787 94.1617C43.0666 93.959 43.3241 93.8349 43.5996 93.8142H145.394C156.38 93.8142 166.915 89.447 174.683 81.6733C182.451 73.8996 186.816 63.3562 186.816 52.3626C186.816 41.3689 182.451 30.8256 174.683 23.0519C166.915 15.2782 156.38 10.911 145.394 10.911H65.4057C65.1302 10.8903 64.8727 10.7661 64.6848 10.5634C64.4969 10.3608 64.3925 10.0945 64.3925 9.81804C64.3925 9.54156 64.4969 9.27531 64.6848 9.07262C64.8727 8.86994 65.1302 8.74581 65.4057 8.7251H145.394C151.12 8.7251 156.791 9.85381 162.081 12.0468C167.372 14.2398 172.179 17.4541 176.228 21.5062C180.277 25.5583 183.489 30.3689 185.681 35.6632C187.872 40.9576 189 46.632 189 52.3626C189 58.0931 187.872 63.7676 185.681 69.0619C183.489 74.3563 180.277 79.1668 176.228 83.2189C172.179 87.2711 167.372 90.4854 162.081 92.6784C156.791 94.8714 151.12 96.0001 145.394 96.0001Z" fill="#1D1D1B"/>
<path d="M46.1471 41.9996C46.2695 39.6261 47.2978 37.3902 49.0199 35.7535C50.742 34.1168 53.0262 33.2043 55.4012 33.2043C57.7761 33.2043 60.0604 34.1168 61.7824 35.7535C63.5045 37.3902 64.5328 39.6261 64.6552 41.9996H46.1471ZM53.9491 63.9876C52.6385 60.127 49.5251 58.095 46.904 56.3833C43.9936 54.4868 42.7753 53.5016 42.72 51.679C42.7149 50.4898 43.1785 49.3466 44.01 48.4972C44.8416 47.6477 45.9742 47.1604 47.1624 47.141H63.3262L53.9491 63.9876ZM41.434 78.6546C42.1542 78.774 42.8822 78.8399 43.6121 78.8516C44.341 78.8549 45.0685 78.7869 45.7841 78.6484L43.6121 82.5522L41.434 78.6546ZM38.8005 47.141C38.0906 48.5038 37.7072 50.0131 37.6807 51.5497C37.6775 51.601 37.6775 51.6524 37.6807 51.7036C37.7545 56.531 41.3232 58.8647 44.1967 60.7365C47.6115 62.9655 49.5436 64.431 49.5436 68.0638C49.5436 71.6967 46.6886 73.7656 43.1814 73.7656C40.9294 73.7656 38.0745 72.5341 36.9362 70.5514L35.9271 68.8027L23.7935 47.141H38.8005ZM32.0323 33.176C34.4014 33.2033 36.6718 34.1294 38.385 35.7673C40.0981 37.4051 41.1263 39.6325 41.2617 41.9996H22.7967C22.9322 39.6325 23.9603 37.4051 25.6735 35.7673C27.3866 34.1294 29.657 33.2033 32.0261 33.176H32.0323ZM55.4073 28.2501C53.079 28.2427 50.7865 28.8241 48.7427 29.9404C46.6989 31.0567 44.9701 32.6716 43.7167 34.6353C42.4647 32.6704 40.7361 31.0545 38.692 29.9381C36.648 28.8217 34.3548 28.241 32.0261 28.2501C28.2287 28.2648 24.592 29.786 21.9137 32.4801C19.2354 35.1741 17.7341 38.8212 17.739 42.6215V44.0808C17.6909 45.6743 18.1194 47.2459 18.9696 48.5941L43.5814 91.0802C43.5814 91.0802 66.9626 50.7184 68.1008 48.5941C69.2391 46.4698 69.4422 45.5154 69.4422 44.0808V42.6215C69.4734 38.8527 68.0105 35.2251 65.374 32.5337C62.7376 29.8422 59.1425 28.3063 55.3766 28.2624" fill="#161412"/>
<path d="M34.7516 7.62902C33.2657 7.62853 31.8111 8.05604 30.5615 8.8605V0H27.0728V24.057H29.1278L29.6939 22.7639C31.1446 23.8775 32.9298 24.4658 34.7578 24.4326C39.311 24.4326 40.9969 21.2984 40.9969 16.0339C40.9969 10.7693 39.3048 7.62902 34.7516 7.62902ZM33.9333 10.6769C37.0098 10.6769 37.4589 13.0783 37.4589 16.0339C37.4589 18.9894 36.9975 21.397 33.9333 21.397C32.7451 21.3982 31.5792 21.0745 30.5615 20.461V11.6067C31.5787 10.9927 32.7453 10.671 33.9333 10.6769ZM45.4085 12.635C45.4085 11.188 46.5714 10.6461 48.4173 10.6461C50.05 10.6335 51.6696 10.9388 53.1858 11.5451V8.42948C51.6465 7.82277 49.996 7.54994 48.3435 7.62902C43.7595 7.62902 42.0121 9.96883 42.0121 12.7273C42.0121 15.4859 43.1689 16.9883 47.882 17.4193C49.974 17.604 50.4724 18.2136 50.4724 19.402C50.4724 20.812 49.2418 21.397 46.7806 21.397C45.1891 21.3757 43.614 21.0713 42.129 20.498V23.5767C43.7819 24.1722 45.5286 24.4643 47.2852 24.4387C52.2814 24.4387 53.9365 22.0373 53.9365 19.2788C53.9365 16.2986 52.7059 14.8516 48.0297 14.4391C45.9992 14.2421 45.4331 13.7618 45.4331 12.6411L45.4085 12.635ZM59.4557 24.2786C59.685 24.2782 59.9137 24.2555 60.1387 24.2109V21.2984C59.1419 21.2984 58.8281 20.9721 58.8281 20.067V8.00462H55.3332V20.1101C55.3332 22.8624 56.6192 24.2786 59.4557 24.2786ZM54.8041 3.26342C54.788 3.57298 54.835 3.88257 54.9423 4.17335C55.0497 4.46413 55.215 4.73001 55.4282 4.95482C55.6415 5.17962 55.8983 5.35863 56.1829 5.48096C56.4675 5.60329 56.774 5.66638 57.0837 5.66638C57.3935 5.66638 57.7 5.60329 57.9846 5.48096C58.2692 5.35863 58.526 5.17962 58.7392 4.95482C58.9525 4.73001 59.1178 4.46413 59.2251 4.17335C59.3324 3.88257 59.3795 3.57298 59.3634 3.26342C59.3795 2.95386 59.3324 2.64427 59.2251 2.35349C59.1178 2.06271 58.9525 1.79683 58.7392 1.57203C58.526 1.34722 58.2692 1.16821 57.9846 1.04588C57.7 0.923551 57.3935 0.860466 57.0837 0.860466C56.774 0.860466 56.4675 0.923551 56.1829 1.04588C55.8983 1.16821 55.6415 1.34722 55.4282 1.57203C55.215 1.79683 55.0497 2.06271 54.9423 2.35349C54.835 2.64427 54.788 2.95386 54.8041 3.26342Z" fill="#161412"/>
<path d="M43.6058 96.0001C34.0627 95.998 24.7836 92.8635 17.1916 87.0772C9.59953 81.291 4.11356 73.1725 1.57489 63.9665C-0.963782 54.7606 -0.414997 44.9755 3.13709 36.1117C6.68918 27.2478 13.0485 19.7946 21.2399 14.8948C21.3607 14.7974 21.501 14.727 21.6513 14.6883C21.8015 14.6495 21.9584 14.6434 22.1112 14.6702C22.2641 14.6971 22.4094 14.7563 22.5375 14.8439C22.6656 14.9316 22.7735 15.0456 22.854 15.1784C22.9345 15.3112 22.9857 15.4596 23.0042 15.6138C23.0227 15.768 23.0081 15.9244 22.9613 16.0724C22.9144 16.2205 22.8366 16.3568 22.7328 16.4723C22.6291 16.5878 22.5018 16.6798 22.3597 16.742C16.1384 20.4598 11.0003 25.7456 7.45832 32.0717C3.91636 38.3978 2.09444 45.5429 2.1744 52.7939C2.25436 60.0448 4.23341 67.148 7.91401 73.3943C11.5946 79.6406 16.848 84.8116 23.1498 88.3911C29.4516 91.9706 36.5814 93.8334 43.8274 93.7935C51.0735 93.7536 58.1824 91.8125 64.4445 88.1639C70.7065 84.5153 75.9028 79.2868 79.5145 73.0003C83.1263 66.7139 85.0272 59.5894 85.0274 52.338C85.0607 45.1581 83.2153 38.0946 79.6747 31.8498C76.1341 25.605 71.0217 20.3964 64.8458 16.742C64.6402 16.5764 64.5018 16.3417 64.4562 16.0816C64.4105 15.8215 64.4608 15.5537 64.5977 15.3279C64.7346 15.1021 64.9487 14.9338 65.2003 14.8541C65.4519 14.7744 65.7239 14.7889 65.9656 14.8948C74.1565 19.7943 80.5156 27.247 84.0678 36.1102C87.62 44.9735 88.1693 54.758 85.6314 63.9636C83.0935 73.1692 77.6086 81.2877 70.0175 87.0744C62.4265 92.8611 53.1484 95.9966 43.6058 96.0001Z" fill="#161412"/>
</g>
<defs>
<clipPath id="clip0">
<rect width="189" height="96" fill="white"/>
</clipPath>
</defs>
</svg>
