<svg width="187" height="96" viewBox="0 0 187 96" fill="none" xmlns="http://www.w3.org/2000/svg">
<g clip-path="url(#clip0)">
<path d="M98.9578 78.8639C98.2516 79.1696 97.4918 79.3288 96.7236 79.3318C96.2787 79.367 95.832 79.2936 95.421 79.1179C95.01 78.9422 94.6466 78.6692 94.3615 78.322C93.8612 77.5267 93.6265 76.59 93.6919 75.6497C93.6919 74.3197 93.9841 73.3468 94.5868 72.7249C94.8998 72.4498 95.2642 72.241 95.6584 72.1109C96.0527 71.9808 96.4687 71.932 96.8819 71.9676C97.4954 71.9712 98.107 72.0351 98.7082 72.1584L98.6108 73.3222C98.0865 73.2474 97.5575 73.2104 97.028 73.2114C96.7712 73.1807 96.5109 73.2066 96.265 73.2874C96.0191 73.3682 95.7934 73.5019 95.6035 73.6793C95.2221 74.2598 95.052 74.9564 95.1225 75.6497C95.0829 76.2574 95.196 76.8653 95.4513 77.4169C95.6058 77.6463 95.8184 77.8296 96.0668 77.9476C96.3152 78.0657 96.5904 78.1142 96.8636 78.088C97.4589 78.0631 98.0474 77.9511 98.6108 77.7555L98.9578 78.8639Z" fill="#1D1D1B"/>
<path d="M99.6152 79.221V72.0784H103.998V73.3098H100.997V74.9785H103.493V76.173H100.997V78.0203H103.998V79.2517L99.6152 79.221Z" fill="#1D1D1B"/>
<path d="M108.479 79.2208C107.974 78.2788 107.536 77.3736 107.122 76.4623C106.811 76.4623 106.397 76.4623 106.135 76.4254V79.2208H104.753V72.1275C105.491 72.0382 106.233 71.9889 106.975 71.9797C108.424 71.9797 109.776 72.3369 109.776 74.1841C109.815 74.635 109.704 75.0863 109.458 75.465C109.213 75.8438 108.849 76.1279 108.424 76.2714C108.832 77.115 109.453 78.1987 110.068 79.2208H108.479ZM106.135 75.4156C106.635 75.4444 107.137 75.4071 107.627 75.3047C107.866 75.2527 108.076 75.1101 108.214 74.9062C108.352 74.7024 108.408 74.4528 108.37 74.2087C108.37 73.359 107.761 73.1989 107.085 73.1989C106.768 73.1989 106.428 73.1989 106.135 73.2358V75.4156Z" fill="#1D1D1B"/>
<path d="M111.901 79.221V73.273H109.989V72.0415H115.188V73.273H113.277V79.1964L111.901 79.221Z" fill="#1D1D1B"/>
<path d="M115.699 79.2209V72.0784H117.081V79.2209H115.699Z" fill="#1D1D1B"/>
<path d="M118.22 79.2209V72.0784H122.706V73.3098H119.602V75.0955H122.165V76.327H119.602V79.264L118.22 79.2209Z" fill="#1D1D1B"/>
<path d="M123.358 79.2209V72.0784H124.74V79.2209H123.358Z" fill="#1D1D1B"/>
<path d="M125.878 79.221V72.0784H130.28V73.3098H127.236V74.9785H129.726V76.173H127.236V78.0203H130.28V79.2517L125.878 79.221Z" fill="#1D1D1B"/>
<path d="M131.017 72.1706C131.746 72.0549 132.482 71.9911 133.22 71.9797C135.613 71.9797 136.447 73.2112 136.447 75.6372C136.447 78.0633 135.613 79.3317 133.22 79.3317C132.484 79.333 131.749 79.296 131.017 79.2209V72.1706ZM132.399 78.0694C132.697 78.0694 132.849 78.0694 133.105 78.0694C134.657 78.0694 135.041 77.3983 135.041 75.6065C135.041 73.9378 134.657 73.1435 133.105 73.1435C132.869 73.1429 132.633 73.1552 132.399 73.1804V78.0694Z" fill="#1D1D1B"/>
<path d="M94.3613 27.0124V17.8933H95.7067V27.0124H94.3613Z" fill="#1D1D1B"/>
<path d="M97.1251 25.7379C97.8297 25.8559 98.5418 25.9217 99.2558 25.9349C99.9349 26.0012 100.615 25.82 101.174 25.4238C101.298 25.3037 101.396 25.1582 101.462 24.9969C101.527 24.8355 101.557 24.6621 101.551 24.4879C101.551 23.5951 101.003 23.2995 99.4507 22.8316C97.8983 22.3636 96.8999 21.7294 96.8999 20.1839C96.8929 19.834 96.9682 19.4874 97.1196 19.1727C97.2709 18.858 97.494 18.5841 97.7704 18.3736C98.4247 17.9233 99.2088 17.7066 99.9986 17.7579C100.835 17.774 101.669 17.8689 102.488 18.0411L102.318 19.1741C101.631 19.0494 100.934 18.9835 100.236 18.977C99.697 18.9323 99.1565 19.0434 98.6775 19.2972C98.5435 19.3928 98.4351 19.5204 98.3618 19.6686C98.2885 19.8169 98.2526 19.9812 98.2574 20.147C98.2574 21.0829 98.9758 21.3784 100.455 21.8033C101.934 22.2282 102.89 22.8808 102.89 24.4818C102.904 24.8662 102.829 25.2485 102.67 25.5982C102.512 25.9478 102.274 26.2551 101.977 26.4952C101.247 26.9888 100.375 27.2228 99.4994 27.1602C98.6408 27.1461 97.7852 27.0554 96.9425 26.8893L97.1251 25.7379Z" fill="#1D1D1B"/>
<path d="M103.542 22.4498C103.542 19.3711 104.699 17.7517 107.432 17.7517C110.166 17.7517 111.322 19.3649 111.322 22.4498C111.322 25.5347 110.19 27.1541 107.432 27.1541C104.674 27.1541 103.542 25.5408 103.542 22.4498ZM109.952 22.4498C109.952 20.0423 109.234 18.9709 107.432 18.9709C105.63 18.9709 104.912 20.0423 104.912 22.4498C104.912 24.8573 105.624 25.9349 107.432 25.9349C109.24 25.9349 109.952 24.8573 109.952 22.4498Z" fill="#1D1D1B"/>
<path d="M114.896 27.0125V25.935C117.386 23.7368 119.157 22.025 119.157 20.5103C119.157 19.3773 118.317 18.971 117.38 18.971C116.596 18.9987 115.823 19.1654 115.097 19.4635L114.719 18.386C115.586 17.9883 116.525 17.7786 117.477 17.7703C119.303 17.7703 120.521 18.6877 120.521 20.4857C120.521 22.4684 118.548 24.1801 116.631 25.8241H120.649V27.0556L114.896 27.0125Z" fill="#1D1D1B"/>
<path d="M121.757 27.0125V25.935C124.253 23.7368 126.018 22.025 126.018 20.5103C126.018 19.3773 125.178 18.971 124.24 18.971C123.457 18.9987 122.684 19.1654 121.958 19.4635L121.58 18.386C122.447 17.9876 123.386 17.7779 124.338 17.7703C126.164 17.7703 127.382 18.6877 127.382 20.4857C127.382 22.4684 125.409 24.1801 123.492 25.8241H127.51V27.0556L121.757 27.0125Z" fill="#1D1D1B"/>
<path d="M128.453 25.7379C129.142 25.8565 129.838 25.9224 130.535 25.9349C131.099 26.0023 131.669 25.8719 132.149 25.5655C132.309 25.3981 132.43 25.1971 132.505 24.9769C132.58 24.7566 132.606 24.5224 132.581 24.2909C132.581 23.2011 132.009 22.8624 130.803 22.8624H129.866V21.6987H130.791C131.838 21.6987 132.398 21.4154 132.398 20.3132C132.416 20.1289 132.392 19.943 132.329 19.7692C132.266 19.5954 132.165 19.4383 132.033 19.3096C131.697 19.0521 131.278 18.9313 130.858 18.9709C130.074 18.9946 129.301 19.1615 128.575 19.4635L128.198 18.386C129.06 17.9865 129.995 17.7766 130.943 17.7702C131.737 17.724 132.517 17.9936 133.117 18.5214C133.334 18.7453 133.504 19.0112 133.617 19.3033C133.73 19.5953 133.783 19.9074 133.774 20.2209C133.797 20.6379 133.693 21.0519 133.475 21.4067C133.257 21.7614 132.936 22.0397 132.557 22.2036C132.985 22.3606 133.352 22.6548 133.6 23.0415C133.848 23.4282 133.965 23.8864 133.932 24.3463C133.97 24.7358 133.922 25.1289 133.791 25.4973C133.661 25.8656 133.451 26.2002 133.178 26.4768C132.481 27.011 131.613 27.2635 130.742 27.1849C129.904 27.1717 129.069 27.0811 128.246 26.914L128.453 25.7379Z" fill="#1D1D1B"/>
<path d="M134.706 22.4498C134.706 19.3711 135.314 17.7517 137.969 17.7517C140.623 17.7517 141.238 19.3957 141.238 22.4498C141.238 25.5039 140.629 27.1541 137.993 27.1541C135.357 27.1541 134.706 25.4977 134.706 22.4498ZM139.874 22.4498C139.874 20.2824 139.746 18.9401 137.969 18.9401C136.191 18.9401 136.051 20.2824 136.051 22.4498C136.051 24.6172 136.161 25.978 137.969 25.978C139.777 25.978 139.874 24.6295 139.874 22.4498Z" fill="#1D1D1B"/>
<path d="M143.57 27.0125V19.2665L141.695 19.9869L141.287 19.0879L143.722 17.9119H144.939V27.0125H143.57Z" fill="#1D1D1B"/>
<path d="M97.9167 34.9617C98.2822 35.0661 98.5989 35.2989 98.8098 35.6183C99.0207 35.9377 99.112 36.3228 99.0673 36.7043C99.0673 38.3852 97.9045 38.7855 96.4556 38.7855C95.6277 38.7855 94.8241 38.7547 94.0996 38.6993V31.649C94.8928 31.5406 95.6918 31.4809 96.4921 31.4705C97.8862 31.4705 98.8786 31.9015 98.8786 33.41C98.9102 33.7359 98.8325 34.0631 98.6581 34.339C98.4836 34.6148 98.2225 34.8233 97.9167 34.9309V34.9617ZM96.6443 34.5984C97.4114 34.5984 97.8193 34.309 97.8193 33.4778C97.8193 32.6465 97.3018 32.4002 96.5043 32.4002C96.0295 32.4002 95.5607 32.4002 95.1528 32.4556V34.5984H96.6443ZM95.1528 35.4481V37.8249C95.6155 37.8249 96.0173 37.8249 96.4495 37.8249C97.2896 37.8249 97.9836 37.6463 97.9836 36.6304C97.9836 35.6144 97.4905 35.3989 96.6565 35.3989L95.1528 35.4481Z" fill="#1D1D1B"/>
<path d="M103.012 38.7116L102.933 38.2744C102.494 38.6214 101.956 38.8157 101.399 38.8286C101.165 38.8505 100.928 38.8191 100.708 38.7367C100.487 38.6543 100.287 38.523 100.123 38.3523C99.959 38.1817 99.8348 37.9761 99.7595 37.7506C99.6843 37.525 99.6599 37.2854 99.6882 37.0491V33.5886H100.687V36.9444C100.687 37.6463 100.985 37.9111 101.575 37.9111C101.983 37.9038 102.385 37.8049 102.75 37.6217V33.5886H103.749V38.7116H103.012Z" fill="#1D1D1B"/>
<path d="M104.564 37.7694C105.057 37.8591 105.556 37.9106 106.056 37.9234C106.382 37.9507 106.709 37.8845 107 37.7325C107.077 37.6858 107.141 37.6189 107.184 37.5386C107.226 37.4584 107.247 37.3679 107.243 37.2768C107.243 36.8704 106.933 36.735 106.026 36.4948C105.216 36.2793 104.467 35.9468 104.467 34.974C104.459 34.7324 104.516 34.4931 104.632 34.2817C104.748 34.0703 104.918 33.8945 105.125 33.7733C105.547 33.5533 106.02 33.4513 106.494 33.4777C106.981 33.482 107.466 33.5336 107.943 33.6316L107.846 34.4814C107.431 34.4189 107.012 34.3859 106.592 34.3829C106.275 34.3512 105.957 34.411 105.672 34.5553C105.609 34.5973 105.556 34.6549 105.52 34.7226C105.484 34.7904 105.465 34.8662 105.465 34.9432C105.465 35.3557 105.873 35.4481 106.878 35.7436C107.767 36.0084 108.26 36.4086 108.26 37.2276C108.273 37.4636 108.23 37.6993 108.132 37.9141C108.034 38.1288 107.886 38.316 107.7 38.459C107.236 38.7466 106.696 38.8821 106.153 38.847C105.585 38.8458 105.019 38.7776 104.467 38.6438L104.564 37.7694Z" fill="#1D1D1B"/>
<path d="M109.289 31.5381C109.437 31.5381 109.58 31.5978 109.685 31.704C109.79 31.8102 109.849 31.9543 109.849 32.1046C109.848 32.1781 109.833 32.2509 109.804 32.3185C109.776 32.3862 109.734 32.4475 109.682 32.499C109.63 32.5504 109.569 32.591 109.501 32.6184C109.434 32.6459 109.361 32.6595 109.289 32.6587C109.143 32.6587 109.004 32.6003 108.901 32.4964C108.798 32.3925 108.741 32.2515 108.741 32.1046C108.74 32.031 108.753 31.958 108.781 31.8897C108.808 31.8214 108.848 31.7591 108.899 31.7065C108.95 31.6539 109.01 31.612 109.077 31.5831C109.144 31.5542 109.216 31.5389 109.289 31.5381ZM108.796 38.7114V33.5885H109.794V38.7114H108.796Z" fill="#1D1D1B"/>
<path d="M113.873 38.7115V35.3495C113.873 34.6968 113.574 34.3828 113.014 34.3828C112.589 34.3964 112.173 34.5081 111.797 34.7091V38.7115H110.798V33.5885H111.529L111.62 34.0503C112.057 33.6967 112.595 33.4958 113.154 33.4777C113.39 33.4546 113.627 33.4853 113.849 33.5676C114.071 33.6499 114.272 33.7817 114.437 33.9532C114.602 34.1247 114.726 34.3314 114.802 34.5582C114.877 34.785 114.901 35.026 114.871 35.2633V38.7115H113.873Z" fill="#1D1D1B"/>
<path d="M119.449 38.4099C118.899 38.6687 118.302 38.8092 117.696 38.8224C116.204 38.8224 115.401 37.8803 115.401 36.1809C115.401 34.7708 116.04 33.4778 117.586 33.4778C118.804 33.4778 119.522 34.3644 119.522 35.7375C119.522 35.9979 119.497 36.2576 119.449 36.5134H116.405C116.4 36.893 116.52 37.2637 116.746 37.5663C116.88 37.6945 117.04 37.7926 117.214 37.8541C117.388 37.9157 117.573 37.9393 117.757 37.9234C118.258 37.9117 118.752 37.803 119.212 37.6032L119.449 38.4099ZM118.585 35.7129C118.585 34.9432 118.366 34.3337 117.55 34.3337C116.734 34.3337 116.466 34.9987 116.424 35.7129H118.585Z" fill="#1D1D1B"/>
<path d="M120.003 37.7694C120.496 37.8591 120.995 37.9106 121.495 37.9234C121.821 37.9507 122.148 37.8845 122.439 37.7325C122.516 37.6858 122.58 37.6189 122.623 37.5386C122.665 37.4584 122.686 37.3679 122.682 37.2768C122.682 36.8704 122.372 36.735 121.465 36.4948C120.655 36.2793 119.906 35.9468 119.906 34.974C119.896 34.7348 119.949 34.4972 120.06 34.286C120.172 34.0748 120.337 33.8977 120.539 33.7733C120.962 33.5533 121.435 33.4513 121.909 33.4777C122.396 33.482 122.881 33.5336 123.358 33.6316L123.285 34.4814C122.87 34.4189 122.451 34.3859 122.031 34.3829C121.714 34.3512 121.396 34.411 121.111 34.5553C121.048 34.5973 120.995 34.6549 120.959 34.7226C120.923 34.7904 120.904 34.8662 120.904 34.9432C120.904 35.3557 121.312 35.4481 122.317 35.7436C123.206 36.0084 123.699 36.4086 123.699 37.2276C123.712 37.4636 123.669 37.6993 123.571 37.9141C123.473 38.1288 123.325 38.316 123.139 38.459C122.675 38.7466 122.135 38.8821 121.592 38.847C121.024 38.8458 120.458 38.7776 119.906 38.6438L120.003 37.7694Z" fill="#1D1D1B"/>
<path d="M124.058 37.7694C124.551 37.8591 125.049 37.9106 125.55 37.9234C125.876 37.9507 126.203 37.8845 126.493 37.7325C126.571 37.6858 126.634 37.6189 126.677 37.5386C126.72 37.4584 126.741 37.3679 126.737 37.2768C126.737 36.8704 126.426 36.735 125.519 36.4948C124.71 36.2793 123.961 35.9468 123.961 34.974C123.953 34.7324 124.01 34.4931 124.125 34.2817C124.241 34.0703 124.411 33.8945 124.618 33.7733C125.041 33.5533 125.514 33.4513 125.988 33.4777C126.475 33.4817 126.96 33.5333 127.437 33.6316L127.339 34.4814C126.924 34.4189 126.505 34.3859 126.085 34.3829C125.769 34.3512 125.45 34.411 125.166 34.5553C125.102 34.5973 125.05 34.6549 125.014 34.7226C124.978 34.7904 124.959 34.8662 124.959 34.9432C124.959 35.3557 125.367 35.4481 126.371 35.7436C127.26 36.0084 127.753 36.4086 127.753 37.2276C127.767 37.4636 127.723 37.6993 127.625 37.9141C127.528 38.1288 127.379 38.316 127.193 38.459C126.73 38.7466 126.19 38.8821 125.647 38.847C125.079 38.8458 124.513 38.7776 123.961 38.6438L124.058 37.7694Z" fill="#1D1D1B"/>
<path d="M135.326 38.2744C134.624 38.6258 133.852 38.813 133.068 38.8224C132.631 38.8543 132.193 38.7779 131.792 38.5997C131.391 38.4216 131.039 38.1472 130.767 37.8002C130.278 37.0046 130.049 36.0746 130.109 35.1402C130.042 34.153 130.317 33.173 130.888 32.3694C131.189 32.046 131.558 31.796 131.969 31.6381C132.379 31.4802 132.819 31.4187 133.256 31.4581C133.871 31.4656 134.483 31.5357 135.083 31.6675L134.985 32.5664C134.435 32.4662 133.877 32.4147 133.317 32.4125C133.013 32.3776 132.705 32.4151 132.417 32.522C132.13 32.6289 131.871 32.8023 131.661 33.0282C131.292 33.6572 131.124 34.3863 131.181 35.1156C131.129 35.8061 131.27 36.4974 131.588 37.1106C131.756 37.357 131.985 37.5545 132.252 37.6831C132.52 37.8117 132.815 37.867 133.11 37.8433C133.77 37.8206 134.421 37.6744 135.028 37.4123L135.326 38.2744Z" fill="#1D1D1B"/>
<path d="M137.889 38.8225C137.599 38.8404 137.307 38.7995 137.032 38.7023C136.757 38.605 136.504 38.4533 136.288 38.256C136.044 37.9677 135.859 37.6329 135.744 37.2713C135.629 36.9097 135.586 36.5286 135.619 36.1502C135.585 35.7717 135.627 35.3903 135.742 35.0286C135.857 34.6669 136.043 34.3322 136.288 34.0444C136.743 33.6777 137.308 33.478 137.889 33.478C138.471 33.478 139.035 33.6777 139.49 34.0444C139.736 34.3322 139.921 34.6669 140.036 35.0286C140.151 35.3903 140.193 35.7717 140.16 36.1502C140.192 36.5286 140.15 36.9097 140.035 37.2713C139.92 37.6329 139.735 37.9677 139.49 38.256C139.274 38.4533 139.021 38.605 138.746 38.7023C138.471 38.7995 138.18 38.8404 137.889 38.8225ZM139.149 36.1502C139.196 35.6444 139.069 35.1378 138.79 34.7155C138.542 34.4831 138.216 34.3541 137.877 34.3541C137.539 34.3541 137.213 34.4831 136.964 34.7155C136.685 35.1378 136.558 35.6444 136.605 36.1502C136.563 36.6496 136.694 37.1482 136.976 37.5602C137.091 37.6831 137.232 37.7787 137.387 37.8405C137.543 37.9022 137.71 37.9284 137.877 37.9174C138.047 37.9267 138.218 37.8998 138.377 37.8383C138.537 37.7767 138.682 37.682 138.802 37.5602C139.076 37.145 139.199 36.6467 139.149 36.1502Z" fill="#1D1D1B"/>
<path d="M143.904 38.7116V35.3497C143.904 34.697 143.612 34.3829 143.052 34.3829C142.627 34.3974 142.211 34.509 141.834 34.7093V38.7116H140.836V33.5886H141.573L141.658 34.0504C142.095 33.6968 142.633 33.4959 143.192 33.4778C143.428 33.4549 143.665 33.4857 143.887 33.568C144.11 33.6503 144.311 33.7819 144.476 33.9533C144.642 34.1246 144.767 34.3312 144.843 34.558C144.919 34.7847 144.943 35.0258 144.915 35.2635V38.7116H143.904Z" fill="#1D1D1B"/>
<path d="M148.488 38.4898C148.111 38.6839 147.694 38.7891 147.271 38.7977C147.09 38.8114 146.908 38.7839 146.738 38.7172C146.569 38.6505 146.417 38.5463 146.292 38.4123C146.168 38.2782 146.075 38.1177 146.02 37.9426C145.965 37.7674 145.949 37.582 145.974 37.3999V34.4198H145.219V33.6747L146.011 33.6316L146.084 32.123H146.973V33.5885H148.385V34.4198H146.973V37.246C146.973 37.6216 147.04 37.8617 147.423 37.8617C147.679 37.8563 147.931 37.7932 148.16 37.677L148.488 38.4898Z" fill="#1D1D1B"/>
<path d="M149.493 31.5381C149.641 31.5381 149.784 31.5978 149.889 31.704C149.994 31.8102 150.053 31.9543 150.053 32.1046C150.052 32.1781 150.037 32.2509 150.008 32.3185C149.98 32.3862 149.938 32.4475 149.886 32.499C149.834 32.5504 149.773 32.591 149.705 32.6184C149.638 32.6459 149.566 32.6595 149.493 32.6587C149.347 32.6587 149.208 32.6003 149.105 32.4964C149.003 32.3925 148.945 32.2515 148.945 32.1046C148.944 32.031 148.958 31.958 148.985 31.8897C149.012 31.8214 149.052 31.7591 149.103 31.7065C149.154 31.6539 149.214 31.612 149.281 31.5831C149.348 31.5542 149.42 31.5389 149.493 31.5381ZM149 38.7114V33.5885H149.998V38.7114H149Z" fill="#1D1D1B"/>
<path d="M154.071 38.7115V35.3495C154.071 34.6968 153.779 34.3828 153.219 34.3828C152.794 34.3981 152.378 34.5097 152.001 34.7091V38.7115H150.979V33.5885H151.709L151.8 34.0503C152.236 33.6947 152.775 33.4935 153.334 33.4777C153.57 33.4546 153.807 33.4853 154.029 33.5676C154.251 33.6499 154.452 33.7817 154.617 33.9532C154.782 34.1247 154.907 34.3314 154.982 34.5582C155.057 34.785 155.081 35.026 155.051 35.2633V38.7115H154.071Z" fill="#1D1D1B"/>
<path d="M159.215 38.7116L159.136 38.2744C158.697 38.6214 158.159 38.8157 157.602 38.8286C157.368 38.8505 157.131 38.8191 156.911 38.7367C156.69 38.6543 156.49 38.523 156.326 38.3523C156.162 38.1817 156.038 37.9761 155.963 37.7506C155.887 37.525 155.863 37.2854 155.891 37.0491V33.5886H156.89V36.9444C156.89 37.6463 157.188 37.9111 157.779 37.9111C158.186 37.9029 158.588 37.8041 158.953 37.6217V33.5886H159.946V38.7116H159.215Z" fill="#1D1D1B"/>
<path d="M161.437 31.5381C161.586 31.5381 161.728 31.5978 161.833 31.704C161.938 31.8102 161.997 31.9543 161.997 32.1046C161.996 32.1781 161.981 32.2509 161.953 32.3185C161.924 32.3862 161.883 32.4475 161.831 32.499C161.779 32.5504 161.717 32.591 161.65 32.6184C161.582 32.6459 161.51 32.6595 161.437 32.6587C161.292 32.6587 161.152 32.6003 161.05 32.4964C160.947 32.3925 160.889 32.2515 160.889 32.1046C160.888 32.031 160.902 31.958 160.929 31.8897C160.956 31.8214 160.996 31.7591 161.047 31.7065C161.098 31.6539 161.159 31.612 161.226 31.5831C161.292 31.5542 161.364 31.5389 161.437 31.5381ZM160.944 38.7114V33.5885H161.936V38.7114H160.944Z" fill="#1D1D1B"/>
<path d="M165.589 38.4898C165.211 38.6839 164.795 38.7891 164.371 38.7977C163.55 38.7977 163.081 38.3297 163.081 37.3999V34.4198H162.32V33.6747L163.111 33.6316L163.184 32.123H164.073V33.5885H165.492V34.4198H164.073V37.246C164.073 37.6216 164.14 37.8617 164.524 37.8617C164.78 37.8569 165.032 37.7938 165.26 37.677L165.589 38.4898Z" fill="#1D1D1B"/>
<path d="M166.996 40.7251C167.288 39.9431 167.531 39.2411 167.708 38.7116H167.166C166.655 37.2892 166.125 35.4297 165.668 33.5886H166.709C167.05 35.0972 167.422 36.538 167.86 37.8988H167.933C168.341 36.6673 168.767 35.0479 169.096 33.5886H170.119C169.548 36.0098 168.83 38.3931 167.97 40.7251H166.996Z" fill="#1D1D1B"/>
<path d="M99.9194 50.4107C99.8646 48.5019 99.7794 46.5376 99.6941 44.6535H99.6393L98.0139 49.1976H96.8816L95.2805 44.6535H95.2257C95.1404 46.5376 95.0552 48.5019 95.0004 50.4107H93.9351C94.0142 48.0339 94.1299 45.651 94.2638 43.2681H95.7979L97.4477 48.0277H97.5025L99.1219 43.2927H100.656C100.79 45.6756 100.906 48.0585 100.985 50.4353L99.9194 50.4107Z" fill="#1D1D1B"/>
<path d="M104.906 50.4106L104.796 49.9735C104.386 50.3327 103.86 50.5277 103.317 50.5215C103.102 50.5352 102.886 50.5035 102.684 50.4285C102.482 50.3534 102.297 50.2365 102.142 50.0854C101.987 49.9342 101.864 49.752 101.783 49.5504C101.701 49.3488 101.661 49.1322 101.667 48.9144C101.657 48.6813 101.7 48.449 101.793 48.2355C101.886 48.0219 102.026 47.8329 102.203 47.6829C102.599 47.4028 103.077 47.2661 103.56 47.295C103.913 47.295 104.315 47.295 104.668 47.3381V46.9071C104.681 46.6825 104.607 46.4617 104.461 46.2913C104.198 46.1082 103.877 46.0293 103.56 46.0697C103.081 46.0757 102.604 46.1314 102.136 46.2359L101.984 45.3924C102.527 45.2424 103.088 45.1679 103.652 45.1707C104.19 45.1187 104.729 45.2604 105.174 45.5709C105.349 45.7361 105.484 45.9396 105.57 46.1658C105.655 46.3921 105.688 46.6351 105.667 46.8763V50.4045L104.906 50.4106ZM104.644 48.1139C104.394 48.1139 104.035 48.1139 103.743 48.1139C103.012 48.1139 102.659 48.3787 102.659 48.9452C102.655 49.0582 102.675 49.1708 102.718 49.2752C102.761 49.3796 102.825 49.4734 102.908 49.5501C102.99 49.6268 103.087 49.6845 103.194 49.7193C103.3 49.7542 103.413 49.7652 103.524 49.7518C103.927 49.7518 104.32 49.6201 104.644 49.3762V48.1139Z" fill="#1D1D1B"/>
<path d="M109.672 50.4106V47.0486C109.672 46.3959 109.38 46.0819 108.82 46.0819C108.395 46.0964 107.979 46.208 107.602 46.4083V50.4106H106.604V45.2876H107.341L107.426 45.7494C107.863 45.3958 108.401 45.1949 108.96 45.1768C109.196 45.1539 109.433 45.1847 109.656 45.267C109.878 45.3493 110.079 45.4809 110.244 45.6522C110.41 45.8236 110.535 46.0302 110.611 46.257C110.687 46.4837 110.711 46.7248 110.683 46.9624V50.4106H109.672Z" fill="#1D1D1B"/>
<path d="M114.549 50.4106L114.439 49.9735C114.029 50.3327 113.502 50.5277 112.96 50.5215C112.743 50.5388 112.525 50.5098 112.319 50.4364C112.114 50.3629 111.927 50.2466 111.769 50.0951C111.611 49.9435 111.486 49.7601 111.403 49.5567C111.32 49.3533 111.28 49.1345 111.286 48.9144C111.274 48.6811 111.316 48.4484 111.409 48.2346C111.502 48.0208 111.643 47.8319 111.821 47.6829C112.218 47.4028 112.696 47.2661 113.179 47.295C113.532 47.295 113.934 47.295 114.287 47.3381V46.9071C114.299 46.6825 114.225 46.4617 114.08 46.2913C113.817 46.1082 113.496 46.0293 113.179 46.0697C112.7 46.0757 112.222 46.1314 111.754 46.2359L111.602 45.3924C112.146 45.2424 112.707 45.1679 113.27 45.1707C113.808 45.1187 114.347 45.2604 114.792 45.5709C114.967 45.7361 115.103 45.9396 115.188 46.1658C115.274 46.3921 115.307 46.6351 115.285 46.8763V50.4045L114.549 50.4106ZM114.287 48.1139C114.037 48.1139 113.678 48.1139 113.386 48.1139C112.655 48.1139 112.302 48.3787 112.302 48.9452C112.298 49.0582 112.318 49.1708 112.361 49.2752C112.404 49.3796 112.468 49.4734 112.551 49.5501C112.633 49.6268 112.73 49.6845 112.837 49.7193C112.943 49.7542 113.056 49.7652 113.167 49.7518C113.57 49.7518 113.963 49.6201 114.287 49.3762V48.1139Z" fill="#1D1D1B"/>
<path d="M119.163 50.1211C118.805 50.3735 118.382 50.5128 117.946 50.5214C116.509 50.5214 115.985 49.5793 115.985 47.8922C115.985 45.9711 116.594 45.1768 117.976 45.1768C118.714 45.1859 119.446 45.3042 120.149 45.5277V50.8724C120.163 51.0991 120.129 51.3263 120.05 51.5387C119.97 51.7511 119.846 51.9437 119.687 52.1038C119.24 52.4378 118.688 52.5954 118.134 52.5472C117.585 52.5376 117.037 52.4799 116.497 52.3748L116.631 51.5066C117.079 51.5846 117.533 51.6299 117.988 51.642C118.328 51.6837 118.672 51.6007 118.956 51.408C119.092 51.233 119.161 51.0145 119.151 50.7923L119.163 50.1211ZM119.163 46.1743C118.809 46.1112 118.451 46.0782 118.092 46.0757C117.221 46.0757 117.002 46.6915 117.002 47.923C117.002 49.1544 117.233 49.7086 118.08 49.7086C118.455 49.712 118.826 49.6277 119.163 49.4623V46.1743Z" fill="#1D1D1B"/>
<path d="M124.801 50.1088C124.251 50.3677 123.654 50.5082 123.048 50.5214C121.556 50.5214 120.752 49.5793 120.752 47.8799C120.752 46.4698 121.392 45.1768 122.938 45.1768C124.156 45.1768 124.874 46.0634 124.874 47.4365C124.873 47.6969 124.849 47.9566 124.801 48.2124H121.757C121.746 48.5928 121.866 48.9653 122.098 49.2653C122.231 49.393 122.389 49.4908 122.562 49.5524C122.735 49.6139 122.919 49.6378 123.102 49.6224C123.605 49.6105 124.101 49.5019 124.563 49.3022L124.801 50.1088ZM123.906 47.4119C123.906 46.6422 123.687 46.0326 122.877 46.0326C122.067 46.0326 121.793 46.7038 121.757 47.4119H123.906Z" fill="#1D1D1B"/>
<path d="M131.497 50.4106V47.0179C131.497 46.4022 131.193 46.082 130.633 46.082C130.219 46.0987 129.817 46.2216 129.464 46.4391C129.497 46.6428 129.515 46.8485 129.519 47.0548V50.3922H128.52V47.0179C128.52 46.4022 128.222 46.082 127.662 46.082C127.266 46.0866 126.878 46.1948 126.536 46.396V50.4106H125.537V45.2877H126.274L126.359 45.7495C126.79 45.394 127.325 45.1927 127.881 45.1768C128.138 45.1589 128.394 45.2099 128.625 45.3245C128.856 45.4391 129.053 45.6133 129.196 45.8295C129.633 45.4339 130.192 45.2033 130.779 45.1768C131.905 45.1768 132.495 45.7926 132.495 47.061V50.4106H131.497Z" fill="#1D1D1B"/>
<path d="M137.049 50.1088C136.5 50.3677 135.902 50.5082 135.296 50.5214C133.805 50.5214 133.001 49.5793 133.001 47.8799C133.001 46.4698 133.64 45.1768 135.187 45.1768C136.404 45.1768 137.122 46.0634 137.122 47.4365C137.122 47.6969 137.097 47.9566 137.049 48.2124H134.005C133.997 48.5924 134.117 48.964 134.346 49.2653C134.48 49.393 134.638 49.4908 134.811 49.5524C134.984 49.6139 135.168 49.6378 135.351 49.6224C135.854 49.6105 136.349 49.5019 136.812 49.3022L137.049 50.1088ZM136.179 47.4119C136.179 46.6422 135.96 46.0326 135.15 46.0326C134.34 46.0326 134.066 46.6976 134.024 47.4119H136.179Z" fill="#1D1D1B"/>
<path d="M140.86 50.4106V47.0486C140.86 46.3959 140.562 46.0819 140.002 46.0819C139.577 46.0964 139.161 46.208 138.785 46.4083V50.4106H137.786V45.2876H138.523L138.608 45.7494C139.045 45.3958 139.583 45.1949 140.142 45.1768C140.378 45.1539 140.615 45.1847 140.838 45.267C141.06 45.3493 141.261 45.4809 141.426 45.6522C141.592 45.8236 141.717 46.0302 141.793 46.257C141.869 46.4837 141.893 46.7248 141.865 46.9624V50.4106H140.86Z" fill="#1D1D1B"/>
<path d="M145.438 50.189C145.061 50.3831 144.644 50.4883 144.221 50.4969C143.399 50.4969 142.93 50.0289 142.93 49.0992V46.119H142.175V45.3739L142.961 45.3308L143.04 43.8223H143.929V45.2877H145.341V46.119H143.929V48.9452C143.929 49.3208 143.996 49.561 144.379 49.561C144.633 49.5554 144.883 49.4923 145.11 49.3762L145.438 50.189Z" fill="#1D1D1B"/>
<path d="M143.855 96.0001H43.1382C42.8656 95.9794 42.6109 95.8552 42.425 95.6525C42.239 95.4499 42.1357 95.1836 42.1357 94.9071C42.1357 94.6307 42.239 94.3644 42.425 94.1617C42.6109 93.959 42.8656 93.8349 43.1382 93.8142H143.855C154.725 93.8142 165.149 89.447 172.835 81.6733C180.521 73.8996 184.839 63.3562 184.839 52.3626C184.839 41.3689 180.521 30.8256 172.835 23.0519C165.149 15.2782 154.725 10.911 143.855 10.911H64.7135C64.4409 10.8903 64.1861 10.7661 64.0002 10.5634C63.8143 10.3608 63.711 10.0945 63.711 9.81804C63.711 9.54156 63.8143 9.27531 64.0002 9.07262C64.1861 8.86994 64.4409 8.74581 64.7135 8.7251H143.855C149.521 8.7251 155.131 9.85381 160.366 12.0468C165.601 14.2398 170.357 17.4541 174.363 21.5062C178.369 25.5583 181.547 30.3689 183.716 35.6632C185.884 40.9576 187 46.632 187 52.3626C187 58.0931 185.884 63.7676 183.716 69.0619C181.547 74.3563 178.369 79.1668 174.363 83.2189C170.357 87.2711 165.601 90.4854 160.366 92.6784C155.131 94.8714 149.521 96.0001 143.855 96.0001Z" fill="#1D1D1B"/>
<path d="M45.6585 41.9996C45.7796 39.6261 46.797 37.3902 48.5009 35.7535C50.2047 34.1168 52.4648 33.2043 54.8146 33.2043C57.1644 33.2043 59.4245 34.1168 61.1283 35.7535C62.8322 37.3902 63.8496 39.6261 63.9707 41.9996H45.6585ZM53.3779 63.9876C52.0812 60.1269 49.0007 58.095 46.4073 56.3833C43.5278 54.4868 42.3224 53.5016 42.2676 51.679C42.2626 50.4898 42.7212 49.3466 43.544 48.4972C44.3668 47.6477 45.4874 47.1604 46.663 47.141H62.6557L53.3779 63.9876ZM40.9952 78.6546C41.7078 78.774 42.4281 78.8399 43.1503 78.8516C43.8715 78.8549 44.5912 78.7869 45.2993 78.6484L43.1503 82.5522L40.9952 78.6546ZM38.3896 47.141C37.6872 48.5038 37.3079 50.0131 37.2816 51.5497C37.2785 51.601 37.2785 51.6524 37.2816 51.7036C37.3547 56.531 40.8856 58.8647 43.7287 60.7365C47.1074 62.9655 49.019 64.431 49.019 68.0638C49.019 71.6967 46.1942 73.7656 42.7242 73.7656C40.496 73.7656 37.6713 72.5341 36.545 70.5514L35.5466 68.8027L23.5414 47.141H38.3896ZM31.693 33.176C34.037 33.2033 36.2835 34.1294 37.9785 35.7672C39.6735 37.4051 40.6907 39.6325 40.8248 41.9996H22.5552C22.6892 39.6325 23.7064 37.4051 25.4015 35.7672C27.0965 34.1294 29.3429 33.2033 31.6869 33.176H31.693ZM54.8207 28.2501C52.517 28.2427 50.2487 28.8241 48.2266 29.9404C46.2044 31.0567 44.4939 32.6716 43.2538 34.6353C42.015 32.6704 40.3047 31.0545 38.2823 29.9381C36.2598 28.8217 33.991 28.241 31.6869 28.2501C27.9296 28.2648 24.3315 29.786 21.6815 32.4801C19.0315 35.1741 17.5461 38.8212 17.551 42.6215V44.0808C17.5034 45.6743 17.9274 47.2459 18.7685 48.5941L43.1199 91.0802C43.1199 91.0802 66.2536 50.7184 67.3799 48.5941C68.5061 46.4698 68.707 45.5154 68.707 44.0808V42.6215C68.7379 38.8527 67.2905 35.2251 64.6819 32.5337C62.0734 29.8422 58.5164 28.3063 54.7902 28.2624" fill="#161412"/>
<path d="M34.3837 7.62902C32.9136 7.62853 31.4744 8.05604 30.2379 8.8605V0H26.7861V24.057H28.8195L29.3795 22.7639C30.8148 23.8775 32.5812 24.4658 34.3898 24.4326C38.8948 24.4326 40.5629 21.2984 40.5629 16.0339C40.5629 10.7693 38.8887 7.62902 34.3837 7.62902ZM33.5741 10.6769C36.618 10.6769 37.0624 13.0783 37.0624 16.0339C37.0624 18.9894 36.6058 21.397 33.5741 21.397C32.3985 21.3982 31.2449 21.0745 30.2379 20.461V11.6067C31.2444 10.9927 32.3987 10.671 33.5741 10.6769ZM44.9279 12.635C44.9279 11.188 46.0785 10.6461 47.9048 10.6461C49.5203 10.6335 51.1227 10.9388 52.6229 11.5451V8.42948C51.0998 7.82277 49.4668 7.54994 47.8318 7.62902C43.2963 7.62902 41.5674 9.96883 41.5674 12.7273C41.5674 15.4859 42.7119 16.9883 47.3752 17.4193C49.445 17.604 49.9382 18.2136 49.9382 19.402C49.9382 20.812 48.7206 21.397 46.2855 21.397C44.7108 21.3757 43.1523 21.0713 41.6831 20.498V23.5767C43.3184 24.1722 45.0467 24.4643 46.7847 24.4387C51.728 24.4387 53.3656 22.0373 53.3656 19.2788C53.3656 16.2986 52.148 14.8516 47.5213 14.4391C45.5123 14.2421 44.9522 13.7618 44.9522 12.6411L44.9279 12.635ZM58.8264 24.2786C59.0533 24.2782 59.2796 24.2555 59.5021 24.2109V21.2984C58.5159 21.2984 58.2054 20.9721 58.2054 20.067V8.00462H54.7476V20.1101C54.7476 22.8624 56.0199 24.2786 58.8264 24.2786ZM54.224 3.26342C54.2081 3.57298 54.2546 3.88257 54.3608 4.17335C54.467 4.46413 54.6305 4.73001 54.8416 4.95482C55.0526 5.17962 55.3066 5.35863 55.5882 5.48096C55.8698 5.60329 56.1731 5.66638 56.4795 5.66638C56.786 5.66638 57.0893 5.60329 57.3709 5.48096C57.6525 5.35863 57.9065 5.17962 58.1175 4.95482C58.3285 4.73001 58.4921 4.46413 58.5983 4.17335C58.7044 3.88257 58.751 3.57298 58.7351 3.26342C58.751 2.95386 58.7044 2.64427 58.5983 2.35349C58.4921 2.06271 58.3285 1.79683 58.1175 1.57203C57.9065 1.34722 57.6525 1.16821 57.3709 1.04588C57.0893 0.923551 56.786 0.860466 56.4795 0.860466C56.1731 0.860466 55.8698 0.923551 55.5882 1.04588C55.3066 1.16821 55.0526 1.34722 54.8416 1.57203C54.6305 1.79683 54.467 2.06271 54.3608 2.35349C54.2546 2.64427 54.2081 2.95386 54.224 3.26342Z" fill="#161412"/>
<path d="M43.1444 96.0001C33.7023 95.998 24.5214 92.8635 17.0097 87.0772C9.49798 81.291 4.07006 73.1725 1.55826 63.9665C-0.953547 54.7606 -0.410569 44.9755 3.10393 36.1117C6.61843 27.2478 12.9104 19.7946 21.0151 14.8948C21.1347 14.7974 21.2735 14.727 21.4222 14.6883C21.5709 14.6495 21.726 14.6434 21.8773 14.6702C22.0285 14.6971 22.1723 14.7563 22.2991 14.8439C22.4258 14.9316 22.5326 15.0456 22.6122 15.1784C22.6919 15.3112 22.7425 15.4596 22.7608 15.6138C22.7791 15.768 22.7646 15.9244 22.7183 16.0724C22.672 16.2205 22.5949 16.3568 22.4923 16.4723C22.3896 16.5878 22.2638 16.6798 22.1231 16.742C15.9676 20.4598 10.8839 25.7456 7.37943 32.0717C3.87496 38.3978 2.07231 45.5429 2.15142 52.7939C2.23054 60.0448 4.18865 67.148 7.8303 73.3943C11.4719 79.6407 16.6698 84.8116 22.9049 88.3911C29.14 91.9706 36.1943 93.8334 43.3637 93.7935C50.5331 93.7536 57.5667 91.8125 63.7625 88.1639C69.9584 84.5153 75.0996 79.2868 78.6732 73.0003C82.2467 66.7139 84.1274 59.5894 84.1277 52.338C84.1606 45.1581 82.3347 38.0946 78.8316 31.8498C75.3285 25.605 70.2702 20.3964 64.1596 16.742C63.9562 16.5764 63.8193 16.3417 63.7741 16.0816C63.729 15.8215 63.7787 15.5537 63.9142 15.3279C64.0496 15.1021 64.2615 14.9338 64.5104 14.8541C64.7593 14.7744 65.0284 14.7889 65.2676 14.8948C73.3718 19.7943 79.6636 27.247 83.1782 36.1102C86.6928 44.9735 87.2363 54.758 84.7253 63.9636C82.2143 73.1692 76.7873 81.2877 69.2766 87.0744C61.7659 92.8612 52.586 95.9966 43.1444 96.0001Z" fill="#161412"/>
</g>
<defs>
<clipPath id="clip0">
<rect width="187" height="96" fill="white"/>
</clipPath>
</defs>
</svg>
