<svg width="189" height="96" viewBox="0 0 189 96" fill="none" xmlns="http://www.w3.org/2000/svg">
<path d="M100.016 78.8638C99.3025 79.1696 98.5345 79.3288 97.7581 79.3318C97.3085 79.3669 96.857 79.2936 96.4415 79.1179C96.0261 78.9421 95.6589 78.6692 95.3708 78.322C94.8651 77.5267 94.6279 76.59 94.694 75.6497C94.694 74.3197 94.9893 73.3468 95.5984 72.7249C95.9148 72.4498 96.2831 72.241 96.6815 72.1109C97.08 71.9808 97.5005 71.932 97.9181 71.9676C98.5381 71.9712 99.1563 72.0351 99.764 72.1584L99.6655 73.3222C99.1356 73.2474 98.601 73.2104 98.0658 73.2114C97.8062 73.1806 97.5431 73.2066 97.2946 73.2874C97.0461 73.3681 96.8179 73.5019 96.626 73.6793C96.2405 74.2598 96.0687 74.9564 96.1399 75.6497C96.0998 76.2574 96.2141 76.8653 96.4721 77.4169C96.6283 77.6463 96.8432 77.8296 97.0942 77.9476C97.3453 78.0657 97.6235 78.1142 97.8996 78.088C98.5012 78.0631 99.096 77.9511 99.6655 77.7555L100.016 78.8638Z" fill="#1D1D1B"/>
<path d="M100.681 79.221V72.0784H105.111V73.3098H102.077V74.9785H104.6V76.173H102.077V78.0203H105.111V79.2517L100.681 79.221Z" fill="#1D1D1B"/>
<path d="M109.64 79.2208C109.129 78.2788 108.686 77.3736 108.268 76.4623C107.954 76.4623 107.535 76.4623 107.271 76.4254V79.2208H105.874V72.1275C106.619 72.0382 107.369 71.9889 108.12 71.9797C109.584 71.9797 110.95 72.3369 110.95 74.1841C110.99 74.635 110.877 75.0863 110.629 75.465C110.381 75.8438 110.013 76.1278 109.584 76.2714C109.996 77.115 110.624 78.1987 111.246 79.2208H109.64ZM107.271 75.4156C107.776 75.4443 108.283 75.4071 108.778 75.3047C109.02 75.2527 109.232 75.1101 109.372 74.9062C109.511 74.7024 109.567 74.4528 109.529 74.2087C109.529 73.359 108.914 73.1989 108.231 73.1989C107.911 73.1989 107.566 73.1989 107.271 73.2358V75.4156Z" fill="#1D1D1B"/>
<path d="M113.098 79.221V73.273H111.166V72.0415H116.42V73.273H114.488V79.1964L113.098 79.221Z" fill="#1D1D1B"/>
<path d="M116.937 79.2209V72.0784H118.334V79.2209H116.937Z" fill="#1D1D1B"/>
<path d="M119.484 79.2209V72.0784H124.019V73.3098H120.881V75.0955H123.471V76.327H120.881V79.264L119.484 79.2209Z" fill="#1D1D1B"/>
<path d="M124.677 79.2209V72.0784H126.074V79.2209H124.677Z" fill="#1D1D1B"/>
<path d="M127.225 79.221V72.0784H131.673V73.3098H128.597V74.9785H131.113V76.173H128.597V78.0203H131.673V79.2517L127.225 79.221Z" fill="#1D1D1B"/>
<path d="M132.417 72.1706C133.155 72.0549 133.899 71.9911 134.645 71.9797C137.063 71.9797 137.906 73.2112 137.906 75.6372C137.906 78.0632 137.063 79.3317 134.645 79.3317C133.901 79.333 133.158 79.296 132.417 79.2208V72.1706ZM133.814 78.0694C134.116 78.0694 134.27 78.0694 134.528 78.0694C136.097 78.0694 136.485 77.3982 136.485 75.6064C136.485 73.9378 136.097 73.1435 134.528 73.1435C134.29 73.1429 134.051 73.1552 133.814 73.1804V78.0694Z" fill="#1D1D1B"/>
<path d="M95.3706 27.0124V17.8933H96.7304V27.0124H95.3706Z" fill="#1D1D1B"/>
<path d="M98.1641 25.7379C98.8762 25.8559 99.596 25.9217 100.318 25.9349C101.004 26.0012 101.691 25.82 102.256 25.4238C102.382 25.3037 102.481 25.1582 102.547 24.9969C102.613 24.8355 102.644 24.6621 102.637 24.4879C102.637 23.5951 102.084 23.2995 100.515 22.8316C98.9456 22.3636 97.9365 21.7294 97.9365 20.1839C97.9295 19.834 98.0056 19.4874 98.1585 19.1727C98.3115 18.858 98.537 18.5841 98.8164 18.3736C99.4776 17.9233 100.27 17.7066 101.068 17.7579C101.914 17.774 102.757 17.8689 103.585 18.0411L103.413 19.1741C102.718 19.0494 102.014 18.9835 101.308 18.977C100.764 18.9323 100.217 19.0434 99.7331 19.2972C99.5977 19.3928 99.4881 19.5204 99.414 19.6686C99.34 19.8169 99.3037 19.9812 99.3086 20.147C99.3086 21.0829 100.035 21.3784 101.53 21.8033C103.025 22.2282 103.991 22.8808 103.991 24.4818C104.005 24.8662 103.929 25.2485 103.768 25.5982C103.608 25.9478 103.368 26.2551 103.068 26.4952C102.33 26.9888 101.449 27.2228 100.564 27.1602C99.6961 27.1461 98.8313 27.0554 97.9796 26.8893L98.1641 25.7379Z" fill="#1D1D1B"/>
<path d="M104.649 22.4498C104.649 19.3711 105.818 17.7517 108.581 17.7517C111.344 17.7517 112.513 19.3649 112.513 22.4498C112.513 25.5347 111.368 27.1541 108.581 27.1541C105.794 27.1541 104.649 25.5408 104.649 22.4498ZM111.128 22.4498C111.128 20.0423 110.402 18.9709 108.581 18.9709C106.76 18.9709 106.034 20.0423 106.034 22.4498C106.034 24.8573 106.754 25.9349 108.581 25.9349C110.409 25.9349 111.128 24.8573 111.128 22.4498Z" fill="#1D1D1B"/>
<path d="M120.807 23.2872C120.19 23.6676 119.477 23.8641 118.752 23.8537C118.347 23.8796 117.941 23.8226 117.559 23.686C117.177 23.5494 116.827 23.3362 116.531 23.0594C116.01 22.4293 115.756 21.6206 115.823 20.8058C115.768 20.0043 116.029 19.2133 116.549 18.6014C116.882 18.3025 117.271 18.0732 117.694 17.9273C118.116 17.7813 118.564 17.7216 119.01 17.7517C119.819 17.705 120.619 17.94 121.275 18.4167C121.58 18.7144 121.815 19.0755 121.965 19.4745C122.115 19.8736 122.176 20.3007 122.142 20.7257V24.1061C122.175 24.534 122.113 24.9639 121.961 25.3651C121.809 25.7663 121.57 26.1291 121.262 26.4275C120.555 26.9564 119.682 27.2142 118.801 27.1541C117.953 27.1403 117.108 27.0455 116.278 26.8708L116.451 25.7379C117.15 25.878 117.86 25.9522 118.573 25.9595C119.207 26.031 119.845 25.8594 120.358 25.4792C120.692 25.0657 120.849 24.5367 120.795 24.0076L120.807 23.2872ZM120.807 20.8243C120.807 19.5928 120.339 18.977 119.01 18.977C117.681 18.977 117.214 19.5928 117.214 20.8243C117.16 21.336 117.308 21.8484 117.626 22.2528C117.813 22.4197 118.032 22.5455 118.271 22.6219C118.509 22.6983 118.761 22.7236 119.01 22.6961C119.623 22.6876 120.23 22.5773 120.807 22.3698V20.8243Z" fill="#1D1D1B"/>
<path d="M123.157 22.4498C123.157 19.3711 123.773 17.7517 126.455 17.7517C129.138 17.7517 129.735 19.3957 129.735 22.4498C129.735 25.5039 129.119 27.1541 126.455 27.1541C123.791 27.1541 123.157 25.4977 123.157 22.4498ZM128.375 22.4498C128.375 20.2824 128.252 18.9401 126.455 18.9401C124.659 18.9401 124.517 20.2824 124.517 22.4498C124.517 24.6172 124.628 25.978 126.455 25.978C128.283 25.978 128.375 24.6295 128.375 22.4498Z" fill="#1D1D1B"/>
<path d="M130.713 22.4498C130.713 19.3711 131.329 17.7517 134.011 17.7517C136.694 17.7517 137.291 19.3957 137.291 22.4498C137.291 25.5039 136.676 27.1541 134.011 27.1541C131.347 27.1541 130.713 25.4977 130.713 22.4498ZM135.931 22.4498C135.931 20.2824 135.808 18.9401 134.011 18.9401C132.215 18.9401 132.073 20.2824 132.073 22.4498C132.073 24.6172 132.184 25.978 134.011 25.978C135.839 25.978 135.931 24.6295 135.931 22.4498Z" fill="#1D1D1B"/>
<path d="M139.672 27.0125V19.2665L137.777 19.9869L137.365 19.0879L139.826 17.9119H141.057V27.0125H139.672Z" fill="#1D1D1B"/>
<path d="M99.6777 40.2755C98.1826 39.3949 96.9766 39.0748 96.0413 38.4282C95.303 37.9049 94.7246 37.0982 94.7246 35.1463C94.7246 32.7265 95.6476 31.4519 97.8011 31.4519C99.9546 31.4519 100.878 32.6834 100.878 35.1463C100.948 36.0994 100.677 37.0465 100.115 37.8187C99.8409 38.0908 99.515 38.3047 99.1566 38.4476C98.7981 38.5904 98.4145 38.6592 98.0288 38.6499C98.7493 38.7826 99.4501 39.006 100.115 39.3149L99.6777 40.2755ZM99.8131 35.1402C99.8131 33.256 99.247 32.4125 97.8195 32.4125C96.3921 32.4125 95.8137 33.256 95.8137 35.1402C95.8137 37.0243 96.3736 37.8679 97.8195 37.8679C99.2655 37.8679 99.8193 37.0243 99.8193 35.1402H99.8131Z" fill="#1D1D1B"/>
<path d="M104.901 38.7116L104.821 38.2744C104.378 38.6214 103.834 38.8157 103.271 38.8286C103.033 38.8535 102.792 38.8243 102.566 38.7432C102.341 38.6621 102.137 38.5312 101.969 38.3602C101.801 38.1892 101.674 37.9825 101.596 37.7555C101.519 37.5285 101.494 37.2871 101.523 37.0491V33.5886H102.533V36.9444C102.533 37.6463 102.834 37.9111 103.431 37.9111C103.841 37.9037 104.245 37.8048 104.612 37.6217V33.5886H105.621V38.7116H104.901Z" fill="#1D1D1B"/>
<path d="M109.652 38.7115L109.541 38.2743C109.126 38.6331 108.594 38.828 108.046 38.8223C107.826 38.8396 107.606 38.8106 107.398 38.7372C107.19 38.6638 107 38.5476 106.84 38.3962C106.68 38.2447 106.554 38.0614 106.469 37.858C106.384 37.6546 106.343 37.4356 106.348 37.2152C106.342 36.9867 106.388 36.7598 106.483 36.5518C106.578 36.3438 106.719 36.1601 106.895 36.0145C107.296 35.7335 107.779 35.5968 108.267 35.6266C108.618 35.6266 109.03 35.6266 109.387 35.6697V35.2387C109.394 35.1269 109.378 35.0149 109.341 34.9092C109.304 34.8034 109.247 34.7062 109.172 34.623C108.908 34.4397 108.586 34.3607 108.267 34.4013C107.783 34.4073 107.301 34.463 106.828 34.5676L106.674 33.724C107.221 33.5745 107.786 33.4999 108.353 33.5023C108.899 33.4494 109.446 33.5911 109.898 33.9026C110.075 34.0677 110.212 34.2712 110.298 34.4975C110.385 34.7237 110.418 34.9667 110.396 35.2079V38.7361L109.652 38.7115ZM109.387 36.4148C109.129 36.4148 108.772 36.4148 108.477 36.4148C107.732 36.4148 107.381 36.6795 107.381 37.246C107.377 37.359 107.397 37.4716 107.44 37.5761C107.484 37.6805 107.549 37.7743 107.632 37.851C107.715 37.9276 107.814 37.9854 107.922 38.0202C108.029 38.055 108.143 38.0661 108.255 38.0526C108.663 38.0526 109.06 37.9209 109.387 37.677V36.4148Z" fill="#1D1D1B"/>
<path d="M111.368 38.7114V31.5688H112.377V38.7114H111.368Z" fill="#1D1D1B"/>
<path d="M113.873 31.5381C114.022 31.5397 114.164 31.6001 114.269 31.7062C114.374 31.8122 114.433 31.9554 114.433 32.1046C114.433 32.1779 114.418 32.2504 114.39 32.3181C114.362 32.3857 114.32 32.4471 114.268 32.4986C114.216 32.5502 114.154 32.5908 114.087 32.6183C114.019 32.6458 113.946 32.6595 113.873 32.6587C113.8 32.6596 113.727 32.6458 113.66 32.6182C113.592 32.5907 113.531 32.5499 113.479 32.4983C113.428 32.4466 113.387 32.3852 113.359 32.3176C113.332 32.25 113.318 32.1776 113.319 32.1046C113.317 32.0308 113.33 31.9574 113.358 31.8887C113.385 31.82 113.425 31.7575 113.477 31.7047C113.528 31.652 113.59 31.61 113.658 31.5814C113.726 31.5528 113.799 31.5381 113.873 31.5381ZM113.368 38.7115V33.5885H114.377V38.7115H113.368Z" fill="#1D1D1B"/>
<path d="M118.087 38.4898C117.706 38.6855 117.285 38.7908 116.857 38.7977C116.674 38.8114 116.49 38.7839 116.319 38.7172C116.147 38.6505 115.993 38.5463 115.868 38.4123C115.742 38.2782 115.648 38.1177 115.592 37.9426C115.537 37.7674 115.521 37.582 115.546 37.3999V34.4198H114.783V33.6747L115.577 33.6316L115.657 32.123H116.555V33.5885H117.983V34.4198H116.555V37.246C116.555 37.6216 116.623 37.8617 117.011 37.8617C117.267 37.8562 117.52 37.7931 117.749 37.677L118.087 38.4898Z" fill="#1D1D1B"/>
<path d="M119.484 40.725C119.785 39.9431 120.025 39.2411 120.204 38.7116H119.662C119.139 37.2892 118.61 35.4297 118.143 33.5886H119.195C119.539 35.0972 119.915 36.538 120.358 37.8988H120.438C120.85 36.6673 121.281 35.0479 121.613 33.5886H122.64C122.066 36.0105 121.341 38.394 120.468 40.725H119.484Z" fill="#1D1D1B"/>
<path d="M100.988 50.4104C100.933 48.5016 100.847 46.5374 100.761 44.6532H100.705L99.0624 49.1974H97.918L96.2997 44.6532H96.2444C96.1582 46.5374 96.0721 48.5016 96.0167 50.4104H94.9399C95.0199 48.0337 95.1368 45.6507 95.2722 43.2678H96.8227L98.4902 48.0275H98.5456L100.182 43.2925H101.733C101.868 45.6754 101.985 48.0583 102.065 50.435L100.988 50.4104Z" fill="#1D1D1B"/>
<path d="M106.028 50.4106L105.917 49.9735C105.502 50.3327 104.97 50.5277 104.422 50.5215C104.205 50.5352 103.987 50.5035 103.782 50.4285C103.578 50.3534 103.391 50.2365 103.234 50.0854C103.078 49.9342 102.954 49.752 102.871 49.5504C102.789 49.3488 102.749 49.1322 102.754 48.9144C102.744 48.6813 102.788 48.449 102.882 48.2355C102.976 48.0219 103.117 47.8329 103.296 47.6829C103.697 47.4028 104.18 47.2661 104.668 47.295C105.025 47.295 105.431 47.295 105.788 47.3381V46.9071C105.8 46.6825 105.725 46.4617 105.579 46.2913C105.312 46.1082 104.988 46.0293 104.668 46.0697C104.184 46.0757 103.701 46.1314 103.228 46.2359L103.074 45.3924C103.624 45.2424 104.191 45.1679 104.76 45.1707C105.304 45.1187 105.849 45.2604 106.298 45.5709C106.475 45.7361 106.612 45.9396 106.699 46.1658C106.785 46.3921 106.819 46.6351 106.797 46.8763V50.4045L106.028 50.4106ZM105.763 48.1139C105.511 48.1139 105.148 48.1139 104.853 48.1139C104.114 48.1139 103.757 48.3787 103.757 48.9452C103.753 49.0582 103.773 49.1708 103.816 49.2752C103.86 49.3796 103.925 49.4734 104.008 49.5501C104.091 49.6268 104.19 49.6845 104.298 49.7193C104.405 49.7542 104.519 49.7652 104.631 49.7518C105.039 49.7518 105.436 49.6201 105.763 49.3762V48.1139Z" fill="#1D1D1B"/>
<path d="M110.845 50.4106V47.0486C110.845 46.3959 110.55 46.0819 109.984 46.0819C109.554 46.0964 109.134 46.208 108.753 46.4083V50.4106H107.744V45.2876H108.489L108.575 45.7494C109.016 45.3958 109.56 45.1949 110.125 45.1768C110.363 45.1539 110.604 45.1847 110.828 45.267C111.053 45.3493 111.256 45.4809 111.423 45.6522C111.59 45.8236 111.717 46.0302 111.794 46.257C111.87 46.4837 111.895 46.7248 111.867 46.9624V50.4106H110.845Z" fill="#1D1D1B"/>
<path d="M115.774 50.4106L115.663 49.9735C115.248 50.3327 114.717 50.5277 114.168 50.5215C113.949 50.5388 113.728 50.5098 113.521 50.4364C113.313 50.3629 113.124 50.2466 112.964 50.0951C112.805 49.9435 112.679 49.7601 112.595 49.5567C112.511 49.3533 112.47 49.1345 112.476 48.9144C112.464 48.6811 112.507 48.4484 112.601 48.2346C112.695 48.0208 112.838 47.8319 113.017 47.6829C113.418 47.4028 113.902 47.2661 114.39 47.295C114.746 47.295 115.152 47.295 115.509 47.3381V46.9071C115.522 46.6825 115.447 46.4617 115.3 46.2913C115.034 46.1082 114.71 46.0293 114.39 46.0697C113.905 46.0757 113.423 46.1314 112.95 46.2359L112.796 45.3924C113.345 45.2424 113.912 45.1679 114.482 45.1707C115.026 45.1187 115.57 45.2604 116.02 45.5709C116.197 45.7361 116.334 45.9396 116.42 46.1658C116.507 46.3921 116.54 46.6351 116.518 46.8763V50.4045L115.774 50.4106ZM115.509 48.1139C115.257 48.1139 114.894 48.1139 114.599 48.1139C113.86 48.1139 113.504 48.3787 113.504 48.9452C113.499 49.0582 113.519 49.1708 113.563 49.2752C113.606 49.3796 113.671 49.4734 113.755 49.5501C113.838 49.6268 113.936 49.6845 114.044 49.7193C114.151 49.7542 114.265 49.7652 114.377 49.7518C114.785 49.7518 115.182 49.6201 115.509 49.3762V48.1139Z" fill="#1D1D1B"/>
<path d="M120.438 50.1211C120.076 50.3735 119.648 50.5128 119.207 50.5214C117.755 50.5214 117.226 49.5793 117.226 47.8922C117.226 45.9711 117.841 45.1768 119.238 45.1768C119.983 45.1859 120.724 45.3042 121.435 45.5277V50.8724C121.449 51.0991 121.415 51.3263 121.334 51.5387C121.253 51.751 121.128 51.9437 120.967 52.1038C120.515 52.4378 119.958 52.5954 119.398 52.5472C118.842 52.5376 118.289 52.4799 117.743 52.3748L117.878 51.5066C118.332 51.5846 118.79 51.6299 119.25 51.642C119.594 51.6837 119.941 51.6007 120.229 51.408C120.366 51.233 120.436 51.0145 120.426 50.7923L120.438 50.1211ZM120.438 46.1743C120.08 46.1112 119.718 46.0782 119.355 46.0757C118.475 46.0757 118.254 46.6915 118.254 47.923C118.254 49.1544 118.487 49.7086 119.343 49.7086C119.722 49.712 120.097 49.6277 120.438 49.4623V46.1743Z" fill="#1D1D1B"/>
<path d="M126.136 50.1088C125.58 50.3677 124.976 50.5082 124.364 50.5214C122.856 50.5214 122.044 49.5793 122.044 47.8799C122.044 46.4698 122.69 45.1768 124.253 45.1768C125.483 45.1768 126.209 46.0634 126.209 47.4365C126.209 47.6969 126.184 47.9566 126.136 48.2124H123.059C123.048 48.5928 123.17 48.9653 123.404 49.2653C123.538 49.393 123.698 49.4908 123.873 49.5524C124.048 49.6139 124.234 49.6378 124.419 49.6224C124.927 49.6105 125.428 49.5019 125.896 49.3022L126.136 50.1088ZM125.231 47.4119C125.231 46.6422 125.01 46.0326 124.191 46.0326C123.373 46.0326 123.096 46.7038 123.059 47.4119H125.231Z" fill="#1D1D1B"/>
<path d="M132.904 50.4106V47.0179C132.904 46.4022 132.596 46.082 132.03 46.082C131.612 46.0987 131.206 46.2216 130.849 46.4391C130.882 46.6428 130.9 46.8485 130.904 47.0548V50.3922H129.895V47.0179C129.895 46.4022 129.593 46.082 129.027 46.082C128.627 46.0866 128.235 46.1948 127.889 46.396V50.4106H126.88V45.2877H127.624L127.711 45.7495C128.146 45.394 128.687 45.1927 129.249 45.1768C129.508 45.1589 129.768 45.2099 130.001 45.3245C130.234 45.4391 130.433 45.6133 130.578 45.8295C131.02 45.4339 131.585 45.2033 132.178 45.1768C133.316 45.1768 133.913 45.7926 133.913 47.061V50.4106H132.904Z" fill="#1D1D1B"/>
<path d="M138.515 50.1088C137.959 50.3677 137.356 50.5082 136.743 50.5214C135.236 50.5214 134.423 49.5793 134.423 47.8799C134.423 46.4698 135.069 45.1768 136.632 45.1768C137.863 45.1768 138.589 46.0634 138.589 47.4365C138.588 47.6969 138.564 47.9566 138.515 48.2124H135.439C135.43 48.5924 135.551 48.964 135.783 49.2653C135.918 49.393 136.078 49.4908 136.253 49.5524C136.428 49.6139 136.614 49.6378 136.798 49.6224C137.306 49.6105 137.808 49.5019 138.275 49.3022L138.515 50.1088ZM137.635 47.4119C137.635 46.6422 137.414 46.0326 136.595 46.0326C135.777 46.0326 135.5 46.6976 135.457 47.4119H137.635Z" fill="#1D1D1B"/>
<path d="M142.367 50.4106V47.0486C142.367 46.3959 142.066 46.0819 141.499 46.0819C141.07 46.0964 140.649 46.208 140.269 46.4083V50.4106H139.26V45.2876H140.004L140.09 45.7494C140.532 45.3958 141.076 45.1949 141.641 45.1768C141.879 45.1539 142.119 45.1847 142.344 45.267C142.569 45.3493 142.772 45.4809 142.939 45.6522C143.106 45.8236 143.233 46.0302 143.309 46.257C143.386 46.4837 143.411 46.7248 143.382 46.9624V50.4106H142.367Z" fill="#1D1D1B"/>
<path d="M146.994 50.1888C146.612 50.3828 146.191 50.4881 145.763 50.4966C144.933 50.4966 144.459 50.0287 144.459 49.0989V46.1187H143.696V45.3737L144.49 45.3306L144.57 43.822H145.468V45.2875H146.895V46.1187H145.468V48.945C145.468 49.3206 145.536 49.5607 145.923 49.5607C146.18 49.5552 146.432 49.4921 146.662 49.376L146.994 50.1888Z" fill="#1D1D1B"/>
<path d="M95.0329 61.1122C95.5884 61.2039 96.1498 61.2553 96.7126 61.2662C97.2507 61.3181 97.7896 61.1762 98.2324 60.866C98.3319 60.7723 98.4102 60.6585 98.4622 60.5321C98.5142 60.4058 98.5386 60.2698 98.5339 60.1332C98.5339 59.4374 98.0971 59.2035 96.8726 58.8402C95.6482 58.4769 94.8545 57.972 94.8545 56.7651C94.8482 56.4903 94.9074 56.2179 95.0272 55.9706C95.1471 55.7232 95.3241 55.508 95.5436 55.3428C96.0598 54.9893 96.679 54.8181 97.3033 54.8563C97.9652 54.8677 98.6245 54.9419 99.2723 55.078L99.1431 55.9647C98.5964 55.8689 98.0429 55.8174 97.4879 55.8107C97.0621 55.7757 96.6351 55.8633 96.2573 56.0632C96.1512 56.1377 96.0652 56.2375 96.0072 56.3536C95.9492 56.4697 95.921 56.5984 95.9251 56.7282C95.9251 57.4609 96.485 57.6703 97.6602 58.0274C98.8354 58.3845 99.5984 58.871 99.5984 60.1209C99.6102 60.4217 99.5512 60.7211 99.4262 60.9949C99.3011 61.2687 99.1135 61.5093 98.8785 61.6972C98.304 62.0877 97.6144 62.2721 96.9219 62.2206C96.24 62.2086 95.5606 62.1365 94.8914 62.0051L95.0329 61.1122Z" fill="#1D1D1B"/>
<path d="M101.253 64.1232C101.554 63.3412 101.801 62.6393 101.973 62.1098H101.431C100.908 60.6874 100.379 58.8279 99.9116 56.9868H100.97C101.308 58.4954 101.69 59.9362 102.133 61.297H102.207C102.619 60.0655 103.05 58.4461 103.382 56.9868H104.416C103.839 59.4079 103.113 61.7913 102.244 64.1232H101.253Z" fill="#1D1D1B"/>
<path d="M104.766 61.1675C105.264 61.2578 105.768 61.3093 106.274 61.3214C106.603 61.3487 106.934 61.2826 107.227 61.1305C107.305 61.0836 107.369 61.0164 107.411 60.9361C107.453 60.8558 107.473 60.7655 107.467 60.6749C107.467 60.2685 107.16 60.133 106.237 59.8929C105.412 59.6774 104.662 59.3449 104.662 58.372C104.646 58.1251 104.701 57.8789 104.818 57.6612C104.935 57.4436 105.112 57.2632 105.326 57.1406C105.753 56.9195 106.231 56.8174 106.711 56.845C107.203 56.8497 107.693 56.9012 108.175 56.9989L108.077 57.8794C107.659 57.8169 107.237 57.784 106.815 57.7809C106.495 57.7486 106.173 57.8084 105.886 57.9533C105.821 57.995 105.768 58.0524 105.732 58.1203C105.695 58.1881 105.676 58.2642 105.677 58.3412C105.677 58.7538 106.083 58.8462 107.104 59.1417C108.003 59.4065 108.501 59.8067 108.501 60.6256C108.515 60.8616 108.471 61.0974 108.372 61.3122C108.273 61.5269 108.123 61.7141 107.935 61.8571C107.466 62.1432 106.921 62.2785 106.372 62.245C105.798 62.2438 105.226 62.1757 104.668 62.0418L104.766 61.1675Z" fill="#1D1D1B"/>
<path d="M111.744 61.888C111.362 62.0821 110.941 62.1873 110.513 62.1959C109.682 62.1959 109.209 61.7279 109.209 60.7981V57.818H108.439V57.0729L109.239 57.0298L109.319 55.5212H110.218V56.9867H111.645V57.818H110.218V60.6442C110.218 61.0198 110.279 61.2599 110.667 61.2599C110.926 61.2551 111.18 61.192 111.411 61.0752L111.744 61.888Z" fill="#1D1D1B"/>
<path d="M115.977 61.8078C115.421 62.0667 114.818 62.2072 114.205 62.2204C112.697 62.2204 111.885 61.2783 111.885 59.5788C111.885 58.1749 112.501 56.8757 114.094 56.8757C115.325 56.8757 116.051 57.7624 116.051 59.1355C116.05 59.3958 116.026 59.6556 115.977 59.9113H112.9C112.892 60.2914 113.013 60.663 113.245 60.9642C113.379 61.0923 113.539 61.1903 113.714 61.2519C113.889 61.3135 114.075 61.3371 114.26 61.3214C114.768 61.3095 115.27 61.2008 115.737 61.0012L115.977 61.8078ZM115.097 59.1109C115.097 58.3412 114.876 57.7316 114.057 57.7316C113.239 57.7316 112.962 58.3966 112.919 59.1109H115.097Z" fill="#1D1D1B"/>
<path d="M122.739 62.1096V58.7169C122.739 58.1011 122.431 57.7809 121.865 57.7809C121.448 57.7977 121.041 57.9206 120.684 58.1381C120.717 58.3417 120.736 58.5475 120.739 58.7538V62.0911H119.73V58.7169C119.73 58.1011 119.429 57.7809 118.863 57.7809C118.463 57.7856 118.07 57.8938 117.724 58.095V62.1096H116.715V56.9866H117.46L117.546 57.4485C117.982 57.093 118.522 56.8916 119.084 56.8758C119.344 56.8579 119.603 56.9088 119.836 57.0235C120.07 57.1381 120.269 57.3123 120.413 57.5285C120.855 57.1329 121.421 56.9023 122.013 56.8758C123.151 56.8758 123.748 57.4916 123.748 58.76V62.1096H122.739Z" fill="#1D1D1B"/>
<path d="M124.493 61.1675C124.989 61.2575 125.49 61.309 125.994 61.3214C126.324 61.3494 126.654 61.2832 126.948 61.1305C127.027 61.085 127.092 61.0182 127.136 60.9377C127.179 60.8572 127.199 60.7662 127.194 60.6749C127.194 60.2685 126.88 60.133 125.963 59.8929C125.145 59.6774 124.394 59.3449 124.394 58.372C124.379 58.1251 124.433 57.8789 124.551 57.6612C124.668 57.4436 124.844 57.2632 125.059 57.1406C125.485 56.9195 125.964 56.8174 126.443 56.845C126.933 56.8493 127.421 56.9009 127.901 56.9989L127.803 57.8794C127.385 57.8169 126.964 57.784 126.542 57.7809C126.22 57.7494 125.896 57.8092 125.606 57.9533C125.543 57.9962 125.491 58.0539 125.454 58.1215C125.418 58.189 125.398 58.2645 125.397 58.3412C125.397 58.7538 125.81 58.8462 126.831 59.1417C127.723 59.4065 128.221 59.8067 128.221 60.6256C128.235 60.861 128.191 61.096 128.093 61.3106C127.996 61.5251 127.848 61.7127 127.662 61.8571C127.192 62.1432 126.647 62.2785 126.099 62.245C125.523 62.2443 124.948 62.1761 124.388 62.0418L124.493 61.1675Z" fill="#1D1D1B"/>
<path d="M145.394 96.0001H43.5996C43.3241 95.9794 43.0666 95.8552 42.8787 95.6525C42.6908 95.4499 42.5864 95.1836 42.5864 94.9071C42.5864 94.6307 42.6908 94.3644 42.8787 94.1617C43.0666 93.959 43.3241 93.8349 43.5996 93.8142H145.394C156.38 93.8142 166.915 89.447 174.683 81.6733C182.452 73.8996 186.816 63.3562 186.816 52.3626C186.816 41.3689 182.452 30.8256 174.683 23.0519C166.915 15.2782 156.38 10.911 145.394 10.911H65.4057C65.1302 10.8903 64.8727 10.7661 64.6848 10.5634C64.4969 10.3608 64.3925 10.0945 64.3925 9.81804C64.3925 9.54156 64.4969 9.27531 64.6848 9.07262C64.8727 8.86994 65.1302 8.74581 65.4057 8.7251H145.394C151.12 8.7251 156.791 9.85381 162.081 12.0468C167.372 14.2398 172.179 17.4541 176.228 21.5062C180.277 25.5583 183.489 30.3689 185.681 35.6632C187.872 40.9576 189 46.632 189 52.3626C189 58.0931 187.872 63.7676 185.681 69.0619C183.489 74.3563 180.277 79.1668 176.228 83.2189C172.179 87.2711 167.372 90.4854 162.081 92.6784C156.791 94.8714 151.12 96.0001 145.394 96.0001Z" fill="#1D1D1B"/>
<path d="M46.1471 41.9996C46.2695 39.6261 47.2979 37.3902 49.0199 35.7535C50.742 34.1168 53.0262 33.2043 55.4012 33.2043C57.7761 33.2043 60.0604 34.1168 61.7825 35.7535C63.5045 37.3902 64.5329 39.6261 64.6552 41.9996H46.1471ZM53.9491 63.9876C52.6385 60.127 49.5251 58.095 46.904 56.3833C43.9936 54.4868 42.7753 53.5016 42.72 51.679C42.7149 50.4898 43.1785 49.3466 44.01 48.4972C44.8416 47.6477 45.9742 47.1604 47.1624 47.141H63.3262L53.9491 63.9876ZM41.434 78.6546C42.1542 78.774 42.8822 78.8399 43.6121 78.8516C44.341 78.8549 45.0685 78.7869 45.7841 78.6484L43.6121 82.5522L41.434 78.6546ZM38.8005 47.141C38.0906 48.5038 37.7072 50.0131 37.6807 51.5497C37.6775 51.601 37.6775 51.6524 37.6807 51.7036C37.7545 56.531 41.3232 58.8647 44.1967 60.7365C47.6116 62.9655 49.5436 64.431 49.5436 68.0638C49.5436 71.6967 46.6886 73.7656 43.1814 73.7656C40.9295 73.7656 38.0745 72.5341 36.9362 70.5514L35.9271 68.8027L23.7935 47.141H38.8005ZM32.0323 33.176C34.4014 33.2033 36.6718 34.1294 38.385 35.7673C40.0981 37.4051 41.1263 39.6325 41.2617 41.9996H22.7967C22.9322 39.6325 23.9603 37.4051 25.6735 35.7673C27.3866 34.1294 29.657 33.2033 32.0261 33.176H32.0323ZM55.4073 28.2501C53.079 28.2427 50.7865 28.8241 48.7427 29.9404C46.6989 31.0567 44.9701 32.6716 43.7167 34.6353C42.4647 32.6704 40.7361 31.0545 38.692 29.9381C36.648 28.8217 34.3548 28.241 32.0261 28.2501C28.2287 28.2648 24.592 29.786 21.9137 32.4801C19.2354 35.1742 17.7341 38.8212 17.739 42.6215V44.0808C17.6909 45.6743 18.1194 47.2459 18.9696 48.5941L43.5814 91.0802C43.5814 91.0802 66.9626 50.7185 68.1009 48.5941C69.2392 46.4698 69.4422 45.5154 69.4422 44.0808V42.6215C69.4734 38.8527 68.0105 35.2251 65.374 32.5337C62.7376 29.8422 59.1425 28.3063 55.3766 28.2624" fill="#161412"/>
<path d="M34.7516 7.62902C33.2657 7.62853 31.8111 8.05604 30.5615 8.8605V0H27.0728V24.057H29.1278L29.6939 22.7639C31.1446 23.8775 32.9298 24.4658 34.7578 24.4326C39.311 24.4326 40.9969 21.2984 40.9969 16.0339C40.9969 10.7693 39.3048 7.62902 34.7516 7.62902ZM33.9333 10.6769C37.0098 10.6769 37.4589 13.0783 37.4589 16.0339C37.4589 18.9894 36.9975 21.397 33.9333 21.397C32.7451 21.3982 31.5792 21.0745 30.5615 20.461V11.6067C31.5787 10.9927 32.7453 10.671 33.9333 10.6769ZM45.4085 12.635C45.4085 11.188 46.5714 10.6461 48.4173 10.6461C50.05 10.6335 51.6696 10.9388 53.1858 11.5451V8.42948C51.6465 7.82277 49.996 7.54994 48.3435 7.62902C43.7595 7.62902 42.0121 9.96883 42.0121 12.7273C42.0121 15.4859 43.1689 16.9883 47.882 17.4193C49.974 17.604 50.4724 18.2136 50.4724 19.402C50.4724 20.812 49.2418 21.397 46.7806 21.397C45.1891 21.3757 43.614 21.0713 42.129 20.498V23.5767C43.7819 24.1722 45.5286 24.4643 47.2852 24.4387C52.2814 24.4387 53.9365 22.0373 53.9365 19.2788C53.9365 16.2986 52.7059 14.8516 48.0297 14.4391C45.9992 14.2421 45.4331 13.7618 45.4331 12.6411L45.4085 12.635ZM59.4557 24.2786C59.685 24.2782 59.9137 24.2555 60.1387 24.2109V21.2984C59.1419 21.2984 58.8281 20.9721 58.8281 20.067V8.00462H55.3332V20.1101C55.3332 22.8624 56.6192 24.2786 59.4557 24.2786ZM54.8041 3.26342C54.788 3.57298 54.835 3.88257 54.9423 4.17335C55.0497 4.46413 55.215 4.73001 55.4282 4.95482C55.6415 5.17962 55.8983 5.35863 56.1829 5.48096C56.4675 5.60329 56.774 5.66638 57.0837 5.66638C57.3935 5.66638 57.7 5.60329 57.9846 5.48096C58.2692 5.35863 58.526 5.17962 58.7392 4.95482C58.9525 4.73001 59.1178 4.46413 59.2251 4.17335C59.3324 3.88257 59.3795 3.57298 59.3634 3.26342C59.3795 2.95386 59.3324 2.64427 59.2251 2.35349C59.1178 2.06271 58.9525 1.79683 58.7392 1.57203C58.526 1.34722 58.2692 1.16821 57.9846 1.04588C57.7 0.923551 57.3935 0.860466 57.0837 0.860466C56.774 0.860466 56.4675 0.923551 56.1829 1.04588C55.8983 1.16821 55.6415 1.34722 55.4282 1.57203C55.215 1.79683 55.0497 2.06271 54.9423 2.35349C54.835 2.64427 54.788 2.95386 54.8041 3.26342Z" fill="#161412"/>
<path d="M43.6058 96.0001C34.0627 95.998 24.7837 92.8635 17.1916 87.0772C9.59953 81.291 4.11356 73.1725 1.57489 63.9665C-0.963782 54.7606 -0.414997 44.9755 3.13709 36.1117C6.68918 27.2478 13.0485 19.7946 21.2399 14.8948C21.3607 14.7974 21.501 14.727 21.6513 14.6883C21.8015 14.6495 21.9584 14.6434 22.1112 14.6702C22.2641 14.6971 22.4094 14.7563 22.5375 14.8439C22.6656 14.9316 22.7735 15.0456 22.854 15.1784C22.9345 15.3112 22.9857 15.4596 23.0042 15.6138C23.0227 15.768 23.0081 15.9244 22.9613 16.0724C22.9145 16.2205 22.8366 16.3568 22.7328 16.4723C22.6291 16.5878 22.5018 16.6798 22.3597 16.742C16.1384 20.4598 11.0003 25.7456 7.45832 32.0717C3.91636 38.3978 2.09444 45.5429 2.1744 52.7939C2.25436 60.0448 4.23341 67.148 7.91401 73.3943C11.5946 79.6406 16.848 84.8116 23.1498 88.3911C29.4516 91.9706 36.5814 93.8334 43.8274 93.7935C51.0735 93.7536 58.1824 91.8125 64.4445 88.1639C70.7066 84.5153 75.9028 79.2868 79.5145 73.0003C83.1263 66.7139 85.0272 59.5894 85.0274 52.338C85.0607 45.1581 83.2153 38.0946 79.6747 31.8498C76.1341 25.605 71.0217 20.3964 64.8458 16.742C64.6402 16.5764 64.5018 16.3417 64.4562 16.0816C64.4105 15.8215 64.4608 15.5537 64.5977 15.3279C64.7346 15.1021 64.9487 14.9338 65.2003 14.8541C65.4519 14.7744 65.7239 14.7889 65.9656 14.8948C74.1565 19.7943 80.5156 27.247 84.0678 36.1102C87.62 44.9735 88.1693 54.758 85.6314 63.9636C83.0935 73.1692 77.6086 81.2877 70.0175 87.0744C62.4265 92.8611 53.1484 95.9966 43.6058 96.0001Z" fill="#161412"/>
</svg>
