<svg width="217" height="82" viewBox="0 0 217 82" fill="none" xmlns="http://www.w3.org/2000/svg">
<g clip-path="url(#clip0)">
<path fill-rule="evenodd" clip-rule="evenodd" d="M146.997 48.5052L149.224 49.1821C149.075 49.8109 148.84 50.3374 148.516 50.7579C148.195 51.1801 147.797 51.4983 147.319 51.7125C146.843 51.9265 146.236 52.0345 145.5 52.0345C144.604 52.0345 143.875 51.9033 143.307 51.6431C142.741 51.3807 142.253 50.9198 141.842 50.2623C141.431 49.6046 141.223 48.7597 141.223 47.7338C141.223 46.3644 141.585 45.3115 142.308 44.5746C143.034 43.84 144.058 43.4715 145.381 43.4715C146.416 43.4715 147.231 43.6818 147.823 44.1041C148.414 44.5265 148.857 45.1745 149.143 46.05L146.906 46.5495C146.827 46.2988 146.744 46.1156 146.659 45.9998C146.515 45.8052 146.341 45.6547 146.136 45.5505C145.93 45.4445 145.7 45.3923 145.446 45.3923C144.868 45.3923 144.427 45.6259 144.12 46.0905C143.889 46.4358 143.772 46.9796 143.772 47.7183C143.772 48.6364 143.91 49.2632 144.187 49.6046C144.465 49.944 144.852 50.1136 145.354 50.1136C145.84 50.1136 146.207 49.9767 146.455 49.7009C146.705 49.4271 146.885 49.0278 146.997 48.5052ZM151.523 43.6103H158.317V45.3808H154.071V46.7H158.008V48.3895H154.071V50.0211H158.444V51.8956H151.523V43.6103ZM160.919 51.8956V43.6103H165.15C165.935 43.6103 166.536 43.6778 166.948 43.8148C167.363 43.9497 167.699 44.2026 167.953 44.5689C168.207 44.9372 168.334 45.3866 168.334 45.9149C168.334 46.3741 168.236 46.7714 168.04 47.105C167.847 47.4406 167.58 47.7106 167.237 47.9189C167.021 48.0501 166.723 48.16 166.346 48.2469C166.648 48.349 166.868 48.4493 167.006 48.5515C167.098 48.619 167.233 48.7656 167.412 48.9873C167.587 49.209 167.706 49.3809 167.766 49.5023L168.999 51.8956H166.129L164.773 49.3692C164.601 49.0414 164.448 48.8291 164.314 48.7308C164.131 48.6034 163.922 48.54 163.691 48.54H163.466V51.8956H160.919ZM163.466 46.9777H164.54C164.655 46.9777 164.881 46.9392 165.213 46.8638C165.382 46.8312 165.519 46.7443 165.625 46.6036C165.732 46.4629 165.785 46.3027 165.785 46.1215C165.785 45.8534 165.701 45.6471 165.533 45.5042C165.364 45.3596 165.049 45.2884 164.584 45.2884H163.466V46.9777ZM170.209 43.6103H177.934V45.6586H175.34V51.8956H172.803V45.6586H170.209V43.6103ZM180.249 43.6103H182.796V51.8956H180.249V43.6103ZM185.695 43.6103H191.974V45.3923H188.244V46.8388H191.434V48.5166H188.244V51.8956H185.695V43.6103ZM194.515 43.6103H197.064V51.8956H194.515V43.6103ZM199.952 43.6103H206.747V45.3808H202.5V46.7H206.437V48.3895H202.5V50.0211H206.874V51.8956H199.952V43.6103ZM209.348 43.6103H213.122C213.864 43.6103 214.467 43.7126 214.924 43.9151C215.381 44.1195 215.76 44.4107 216.061 44.7907C216.359 45.1726 216.575 45.6142 216.709 46.1194C216.845 46.6248 216.912 47.1589 216.912 47.724C216.912 48.6094 216.813 49.2959 216.611 49.7839C216.412 50.2718 216.135 50.6806 215.779 51.0105C215.424 51.3402 215.043 51.56 214.635 51.67C214.079 51.8205 213.573 51.8956 213.122 51.8956H209.348V43.6103ZM211.885 45.4849V50.0096H212.508C213.04 50.0096 213.418 49.9497 213.645 49.8321C213.868 49.7124 214.044 49.5061 214.173 49.211C214.301 48.9141 214.364 48.4357 214.364 47.7724C214.364 46.8948 214.222 46.2949 213.938 45.971C213.652 45.6471 213.18 45.4849 212.519 45.4849H211.885ZM32.392 29.5081C32.392 28.4792 32.1009 27.6803 31.5187 27.1117C30.7343 26.3537 29.456 25.9745 27.6843 25.9745H25.4823V33.0417H27.7224C28.8866 33.0417 29.8103 32.8926 30.4938 32.5949C31.7594 32.0262 32.392 30.9973 32.392 29.5081ZM80.022 6.07498C83.3729 6.07498 86.0892 8.81358 86.0892 12.1918C86.0892 15.5701 83.3729 18.3087 80.022 18.3087C76.6712 18.3087 73.9547 15.5701 73.9547 12.1918C73.9547 8.81358 76.6712 6.07498 80.022 6.07498ZM59.6566 47.9084L64.4934 42.8608L83.5013 56.4634C96.0308 39.6736 110.203 24.8887 127.032 13.3459H133.651C112.966 34.1758 97.5289 57.7425 83.4165 82C76.2909 70.4644 68.3661 59.1016 59.6566 47.9084ZM149.564 17.9586V31.9766H151.497C153.144 31.9766 154.318 31.7915 155.018 31.427C155.711 31.0564 156.256 30.4172 156.653 29.5029C157.05 28.5827 157.245 27.1009 157.245 25.0453C157.245 22.3267 156.807 20.4683 155.924 19.4645C155.041 18.4607 153.577 17.9586 151.533 17.9586H149.564ZM141.705 12.1507H153.399C155.699 12.1507 157.566 12.4674 158.983 13.0948C160.399 13.7281 161.572 14.6304 162.503 15.8075C163.427 16.9908 164.097 18.359 164.512 19.9244C164.933 21.4901 165.14 23.1452 165.14 24.8959C165.14 27.6386 164.832 29.7659 164.21 31.2775C163.594 32.7894 162.734 34.056 161.632 35.078C160.529 36.0998 159.349 36.7809 158.087 37.1215C156.363 37.5875 154.798 37.8206 153.399 37.8206H141.705V12.1507ZM167.908 29.3296L175.376 28.8575C175.536 30.0766 175.868 31.0087 176.365 31.6422C177.177 32.6759 178.333 33.1958 179.839 33.1958C180.96 33.1958 181.824 32.9328 182.429 32.401C183.04 31.8692 183.342 31.2538 183.342 30.5546C183.342 29.8913 183.058 29.2939 182.482 28.768C181.907 28.2421 180.568 27.7522 178.463 27.2802C175.014 26.5032 172.56 25.4638 171.09 24.167C169.61 22.8764 168.869 21.227 168.869 19.2195C168.869 17.9048 169.248 16.662 170.006 15.4908C170.765 14.3137 171.903 13.3935 173.426 12.7243C174.95 12.0551 177.036 11.7205 179.685 11.7205C182.939 11.7205 185.416 12.3299 187.123 13.555C188.83 14.7739 189.843 16.7157 190.169 19.3807L182.772 19.8229C182.577 18.6577 182.162 17.8092 181.534 17.2833C180.9 16.7518 180.028 16.4888 178.92 16.4888C178.008 16.4888 177.314 16.6859 176.852 17.0743C176.389 17.4627 176.158 17.9408 176.158 18.5025C176.158 18.9087 176.347 19.2733 176.721 19.6017C177.082 19.9424 177.96 20.2532 179.347 20.5459C182.784 21.2929 185.244 22.0518 186.726 22.8165C188.213 23.5815 189.298 24.5256 189.974 25.6607C190.649 26.7901 190.987 28.057 190.987 29.4612C190.987 31.1044 190.536 32.622 189.636 34.0143C188.73 35.4006 187.473 36.458 185.849 37.1752C184.23 37.8923 182.192 38.2507 179.726 38.2507C175.399 38.2507 172.401 37.4083 170.735 35.7291C169.07 34.0501 168.128 31.9169 167.908 29.3296ZM193.589 29.3296L201.057 28.8575C201.217 30.0766 201.549 31.0087 202.047 31.6422C202.859 32.6759 204.014 33.1958 205.52 33.1958C206.64 33.1958 207.506 32.9328 208.11 32.401C208.72 31.8692 209.022 31.2538 209.022 30.5546C209.022 29.8913 208.738 29.2939 208.164 28.768C207.588 28.2421 206.249 27.7522 204.145 27.2802C200.696 26.5032 198.242 25.4638 196.772 24.167C195.29 22.8764 194.549 21.227 194.549 19.2195C194.549 17.9048 194.929 16.662 195.687 15.4908C196.446 14.3137 197.583 13.3935 199.107 12.7243C200.63 12.0551 202.716 11.7205 205.365 11.7205C208.619 11.7205 211.097 12.3299 212.803 13.555C214.511 14.7739 215.524 16.7157 215.85 19.3807L208.454 19.8229C208.258 18.6577 207.844 17.8092 207.215 17.2833C206.581 16.7518 205.71 16.4888 204.601 16.4888C203.688 16.4888 202.995 16.6859 202.533 17.0743C202.07 17.4627 201.84 17.9408 201.84 18.5025C201.84 18.9087 202.029 19.2733 202.402 19.6017C202.764 19.9424 203.641 20.2532 205.027 20.5459C208.466 21.2929 210.925 22.0518 212.407 22.8165C213.894 23.5815 214.979 24.5256 215.654 25.6607C216.331 26.7901 216.669 28.057 216.669 29.4612C216.669 31.1044 216.218 32.622 215.316 34.0143C214.41 35.4006 213.154 36.458 211.529 37.1752C209.912 37.8923 207.872 38.2507 205.407 38.2507C201.081 38.2507 198.081 37.4083 196.416 35.7291C194.75 34.0501 193.808 31.9169 193.589 29.3296ZM0.0874023 4.61972L82.398 0L98.7491 36.1789C95.7342 39.391 92.8228 42.7075 90.0065 46.111L85.4268 47.567V19.3949H74.5365V47.8255H84.6134L77.0088 50.2431L70.7302 45.75V39.6212C69.1724 40.0815 67.9897 40.3794 67.1819 40.5149C66.3742 40.6503 65.5666 40.7179 64.7588 40.7179C61.5568 40.7179 59.2492 39.8243 57.8356 38.0373C56.8548 36.7918 56.3644 35.2348 56.3644 33.3665C56.3644 31.2816 57.1216 29.5691 58.6359 28.2287C60.1505 26.8884 62.1195 26.2183 64.5425 26.2183C65.6387 26.2183 66.7133 26.3198 67.7661 26.5228C68.819 26.7261 69.778 26.9899 70.6437 27.3148V19.8011L69.9512 19.6793C68.4224 19.4084 67.4416 19.2459 67.0089 19.1919C65.5666 19.0023 64.0808 18.9074 62.552 18.9074C56.2924 18.9074 51.5325 20.4508 48.2727 23.5377C45.5323 26.137 44.162 29.4944 44.162 33.6101C44.162 38.0238 45.7054 41.5437 48.7921 44.1703C51.2087 46.2361 54.3276 47.5291 58.1485 48.0497L58.6549 48.7004C60.1837 50.6653 61.6949 52.6441 63.188 54.637L22.9988 67.4138L15.8517 47.8255H25.748V39.6212H31.3291C35.1255 39.6212 38.0489 38.5112 40.0991 36.2908C41.7948 34.4496 42.6427 32.2159 42.6427 29.5893C42.6427 26.7463 41.7187 24.3905 39.8711 22.5223C37.821 20.4373 34.9104 19.3949 31.1391 19.3949H15.5734V47.0629L0.0874023 4.61972Z" fill="#1F5255"/>
<path fill-rule="evenodd" clip-rule="evenodd" d="M59.6558 47.9085L64.4926 42.8609L83.5005 56.4635C96.03 39.6737 110.202 24.8888 127.031 13.3459H133.65C112.965 34.1759 97.5281 57.7426 83.4157 82.0001C76.2901 70.4645 68.3653 59.1017 59.6558 47.9085Z" fill="#429B31"/>
</g>
<defs>
<clipPath id="clip0">
<rect width="217" height="82" fill="white"/>
</clipPath>
</defs>
</svg>
