<svg width="209" height="40" viewBox="0 0 209 40" fill="none" xmlns="http://www.w3.org/2000/svg">
<path d="M3.71077 2.6829C4.07522 2.54758 4.46465 2.49685 4.85073 2.5344C5.29774 2.54559 5.72816 2.70942 6.07315 2.99969C6.53424 3.52337 6.91676 4.11387 7.20825 4.75195C11.5805 13.3317 15.9463 21.9115 20.3056 30.4913C20.9459 31.5704 21.2418 33.0603 22.4837 33.5999C23.4926 33.3969 23.8225 32.3673 24.2688 31.5754L37.9968 4.5292C38.4818 3.53923 39.1998 2.34136 40.4513 2.48985C42.2461 2.32156 43.3618 4.62325 42.4305 6.10822C37.5796 15.5097 32.7125 24.8914 27.8293 34.2532C26.8591 36.2777 24.8024 37.9409 22.4934 37.8419C20.2329 37.9063 18.1712 36.3173 17.1865 34.3126C12.52 25.19 7.76125 16.107 3.10441 6.9794C2.72119 6.13297 2.13424 5.25189 2.34767 4.27181C2.42587 3.91148 2.59172 3.57704 2.82995 3.29935C3.06818 3.02166 3.3711 2.80966 3.71077 2.6829Z" fill="#00AF40"/>
<path d="M43.6142 11.7758C46.5247 5.63798 53.1268 1.48007 59.8355 1.84141C66.5879 1.87111 72.9329 6.4844 75.499 12.7906C76.0812 14.2194 76.4901 15.7154 76.7166 17.2455C76.828 18.0279 76.896 18.8162 76.9203 19.6065C76.9446 20.3441 76.9688 21.1856 76.4352 21.7498C76.1721 22.0096 75.8578 22.2093 75.5132 22.3356C75.1686 22.4619 74.8017 22.512 74.4367 22.4824C65.0842 22.5171 55.7317 22.4824 46.3792 22.5072C47.3057 26.8383 50.0804 30.8131 54.0872 32.6643C58.9672 35.0898 65.2443 33.6543 68.7757 29.4816C69.6003 28.6698 70.1582 27.2096 71.5067 27.2838C72.3896 27.3333 73.1415 27.5709 73.6266 28.4223C73.8558 28.7826 73.9778 29.203 73.9778 29.6325C73.9778 30.0621 73.8558 30.4825 73.6266 30.8428C70.5317 35.3521 65.2928 38.3518 59.8598 38.3815C54.3686 38.6933 48.9114 35.956 45.5546 31.5556C41.2324 26.0661 40.4126 18.0077 43.6142 11.7758ZM51.8073 9.10784C49.0039 11.3681 47.0826 14.5748 46.3889 18.1513C55.0202 18.1711 63.6499 18.1711 72.278 18.1513C71.3661 13.7261 68.5768 9.65233 64.5651 7.62783C62.5248 6.59468 60.2354 6.18474 57.9723 6.44729C55.7091 6.70984 53.5683 7.6337 51.8073 9.10784Z" fill="#00AF40"/>
<path d="M91.3373 3.02444C94.7788 1.67288 98.5467 1.44458 102.121 2.37106C105.698 3.32855 108.883 5.42276 111.216 8.35052C112.598 10.0481 113.673 11.982 114.394 14.0627C114.933 15.5448 115.259 17.0986 115.364 18.676C115.466 19.5384 115.354 20.4133 115.039 21.2202C114.554 22.2597 113.583 22.4428 112.54 22.428C111.944 22.428 111.333 22.4577 110.731 22.4626C109.446 22.4626 108.16 22.4626 106.85 22.4626C104.279 22.4626 101.704 22.4626 99.1278 22.4626H91.9485H88.32C88.0096 22.4626 84.7838 22.5814 84.7643 22.4626C85.7054 27.2888 89.1301 31.6348 93.7676 33.1593C96.1502 33.9367 98.7049 33.9779 101.11 33.2777C103.516 32.5775 105.665 31.1672 107.287 29.2242C108.015 28.452 108.592 27.2442 109.79 27.2145C111.682 26.873 113.026 29.4024 111.886 30.9022C110.701 32.6146 109.222 34.0937 107.52 35.268C103.68 37.8718 99.0113 38.8827 94.4661 38.0944H94.3157C87.7816 36.8519 82.3001 31.4417 80.6314 24.9178C79.9611 22.4535 79.8123 19.8719 80.1948 17.3445C80.6705 14.1746 81.9486 11.1863 83.9028 8.67485C85.857 6.1634 88.4195 4.21577 91.3373 3.02444ZM93.3892 7.23679C88.8924 9.00885 85.7733 13.4093 84.7886 18.1265C93.4183 18.176 102.053 18.1265 110.683 18.1265C110.018 14.8182 108.315 11.8208 105.832 9.58799C102.577 6.52401 97.5028 5.44493 93.3892 7.23679Z" fill="#00AF40"/>
<path d="M197.343 5.23694C197.755 4.316 198.444 3.55234 199.308 3.05597C200.173 2.5596 201.17 2.35615 202.155 2.47491C204.639 2.58381 206.652 5.0043 206.521 7.50894C206.521 16.9137 206.521 26.2739 206.521 35.654C206.505 36.2185 206.279 36.7558 205.891 37.1579C205.502 37.56 204.979 37.7973 204.426 37.822C203.903 37.8698 203.381 37.7344 202.945 37.4383C202.508 37.1423 202.183 36.7032 202.024 36.1935C201.899 34.7205 201.863 33.2409 201.918 31.7634C201.918 23.309 201.952 14.8496 201.918 6.39522C200.71 8.34547 199.764 10.4442 198.726 12.4885C195.219 19.4778 191.673 26.4472 188.19 33.4513C187.055 35.7282 184.687 37.4112 182.141 37.3468C179.439 37.5498 176.848 35.7579 175.737 33.2929C171.954 25.6602 168.068 18.0769 164.27 10.4541C163.576 9.0929 162.946 7.69704 162.121 6.41007C161.985 14.8595 162.097 23.3139 162.063 31.7634C162.009 33.2879 162.233 34.8471 161.879 36.342C161.753 36.6577 161.563 36.9427 161.321 37.1783C161.08 37.414 160.793 37.5949 160.478 37.7094C160.164 37.8239 159.829 37.8693 159.496 37.8426C159.163 37.816 158.839 37.7179 158.546 37.5547C158.175 37.3074 157.875 36.965 157.675 36.5619C157.475 36.1588 157.382 35.7092 157.406 35.258C157.377 26.0067 157.406 16.7504 157.406 7.49904C157.406 6.60601 157.636 5.72872 158.075 4.95598C158.514 4.18325 159.145 3.5425 159.904 3.0986C162.058 1.78688 165.192 2.52936 166.4 4.83105C170.3 12.5182 174.146 20.2945 178.076 27.9817C178.876 29.4666 179.448 31.0951 180.501 32.4365C180.761 32.6605 181.068 32.8212 181.398 32.9067C181.728 32.9922 182.072 33.0003 182.406 32.9302C182.739 32.8602 183.053 32.7139 183.323 32.5023C183.593 32.2908 183.812 32.0195 183.965 31.7089C188.398 22.8783 192.9 14.0725 197.343 5.23694Z" fill="#00AF40"/>
<path d="M128.815 6.05376C129.727 4.20745 131.434 2.54429 133.574 2.50469C134.666 2.40698 135.763 2.63575 136.73 3.1631C137.697 3.69045 138.493 4.49361 139.021 5.47462C143.752 14.6616 148.477 23.8519 153.195 33.0455C153.68 34.0354 154.253 35.1888 153.874 36.3173C153.712 36.8061 153.388 37.2218 152.958 37.4929C152.527 37.7639 152.018 37.8734 151.517 37.8023C150.595 37.8023 149.965 36.9608 149.577 36.2035C144.894 26.9637 140.222 17.7107 135.562 8.44455C135.172 7.66799 134.672 6.95419 134.078 6.326C133.503 6.82069 133.023 7.41985 132.662 8.09311C130.086 13.3746 127.534 18.6661 124.852 23.8882C129.547 23.8882 134.236 23.8882 138.919 23.8882C140.103 23.8288 141.519 24.4574 141.713 25.779C141.767 26.1249 141.744 26.4787 141.646 26.8143C141.548 27.1498 141.377 27.4588 141.147 27.7184C140.917 27.9781 140.632 28.1818 140.315 28.3148C139.997 28.4477 139.655 28.5064 139.312 28.4866C133.705 28.5955 128.092 28.4371 122.484 28.546C121.408 30.6646 120.316 32.7732 119.259 34.9066C118.807 35.8224 118.4 36.9212 117.507 37.5053C117.018 37.8049 116.436 37.9075 115.877 37.7931C115.317 37.6787 114.819 37.3555 114.48 36.8866C113.544 35.857 114.262 34.4413 114.781 33.4217C119.443 24.2545 124.182 15.1863 128.815 6.05376Z" fill="#00AF40"/>
</svg>
