<svg xmlns="http://www.w3.org/2000/svg" id="acde17ee-7b98-46a4-9820-b8eea98c496f" data-name="Layer 1" viewBox="0 0 1920 871.66"><polyline points="1919.49 377.48 1920.1 866.17 70.45 770.98 0 790.47" style="fill:none;stroke:#0a36a4;stroke-miterlimit:10;stroke-width:0.5px"/><polyline points="1919.5 370.9 1895.73 855.18 79.71 761.73 0 785.62" style="fill:none;stroke:#0a36a4;stroke-miterlimit:10;stroke-width:0.5090909088030461px"/><polyline points="1919.51 364.31 1871.37 844.2 88.98 752.47 0 780.77" style="fill:none;stroke:#0a36a4;stroke-miterlimit:10;stroke-width:0.518181817904818px"/><polyline points="1919.52 357.73 1847.01 833.21 98.25 743.22 0 775.93" style="fill:none;stroke:#0a36a4;stroke-miterlimit:10;stroke-width:0.5272727270065898px"/><polyline points="1919.53 351.14 1822.65 822.22 107.52 733.96 0 771.08" style="fill:none;stroke:#0a36a4;stroke-miterlimit:10;stroke-width:0.5363636361083617px"/><polyline points="1919.54 344.56 1798.28 811.24 116.78 724.71 0 766.24" style="fill:none;stroke:#0a36a4;stroke-miterlimit:10;stroke-width:0.5454545452101336px"/><polyline points="1919.55 337.97 1773.92 800.25 126.05 715.45 0 761.39" style="fill:none;stroke:#0a36a4;stroke-miterlimit:10;stroke-width:0.5545454543119054px"/><polyline points="1919.56 331.39 1749.56 789.27 135.32 706.2 0 756.54" style="fill:none;stroke:#0a36a4;stroke-miterlimit:10;stroke-width:0.5636363634136773px"/><polyline points="1919.56 324.8 1725.19 778.28 144.58 696.94 0 751.7" style="fill:none;stroke:#0a36a4;stroke-miterlimit:10.000000000000002;stroke-width:0.5727272725154491px"/><polyline points="1919.57 318.22 1700.83 767.29 153.85 687.69 0 746.85" style="fill:none;stroke:#0a36a4;stroke-miterlimit:10;stroke-width:0.581818181617221px"/><polyline points="1919.58 311.63 1676.47 756.31 163.12 678.43 0 742" style="fill:none;stroke:#0a36a4;stroke-miterlimit:10;stroke-width:0.5909090907189929px"/><polyline points="1919.59 305.05 1652.11 745.32 172.39 669.18 0 737.16" style="fill:none;stroke:#0a36a4;stroke-miterlimit:10;stroke-width:0.5999999998207647px"/><polyline points="1919.6 298.46 1627.74 734.34 181.65 659.92 0 732.31" style="fill:none;stroke:#0a36a4;stroke-miterlimit:10;stroke-width:0.6090909089225365px"/><polyline points="1919.61 291.88 1603.38 723.35 190.92 650.67 0 727.47" style="fill:none;stroke:#0a36a4;stroke-miterlimit:10;stroke-width:0.6181818180243084px"/><polyline points="1919.62 285.3 1579.02 712.37 200.19 641.41 0 722.62" style="fill:none;stroke:#0a36a4;stroke-miterlimit:10;stroke-width:0.6272727271260803px"/><polyline points="1919.63 278.71 1554.65 701.38 209.46 632.16 0 717.77" style="fill:none;stroke:#0a36a4;stroke-miterlimit:10;stroke-width:0.6363636362278522px"/><polyline points="1919.64 272.13 1530.29 690.4 218.72 622.9 0 712.92" style="fill:none;stroke:#0a36a4;stroke-miterlimit:10;stroke-width:0.645454545329624px"/><polyline points="1919.65 265.54 1505.93 679.41 227.99 613.65 0 708.08" style="fill:none;stroke:#0a36a4;stroke-miterlimit:10;stroke-width:0.6545454544313958px"/><polyline points="1919.66 258.96 1481.57 668.42 237.26 604.39 0 703.23" style="fill:none;stroke:#0a36a4;stroke-miterlimit:10;stroke-width:0.6636363635331677px"/><polyline points="1919.67 252.37 1457.2 657.44 246.52 595.14 0 698.39" style="fill:none;stroke:#0a36a4;stroke-miterlimit:10;stroke-width:0.6727272726349396px"/><polyline points="1919.67 245.79 1432.84 646.45 255.79 585.88 0 693.54" style="fill:none;stroke:#0a36a4;stroke-miterlimit:10;stroke-width:0.6818181817367114px"/><polyline points="1919.68 239.2 1408.48 635.47 265.06 576.63 0 688.69" style="fill:none;stroke:#0a36a4;stroke-miterlimit:10;stroke-width:0.6909090908384832px"/><polyline points="1919.69 232.62 1384.12 624.48 274.32 567.37 0 683.85" style="fill:none;stroke:#0a36a4;stroke-miterlimit:10;stroke-width:0.6999999999402551px"/><polyline points="1919.7 226.03 1359.75 613.5 283.59 558.12 0 679" style="fill:none;stroke:#0a36a4;stroke-miterlimit:10;stroke-width:0.709090909042027px"/><polyline points="1919.71 219.45 1335.39 602.51 292.86 548.86 0 674.15" style="fill:none;stroke:#0a36a4;stroke-miterlimit:10;stroke-width:0.7181818181437988px"/><polyline points="1919.72 212.86 1311.03 591.53 302.13 539.61 0 669.31" style="fill:none;stroke:#0a36a4;stroke-miterlimit:10;stroke-width:0.7272727272455706px"/><polyline points="1919.73 206.28 1286.66 580.54 311.39 530.35 0 664.46" style="fill:none;stroke:#0a36a4;stroke-miterlimit:10;stroke-width:0.7363636363473425px"/><polyline points="1919.74 199.69 1262.3 569.55 320.66 521.1 0 659.62" style="fill:none;stroke:#0a36a4;stroke-miterlimit:10;stroke-width:0.7454545454491144px"/><polyline points="1919.75 193.11 1237.94 558.57 329.93 511.84 0 654.77" style="fill:none;stroke:#0a36a4;stroke-miterlimit:10;stroke-width:0.7545454545508862px"/><polyline points="1919.76 186.52 1213.58 547.58 339.2 502.59 0 649.92" style="fill:none;stroke:#0a36a4;stroke-miterlimit:10;stroke-width:0.763636363652658px"/><polyline points="1919.77 179.94 1189.21 536.6 348.46 493.33 0 645.08" style="fill:none;stroke:#0a36a4;stroke-miterlimit:10;stroke-width:0.7727272727544299px"/><polyline points="1919.78 173.35 1164.85 525.61 357.73 484.08 0 640.23" style="fill:none;stroke:#0a36a4;stroke-miterlimit:10;stroke-width:0.7818181818562018px"/><polyline points="1919.79 166.77 1140.49 514.63 367 474.82 0 635.38" style="fill:none;stroke:#0a36a4;stroke-miterlimit:10;stroke-width:0.7909090909579736px"/><polyline points="1919.8 160.18 1116.13 503.64 376.26 465.57 0 630.54" style="fill:none;stroke:#0a36a4;stroke-miterlimit:10;stroke-width:0.8000000000597454px"/><polyline points="1919.81 153.6 1091.76 492.65 385.53 456.31 0 625.69" style="fill:none;stroke:#0a36a4;stroke-miterlimit:10;stroke-width:0.8090909091615173px"/><polyline points="1919.81 147.01 1067.4 481.67 394.8 447.06 0 620.84" style="fill:none;stroke:#0a36a4;stroke-miterlimit:10;stroke-width:0.8181818182632892px"/><polyline points="1919.82 140.43 1043.04 470.68 404.07 437.8 0 616" style="fill:none;stroke:#0a36a4;stroke-miterlimit:10;stroke-width:0.827272727365061px"/><polyline points="1919.83 133.84 1018.67 459.7 413.33 428.55 0 611.15" style="fill:none;stroke:#0a36a4;stroke-miterlimit:10;stroke-width:0.8363636364668328px"/><polyline points="1919.84 127.26 994.31 448.71 422.6 419.29 0 606.3" style="fill:none;stroke:#0a36a4;stroke-miterlimit:10;stroke-width:0.8454545455686047px"/><polyline points="1919.85 120.68 969.95 437.73 431.87 410.04 0 601.46" style="fill:none;stroke:#0a36a4;stroke-miterlimit:10;stroke-width:0.8545454546703766px"/><polyline points="1919.86 114.09 945.59 426.74 441.13 400.78 0 596.61" style="fill:none;stroke:#0a36a4;stroke-miterlimit:10;stroke-width:0.8636363637721484px"/><polyline points="1919.87 107.51 921.22 415.76 450.4 391.53 0 591.76" style="fill:none;stroke:#0a36a4;stroke-miterlimit:10;stroke-width:0.8727272728739202px"/><polyline points="1919.88 100.92 896.86 404.77 459.67 382.27 0 586.92" style="fill:none;stroke:#0a36a4;stroke-miterlimit:10;stroke-width:0.8818181819756921px"/><polyline points="1919.89 94.34 872.5 393.79 468.94 373.02 0 582.07" style="fill:none;stroke:#0a36a4;stroke-miterlimit:10;stroke-width:0.890909091077464px"/><polyline points="1919.9 87.75 848.13 382.8 478.2 363.76 0 577.23" style="fill:none;stroke:#0a36a4;stroke-miterlimit:10;stroke-width:0.9000000001792358px"/><polyline points="1919.91 81.17 823.77 371.81 487.47 354.51 0 572.38" style="fill:none;stroke:#0a36a4;stroke-miterlimit:10;stroke-width:0.9090909092810076px"/><polyline points="1919.92 74.58 799.41 360.83 496.74 345.25 0 567.53" style="fill:none;stroke:#0a36a4;stroke-miterlimit:10;stroke-width:0.9181818183827795px"/><polyline points="1919.93 68 775.05 349.84 506.01 336 0 562.69" style="fill:none;stroke:#0a36a4;stroke-miterlimit:10;stroke-width:0.9272727274845514px"/><polyline points="1919.93 61.41 750.68 338.86 515.27 326.74 0 557.84" style="fill:none;stroke:#0a36a4;stroke-miterlimit:10;stroke-width:0.9363636365863232px"/><polyline points="1919.94 54.83 726.32 327.87 524.54 317.49 0 552.99" style="fill:none;stroke:#0a36a4;stroke-miterlimit:10;stroke-width:0.945454545688095px"/><polyline points="1919.95 48.24 701.96 316.88 533.81 308.23 0 548.15" style="fill:none;stroke:#0a36a4;stroke-miterlimit:10;stroke-width:0.9545454547898669px"/><polyline points="1919.96 41.66 677.6 305.9 543.08 298.98 0 543.3" style="fill:none;stroke:#0a36a4;stroke-miterlimit:10;stroke-width:0.9636363638916388px"/><polyline points="1919.97 35.07 653.23 294.91 552.34 289.72 0 538.45" style="fill:none;stroke:#0a36a4;stroke-miterlimit:10;stroke-width:0.9727272729934106px"/><polyline points="1919.98 28.49 628.87 283.93 561.61 280.47 0 533.61" style="fill:none;stroke:#0a36a4;stroke-miterlimit:10;stroke-width:0.9818181820951823px"/><polyline points="1919.99 21.9 604.51 272.94 570.88 271.21 0 528.76" style="fill:none;stroke:#0a36a4;stroke-miterlimit:10;stroke-width:0.9909090911969543px"/><polyline points="1920 15.32 580.14 261.96 580.14 261.96 0 523.91" style="fill:none;stroke:#0a36a4;stroke-miterlimit:10"/></svg>