<svg xmlns="http://www.w3.org/2000/svg" id="a295387e-3d25-4fef-8703-823452ad014b" data-name="Layer 1" viewBox="0 0 1920 1107.96"><polyline points="-1.13 624.23 609.7 479.49 1292.94 128.68 1921.13 6.87" style="fill:none;stroke:#e8e8e8;stroke-miterlimit:10;stroke-width:0.75px"/><polyline points="-1.13 625.97 612.71 483.14 1296 134.76 1921.12 15.48" style="fill:none;stroke:#e8e8e8;stroke-miterlimit:10;stroke-width:0.7425742575433102px"/><polyline points="-1.13 627.71 615.71 486.8 1299.06 140.84 1921.11 24.09" style="fill:none;stroke:#e8e8e8;stroke-miterlimit:10;stroke-width:0.7351485149666777px"/><polyline points="-1.13 629.45 618.71 490.45 1302.13 146.93 1921.1 32.7" style="fill:none;stroke:#e8e8e8;stroke-miterlimit:10;stroke-width:0.7277227723900451px"/><polyline points="-1.13 631.19 621.72 494.11 1305.19 153.01 1921.09 41.3" style="fill:none;stroke:#e8e8e8;stroke-miterlimit:10;stroke-width:0.7202970298134126px"/><polyline points="-1.13 632.93 624.72 497.77 1308.26 159.09 1921.08 49.91" style="fill:none;stroke:#e8e8e8;stroke-miterlimit:10;stroke-width:0.7128712872367801px"/><polyline points="-1.13 634.67 627.72 501.42 1311.32 165.17 1921.06 58.52" style="fill:none;stroke:#e8e8e8;stroke-miterlimit:10;stroke-width:0.7054455446601475px"/><polyline points="-1.13 636.41 630.73 505.08 1314.38 171.26 1921.05 67.13" style="fill:none;stroke:#e8e8e8;stroke-miterlimit:10;stroke-width:0.698019802083515px"/><polyline points="-1.13 638.15 633.73 508.73 1317.45 177.34 1921.04 75.73" style="fill:none;stroke:#e8e8e8;stroke-miterlimit:10;stroke-width:0.6905940595068825px"/><polyline points="-1.13 639.89 636.73 512.39 1320.51 183.42 1921.03 84.34" style="fill:none;stroke:#e8e8e8;stroke-miterlimit:10;stroke-width:0.6831683169302499px"/><polyline points="-1.13 641.63 639.73 516.04 1323.58 189.5 1921.02 92.95" style="fill:none;stroke:#e8e8e8;stroke-miterlimit:10;stroke-width:0.6757425743536174px"/><polyline points="-1.13 643.37 642.74 519.7 1326.64 195.59 1921.01 101.56" style="fill:none;stroke:#e8e8e8;stroke-miterlimit:10;stroke-width:0.6683168317769849px"/><polyline points="-1.13 645.11 645.74 523.35 1329.7 201.67 1921 110.17" style="fill:none;stroke:#e8e8e8;stroke-miterlimit:10;stroke-width:0.6608910892003523px"/><polyline points="-1.13 646.85 648.74 527.01 1332.77 207.75 1920.99 118.77" style="fill:none;stroke:#e8e8e8;stroke-miterlimit:10;stroke-width:0.6534653466237198px"/><polyline points="-1.13 648.59 651.75 530.66 1335.83 213.83 1920.97 127.38" style="fill:none;stroke:#e8e8e8;stroke-miterlimit:10;stroke-width:0.6460396040470873px"/><polyline points="-1.13 650.33 654.75 534.32 1338.89 219.91 1920.96 135.99" style="fill:none;stroke:#e8e8e8;stroke-miterlimit:10;stroke-width:0.6386138614704547px"/><polyline points="-1.13 652.07 657.75 537.98 1341.96 226 1920.95 144.6" style="fill:none;stroke:#e8e8e8;stroke-miterlimit:10;stroke-width:0.6311881188938222px"/><polyline points="-1.13 653.81 660.76 541.63 1345.02 232.08 1920.94 153.2" style="fill:none;stroke:#e8e8e8;stroke-miterlimit:10;stroke-width:0.6237623763171897px"/><polyline points="-1.13 655.55 663.76 545.29 1348.09 238.16 1920.93 161.81" style="fill:none;stroke:#e8e8e8;stroke-miterlimit:10;stroke-width:0.6163366337405571px"/><polyline points="-1.13 657.29 666.76 548.94 1351.15 244.24 1920.92 170.42" style="fill:none;stroke:#e8e8e8;stroke-miterlimit:10;stroke-width:0.6089108911639246px"/><polyline points="-1.13 659.03 669.77 552.6 1354.21 250.32 1920.91 179.03" style="fill:none;stroke:#e8e8e8;stroke-miterlimit:10;stroke-width:0.6014851485872921px"/><polyline points="-1.13 660.77 672.77 556.25 1357.28 256.41 1920.9 187.63" style="fill:none;stroke:#e8e8e8;stroke-miterlimit:10;stroke-width:0.5940594060106595px"/><polyline points="-1.13 662.51 675.77 559.91 1360.34 262.49 1920.88 196.24" style="fill:none;stroke:#e8e8e8;stroke-miterlimit:10;stroke-width:0.586633663434027px"/><polyline points="-1.13 664.25 678.77 563.56 1363.4 268.57 1920.87 204.85" style="fill:none;stroke:#e8e8e8;stroke-miterlimit:10;stroke-width:0.5792079208573945px"/><polyline points="-1.13 666 681.78 567.22 1366.47 274.65 1920.86 213.46" style="fill:none;stroke:#e8e8e8;stroke-miterlimit:10;stroke-width:0.5717821782807619px"/><polyline points="-1.13 667.74 684.78 570.87 1369.53 280.74 1920.85 222.07" style="fill:none;stroke:#e8e8e8;stroke-miterlimit:10;stroke-width:0.5643564357041294px"/><polyline points="-1.13 669.48 687.78 574.53 1372.6 286.82 1920.84 230.67" style="fill:none;stroke:#e8e8e8;stroke-miterlimit:10;stroke-width:0.5569306931274969px"/><polyline points="-1.13 671.22 690.79 578.18 1375.66 292.9 1920.83 239.28" style="fill:none;stroke:#e8e8e8;stroke-miterlimit:10;stroke-width:0.5495049505508643px"/><polyline points="-1.13 672.96 693.79 581.84 1378.72 298.98 1920.82 247.89" style="fill:none;stroke:#e8e8e8;stroke-miterlimit:10;stroke-width:0.5420792079742318px"/><polyline points="-1.13 674.7 696.79 585.5 1381.79 305.06 1920.81 256.5" style="fill:none;stroke:#e8e8e8;stroke-miterlimit:10;stroke-width:0.5346534653975993px"/><polyline points="-1.13 676.44 699.8 589.15 1384.85 311.15 1920.8 265.11" style="fill:none;stroke:#e8e8e8;stroke-miterlimit:10;stroke-width:0.5272277228209667px"/><polyline points="-1.13 678.18 702.8 592.81 1387.91 317.23 1920.78 273.71" style="fill:none;stroke:#e8e8e8;stroke-miterlimit:10;stroke-width:0.5198019802443342px"/><polyline points="-1.13 679.92 705.8 596.46 1390.98 323.31 1920.77 282.32" style="fill:none;stroke:#e8e8e8;stroke-miterlimit:10;stroke-width:0.5123762376677017px"/><polyline points="-1.13 681.66 708.81 600.12 1394.04 329.39 1920.76 290.93" style="fill:none;stroke:#e8e8e8;stroke-miterlimit:10;stroke-width:0.5049504950910692px"/><polyline points="-1.13 683.4 711.81 603.77 1397.11 335.47 1920.75 299.54" style="fill:none;stroke:#e8e8e8;stroke-miterlimit:10;stroke-width:0.4975247525144366px"/><polyline points="-1.13 685.14 714.81 607.43 1400.17 341.56 1920.74 308.14" style="fill:none;stroke:#e8e8e8;stroke-miterlimit:10;stroke-width:0.4900990099378041px"/><polyline points="-1.13 686.88 717.82 611.08 1403.23 347.64 1920.73 316.75" style="fill:none;stroke:#e8e8e8;stroke-miterlimit:10;stroke-width:0.48267326736117155px"/><polyline points="-1.13 688.62 720.82 614.74 1406.3 353.72 1920.72 325.36" style="fill:none;stroke:#e8e8e8;stroke-miterlimit:10;stroke-width:0.475247524784539px"/><polyline points="-1.13 690.36 723.82 618.39 1409.36 359.8 1920.71 333.97" style="fill:none;stroke:#e8e8e8;stroke-miterlimit:10;stroke-width:0.4678217822079065px"/><polyline points="-1.13 692.1 726.83 622.05 1412.43 365.88 1920.69 342.57" style="fill:none;stroke:#e8e8e8;stroke-miterlimit:10;stroke-width:0.46039603963127396px"/><polyline points="-1.13 693.84 729.83 625.7 1415.49 371.97 1920.68 351.18" style="fill:none;stroke:#e8e8e8;stroke-miterlimit:10;stroke-width:0.4529702970546414px"/><polyline points="-1.13 695.58 732.83 629.36 1418.55 378.05 1920.67 359.79" style="fill:none;stroke:#e8e8e8;stroke-miterlimit:10;stroke-width:0.4455445544780089px"/><polyline points="-1.13 697.32 735.84 633.01 1421.62 384.13 1920.66 368.4" style="fill:none;stroke:#e8e8e8;stroke-miterlimit:10;stroke-width:0.43811881190137636px"/><polyline points="-1.13 699.06 738.84 636.67 1424.68 390.21 1920.65 377.01" style="fill:none;stroke:#e8e8e8;stroke-miterlimit:10;stroke-width:0.4306930693247438px"/><polyline points="-1.13 700.8 741.84 640.33 1427.74 396.3 1920.64 385.61" style="fill:none;stroke:#e8e8e8;stroke-miterlimit:10;stroke-width:0.4232673267481113px"/><polyline points="-1.13 702.54 744.85 643.98 1430.81 402.38 1920.63 394.22" style="fill:none;stroke:#e8e8e8;stroke-miterlimit:10;stroke-width:0.41584158417147876px"/><polyline points="-1.13 704.28 747.85 647.64 1433.87 408.46 1920.62 402.83" style="fill:none;stroke:#e8e8e8;stroke-miterlimit:10;stroke-width:0.40841584159484623px"/><polyline points="-1.13 706.02 750.85 651.29 1436.94 414.54 1920.61 411.44" style="fill:none;stroke:#e8e8e8;stroke-miterlimit:10;stroke-width:0.4009900990182137px"/><polyline points="-1.13 707.76 753.85 654.95 1440 420.62 1920.59 420.04" style="fill:none;stroke:#e8e8e8;stroke-miterlimit:10;stroke-width:0.39356435644158116px"/><polyline points="-1.13 709.5 756.86 658.6 1443.06 426.71 1920.58 428.65" style="fill:none;stroke:#e8e8e8;stroke-miterlimit:10;stroke-width:0.38613861386494863px"/><polyline points="-1.13 711.24 759.86 662.26 1446.13 432.79 1920.57 437.26" style="fill:none;stroke:#e8e8e8;stroke-miterlimit:10;stroke-width:0.3787128712883161px"/><polyline points="-1.13 712.98 762.86 665.91 1449.19 438.87 1920.56 445.87" style="fill:none;stroke:#e8e8e8;stroke-miterlimit:10;stroke-width:0.37128712871168357px"/><polyline points="-1.13 714.72 765.87 669.57 1452.26 444.95 1920.55 454.48" style="fill:none;stroke:#e8e8e8;stroke-miterlimit:10;stroke-width:0.36386138613505103px"/><polyline points="-1.13 716.46 768.87 673.22 1455.32 451.04 1920.54 463.08" style="fill:none;stroke:#e8e8e8;stroke-miterlimit:10;stroke-width:0.3564356435584185px"/><polyline points="-1.13 718.2 771.87 676.88 1458.38 457.12 1920.53 471.69" style="fill:none;stroke:#e8e8e8;stroke-miterlimit:10;stroke-width:0.34900990098178597px"/><polyline points="-1.13 719.94 774.88 680.53 1461.45 463.2 1920.52 480.3" style="fill:none;stroke:#e8e8e8;stroke-miterlimit:10;stroke-width:0.34158415840515344px"/><polyline points="-1.13 721.68 777.88 684.19 1464.51 469.28 1920.5 488.91" style="fill:none;stroke:#e8e8e8;stroke-miterlimit:10;stroke-width:0.3341584158285209px"/><polyline points="-1.13 723.42 780.88 687.85 1467.58 475.36 1920.49 497.51" style="fill:none;stroke:#e8e8e8;stroke-miterlimit:10;stroke-width:0.3267326732518884px"/><polyline points="-1.13 725.16 783.89 691.5 1470.64 481.45 1920.48 506.12" style="fill:none;stroke:#e8e8e8;stroke-miterlimit:10;stroke-width:0.31930693067525584px"/><polyline points="-1.13 726.9 786.89 695.16 1473.7 487.53 1920.47 514.73" style="fill:none;stroke:#e8e8e8;stroke-miterlimit:10;stroke-width:0.3118811880986233px"/><polyline points="-1.13 728.64 789.89 698.81 1476.77 493.61 1920.46 523.34" style="fill:none;stroke:#e8e8e8;stroke-miterlimit:10;stroke-width:0.3044554455219908px"/><polyline points="-1.13 730.38 792.89 702.47 1479.83 499.69 1920.45 531.95" style="fill:none;stroke:#e8e8e8;stroke-miterlimit:10;stroke-width:0.29702970294535824px"/><polyline points="-1.13 732.12 795.9 706.12 1482.89 505.77 1920.44 540.55" style="fill:none;stroke:#e8e8e8;stroke-miterlimit:10;stroke-width:0.2896039603687257px"/><polyline points="-1.13 733.87 798.9 709.78 1485.96 511.86 1920.43 549.16" style="fill:none;stroke:#e8e8e8;stroke-miterlimit:10;stroke-width:0.2821782177920932px"/><polyline points="-1.13 735.61 801.9 713.43 1489.02 517.94 1920.41 557.77" style="fill:none;stroke:#e8e8e8;stroke-miterlimit:10;stroke-width:0.27475247521546065px"/><polyline points="-1.13 737.35 804.91 717.09 1492.09 524.02 1920.4 566.38" style="fill:none;stroke:#e8e8e8;stroke-miterlimit:10;stroke-width:0.2673267326388281px"/><polyline points="-1.13 739.09 807.91 720.74 1495.15 530.1 1920.39 574.98" style="fill:none;stroke:#e8e8e8;stroke-miterlimit:10;stroke-width:0.2599009900621956px"/><polyline points="-1.13 740.83 810.91 724.4 1498.21 536.18 1920.38 583.59" style="fill:none;stroke:#e8e8e8;stroke-miterlimit:10;stroke-width:0.25247524748556305px"/><polyline points="-1.13 742.57 813.92 728.05 1501.28 542.27 1920.37 592.2" style="fill:none;stroke:#e8e8e8;stroke-miterlimit:10;stroke-width:0.24504950490893052px"/><polyline points="-1.13 744.31 816.92 731.71 1504.34 548.35 1920.36 600.81" style="fill:none;stroke:#e8e8e8;stroke-miterlimit:10;stroke-width:0.23762376233229798px"/><polyline points="-1.13 746.05 819.92 735.37 1507.4 554.43 1920.35 609.41" style="fill:none;stroke:#e8e8e8;stroke-miterlimit:10;stroke-width:0.23019801975566545px"/><polyline points="-1.13 747.79 822.93 739.02 1510.47 560.51 1920.34 618.02" style="fill:none;stroke:#e8e8e8;stroke-miterlimit:10;stroke-width:0.22277227717903292px"/><polyline points="-1.13 749.53 825.93 742.67 1513.53 566.6 1920.33 626.63" style="fill:none;stroke:#e8e8e8;stroke-miterlimit:10;stroke-width:0.21534653460240039px"/><polyline points="-1.13 751.27 828.93 746.33 1516.6 572.68 1920.31 635.24" style="fill:none;stroke:#e8e8e8;stroke-miterlimit:10;stroke-width:0.20792079202576785px"/><polyline points="-1.13 753.01 831.94 749.99 1519.66 578.76 1920.3 643.85" style="fill:none;stroke:#e8e8e8;stroke-miterlimit:10;stroke-width:0.20049504944913532px"/><polyline points="-1.13 754.75 834.94 753.64 1522.72 584.84 1920.29 652.45" style="fill:none;stroke:#e8e8e8;stroke-miterlimit:10;stroke-width:0.1930693068725028px"/><polyline points="-1.13 756.49 837.94 757.3 1525.79 590.92 1920.28 661.06" style="fill:none;stroke:#e8e8e8;stroke-miterlimit:10;stroke-width:0.18564356429587026px"/><polyline points="-1.13 758.23 840.95 760.95 1528.85 597.01 1920.27 669.67" style="fill:none;stroke:#e8e8e8;stroke-miterlimit:10;stroke-width:0.17821782171923772px"/><polyline points="-1.13 759.97 843.95 764.61 1531.91 603.09 1920.26 678.28" style="fill:none;stroke:#e8e8e8;stroke-miterlimit:10;stroke-width:0.1707920791426052px"/><polyline points="-1.13 761.71 846.95 768.26 1534.98 609.17 1920.25 686.88" style="fill:none;stroke:#e8e8e8;stroke-miterlimit:10;stroke-width:0.16336633656597266px"/><polyline points="-1.13 763.45 849.96 771.92 1538.04 615.25 1920.23 695.49" style="fill:none;stroke:#e8e8e8;stroke-miterlimit:10;stroke-width:0.15594059398934013px"/><polyline points="-1.13 765.19 852.96 775.57 1541.11 621.34 1920.22 704.1" style="fill:none;stroke:#e8e8e8;stroke-miterlimit:10;stroke-width:0.1485148514127076px"/><polyline points="-1.13 766.93 855.96 779.23 1544.17 627.42 1920.21 712.71" style="fill:none;stroke:#e8e8e8;stroke-miterlimit:10;stroke-width:0.14108910883607506px"/><polyline points="-1.13 768.67 858.97 782.88 1547.23 633.5 1920.2 721.32" style="fill:none;stroke:#e8e8e8;stroke-miterlimit:10;stroke-width:0.13366336625944253px"/><polyline points="-1.13 770.41 861.97 786.54 1550.3 639.58 1920.19 729.92" style="fill:none;stroke:#e8e8e8;stroke-miterlimit:10;stroke-width:0.12623762368281px"/><polyline points="-1.13 772.15 864.97 790.2 1553.36 645.66 1920.18 738.53" style="fill:none;stroke:#e8e8e8;stroke-miterlimit:10;stroke-width:0.11881188110617746px"/><polyline points="-1.13 773.89 867.97 793.85 1556.43 651.75 1920.17 747.14" style="fill:none;stroke:#e8e8e8;stroke-miterlimit:10;stroke-width:0.11138613852954493px"/><polyline points="-1.13 775.63 870.98 797.51 1559.49 657.83 1920.16 755.75" style="fill:none;stroke:#e8e8e8;stroke-miterlimit:10;stroke-width:0.1039603959529124px"/><polyline points="-1.13 777.37 873.98 801.16 1562.55 663.91 1920.15 764.36" style="fill:none;stroke:#e8e8e8;stroke-miterlimit:10;stroke-width:0.09653465337627987px"/><polyline points="-1.13 779.11 876.98 804.82 1565.62 669.99 1920.13 772.96" style="fill:none;stroke:#e8e8e8;stroke-miterlimit:10;stroke-width:0.08910891079964733px"/><polyline points="-1.13 780.85 879.99 808.47 1568.68 676.08 1920.12 781.57" style="fill:none;stroke:#e8e8e8;stroke-miterlimit:10;stroke-width:0.0816831682230148px"/><polyline points="-1.13 782.59 882.99 812.13 1571.74 682.16 1920.11 790.18" style="fill:none;stroke:#e8e8e8;stroke-miterlimit:10;stroke-width:0.07425742564638227px"/><polyline points="-1.13 784.33 885.99 815.78 1574.81 688.24 1920.1 798.79" style="fill:none;stroke:#e8e8e8;stroke-miterlimit:10;stroke-width:0.06683168306974974px"/><polyline points="-1.13 786.07 889 819.44 1577.87 694.32 1920.09 807.39" style="fill:none;stroke:#e8e8e8;stroke-miterlimit:10;stroke-width:0.059405940493117204px"/><polyline points="-1.13 787.81 892 823.09 1580.94 700.4 1920.08 816" style="fill:none;stroke:#e8e8e8;stroke-miterlimit:10;stroke-width:0.05198019791648467px"/><polyline points="-1.13 789.55 895 826.75 1584 706.49 1920.07 824.61" style="fill:none;stroke:#e8e8e8;stroke-miterlimit:10;stroke-width:0.04455445533985214px"/><polyline points="-1.13 791.29 898.01 830.4 1587.06 712.57 1920.06 833.22" style="fill:none;stroke:#e8e8e8;stroke-miterlimit:10;stroke-width:0.03712871276321961px"/><polyline points="-1.13 793.03 901.01 834.06 1590.13 718.65 1920.05 841.82" style="fill:none;stroke:#e8e8e8;stroke-miterlimit:10;stroke-width:0.029702970186587074px"/><polyline points="-1.13 794.77 904.01 837.72 1593.19 724.73 1920.03 850.43" style="fill:none;stroke:#e8e8e8;stroke-miterlimit:10;stroke-width:0.022277227609954542px"/><polyline points="-1.13 796.51 907.01 841.37 1596.26 730.81 1920.02 859.04" style="fill:none;stroke:#e8e8e8;stroke-miterlimit:10;stroke-width:0.01485148503332201px"/><polyline points="-1.13 798.25 910.02 845.02 1599.32 736.9 1920.01 867.65" style="fill:none;stroke:#e8e8e8;stroke-miterlimit:10;stroke-width:0.007425742456689477px"/><polyline points="-1.13 799.99 913.02 848.68 1602.38 742.98 1920 876.25" style="fill:none"/></svg>