<svg width="27" height="37" viewBox="0 0 27 37" fill="none" xmlns="http://www.w3.org/2000/svg">
<g clip-path="url(#clip0_1140:1640)">
<path d="M17.1998 9.79999V16.4H9.2998V9.79999C9.2998 7.59999 11.0998 5.79999 13.1998 5.79999C14.1998 5.79999 15.1998 6.19999 15.8998 6.89999C16.7998 7.69999 17.1998 8.69999 17.1998 9.79999Z" stroke="white" stroke-width="2" stroke-linejoin="round"/>
<path d="M22 15.7C22 16.2 22.4 16.6 22.9 16.7C24.4 16.9 25.5 18.1 25.5 19.7V32.8C25.5 34.5 24.2 35.9 22.5 35.9H4C2.3 35.9 1 34.5 1 32.8V19.7C1 18.1 2.1 16.9 3.6 16.7C4.1 16.6 4.5 16.2 4.5 15.7V9.8C4.5 5 8.4 1 13.3 1H13.4C15.7 1 17.8 1.9 19.4 3.5C21.1 5.2 22 7.5 22 9.8V15.7Z" stroke="white" stroke-width="2" stroke-linejoin="round"/>
<path d="M16.9 23.9C16.9 25.7 15.5 27.1 13.7 27.1C11.9 27.1 10.5 25.7 10.5 23.9C10.5 22.1 11.9 20.7 13.7 20.7C15.5 20.7 16.9 22.1 16.9 23.9Z" stroke="white" stroke-width="2"/>
<path d="M14 28L14 32" stroke="white" stroke-width="2" stroke-linecap="round" stroke-linejoin="round"/>
</g>
<defs>
<clipPath id="clip0_1140:1640">
<rect width="26.5" height="36.8" fill="white"/>
</clipPath>
</defs>
</svg>
