<svg id="e9ba553c-2887-4067-842a-176a9b410694" data-name="Layer 1" xmlns="http://www.w3.org/2000/svg" viewBox="0 0 293.21 36.1451"><g id="b8c96ecd-775d-4d62-984a-f6d81979319d" data-name="b582e13f-33b5-4b4c-8206-a3ad1dc37b96"><path d="M21.85,22.15a10.77,10.77,0,0,1-6.35-2.08l-3.31,3.35h0a1.76,1.76,0,0,1-2.4888.0312L9.67,23.42a1.81,1.81,0,0,1,0-2.55L13,17.51a11.11,11.11,0,0,1-2-6.44h0a11.08,11.08,0,0,0,0,22.15A11,11,0,0,0,21.85,22.15Z" style="fill:#fff"/><polygon points="37.24 4.2 42.46 4.2 42.46 32.25 37.24 32.25 37.24 4.2 37.24 4.2" style="fill:#fff"/><path d="M47.82,4.2h5.23v5H47.82Zm0,7.73h5.23V32.25H47.82Z" style="fill:#fff"/><path d="M76.36,32.25H71.14V21.88a16.1,16.1,0,0,0-.34-4.26,2.94,2.94,0,0,0-1.08-1.5,3,3,0,0,0-1.82-.54,4.11,4.11,0,0,0-2.43.77,3.8,3.8,0,0,0-1.48,2,17.999,17.999,0,0,0-.4,4.67v9.21H58.36V11.93h4.86v3a7.84,7.84,0,0,1,6.51-3.44,7.63,7.63,0,0,1,3.16.64,5.29,5.29,0,0,1,2.16,1.64,6.088,6.088,0,0,1,1,2.25,17.6068,17.6068,0,0,1,.28,3.62V32.25Z" style="fill:#fff"/><polygon points="79.15 32.25 86.28 21.78 79.45 11.93 85.83 11.93 89.33 17.52 93.01 11.93 99.14 11.93 92.45 21.55 99.76 32.25 93.34 32.25 89.33 25.95 85.27 32.25 79.15 32.25 79.15 32.25" style="fill:#fff"/><path d="M121,32.25h-4.9v-3a7.85,7.85,0,0,1-2.85,2.59,7.13,7.13,0,0,1-3.32.85,7.41,7.41,0,0,1-5.83-2.82q-2.43-2.82-2.43-7.87T104,14.16a7.59,7.59,0,0,1,6-2.69,7.3,7.3,0,0,1,5.73,2.83V4.2H121Zm-14-10.6h0a9.58,9.58,0,0,0,.87,4.71,4,4,0,0,0,3.54,2.1,3.8,3.8,0,0,0,3.06-1.58,7.39,7.39,0,0,0,1.27-4.72q0-3.5-1.23-5a4,4,0,0,0-6.25,0A7,7,0,0,0,107,21.65Z" style="fill:#fff"/><path d="M130,18.13l-4.74-.88A7.63,7.63,0,0,1,128,12.88a9.89,9.89,0,0,1,5.8-1.41,12.1385,12.1385,0,0,1,5.21.85,5.26,5.26,0,0,1,2.41,2.16,11.4994,11.4994,0,0,1,.69,4.82v6.27a23.1417,23.1417,0,0,0,.25,3.95,11.8309,11.8309,0,0,0,.94,2.73h-5.2c-.14-.36-.3-.89-.5-1.59-.09-.32-.15-.53-.19-.63a9.439,9.439,0,0,1-2.86,2,8.1105,8.1105,0,0,1-3.25.66,6.59,6.59,0,0,1-4.81-1.7,5.74,5.74,0,0,1-1.76-4.3,5.93,5.93,0,0,1,.8-3.07,5.28,5.28,0,0,1,2.24-2.07,16.8016,16.8016,0,0,1,4.16-1.25A27.4067,27.4067,0,0,0,137,19v-.54a2.82,2.82,0,0,0-.74-2.21,4.35,4.35,0,0,0-2.81-.66,3.61,3.61,0,0,0-2.17.57,3.93,3.93,0,0,0-1.27,2Zm7,4.36h0a31.638,31.638,0,0,1-3.18.82,9.5882,9.5882,0,0,0-2.84.94,2.26,2.26,0,0,0-1,1.89,2.66,2.66,0,0,0,.81,1.95,2.83,2.83,0,0,0,2.09.83,4.41,4.41,0,0,0,2.69-1,3.33,3.33,0,0,0,1.25-1.78,11.326,11.326,0,0,0,.2-2.62V22.49Z" style="fill:#fff"/><path d="M156.34,11.93v4.28h-3.57V24.4a22.6812,22.6812,0,0,0,.1,2.9,1.19,1.19,0,0,0,.47.68,1.44,1.44,0,0,0,.88.27,6.4892,6.4892,0,0,0,2.11-.52l.44,4.17a10,10,0,0,1-4.12.8,6.5306,6.5306,0,0,1-2.56-.48A3.81,3.81,0,0,1,148.43,31a5.0707,5.0707,0,0,1-.73-2.1,26.8992,26.8992,0,0,1-.17-3.79v-8.9h-2.4V11.93h2.4v-4l5.24-3.14v7.18Z" style="fill:#fff"/><path d="M163.88,18.13l-4.75-.88a7.68,7.68,0,0,1,2.75-4.37,9.92,9.92,0,0,1,5.81-1.41,12.1209,12.1209,0,0,1,5.2.85,5.26,5.26,0,0,1,2.41,2.16,11.3006,11.3006,0,0,1,.7,4.82l-.06,6.27a23.1417,23.1417,0,0,0,.25,3.95,12.32,12.32,0,0,0,.94,2.73H172c-.13-.36-.3-.89-.5-1.59-.08-.32-.15-.53-.18-.63a9.6,9.6,0,0,1-2.87,2,8.07,8.07,0,0,1-3.25.66,6.6,6.6,0,0,1-4.81-1.7,5.74,5.74,0,0,1-1.76-4.3,5.93,5.93,0,0,1,.8-3.07,5.3407,5.3407,0,0,1,2.24-2.07,16.9386,16.9386,0,0,1,4.16-1.25,27.8115,27.8115,0,0,0,5.04-1.3v-.54a2.82,2.82,0,0,0-.75-2.21,4.35,4.35,0,0,0-2.81-.66,3.63,3.63,0,0,0-2.17.57,3.86,3.86,0,0,0-1.26,2Zm7,4.36h0a32.3688,32.3688,0,0,1-3.18.82,9.6806,9.6806,0,0,0-2.85.94,2.26,2.26,0,0,0-1,1.89,2.63,2.63,0,0,0,.82,1.95,2.8,2.8,0,0,0,2.08.83,4.46,4.46,0,0,0,2.7-1,3.37,3.37,0,0,0,1.24-1.78,10.619,10.619,0,0,0,.21-2.62V22.49Z" style="fill:#fff"/><path d="M198.37,17.94l-5.15.95A3.94,3.94,0,0,0,192,16.5a3.49,3.49,0,0,0-2.39-.8,3.86,3.86,0,0,0-3.12,1.39c-.77.92-1.16,2.47-1.16,4.63,0,2.41.39,4.12,1.18,5.11a3.84,3.84,0,0,0,3.17,1.5,3.48,3.48,0,0,0,2.44-.88,5.2505,5.2505,0,0,0,1.34-3l5.13.9a9.45,9.45,0,0,1-3.07,5.49,9.29,9.29,0,0,1-6.08,1.85,8.9,8.9,0,0,1-6.91-2.81A11.28,11.28,0,0,1,180,22.11c0-3.31.86-6,2.58-7.84a9.06,9.06,0,0,1,7-2.8,9.31,9.31,0,0,1,5.74,1.6,8.82,8.82,0,0,1,3.06,4.87Z" style="fill:#fff"/><path d="M213.77,25.78l5.2.9a8.79,8.79,0,0,1-3.17,4.49,9.15,9.15,0,0,1-5.42,1.53q-5.15,0-7.62-3.46a11.88,11.88,0,0,1-1.95-7c0-3.37.85-6,2.56-7.91a8.34,8.34,0,0,1,6.49-2.86,8.68,8.68,0,0,1,7,3q2.55,3,2.43,9.18H206.16a5.59,5.59,0,0,0,1.26,3.72,3.94,3.94,0,0,0,3,1.33,3.15,3.15,0,0,0,2.08-.7A4.3106,4.3106,0,0,0,213.77,25.78Zm.29-5.43h0a5.2,5.2,0,0,0-1.17-3.55,3.53,3.53,0,0,0-2.71-1.22,3.58,3.58,0,0,0-2.83,1.29,5.07,5.07,0,0,0-1.1,3.48Z" style="fill:#fff"/><path d="M241.47,32.25h-5.22V21.88a16.1,16.1,0,0,0-.34-4.26,2.94,2.94,0,0,0-1.08-1.5,3.06,3.06,0,0,0-1.82-.54,4.11,4.11,0,0,0-2.43.77,3.8,3.8,0,0,0-1.48,2,17.999,17.999,0,0,0-.4,4.67v9.21h-5.23V11.93h4.86v3a7.84,7.84,0,0,1,6.51-3.44,7.63,7.63,0,0,1,3.16.64,5.29,5.29,0,0,1,2.16,1.64,5.7681,5.7681,0,0,1,1,2.25,16.8066,16.8066,0,0,1,.29,3.62V32.25Z" style="fill:#fff"/><path d="M255.83,11.93v4.28h-3.57V24.4a20.7727,20.7727,0,0,0,.1,2.9,1.15,1.15,0,0,0,.47.68,1.42,1.42,0,0,0,.88.27,6.5114,6.5114,0,0,0,2.1-.52l.45,4.17a10.0789,10.0789,0,0,1-4.13.8,6.4788,6.4788,0,0,1-2.55-.48A3.81,3.81,0,0,1,247.92,31a5.2205,5.2205,0,0,1-.74-2.1,26.8992,26.8992,0,0,1-.17-3.79v-8.9h-2.39V11.93H247v-4l5.25-3.14v7.18Z" style="fill:#fff"/><path d="M270.89,25.78l5.21.9a8.84,8.84,0,0,1-3.17,4.49,9.18,9.18,0,0,1-5.42,1.53c-3.43,0-6-1.15-7.63-3.46a11.88,11.88,0,0,1-1.95-7c0-3.37.86-6,2.57-7.91a8.32,8.32,0,0,1,6.5-2.86,8.66,8.66,0,0,1,6.95,3q2.55,3,2.44,9.18h-13.1a5.54,5.54,0,0,0,1.26,3.72,3.94,3.94,0,0,0,3,1.33,3.15,3.15,0,0,0,2.06-.69,4.23,4.23,0,0,0,1.26-2.22Zm.3-5.43h0A5.3,5.3,0,0,0,270,16.8a3.69,3.69,0,0,0-5.54.07,5,5,0,0,0-1.1,3.48Z" style="fill:#fff"/><path d="M285.64,32.25h-5.22V11.93h4.85v2.89a8.5614,8.5614,0,0,1,2.24-2.7,4,4,0,0,1,2.26-.65,6.56,6.56,0,0,1,3.44,1l-1.62,4.69a4.56,4.56,0,0,0-2.45-.88,2.84,2.84,0,0,0-1.86.62,4.24,4.24,0,0,0-1.2,2.25,32.86,32.86,0,0,0-.44,6.81v6.29Z" style="fill:#fff"/><path d="M21.85,0A11,11,0,0,0,10.93,11.07a11.11,11.11,0,0,0,2,6.44l4.31-4.37,3.26-3.3h0a1.79,1.79,0,0,1,2.53,0,1.82,1.82,0,0,1,0,2.56h0l-3.22,3.3L15.5,20.07a10.77,10.77,0,0,0,6.35,2.08A11,11,0,0,0,32.77,11.0706V11.07A11,11,0,0,0,21.85,0Z" style="fill:#fff"/></g></svg>