<svg width="191" height="35" viewBox="0 0 191 35" fill="none" xmlns="http://www.w3.org/2000/svg">
<path d="M3.39122 2.34738C3.72428 2.22898 4.08017 2.1846 4.433 2.21745C4.84151 2.22724 5.23486 2.37059 5.55014 2.62458C5.97152 3.0828 6.3211 3.59948 6.58748 4.1578C10.5832 11.6651 14.573 19.1724 18.5568 26.6798C19.142 27.624 19.4124 28.9276 20.5473 29.3997C21.4694 29.2222 21.7708 28.3213 22.1787 27.6283L34.7243 3.9629C35.1677 3.09667 35.8238 2.04853 36.9675 2.17847C38.6077 2.03121 39.6274 4.04519 38.7762 5.34454C34.3431 13.5708 29.8952 21.7798 25.4326 29.9714C24.546 31.7429 22.6663 33.1981 20.5562 33.1115C18.4903 33.1678 16.6063 31.7775 15.7064 30.0234C11.4417 22.0411 7.09286 14.0935 2.83708 6.10682C2.48687 5.36619 1.95046 4.59525 2.14552 3.73768C2.21698 3.42239 2.36855 3.12976 2.58626 2.88678C2.80397 2.6438 3.0808 2.4583 3.39122 2.34738Z" fill="#00AF40"/>
<path d="M39.8578 10.304C42.5176 4.93338 48.5511 1.29522 54.682 1.61139C60.8529 1.63738 66.6514 5.67401 68.9965 11.1919C69.5286 12.4421 69.9022 13.7511 70.1092 15.0899C70.211 15.7746 70.2732 16.4644 70.2954 17.1559C70.3176 17.8012 70.3397 18.5375 69.8521 19.0313C69.6116 19.2586 69.3244 19.4333 69.0095 19.5438C68.6946 19.6543 68.3592 19.6981 68.0257 19.6723C59.4786 19.7026 50.9316 19.6723 42.3846 19.6939C43.2313 23.4837 45.7671 26.9616 49.4288 28.5814C53.8885 30.7037 59.6249 29.4477 62.8522 25.7965C63.6059 25.0862 64.1157 23.8085 65.3481 23.8735C66.1549 23.9168 66.842 24.1247 67.2853 24.8697C67.4948 25.1849 67.6063 25.5527 67.6063 25.9286C67.6063 26.3045 67.4948 26.6723 67.2853 26.9876C64.457 30.9333 59.6693 33.5579 54.7042 33.5839C49.6859 33.8568 44.6987 31.4617 41.631 27.6113C37.6811 22.808 36.9319 15.7569 39.8578 10.304ZM47.3453 7.96951C44.7832 9.94725 43.0274 12.7531 42.3935 15.8825C50.2814 15.8998 58.1679 15.8998 66.0529 15.8825C65.2195 12.0105 62.6705 8.44594 59.0043 6.6745C57.1397 5.77049 55.0475 5.4118 52.9792 5.64153C50.911 5.87126 48.9546 6.67964 47.3453 7.96951Z" fill="#00AF40"/>
<path d="M83.4707 2.64626C86.6158 1.46365 90.0591 1.26389 93.3254 2.07455C96.5943 2.91236 99.5055 4.74479 101.637 7.30658C102.9 8.79195 103.883 10.4842 104.541 12.3047C105.034 13.6016 105.333 14.9611 105.428 16.3414C105.521 17.096 105.419 17.8615 105.131 18.5676C104.687 19.4771 103.801 19.6374 102.848 19.6244C102.302 19.6244 101.744 19.6503 101.194 19.6547C100.019 19.6547 98.8446 19.6547 97.6477 19.6547C95.2982 19.6547 92.9442 19.6547 90.5902 19.6547H84.0292H80.7133C80.4296 19.6547 77.4815 19.7586 77.4638 19.6547C78.3238 23.8775 81.4536 27.6803 85.6916 29.0143C87.8691 29.6945 90.2037 29.7305 92.4021 29.1178C94.6004 28.5052 96.5642 27.2712 98.0467 25.571C98.7117 24.8954 99.2392 23.8386 100.334 23.8126C102.063 23.5137 103.291 25.7269 102.249 27.0393C101.166 28.5376 99.8146 29.8319 98.2595 30.8594C94.7504 33.1377 90.4838 34.0223 86.33 33.3324H86.1926C80.2212 32.2453 75.2118 27.5114 73.6868 21.8029C73.0742 19.6467 72.9382 17.3878 73.2878 15.1763C73.7226 12.4027 74.8906 9.78788 76.6765 7.59037C78.4623 5.39286 80.8042 3.68868 83.4707 2.64626ZM85.3459 6.33207C81.2364 7.88262 78.3859 11.733 77.486 15.8606C85.3725 15.9039 93.2634 15.8606 101.15 15.8606C100.542 12.9658 98.986 10.3431 96.7168 8.38937C93.7421 5.70839 89.1051 4.7642 85.3459 6.33207Z" fill="#00AF40"/>
<path d="M180.347 4.58239C180.724 3.77656 181.353 3.10836 182.143 2.67404C182.934 2.23971 183.845 2.06169 184.745 2.16561C187.015 2.26089 188.855 4.37882 188.735 6.57038C188.735 14.7996 188.735 22.9898 188.735 31.1973C188.72 31.6913 188.514 32.1614 188.159 32.5132C187.803 32.8651 187.325 33.0727 186.82 33.0943C186.343 33.1361 185.865 33.0177 185.466 32.7586C185.067 32.4996 184.771 32.1153 184.625 31.6694C184.511 30.3805 184.478 29.0859 184.528 27.793C184.528 20.3954 184.559 12.9935 184.528 5.59588C183.424 7.30235 182.56 9.13875 181.611 10.9275C178.406 17.0431 175.165 23.1414 171.982 29.2699C170.945 31.2623 168.781 32.7348 166.454 32.6785C163.985 32.8561 161.618 31.2882 160.602 29.1313C157.145 22.4527 153.594 15.8174 150.123 9.14742C149.489 7.95635 148.912 6.73497 148.159 5.60887C148.035 13.0021 148.137 20.3997 148.105 27.793C148.057 29.127 148.261 30.4913 147.937 31.7993C147.822 32.0755 147.648 32.3249 147.428 32.5311C147.207 32.7373 146.945 32.8956 146.657 32.9958C146.37 33.096 146.064 33.1357 145.76 33.1124C145.455 33.0891 145.159 33.0032 144.891 32.8605C144.553 32.644 144.278 32.3444 144.096 31.9917C143.913 31.639 143.828 31.2456 143.85 30.8508C143.823 22.7559 143.85 14.6566 143.85 6.56172C143.849 5.78032 144.06 5.01269 144.461 4.33655C144.862 3.6604 145.439 3.09975 146.133 2.71133C148.101 1.56358 150.965 2.21325 152.069 4.22723C155.633 10.9535 159.148 17.7577 162.739 24.484C163.471 25.7834 163.994 27.2083 164.956 28.382C165.194 28.578 165.474 28.7186 165.775 28.7934C166.077 28.8683 166.392 28.8753 166.696 28.814C167.001 28.7527 167.288 28.6247 167.534 28.4396C167.781 28.2545 167.982 28.0171 168.121 27.7454C172.173 20.0186 176.287 12.3135 180.347 4.58239Z" fill="#00AF40"/>
<path d="M117.721 5.29707C118.554 3.68155 120.115 2.22629 122.07 2.19164C123.068 2.10614 124.07 2.30631 124.954 2.76774C125.838 3.22918 126.566 3.93194 127.048 4.79033C131.372 12.8289 135.69 20.8704 140.002 28.9148C140.445 29.781 140.968 30.7902 140.622 31.7777C140.474 32.2054 140.178 32.5691 139.784 32.8063C139.391 33.0435 138.925 33.1392 138.468 33.0771C137.625 33.0771 137.049 32.3408 136.694 31.6781C132.415 23.5933 128.146 15.4969 123.887 7.38901C123.53 6.70953 123.073 6.08494 122.531 5.53528C122.005 5.96814 121.566 6.4924 121.236 7.0815C118.882 11.7028 116.55 16.3328 114.099 20.9022C118.39 20.9022 122.676 20.9022 126.955 20.9022C128.037 20.8502 129.331 21.4003 129.508 22.5567C129.557 22.8594 129.536 23.1689 129.446 23.4625C129.357 23.7561 129.201 24.0265 128.991 24.2536C128.78 24.4808 128.521 24.6591 128.23 24.7754C127.94 24.8918 127.627 24.9431 127.314 24.9258C122.189 25.0211 117.06 24.8825 111.936 24.9778C110.951 26.8315 109.954 28.6766 108.988 30.5433C108.575 31.3446 108.203 32.3061 107.387 32.8172C106.94 33.0793 106.409 33.1691 105.897 33.069C105.385 32.9689 104.931 32.6861 104.621 32.2758C103.765 31.3749 104.422 30.1362 104.896 29.244C109.156 21.2227 113.487 13.288 117.721 5.29707Z" fill="#00AF40"/>
</svg>
