<svg width="215" height="50" viewBox="0 0 215 50" fill="none" xmlns="http://www.w3.org/2000/svg">
<path d="M76.6142 28.6278L75.3576 32.2234H75.2526C74.9299 31.0201 74.5201 29.8423 74.0264 28.6995L67.2758 11.5984H60.6641V38.8311H65.0335V22.0405C65.0335 20.983 65.0335 19.7856 64.9996 18.3085C64.9658 17.5683 64.8946 17.002 64.8608 16.5824H64.9658C65.1194 17.3708 65.3288 18.1472 65.5924 18.9055L73.7216 38.7731H76.8005L84.8348 18.7281C85.0456 18.0225 85.2197 17.3063 85.3565 16.5824H85.4615C85.3565 18.5882 85.2853 20.386 85.2515 21.4776V38.739H89.902V11.5438H83.5409L76.6142 28.6278ZM94.3155 19.2228H98.8611V38.739H94.3155V19.2228ZM96.6222 10.981C95.9043 10.9722 95.2124 11.2507 94.6982 11.7553C94.447 11.9979 94.2471 12.2892 94.1105 12.6117C93.974 12.9341 93.9036 13.281 93.9036 13.6316C93.9036 13.9821 93.974 14.329 94.1105 14.6515C94.2471 14.9739 94.447 15.2652 94.6982 15.5078C95.2178 16 95.9091 16.2659 96.6222 16.2481C97.3337 16.2573 98.0219 15.9925 98.5461 15.5078C98.8032 15.2721 99.008 14.9843 99.1469 14.6633C99.2859 14.3423 99.3558 13.9954 99.3522 13.6452C99.3531 13.2899 99.2821 12.9382 99.1435 12.6115C99.0049 12.2848 98.8016 11.99 98.5461 11.7451C98.2973 11.4873 97.9974 11.2851 97.6659 11.1517C97.3345 11.0183 96.9788 10.9566 96.6222 10.9707V10.981ZM114.987 19.0351C114.147 18.8561 113.292 18.7624 112.433 18.7554C110.504 18.7124 108.597 19.1831 106.906 20.1199C105.358 20.9893 104.094 22.293 103.268 23.8724C102.397 25.6204 101.965 27.5563 102.008 29.5114C101.989 31.2669 102.411 32.9988 103.234 34.5465C104.003 36.0386 105.196 37.2656 106.662 38.0704C108.196 38.9092 109.919 39.3335 111.665 39.3019C113.576 39.3561 115.469 38.9069 117.155 37.9988L117.189 37.9646V33.738L117.016 33.8779C116.346 34.3793 115.602 34.7718 114.811 35.0411C114.116 35.3001 113.384 35.443 112.643 35.4641C110.825 35.4641 109.388 34.9354 108.376 33.7585C107.363 32.5816 106.801 31.0806 106.801 29.1429C106.801 27.1371 107.326 25.5508 108.409 24.3875C108.956 23.8064 109.62 23.349 110.356 23.0455C111.091 22.7421 111.883 22.5995 112.677 22.6273C114.242 22.6487 115.76 23.1655 117.016 24.1044L117.189 24.2477V19.7856L117.155 19.7515C116.459 19.4393 115.733 19.2026 114.987 19.0454V19.0351ZM129.992 18.9055C128.871 18.8951 127.781 19.2814 126.914 19.9971C126.145 20.6316 125.62 21.5493 125.166 22.6409H125.128V19.2296H120.583V38.7458H125.128V28.7711C125.128 27.0654 125.467 25.6702 126.25 24.6468C126.57 24.1584 127.007 23.758 127.519 23.4817C128.032 23.2054 128.605 23.0618 129.186 23.0639C129.641 23.0952 130.093 23.1533 130.541 23.2379C130.925 23.3302 131.291 23.4858 131.625 23.6984L131.801 23.8383V19.2569L131.696 19.2228C131.161 18.9714 130.571 18.8622 129.982 18.9055H129.992ZM142.362 18.7997C139.182 18.7997 136.628 19.7515 134.843 21.6175C133.058 23.4835 132.15 26.0523 132.15 29.2964C132.15 32.3291 133.058 34.7921 134.809 36.5899C136.56 38.3877 138.935 39.2678 141.922 39.2678C145.035 39.2678 147.518 38.316 149.303 36.4125C151.088 34.509 152.012 31.9777 152.012 28.8393C152.012 25.7009 151.152 23.2754 149.438 21.4913C147.795 19.6935 145.374 18.8134 142.373 18.8134L142.362 18.7997ZM146.01 33.8233C145.17 34.9149 143.843 35.4437 142.2 35.4437C140.557 35.4437 139.212 34.8979 138.281 33.738C137.336 32.643 136.882 31.0601 136.882 29.0508C136.882 26.9733 137.373 25.387 138.281 24.2749C139.189 23.1628 140.52 22.5693 142.163 22.5693C143.805 22.5693 145.031 23.098 145.943 24.1897C146.854 25.2813 147.341 26.8676 147.341 28.9451C147.27 31.0601 146.884 32.7146 146.01 33.8062V33.8233ZM162.137 27.3247C160.7 26.7277 159.793 26.2672 159.373 25.8817C159.193 25.6823 159.054 25.4485 158.966 25.1941C158.877 24.9398 158.841 24.6701 158.858 24.4012C158.851 24.1227 158.915 23.8471 159.044 23.6005C159.172 23.3539 159.361 23.1446 159.593 22.9923C160.181 22.6155 160.871 22.4308 161.568 22.4635C162.36 22.4736 163.148 22.5883 163.911 22.8047C164.642 22.9908 165.332 23.3137 165.944 23.7564L166.12 23.8963V19.6116L166.015 19.5741C165.346 19.3154 164.656 19.1157 163.952 18.9771C163.213 18.8452 162.464 18.7745 161.713 18.7656C159.545 18.7656 157.76 19.2944 156.361 20.4713C155.703 20.9705 155.172 21.621 154.813 22.3686C154.454 23.1163 154.278 23.9395 154.299 24.7696C154.275 25.5894 154.43 26.4046 154.753 27.1575C155.078 27.8664 155.554 28.4942 156.148 28.9962C157.007 29.6475 157.948 30.1809 158.946 30.5825C159.996 31.0396 160.799 31.3944 161.29 31.6741C161.678 31.9047 162.031 32.1896 162.34 32.5202C162.533 32.8503 162.629 33.2288 162.618 33.6118C162.618 34.9149 161.639 35.5494 159.647 35.5494C158.788 35.5371 157.936 35.3827 157.127 35.0923C156.218 34.7812 155.36 34.3364 154.58 33.7721L154.407 33.6322V38.1045L154.512 38.1386C155.302 38.4749 156.122 38.7353 156.961 38.9164C157.825 39.0955 158.702 39.2016 159.583 39.2337C161.927 39.2337 163.851 38.7049 165.216 37.528C165.895 37.0125 166.443 36.3414 166.814 35.5703C167.186 34.7991 167.369 33.95 167.349 33.0933C167.398 31.8768 166.998 30.6851 166.228 29.7467C165.01 28.71 163.627 27.8876 162.137 27.3144V27.3247ZM179.347 18.7861C176.163 18.7861 173.609 19.7379 171.824 21.6039C170.039 23.4699 169.131 26.0386 169.131 29.2828C169.131 32.3155 170.042 34.7785 171.79 36.5762C173.538 38.374 175.919 39.2541 178.903 39.2541C182.016 39.2541 184.502 38.3024 186.284 36.3988C188.065 34.4953 188.993 31.9641 188.993 28.8257C188.993 25.6872 188.123 23.2754 186.409 21.4913C184.766 19.6935 182.344 18.8134 179.347 18.8134V18.7861ZM182.947 33.8233C182.107 34.9149 180.78 35.4437 179.137 35.4437C177.494 35.4437 176.163 34.9149 175.218 33.7551C174.273 32.66 173.819 31.0772 173.819 29.0679C173.819 26.9904 174.307 25.4041 175.218 24.292C176.129 23.1799 177.457 22.5863 179.1 22.5863C180.675 22.5863 181.968 23.1151 182.88 24.2067C183.791 25.2983 184.278 26.8846 184.278 28.9621C184.278 31.0396 183.821 32.7146 182.947 33.8062" fill="#737373"/>
<path d="M213.272 22.9924V19.2229H208.693V13.4441L208.551 13.4816L204.215 14.7848L204.11 14.8189V19.2229H197.255V16.7565C197.255 15.6308 197.532 14.7506 198.023 14.1844C198.296 13.8948 198.628 13.669 198.997 13.5228C199.366 13.3766 199.762 13.3137 200.157 13.3383C200.859 13.3496 201.551 13.5064 202.19 13.7989L202.362 13.9046V9.9236L202.257 9.88607C200.204 9.28328 198.002 9.45925 196.069 10.3807C195.015 10.9505 194.15 11.8201 193.583 12.8812C192.969 13.9899 192.656 15.2417 192.675 16.5109V19.24H189.491V22.9583H192.675V38.7392H197.258V22.9924H204.11V33.032C204.11 37.1529 206.034 39.2338 209.868 39.2338C210.514 39.2157 211.158 39.145 211.792 39.0223C212.286 38.9271 212.767 38.7725 213.225 38.5618L213.259 38.5277V34.7752L213.086 34.9151C212.798 35.1111 212.478 35.2543 212.141 35.3381C211.846 35.4298 211.539 35.478 211.23 35.4813C210.322 35.4813 209.692 35.2698 209.238 34.7411C208.784 34.2123 208.608 33.438 208.608 32.2406V22.9924H213.272Z" fill="#737373"/>
<path d="M2.03223 2.45605H23.473V24.0498H2.03223V2.45605Z" fill="#F25022"/>
<path d="M25.7222 2.45605H47.1629V24.0498H25.7222V2.45605Z" fill="#7FBA00"/>
<path d="M2.03223 26.3047H23.473V47.8985H2.03223V26.3047Z" fill="#00A4EF"/>
<path d="M25.7222 26.3047H47.1629V47.8985H25.7222V26.3047Z" fill="#FFB900"/>
</svg>
