<svg width="193" height="53" viewBox="0 0 193 53" fill="none" xmlns="http://www.w3.org/2000/svg">
<path d="M1.45605 1.37158V1.47316V48.2386H23.0946V20.6212H33.1099V48.2386H55.7994V1.47316L1.45605 1.37158Z" fill="#005CAB"/>
<path d="M67.271 47.1971V24.3413H72.4876L82.8447 38.0929L82.4902 24.4683H87.5548V47.3241H83.5664L72.171 31.744C72.3609 34.7915 72.4242 47.2098 72.4242 47.2098L67.271 47.1971Z" fill="#231F20"/>
<path d="M95.4428 40.0992C95.62 42.3974 97.8358 43.5656 100.355 43.464C102.483 43.3752 102.888 42.1943 104.382 41.6229L106.281 44.9624C104.393 46.5333 102.035 47.427 99.5831 47.5019C93.6575 47.5019 90.2769 44.0735 90.2769 38.6135C90.2769 34.1821 93.0497 29.2935 99.1399 29.2935C104.774 29.2935 106.914 33.6868 106.914 38.0167C106.908 38.7439 106.849 39.4696 106.737 40.188L95.4428 40.0992ZM101.774 36.3914C101.774 35.1217 101.204 32.8488 98.7474 32.8488C97.8401 32.9 96.9858 33.2939 96.3563 33.9511C95.7267 34.6083 95.3687 35.4802 95.3541 36.3914H101.774Z" fill="#231F20"/>
<path d="M114.866 25.3955V29.3826H118.132V33.5474H114.866V40.8485C114.866 42.6262 115.309 43.3881 116.664 43.3881C117.417 43.3997 118.169 43.3615 118.917 43.2738V46.7276C117.67 46.9994 116.396 47.1314 115.119 47.1212C113.846 47.1619 112.608 46.7068 111.662 45.8514C110.698 44.612 110.244 43.0484 110.396 41.4834V33.5347H108.446V29.3699H110.396V25.3955H114.866Z" fill="#231F20"/>
<path d="M127.489 41.3054L125.59 47.1971H120.525L129.072 24.1255H134.618L143.734 47.2352H138.416L136.2 41.3054H127.489ZM134.719 37.3564C134.719 37.3564 132.275 29.3315 131.895 27.9983H131.782C131.44 29.3696 129.11 37.3564 129.11 37.3564H134.719Z" fill="#231F20"/>
<path d="M144.544 29.6744H149.242L149.495 31.8965H149.571C151.11 30.3382 153.185 29.4295 155.37 29.3569C159.169 29.3569 162.587 32.379 162.587 37.458C162.587 43.2609 158.573 45.9909 154.686 45.9909C153.847 46.0473 153.006 45.9133 152.226 45.599C151.446 45.2846 150.746 44.7979 150.179 44.1751H149.812V51.3493H144.747L144.544 29.6744ZM149.938 39.0325C149.939 39.4002 149.982 39.7665 150.065 40.1245C150.333 40.8723 150.833 41.514 151.491 41.9552C152.15 42.3964 152.933 42.6137 153.724 42.5752C156.434 42.5752 158.042 40.7086 158.042 37.8771C158.042 35.0455 156.598 33.1916 153.813 33.1916C152.98 33.1507 152.156 33.386 151.47 33.861C150.783 34.336 150.272 35.0245 150.014 35.82C149.933 36.1224 149.891 36.4339 149.888 36.747L149.938 39.0325Z" fill="#231F20"/>
<path d="M164.803 29.6744H169.5L169.753 31.8965H169.829C171.368 30.3382 173.443 29.4295 175.628 29.3569C179.427 29.3569 182.845 32.379 182.845 37.458C182.845 43.2609 178.832 45.9909 174.945 45.9909C174.106 46.0473 173.265 45.9133 172.484 45.599C171.704 45.2846 171.004 44.7979 170.437 44.1751H170.07V51.3493H165.005L164.803 29.6744ZM170.197 39.0325C170.197 39.4002 170.24 39.7665 170.323 40.1245C170.591 40.8723 171.091 41.514 171.75 41.9552C172.408 42.3964 173.191 42.6137 173.982 42.5752C176.692 42.5752 178.3 40.7086 178.3 37.8771C178.3 35.0455 176.857 33.1916 174.071 33.1916C173.238 33.1507 172.415 33.386 171.728 33.861C171.042 34.336 170.53 35.0245 170.273 35.82C170.191 36.1224 170.149 36.4339 170.146 36.747L170.197 39.0325Z" fill="#231F20"/>
<path d="M185.846 28.4556H182.2V29.8269H183.428V33.0013H184.707V29.8269H185.846V28.4556Z" fill="#231F20"/>
<path d="M189.277 28.5063L188.454 30.1697L187.505 28.5063H186.213V32.9759H187.378V30.6522L188.378 32.1887L189.379 30.6522V32.9759H190.544V28.5063H189.277Z" fill="#231F20"/>
</svg>
