<svg width="123" height="49" viewBox="0 0 123 49" fill="none" xmlns="http://www.w3.org/2000/svg">
<path d="M0 0V3.35246H23.9417V0H0ZM27.3338 0V3.35246H61.4519C61.4519 3.35246 57.9669 0 53.3512 0H27.3338ZM68.1448 0V3.35246H88.7857L87.5606 0H68.1448ZM103.584 0L102.359 3.35246H122.813V0H103.584ZM0 6.5197V9.87215H23.9417V6.5197H0ZM27.3338 6.52447V9.87227H65.4109C65.4109 9.87227 64.9663 7.29206 64.1905 6.52447H27.3338ZM68.1448 6.52447V9.87227H91.0488L89.9148 6.52447H68.1448ZM101.134 6.52447L99.9999 9.87227H122.813V6.52447H101.134ZM6.88025 13.0394V16.3966H17.2488V13.0394H6.88025ZM34.2142 13.0394V16.3966H44.5827V13.0394H34.2142ZM54.6677 13.0394V16.3966H65.0363C65.0363 16.3966 65.6945 14.6237 65.6945 13.0394H54.6677ZM75.0252 13.0394V16.3966H93.4079L92.1827 13.0394H75.0252ZM98.8756 13.0394L97.6456 16.3966H116.12V13.0394H98.8756ZM6.88025 19.564V22.9164H17.2488V19.564H6.88025ZM34.2142 19.564V22.9164H60.6976C60.6976 22.9164 62.913 21.1963 63.6188 19.564H34.2142ZM75.0252 19.564V22.9164H85.3937V21.0503L86.052 22.9164H105.045L105.751 21.0503V22.9164H116.12V19.564H96.6559L95.6229 22.4035L94.585 19.564H75.0252ZM6.88025 26.0837V29.4361H17.2488V26.0837H6.88025ZM34.2142 26.0837V29.4361H63.6188C62.9129 27.8092 60.6976 26.0837 60.6976 26.0837H34.2142ZM75.0252 26.0837V29.4361H85.3937V26.0837H75.0252ZM87.2771 26.0837L88.5311 29.4361H102.772L103.964 26.0837H87.2771ZM105.751 26.0837V29.4361H116.12V26.0837H105.751ZM6.88025 32.6034V35.9557H17.2488V32.6034H6.88025ZM34.2142 32.6034V35.9557H44.5827V32.6034H34.2142ZM54.6677 32.6034V35.9557H65.6944C65.6944 34.3736 65.0361 32.6034 65.0361 32.6034H54.6677ZM75.0252 32.6034V35.9557H85.3937V32.6034H75.0252ZM89.6315 32.6034L90.8471 35.9557H100.394L101.619 32.6034H89.6315ZM105.751 32.6034V35.9557H116.12V32.6034H105.751ZM0.187329 39.1231V42.4803H24.129V39.1231H0.187329ZM27.3338 39.1231V42.4803H64.1905C64.9663 41.7116 65.4109 39.1231 65.4109 39.1231H27.3338ZM68.3323 39.1231V42.4803H85.3937V39.1231H68.3323ZM91.9905 39.1231L93.2397 42.4803H98.0972L99.2695 39.1231H91.9905ZM105.751 39.1231V42.4803H123V39.1231H105.751ZM0.187329 45.6475V49H24.129V45.6475H0.187329ZM27.3338 45.6475V48.9952H53.3512C57.9669 48.9952 61.4519 45.6475 61.4519 45.6475H27.3338ZM68.3323 45.6475V49H85.3937V45.6475H68.3323ZM94.3592 45.6475L95.5604 48.9906L95.7671 48.9952L96.9875 45.6475H94.3592ZM105.751 45.6475V49H123V45.6475H105.751Z" fill="#1F70C1"/>
</svg>
