<svg width="164" height="78" viewBox="0 0 164 78" fill="none" xmlns="http://www.w3.org/2000/svg">
<path d="M9.29392 46.0743H17.5651C19.1329 46.0743 20.5974 47.2322 20.6769 48.7666H20.7522V42.4611H9.29392L9.28834 31.3929H20.3435C21.9183 31.3929 23.3842 32.5465 23.4665 34.0767H23.539L23.5279 27.767L0.328125 27.7769V27.846C1.8903 27.932 3.06194 29.6046 3.06194 31.1673V60.162C3.06194 61.7189 1.8903 63.3986 0.328125 63.4875V63.5552H12.0333V63.4875C10.4697 63.3986 9.28834 61.7189 9.28834 60.162L9.29392 46.0743Z" fill="#E60012"/>
<path d="M33.2451 53.9332C33.2451 57.6536 36.3137 60.8705 40.1005 60.8705C43.8833 60.8705 46.963 57.6113 46.963 53.8895V31.1665C46.963 29.6038 45.7872 27.9312 44.2208 27.8452V27.7775L55.9344 27.7662V27.8452C54.3708 27.9312 53.1866 29.6038 53.1866 31.1665V53.2464C53.1866 60.353 47.3591 64.4937 40.1312 64.4937C32.8908 64.4937 27.0006 60.353 27.0006 53.2464L27.0159 31.1665C27.0159 29.6038 25.8345 27.9312 24.2793 27.8452V27.7662H35.9761V27.8452C34.4167 27.9397 33.2395 29.6137 33.2395 31.1665L33.2451 53.9332Z" fill="#E60012"/>
<path d="M128.953 33.5616C126.99 30.3644 122.511 30.7495 122.511 30.7495C115.186 30.7495 115.532 36.3837 115.532 36.3837C115.532 36.3837 115.028 39.21 118.709 41.1379L126.033 45.0614C133.104 48.8861 132.265 54.3215 132.265 54.3215C132.265 54.3215 132.585 64.4758 117.798 64.4758C117.798 64.4758 113.502 64.6084 111.07 63.6888L108.989 57.1125H109.061C111.314 60.3873 117.858 60.8597 117.858 60.8597C126.167 60.4916 126.224 54.7996 126.224 54.7996C126.224 54.7996 126.598 52.3485 123.345 50.5729L116.056 46.6508C108.446 42.551 109.318 37.0296 109.318 37.0296C109.318 37.0296 109.138 27.0403 122.22 27.0403C122.22 27.0403 128.092 27.1926 129.028 28.1164V33.5616H128.953Z" fill="#E60012"/>
<path d="M71.8787 15.3248C73.1758 16.6082 74.9863 17.3965 76.9627 17.3965C80.9449 17.3965 84.1683 14.229 84.1683 10.3139C84.1683 6.41018 80.9449 3.23696 76.9627 3.23696C76.9627 3.23696 71.4156 2.71938 68.9189 9.69763L68.9272 4.45971C70.7851 2.06922 73.6612 0.331709 76.9627 0.331709C82.581 0.331709 87.1266 4.79677 87.1266 10.3139C87.1266 15.8226 82.581 20.3046 76.9627 20.3046C74.1564 20.3046 71.6178 19.1919 69.7837 17.3768L66.2883 13.5139C65.3301 12.5733 64.012 12.0007 62.5669 12.0007C59.656 12.0007 57.296 14.3136 57.296 17.1709C57.296 20.0395 59.656 22.358 62.5669 22.358C62.5669 22.358 66.4598 22.8714 68.9189 18.1285L68.9272 22.3228C67.4209 24.1195 65.1208 25.2661 62.5669 25.2661C58.0227 25.2661 54.332 21.6416 54.332 17.1709C54.332 12.7087 58.0227 9.0926 62.5669 9.0926C64.8307 9.0926 66.8867 9.98674 68.3791 11.4619L71.8787 15.3248Z" fill="#E60012"/>
<path d="M73.7517 31.0917C73.7517 29.5276 72.5745 27.9255 71.0137 27.8451V27.7774H82.7007V27.8451C81.1497 27.9326 79.9669 29.5361 79.9669 31.0917V60.1484C79.9669 61.7083 81.1497 63.3865 82.7007 63.4796V63.5459H71.0137V63.4796C72.5745 63.3865 73.7517 61.7083 73.7517 60.1484V31.0917Z" fill="#E60012"/>
<path d="M66.4125 31.167C66.4125 29.6044 67.587 27.9317 69.1492 27.8457V27.7766H57.444V27.8457C59.0103 27.9317 60.1792 29.6044 60.1792 31.167L60.1889 67.4925C60.1889 67.4925 60.0578 73.9067 54.9473 77.5975L54.9598 77.668C55.9683 77.5016 66.4209 75.5511 66.4209 65.3418L66.4125 31.167Z" fill="#E60012"/>
<path d="M82.6572 34.2136H82.727C84.3115 31.4254 86.7552 31.393 86.7552 31.393H93.0917L93.0959 60.1621C93.0959 61.719 91.9173 63.386 90.3565 63.4791V63.5454H102.077V63.4791C100.504 63.386 99.3209 61.7078 99.3209 60.1621L99.3293 31.393L104.625 31.3803C106.234 31.3803 107.507 32.6411 107.553 34.2136H107.617L109.563 27.7657H84.6086L82.6572 34.2136Z" fill="#E60012"/>
<path d="M140.986 53.9332C140.986 57.6536 144.054 60.8705 147.842 60.8705C151.621 60.8705 154.704 57.6113 154.704 53.8895V31.1665C154.704 29.6038 153.526 27.9312 151.967 27.8452V27.7775L163.672 27.7662V27.8452C162.12 27.9312 160.937 29.6038 160.937 31.1665V53.2464C160.937 60.353 155.107 64.4937 147.868 64.4937C140.641 64.4937 134.749 60.353 134.749 53.2464L134.758 31.1665C134.758 29.6038 133.579 27.9312 132.016 27.8452V27.7662H143.724V27.8452C142.156 27.9397 140.977 29.6137 140.977 31.1665L140.986 53.9332Z" fill="#E60012"/>
</svg>
