<svg width="177" height="84" viewBox="0 0 177 84" fill="none" xmlns="http://www.w3.org/2000/svg">
<g clip-path="url(#clip0)">
<path d="M120.534 11.8356V32.3062L115.837 33.9309V10.1839L101.748 5.28282V38.8319L97.0787 40.4566V3.65817L90.0476 1.22119L83.0164 3.65817V40.4566L78.32 38.8319V5.28282L64.2577 10.1839V33.9309L59.5612 32.3062V11.8356L54.8647 13.4602V35.6368L68.927 40.5378V13.5144L73.6235 11.8897V42.1625L87.6858 47.0635V6.98871L90.0476 6.17638L92.3822 6.98871V47.0635L106.472 42.1625V11.8897L111.141 13.5144V40.5378L125.203 35.6368V13.4602L120.534 11.8356Z" fill="#E60012"/>
<path d="M6.56962 73.7077H14.931V71.4331H6.56962V66.5592H19.0302V64.2847H4.04492V81.5331H19.4646V79.3127H6.56962V73.7077Z" fill="black"/>
<path d="M72.4286 74.6554C72.4286 77.7422 70.3926 79.7731 67.3521 79.7731C64.3931 79.7731 62.5742 77.7152 62.5742 74.6554V64.3389H60.0767V74.7637C60.0767 79.4481 63.4701 82.0205 67.3521 82.0205C73.053 82.0205 74.9262 78.1213 74.9262 74.7637V64.3389H72.4558V74.6554H72.4286Z" fill="black"/>
<path d="M91.2692 64.312H88.7988V81.5333H91.2692V64.312Z" fill="black"/>
<path d="M120.887 77.7966L108.616 64.312H106.173V81.5333H108.643V67.9133L120.914 81.5333H123.33V64.312H120.887V77.7966Z" fill="black"/>
<path d="M140.84 64.312H138.37V81.5333H140.84V64.312Z" fill="black"/>
<path d="M164.947 72.1642L172.141 64.2847H169.1L163.372 70.4584L157.834 64.2847H154.604L161.526 72.1913L152.866 81.506H156.015L163.128 73.843L169.915 81.506H173.362L164.947 72.1642Z" fill="black"/>
<path d="M38.3046 63.608C33.1466 63.6351 29.1831 67.5342 29.1831 72.9497V73.0039C29.1831 78.3923 33.2552 82.1832 38.3589 82.1561C39.752 82.1413 41.1244 81.8176 42.3767 81.2084L43.7883 82.8331H46.6659L44.1955 80.017C46.2044 78.4736 47.4803 75.9554 47.4803 72.8414V72.7873C47.5075 67.3988 43.4354 63.5538 38.3046 63.608ZM44.9285 72.8956C44.9285 75.3326 44.1412 76.9031 42.7024 78.2569L41.3722 76.7135H38.4946L40.8564 79.4213C40.0876 79.7331 39.2697 79.9073 38.4403 79.9358C34.7483 79.9628 31.8164 76.9843 31.8164 72.9497V72.8956C31.8164 68.7798 34.5854 65.8554 38.2774 65.8554C41.9695 65.8554 44.9557 68.7798 44.9557 72.8685V72.8956H44.9285Z" fill="black"/>
<path d="M134.189 34.0663C135.314 34.0584 136.391 33.6071 137.184 32.8108C137.977 32.0145 138.423 30.9377 138.424 29.8151C138.422 29.2604 138.31 28.7114 138.096 28.1996C137.882 27.6878 137.568 27.2231 137.174 26.8322C136.779 26.4412 136.311 26.1315 135.797 25.9209C135.282 25.7102 134.731 25.6027 134.175 25.6045C133.052 25.6081 131.976 26.0566 131.184 26.8513C130.792 27.2448 130.482 27.7115 130.271 28.2246C130.06 28.7378 129.952 29.2874 129.954 29.8422V29.8692C129.953 30.423 130.062 30.9715 130.274 31.4829C130.487 31.9944 130.799 32.4587 131.193 32.849C131.587 33.2393 132.055 33.5479 132.569 33.7568C133.083 33.9657 133.633 34.0709 134.189 34.0663ZM134.189 33.6059C133.694 33.6089 133.203 33.5133 132.745 33.3248C132.288 33.1364 131.872 32.8588 131.523 32.5084C131.175 32.1579 130.899 31.7417 130.714 31.2839C130.528 30.8261 130.436 30.3359 130.442 29.8422V29.8151C130.438 29.3205 130.531 28.8299 130.717 28.3714C130.903 27.9129 131.178 27.4956 131.526 27.1433C131.874 26.7911 132.288 26.5109 132.745 26.3189C133.202 26.1268 133.693 26.0267 134.189 26.0242C134.683 26.0213 135.174 26.1168 135.631 26.3051C136.089 26.4933 136.504 26.7707 136.853 27.1208C137.202 27.471 137.477 27.8869 137.663 28.3444C137.849 28.8019 137.941 29.2917 137.935 29.7853V29.8124C137.942 30.3075 137.85 30.7991 137.665 31.2586C137.48 31.718 137.205 32.1362 136.856 32.4889C136.508 32.8416 136.092 33.1217 135.634 33.313C135.177 33.5042 134.685 33.6029 134.189 33.6032V33.6059ZM132.451 31.9515H133.51V30.5705H134.189L135.139 31.9515H136.415L135.302 30.381C135.593 30.2966 135.847 30.1174 136.024 29.872C136.201 29.6267 136.291 29.3292 136.279 29.0271C136.279 28.0252 135.519 27.5649 134.514 27.5649H132.451V31.9515ZM133.51 29.677V28.4585H134.433C134.894 28.4585 135.193 28.6751 135.193 29.0542C135.193 29.4333 134.922 29.6499 134.433 29.6499H133.51V29.677Z" fill="#E60012"/>
</g>
<defs>
<clipPath id="clip0">
<rect width="177" height="84" fill="white"/>
</clipPath>
</defs>
</svg>
