<svg width="119" height="71" viewBox="0 0 119 71" fill="none" xmlns="http://www.w3.org/2000/svg">
<path d="M34.8752 26.1381C34.8752 27.5462 35.0243 28.688 35.2878 29.5252C35.6208 30.4672 36.0219 31.3831 36.4877 32.2652C36.6548 32.526 36.746 32.8293 36.7507 33.1402C36.7507 33.521 36.5255 33.9013 36.0379 34.282L33.6748 35.8803C33.3373 36.1087 32.9998 36.2227 32.6996 36.2227C32.3248 36.2227 31.9495 36.0326 31.5747 35.6901C31.0691 35.1391 30.6169 34.5401 30.2242 33.9013C29.8494 33.2542 29.4741 32.5315 29.0615 31.656C26.1358 35.1571 22.4602 36.9076 18.0346 36.9076C14.8837 36.9076 12.3711 35.9942 10.5334 34.1676C8.69578 32.3409 7.75781 29.9065 7.75781 26.8613C7.75781 23.6266 8.88267 21.0005 11.1707 19.022C13.4587 17.0436 16.4967 16.0536 20.3599 16.0536C21.6354 16.0536 22.9481 16.168 24.3364 16.3562C25.7247 16.5443 27.1493 16.8509 28.6495 17.1933V14.4175C28.6495 11.5252 28.0495 9.50837 26.8869 8.32824C25.6865 7.14862 23.6609 6.57771 20.773 6.57771C19.4081 6.57771 18.0482 6.74381 16.7224 7.07246C15.3437 7.40612 13.9901 7.83857 12.6718 8.36657C12.2452 8.56009 11.8067 8.72535 11.3591 8.86132C11.0961 8.93747 10.9087 8.9753 10.7586 8.9753C10.2337 8.9753 9.97125 8.59503 9.97125 7.79567V5.92965C9.97125 5.32042 10.0463 4.864 10.2337 4.59772C10.4211 4.33143 10.7581 4.06615 11.2835 3.79987C12.5964 3.11566 14.1716 2.54493 16.0091 2.08767C17.8482 1.59292 19.7972 1.36446 21.8601 1.36446C26.3237 1.36446 29.5865 2.39178 31.687 4.44692C33.7509 6.50207 34.8002 9.62235 34.8002 13.8083V26.1381H34.8752ZM19.6471 31.9238C20.8853 31.9238 22.1603 31.6958 23.5103 31.2389C24.8604 30.782 26.0613 29.9453 27.0738 28.8035C27.6737 28.0803 28.1241 27.2814 28.3488 26.3681C28.5734 25.4548 28.724 24.3508 28.724 23.0572V21.4574C27.5866 21.1766 26.4346 20.9605 25.2734 20.8104C24.104 20.6597 22.9265 20.5834 21.7477 20.5819C19.2346 20.5819 17.3969 21.0767 16.1592 22.1045C14.9215 23.1323 14.3201 24.5757 14.3201 26.4806C14.3201 28.2694 14.7699 29.6014 15.7079 30.5152C16.6076 31.4664 17.9203 31.9228 19.6456 31.9228L19.6471 31.9238ZM49.7653 36.0341C49.0903 36.0341 48.64 35.9196 48.3402 35.6533C48.042 35.4249 47.7776 34.8923 47.5524 34.1691L38.7384 4.75154C38.5133 3.99 38.4009 3.49525 38.4009 3.22897C38.4009 2.62024 38.6992 2.2778 39.3011 2.2778H42.9764C43.6892 2.2778 44.1768 2.39178 44.4393 2.65807C44.7375 2.88653 44.9647 3.4196 45.1893 4.14231L51.4906 29.3346L57.3416 4.14231C57.5295 3.38127 57.7542 2.88653 58.0544 2.65807C58.3546 2.42961 58.8795 2.2778 59.5545 2.2778H62.5553C63.2676 2.2778 63.7552 2.39178 64.0555 2.65807C64.3537 2.88653 64.6181 3.4196 64.7683 4.14231L70.6943 29.6392L77.183 4.14231C77.4076 3.38127 77.6706 2.88653 77.9331 2.65807C78.2313 2.43011 78.7204 2.2778 79.3959 2.2778H82.8838C83.4838 2.2778 83.8213 2.5804 83.8213 3.22897C83.8213 3.4196 83.784 3.60974 83.7467 3.8382C83.6877 4.16319 83.5997 4.48207 83.4838 4.79088L74.4446 34.2059C74.22 34.9668 73.9575 35.4615 73.6573 35.6901C73.359 35.9181 72.8694 36.0704 72.2317 36.0704H69.0062C68.2934 36.0704 67.8063 35.9564 67.5061 35.6901C67.2059 35.4238 66.9434 34.9291 66.7933 34.1676L60.9776 9.62235L55.2017 34.1297C55.0143 34.8908 54.7892 35.3855 54.4894 35.6518C54.1897 35.9181 53.6638 36.0326 52.9888 36.0326L49.7653 36.0341ZM97.9618 37.0614C96.0166 37.0634 94.0778 36.8336 92.1854 36.3765C90.31 35.9196 88.8476 35.4249 87.8724 34.8545C87.2719 34.512 86.8594 34.1312 86.7097 33.7888C86.5637 33.4529 86.4871 33.0903 86.4846 32.7232V30.781C86.4846 29.9816 86.7828 29.6014 87.347 29.6014C87.5767 29.602 87.8049 29.6405 88.0225 29.7153C88.2472 29.7915 88.5847 29.9438 88.9599 30.0961C90.2848 30.687 91.6678 31.1335 93.0856 31.428C94.5548 31.7304 96.0501 31.8833 97.5492 31.8845C99.9118 31.8845 101.75 31.4659 103.025 30.6287C104.3 29.7915 104.975 28.5735 104.975 27.0136C104.975 25.948 104.638 25.0725 103.963 24.3498C103.288 23.6271 102.012 22.9795 100.174 22.3708L94.7359 20.6561C91.998 19.7811 89.9725 18.4875 88.7348 16.7727C87.4971 15.0984 86.8593 13.2333 86.8593 11.2549C86.8593 9.65614 87.197 8.24805 87.8724 7.0306C88.5421 5.80625 89.463 4.74202 90.5729 3.90981C91.6978 3.0348 92.9733 2.38775 94.4734 1.93133C95.9735 1.47491 97.5492 1.28427 99.1995 1.28427C100.039 1.27761 100.879 1.32816 101.712 1.43557C102.575 1.54955 103.362 1.70186 104.15 1.85417C104.9 2.0443 105.613 2.23443 106.288 2.46289C106.962 2.69135 107.489 2.92486 107.863 3.15281C108.389 3.45541 108.764 3.76204 108.989 4.10448C109.214 4.40708 109.327 4.82567 109.326 5.36026V7.14862C109.326 7.94798 109.028 8.36657 108.463 8.36657C108.165 8.36657 107.676 8.21527 107.038 7.90965C104.9 6.92049 102.5 6.42591 99.8367 6.42591C97.6994 6.42591 96.0093 6.76835 94.8487 7.49105C93.688 8.21376 93.0856 9.31774 93.0856 10.8781C93.0856 11.9438 93.4609 12.8571 94.211 13.5798C94.961 14.3025 96.3483 15.0262 98.3366 15.6733L103.663 17.388C106.363 18.2635 108.314 19.481 109.478 21.0414C110.643 22.6018 111.204 24.3901 111.204 26.3691C111.204 28.0052 110.866 29.4894 110.228 30.7835C109.553 32.0771 108.653 33.2189 107.491 34.1323C106.327 35.0834 104.94 35.7688 103.327 36.2636C101.637 36.7961 99.8765 37.0624 97.9638 37.0624L97.9618 37.0614Z" fill="#252F3E"/>
<path d="M105.05 55.5551C92.7106 64.8025 74.782 69.7116 59.367 69.7116C37.763 69.7116 18.2969 61.606 3.5962 48.1344C2.43357 47.0687 3.48387 45.6228 4.87167 46.46C20.7743 55.8214 40.3905 61.489 60.6817 61.489C74.3714 61.489 89.4121 58.5967 103.252 52.6602C105.315 51.7091 107.079 54.0305 105.052 55.5526L105.05 55.5551Z" fill="#FF9900"/>
<path d="M110.189 49.6183C108.613 47.5631 99.7617 48.6288 95.7489 49.1235C94.5485 49.2748 94.3611 48.2102 95.4507 47.4088C102.502 42.3857 114.091 43.8316 115.442 45.506C116.792 47.2207 115.067 58.9776 108.465 64.61C107.453 65.485 106.477 65.0286 106.928 63.8868C108.426 60.1214 111.764 51.6351 110.189 49.6183Z" fill="#FF9900"/>
</svg>
