<svg width="140" height="73" viewBox="0 0 140 73" fill="none" xmlns="http://www.w3.org/2000/svg">
<path d="M54.6259 65.5927L54.6034 70.8972L54.9947 70.9637C56.2269 71.1899 57.4708 71.3478 58.7209 71.4365C59.8161 71.5366 60.9174 71.558 62.0158 71.5005C63.0648 71.4249 64.1016 71.2315 65.1063 70.9243C66.2847 70.5941 67.3777 70.018 68.3116 69.2349C69.152 68.5251 69.7946 67.6146 70.1784 66.59C70.8468 64.8743 70.8334 62.9722 70.141 61.2658C69.7767 60.38 69.2023 59.5936 68.4661 58.9731C67.7545 58.3406 66.9189 57.8594 66.0111 57.5595L61.9634 56.082C61.4791 55.8786 61.0859 55.5084 60.8568 55.0403C60.7685 54.8483 60.7266 54.6387 60.7344 54.428C60.7421 54.2173 60.7994 54.0113 60.9017 53.8262C60.9752 53.6953 61.0657 53.5744 61.1709 53.4666C61.2957 53.3436 61.4345 53.2354 61.5846 53.144C61.6444 53.1071 61.7067 53.0726 61.769 53.0406C62.2214 52.8191 62.7101 52.679 63.2121 52.6269C64.0691 52.5041 64.9401 52.5132 65.7943 52.654C66.8025 52.7603 67.8019 52.9364 68.7851 53.181L68.9945 53.2278V48.3296L68.6082 48.2483C67.6053 48.0103 66.5892 47.8311 65.5649 47.7115C64.2361 47.537 62.8901 47.5312 61.5597 47.6942C59.8754 47.847 58.2732 48.4839 56.9513 49.5264C56.0542 50.221 55.3721 51.1501 54.9823 52.2082C54.3952 53.8199 54.3952 55.5834 54.9823 57.1951C55.2843 57.9965 55.7686 58.7185 56.3979 59.3056C56.9439 59.8251 57.5604 60.2669 58.2299 60.6181C59.1119 61.086 60.0473 61.4482 61.0163 61.6968C61.3354 61.7928 61.6519 61.8913 61.9684 61.9972L62.4495 62.1721L62.5865 62.2262C63.0591 62.3942 63.4912 62.6576 63.8552 62.9995C64.1066 63.2327 64.3002 63.5201 64.4209 63.8393C64.4957 64.1318 64.4957 64.4382 64.4209 64.7307C64.2691 65.2025 63.9362 65.5968 63.4938 65.8291C63.0112 66.077 62.4881 66.2388 61.9485 66.3068C61.1574 66.4299 60.3554 66.4695 59.5558 66.425C58.5077 66.3473 57.465 66.21 56.4328 66.0138C55.8912 65.9021 55.3545 65.7782 54.8228 65.6419L54.6234 65.5927" fill="#C82026"/>
<path d="M32.6129 70.7021V64.5455L32.4908 64.5997C31.0878 65.2708 29.5615 65.6537 28.0045 65.7251C26.3843 65.8507 24.774 65.3826 23.4808 64.4101C22.5578 63.706 21.8715 62.7429 21.5118 61.647C21.1153 60.4528 21.0695 59.1719 21.3797 57.953C21.665 56.7079 22.3676 55.5945 23.3736 54.7935C24.2699 54.0488 25.3664 53.5781 26.529 53.439C28.5798 53.2149 30.6517 53.5989 32.4808 54.5423L32.6129 54.6112V48.4251L32.3288 48.3487C30.4984 47.7667 28.5766 47.5164 26.6561 47.6099C24.9072 47.6557 23.1852 48.0467 21.5915 48.76C19.9832 49.489 18.5653 50.5723 17.4467 51.927C15.7443 54.0543 14.7992 56.6768 14.7578 59.3885C14.7163 62.1002 15.5808 64.7497 17.2174 66.9269C18.874 69.0183 21.1985 70.4939 23.8123 71.1134C26.5661 71.7746 29.4509 71.6758 32.1518 70.8277L32.6079 70.7021" fill="#C82026"/>
<path d="M46.6328 71.1108V48.0088H40.7383V71.1108H46.6328Z" fill="#C82026"/>
<path d="M133.884 68.4268V68.0771H131.389V68.4268H132.426V71.1111H132.847V68.4268H133.884Z" fill="#C82026"/>
<path d="M134.125 71.1111H134.524V68.6879H134.577L135.474 71.1111H135.873L136.842 68.5721V71.1111H137.261V68.0771H136.615L135.706 70.5743L134.783 68.0771H134.125V71.1111Z" fill="#C82026"/>
<path d="M2.67188 29.4433C2.72471 30.1719 3.05488 30.8536 3.59594 31.3512C4.137 31.8489 4.84876 32.1256 5.58797 32.1256C6.32718 32.1256 7.03894 31.8489 7.58 31.3512C8.12106 30.8536 8.45123 30.1719 8.50407 29.4433V23.0405C8.47295 22.2969 8.15211 21.594 7.60864 21.0788C7.06517 20.5636 6.34115 20.2759 5.58797 20.2759C4.83479 20.2759 4.11077 20.5636 3.5673 21.0788C3.02383 21.594 2.703 22.2969 2.67188 23.0405V29.4433Z" fill="#12393D"/>
<path d="M18.8125 29.4433C18.8693 30.1686 19.2011 30.8461 19.7415 31.3403C20.2818 31.8344 20.991 32.109 21.7273 32.109C22.4637 32.109 23.1729 31.8344 23.7132 31.3403C24.2536 30.8461 24.5854 30.1686 24.6422 29.4433V15.091C24.62 14.3417 24.3032 13.6305 23.759 13.1083C23.2148 12.5861 22.486 12.2939 21.7273 12.2939C20.9687 12.2939 20.2399 12.5861 19.6957 13.1083C19.1515 13.6305 18.8347 14.3417 18.8125 15.091V29.4433Z" fill="#12393D"/>
<path d="M34.8638 35.2157C34.9166 35.9442 35.2468 36.6259 35.7878 37.1236C36.3289 37.6213 37.0407 37.8979 37.7799 37.8979C38.5191 37.8979 39.2308 37.6213 39.7719 37.1236C40.3129 36.6259 40.6431 35.9442 40.6959 35.2157V4.18647C40.6648 3.44292 40.344 2.74004 39.8005 2.22481C39.2571 1.70957 38.533 1.42187 37.7799 1.42188C37.0267 1.42188 36.3027 1.70957 35.7592 2.22481C35.2157 2.74004 34.8949 3.44292 34.8638 4.18647V35.2157Z" fill="#12393D"/>
<path d="M51.002 29.4433C51.0588 30.1686 51.3905 30.8461 51.9309 31.3403C52.4713 31.8344 53.1805 32.109 53.9168 32.109C54.6531 32.109 55.3623 31.8344 55.9027 31.3403C56.443 30.8461 56.7748 30.1686 56.8316 29.4433V15.091C56.8095 14.3417 56.4926 13.6305 55.9484 13.1083C55.4042 12.5861 54.6754 12.2939 53.9168 12.2939C53.1582 12.2939 52.4294 12.5861 51.8852 13.1083C51.341 13.6305 51.0241 14.3417 51.002 15.091V29.4433Z" fill="#12393D"/>
<path d="M67.0654 29.4431C67.1223 30.1684 67.454 30.8459 67.9944 31.3401C68.5348 31.8343 69.244 32.1088 69.9803 32.1088C70.7166 32.1088 71.4258 31.8343 71.9662 31.3401C72.5066 30.8459 72.8383 30.1684 72.8951 29.4431V23.0402C72.873 22.291 72.5561 21.5797 72.0119 21.0575C71.4677 20.5353 70.7389 20.2432 69.9803 20.2432C69.2216 20.2432 68.4929 20.5353 67.9487 21.0575C67.4044 21.5797 67.0876 22.291 67.0654 23.0402V29.4431Z" fill="#12393D"/>
<path d="M83.1885 29.4435C83.2413 30.172 83.5715 30.8537 84.1125 31.3514C84.6536 31.849 85.3654 32.1257 86.1046 32.1257C86.8438 32.1257 87.5556 31.849 88.0966 31.3514C88.6377 30.8537 88.9678 30.172 89.0207 29.4435V15.0913C88.9896 14.3477 88.6687 13.6448 88.1252 13.1296C87.5818 12.6144 86.8578 12.3267 86.1046 12.3267C85.3514 12.3267 84.6274 12.6144 84.0839 13.1296C83.5404 13.6448 83.2196 14.3477 83.1885 15.0913V29.4435Z" fill="#12393D"/>
<path d="M99.2471 35.2157C99.2999 35.9442 99.6301 36.6259 100.171 37.1236C100.712 37.6213 101.424 37.8979 102.163 37.8979C102.902 37.8979 103.614 37.6213 104.155 37.1236C104.696 36.6259 105.026 35.9442 105.079 35.2157V4.18647C105.048 3.44292 104.727 2.74004 104.184 2.22481C103.64 1.70957 102.916 1.42188 102.163 1.42188C101.41 1.42188 100.686 1.70957 100.142 2.22481C99.599 2.74004 99.2782 3.44292 99.2471 4.18647V35.2157Z" fill="#12393D"/>
<path d="M115.358 29.4435C115.411 30.172 115.741 30.8537 116.282 31.3514C116.823 31.849 117.535 32.1257 118.274 32.1257C119.013 32.1257 119.725 31.849 120.266 31.3514C120.807 30.8537 121.137 30.172 121.19 29.4435V15.0913C121.159 14.3477 120.838 13.6448 120.295 13.1296C119.751 12.6144 119.027 12.3267 118.274 12.3267C117.521 12.3267 116.797 12.6144 116.253 13.1296C115.71 13.6448 115.389 14.3477 115.358 15.0913V29.4435Z" fill="#12393D"/>
<path d="M131.431 29.4431C131.488 30.1684 131.82 30.8459 132.36 31.3401C132.9 31.8343 133.61 32.1088 134.346 32.1088C135.082 32.1088 135.792 31.8343 136.332 31.3401C136.872 30.8459 137.204 30.1684 137.261 29.4431V23.0402C137.239 22.291 136.922 21.5797 136.378 21.0575C135.833 20.5353 135.105 20.2432 134.346 20.2432C133.587 20.2432 132.859 20.5353 132.314 21.0575C131.77 21.5797 131.453 22.291 131.431 23.0402V29.4431Z" fill="#12393D"/>
<path d="M94.2125 70.7024V64.5458L94.0904 64.6C92.6873 65.2708 91.1611 65.6536 89.6041 65.7254C87.9846 65.8513 86.375 65.3832 85.0829 64.4104C84.1593 63.7069 83.4728 62.7436 83.1139 61.6473C82.7161 60.4533 82.6702 59.1721 82.9818 57.9533C83.2671 56.7082 83.9697 55.5948 84.9757 54.7938C85.8705 54.0496 86.9651 53.5789 88.1261 53.4393C90.1761 53.2151 92.2473 53.5992 94.0755 54.5426L94.21 54.6115V48.4254L93.9259 48.349C92.0954 47.7675 90.1737 47.5172 88.2532 47.6102C86.5035 47.656 84.7807 48.047 83.1862 48.7603C81.5774 49.4895 80.1587 50.5728 79.0389 51.9273C77.3376 54.0552 76.3935 56.6778 76.3525 59.3892C76.3115 62.1007 77.1759 64.75 78.812 66.9272C80.4683 69.0191 82.7929 70.4948 85.4069 71.1137C88.1625 71.776 91.0494 71.6763 93.7514 70.8255L94.21 70.6999" fill="#C82026"/>
<path d="M100.421 59.5689C100.449 61.3717 100.883 63.1456 101.691 64.7622C102.499 66.3788 103.661 67.7975 105.093 68.9156C106.524 70.0338 108.19 70.8232 109.968 71.2268C111.746 71.6304 113.594 71.6381 115.375 71.2492C117.769 70.8042 119.968 69.65 121.682 67.9401C123.396 66.2302 124.542 64.0455 124.969 61.6764C125.396 59.3073 125.083 56.8659 124.072 54.6767C123.061 52.4875 121.399 50.6542 119.308 49.4204C117.452 48.2849 115.324 47.6549 113.141 47.5942C110.959 47.5335 108.798 48.0443 106.88 49.0749C104.962 50.1054 103.353 51.6189 102.218 53.4619C101.083 55.3049 100.461 57.4118 100.416 59.5689H100.421ZM108.975 54.8308C110.086 53.9535 111.471 53.4843 112.894 53.5029C114.316 53.5215 115.688 54.0269 116.776 54.9329C117.863 55.8389 118.599 57.0896 118.858 58.4717C119.117 59.8538 118.883 61.2818 118.196 62.5125C117.509 63.7432 116.411 64.7004 115.09 65.221C113.768 65.7416 112.305 65.7933 110.949 65.3674C109.594 64.9415 108.429 64.0643 107.655 62.8853C106.88 61.7063 106.543 60.2984 106.702 58.9015C106.885 57.3009 107.702 55.8371 108.975 54.8308Z" fill="#C82026"/>
</svg>
