<svg width="177" height="59" viewBox="0 0 177 59" fill="none" xmlns="http://www.w3.org/2000/svg">
<path d="M177 0H0V59H177V0Z" fill="#E1251B"/>
<path d="M77.1112 19.8848C74.4972 19.8848 71.5236 21.0961 69.7071 23.5221V20.2642H63.4712V42.9735H69.7071V30.0524C69.7071 27.7292 71.5092 25.2545 74.8479 25.2545C77.4276 25.2545 80.097 27.0489 80.097 30.0524V42.9735H86.3329V28.8963C86.3329 23.6748 82.5971 19.8848 77.1112 19.8848Z" fill="white"/>
<path d="M130.65 20.2666L125.013 35.7354L119.377 20.2666H112.253L121.597 42.9659H128.429L137.772 20.2666H130.65Z" fill="white"/>
<path d="M56.8356 35.992C54.2115 37.9335 52.7115 38.3981 50.3186 38.3981C48.1648 38.3981 46.4789 37.7288 45.2896 36.5562L61.2307 29.943C60.8833 27.4782 59.9486 25.2768 58.5082 23.603C56.4141 21.1693 53.3144 19.8838 49.5398 19.8838C42.6811 19.8838 37.5127 24.9416 37.5127 31.6223C37.5127 38.4755 42.701 43.3652 50.2235 43.3652C54.4427 43.3652 58.7571 41.3651 60.7749 39.0287L56.8356 35.992ZM44.856 27.1032C45.918 25.6773 47.6094 24.8409 49.6527 24.8409C51.8995 24.8409 53.6042 26.1242 54.4859 28.017L43.5915 32.536C43.294 30.2229 43.8869 28.4086 44.856 27.1032Z" fill="white"/>
<path d="M36.9189 37.2475H22.7468V13.4751H16.4268V42.9723H36.9189V37.2475Z" fill="white"/>
<path d="M148.969 43.3564C142.149 43.3564 136.807 38.2753 136.807 31.6201C136.807 25.0389 142.186 19.8838 149.053 19.8838C155.872 19.8838 161.214 24.9637 161.214 31.6201C161.214 38.2001 155.835 43.3564 148.969 43.3564ZM148.969 25.227C145.486 25.227 142.958 27.8654 142.958 31.6201C142.958 35.2043 145.637 38.0131 149.053 38.0131C152.535 38.0131 155.063 35.3017 155.063 31.6201C155.063 28.0347 152.386 25.227 148.969 25.227Z" fill="white"/>
<path d="M100.961 43.3564C94.1419 43.3564 88.7998 38.2764 88.7998 31.6201C88.7998 25.0389 94.1784 19.8838 101.046 19.8838C107.864 19.8838 113.207 24.9637 113.207 31.6201C113.207 38.2001 107.827 43.3564 100.961 43.3564ZM100.961 25.227C97.4783 25.227 94.9517 27.8654 94.9517 31.6201C94.9517 35.2043 97.6288 38.0131 101.046 38.0131C104.528 38.0131 107.056 35.3017 107.056 31.6201C107.056 28.0347 104.378 25.227 100.961 25.227Z" fill="white"/>
<path d="M162.065 40.2778H161.058V39.7036H163.7V40.2778H162.692V42.9737H162.065V40.2778ZM164.401 39.7036H165.064L166.052 41.2524L167.039 39.7036H167.687V42.9737H167.082V40.6506L166.073 42.2215H166.009L165.001 40.6506V42.9737H164.396L164.401 39.7036Z" fill="white"/>
</svg>
