<svg width="230" height="41" viewBox="0 0 230 41" fill="none" xmlns="http://www.w3.org/2000/svg">
<path d="M1.8042 19.9184C1.8042 27.1453 5.46566 30.778 12.7131 30.778C14.7444 30.8017 16.7637 30.4562 18.6771 29.7578V26.2409C16.8885 27.0247 14.9605 27.4195 13.0151 27.4003C8.14569 27.4003 5.69214 24.8883 5.69214 19.9029C5.69214 15.304 8.14569 12.9852 13.0151 12.9852C14.9605 12.966 16.8885 13.3608 18.6771 14.1446V10.6664C16.7674 9.9547 14.7448 9.61394 12.7131 9.66162C5.46566 9.66162 1.8042 13.0625 1.8042 19.9029" fill="black"/>
<path d="M31.511 27.439C27.3211 27.439 25.2073 25.0043 25.2073 20.1735C25.2073 15.42 27.3211 13.0239 31.511 13.0239C35.5877 13.0239 37.626 15.42 37.626 20.1735C37.6638 25.0043 35.6254 27.439 31.511 27.439ZM31.511 9.62305C24.7166 9.62305 21.3193 13.1399 21.3193 20.2122C21.6213 27.2458 25.0185 30.7626 31.511 30.7626C38.1922 30.7626 41.5517 27.2458 41.5517 20.2122C41.5517 13.1785 38.1922 9.62305 31.511 9.62305Z" fill="black"/>
<path d="M55.8201 25.5994L48.9501 9.79297H45.0244V30.662H48.5349V16.131L54.1214 30.662H57.3299L62.841 16.131V30.662H66.3137V9.79297H62.5768L55.8201 25.5994Z" fill="black"/>
<path d="M81.3747 25.5994L74.5048 9.79297H70.5791V30.662H74.0518V16.131L79.6761 30.662H82.8846L88.3957 16.131V30.662H91.8684V9.79297H88.1315L81.3747 25.5994Z" fill="black"/>
<path d="M110.44 9.79297L104.174 25.7539L97.9084 9.79297H93.4165L101.947 30.662H105.986L114.895 9.79297H110.44Z" fill="black"/>
<path d="M119.575 9.79297L110.969 30.662H114.819L121.5 13.7736L124.822 21.6188H120.745L119.462 24.981H125.803L128.37 30.662H132.409L123.614 9.79297H119.575Z" fill="black"/>
<path d="M147.017 22.4689C147.017 25.7925 145.356 27.4543 142.035 27.4543C138.713 27.4543 137.052 25.7925 137.052 22.4689V9.83154H133.277V22.4689C133.277 28.034 136.184 30.8166 141.997 30.8166C147.81 30.8166 150.716 28.034 150.716 22.4689V9.83154H146.942V22.4689H147.017Z" fill="black"/>
<path d="M158.53 9.79297H154.755V30.662H168.005V27.2998H158.53V9.79297Z" fill="black"/>
<path d="M165.815 13.1552H171.628V30.662H175.403V13.1552H181.216V9.79297H165.815V13.1552Z" fill="black"/>
<path d="M185.028 12.9232C184.198 12.9232 183.783 12.4981 183.783 11.6478C183.783 10.759 184.198 10.3339 185.028 10.3339C185.859 10.3339 186.274 10.759 186.274 11.6478C186.274 12.5367 185.859 12.9232 185.028 12.9232ZM185.028 10.1406C184.047 10.1406 183.519 10.643 183.519 11.6478C183.519 12.6526 184.047 13.1164 185.028 13.1164C186.01 13.1164 186.538 12.614 186.538 11.6478C186.538 10.6817 186.01 10.1406 185.028 10.1406Z" fill="black"/>
<path d="M185.715 11.1454C185.715 10.8362 185.526 10.6816 185.187 10.6816H184.394V12.5753H184.621V10.8749H185.149C185.338 10.8749 185.451 10.9522 185.451 11.1454C185.451 11.3386 185.262 11.4932 184.922 11.5705V11.7251L185.526 12.5753H185.828L185.187 11.6864C185.564 11.5705 185.715 11.4159 185.715 11.1454Z" fill="black"/>
<path d="M213.271 23.1645C213.271 22.9326 213.421 22.8167 213.648 22.9713L221.613 27.7248C221.654 27.7414 221.69 27.7706 221.716 27.8085C221.741 27.8465 221.755 27.8914 221.755 27.9373C221.755 27.9833 221.741 28.0282 221.716 28.0661C221.69 28.1041 221.654 28.1332 221.613 28.1499L213.648 32.9034C213.459 33.0193 213.308 32.942 213.308 32.6715L213.271 23.1645Z" fill="#E72420"/>
<path d="M210.545 20.8689L201.41 15.497C201.184 15.3811 201.033 15.4584 201.033 15.7289V26.5112C201.045 26.6423 201.085 26.7691 201.15 26.8826C201.215 26.9962 201.304 27.0936 201.41 27.1682L210.545 32.5401C210.771 32.656 210.922 32.5787 210.922 32.3082V21.5413C210.91 21.4102 210.87 21.2834 210.805 21.1699C210.74 21.0564 210.651 20.9589 210.545 20.8843" fill="black"/>
<path d="M202.656 13.5806L211.678 19.0298C211.795 19.0871 211.924 19.1169 212.055 19.1169C212.186 19.1169 212.315 19.0871 212.432 19.0298L221.643 13.5806C221.831 13.4647 221.869 13.2714 221.643 13.1169L212.621 7.66772C212.503 7.61034 212.374 7.58057 212.244 7.58057C212.113 7.58057 211.984 7.61034 211.866 7.66772L202.656 13.1169C202.614 13.1383 202.578 13.1714 202.554 13.2123C202.529 13.2533 202.516 13.3005 202.516 13.3487C202.516 13.3969 202.529 13.4442 202.554 13.4851C202.578 13.5261 202.614 13.5592 202.656 13.5806Z" fill="black"/>
<path d="M225.38 28.5366L211.866 36.5364L198.353 28.5366V12.537L211.866 4.53719L225.38 12.537V28.5366ZM211.866 1.09766L195.409 10.7979V30.2371L211.829 39.9373L228.249 30.2371V10.7979L211.866 1.09766Z" fill="black"/>
</svg>
