<svg width="189" height="52" viewBox="0 0 189 52" fill="none" xmlns="http://www.w3.org/2000/svg">
<g clip-path="url(#clip0)">
<path d="M99.8609 41.9053V50.2229L93.8542 41.9053H92.6904V51.9847H93.7191V43.4251L99.8909 51.9847H100.867V41.9053H99.8609Z" fill="#231F20"/>
<path d="M103.42 41.9053V51.9847H110.087V51.0017H104.486V47.2663H109.9V46.2531H104.486V42.9261H110.035V41.9053H103.42Z" fill="#231F20"/>
<path d="M111.664 41.9053V42.9261H115.418V51.9998H116.484V42.9261H120.239V41.9053H111.664Z" fill="#231F20"/>
<path d="M134.189 41.9053L131.539 50.2228L128.866 41.9053H127.95L125.262 50.2228L122.626 41.9053H121.53L124.759 52.0527H125.69L128.393 43.6595L131.096 52.0527H132.012L135.226 41.9053H134.197" fill="#231F20"/>
<path d="M145.197 46.9867C145.197 44.2646 143.943 42.7977 141.217 42.7977C138.492 42.7977 137.26 44.2646 137.26 46.9867C137.26 49.7088 138.499 51.1909 141.217 51.1909C143.935 51.1909 145.197 49.6786 145.197 46.9867ZM136.187 46.9867C136.187 43.395 138.011 41.792 141.21 41.792C144.408 41.792 146.255 43.395 146.255 46.9867C146.255 50.5784 144.431 52.1738 141.217 52.1738C138.004 52.1738 136.194 50.5708 136.194 46.964" fill="#231F20"/>
<path d="M152.765 46.9261C154.184 46.9261 155.062 46.4875 155.062 44.8996C155.062 43.3117 154.214 42.9261 152.727 42.9261H149.476V46.9261H152.765ZM152.472 47.9015H149.469V52.0074H148.433V41.9355H152.757C155.077 41.9355 156.129 42.8732 156.129 44.8694C156.175 45.2404 156.144 45.617 156.037 45.9753C155.931 46.3335 155.751 46.6655 155.511 46.95C155.27 47.2346 154.973 47.4655 154.638 47.628C154.304 47.7905 153.939 47.8811 153.568 47.894L155.978 52.0376H154.845L152.472 47.9318" fill="#231F20"/>
<path d="M161.429 46.6768L159.432 48.8772V52.0228H158.426V41.9434H159.469V47.5086L164.53 41.9434H165.754L162.18 45.9056L166.257 52.0228H165.056L161.429 46.6768Z" fill="#231F20"/>
<path d="M167.106 51.0172L167.647 50.2006C168.705 50.8784 169.936 51.2329 171.19 51.2214C173.263 51.2214 174.194 50.6316 174.194 49.2478C174.194 47.8641 173.007 47.6146 171.19 47.2894C169.028 46.9038 167.571 46.5333 167.571 44.4993C167.571 42.4652 168.818 41.7923 171.19 41.7923C172.415 41.7307 173.63 42.0444 174.674 42.6921L174.111 43.5616C173.227 43.0399 172.215 42.778 171.19 42.8055C169.396 42.8055 168.63 43.3046 168.63 44.4993C168.63 45.694 169.666 46.0116 171.453 46.3518C173.638 46.745 175.207 47.108 175.207 49.2327C175.207 51.2365 173.938 52.1968 171.213 52.1968C169.747 52.2444 168.301 51.8409 167.068 51.0399" fill="#231F20"/>
<path d="M185.689 0.264886C171.618 0.264886 171.025 6.60893 171.025 15.5617V37.5428H174.336V15.5617C174.336 8.80931 174.073 3.39532 185.689 3.39532C186.805 3.39233 187.92 3.45292 189.03 3.5768V0.39343C188.001 0.302693 186.898 0.257324 185.689 0.257324" fill="#231F20"/>
<path d="M21.6465 23.2516V0.998284H25.0328V23.3121C25.0328 29.7242 24.9652 35.1382 36.6407 35.1382C48.3162 35.1382 47.9858 29.7242 47.9858 22.9794V0.990723H51.3045V22.9794C51.3045 31.9321 50.7038 38.2837 36.6407 38.2837C22.5776 38.2837 21.624 31.9397 21.624 23.2516" fill="#231F20"/>
<path d="M86.5639 15.3195V37.5652H83.1776V15.2514C83.1776 8.83933 83.2452 3.42534 71.5622 3.42534C59.8792 3.42534 60.2171 8.83933 60.2171 15.5841V37.5728H56.8984V15.5841C56.8984 6.63139 57.4991 0.279785 71.5622 0.279785C85.6254 0.279785 86.5789 6.62383 86.5789 15.3119" fill="#231F20"/>
<path d="M92.7129 37.5652H95.9565V1.08887H92.7129V37.5652Z" fill="#231F20"/>
<path d="M119.052 21.6409C124.909 21.6409 127.822 18.7675 127.822 12.9528C127.822 7.13804 124.676 4.39324 118.902 4.39324H105.289V21.6484L119.052 21.6409ZM102.038 1.1267H118.992C127.401 1.1267 131.216 5.33086 131.216 12.8167C131.216 20.3025 127.462 24.915 118.947 24.915H105.282V37.6031H102.031V1.11914" fill="#231F20"/>
<path d="M138.311 16.7488H162.999C162.668 9.46709 162.18 3.25158 151.669 3.25158C141.517 3.25158 138.732 8.79412 138.334 16.7488H138.311ZM135.015 19.2213C135.015 8.46142 138.064 0.181641 151.736 0.181641C165.874 0.181641 166.332 9.7393 166.272 19.8414H138.266C138.326 28.7261 140.519 35.3499 151.999 35.3499C158.103 35.3499 160.889 33.6788 163.87 31.4709L165.732 33.9435C162.413 36.416 158.501 38.3518 151.999 38.3518C137.658 38.3518 135.015 30.0342 135.015 19.244" fill="#231F20"/>
<path d="M1.27642 45.4971C15.3471 45.4971 15.9402 39.1531 15.9402 30.1928V1.02832H12.6215V30.1928C12.6215 36.9376 12.8918 42.344 1.27642 42.344C0.840934 42.344 0.415462 42.344 0 42.344V45.4896C0.412959 45.4896 0.833426 45.4896 1.2614 45.4896" fill="#231F20"/>
<path d="M181.627 33.4142C181.231 33.4127 180.844 33.5294 180.515 33.7495C180.186 33.9696 179.928 34.2832 179.776 34.6506C179.624 35.018 179.583 35.4226 179.659 35.8133C179.736 36.204 179.925 36.5631 180.204 36.8451C180.483 37.1272 180.839 37.3195 181.227 37.3977C181.614 37.4759 182.016 37.4365 182.382 37.2845C182.747 37.1325 183.059 36.8747 183.279 36.5438C183.499 36.2129 183.616 35.8237 183.616 35.4256C183.616 34.8934 183.407 34.383 183.034 34.006C182.661 33.629 182.155 33.4162 181.627 33.4142ZM181.627 37.7318C181.171 37.7393 180.723 37.6094 180.34 37.3589C179.958 37.1084 179.659 36.7486 179.481 36.3257C179.303 35.9028 179.254 35.436 179.342 34.9851C179.429 34.5343 179.648 34.1199 179.97 33.7951C180.293 33.4703 180.704 33.2499 181.152 33.1621C181.599 33.0744 182.063 33.1232 182.483 33.3024C182.903 33.4816 183.26 33.7831 183.509 34.1681C183.758 34.5531 183.887 35.0041 183.879 35.4634C183.868 36.0614 183.627 36.6316 183.207 37.0545C182.787 37.4775 182.22 37.7202 181.627 37.7318Z" fill="#231F20"/>
<path d="M181.875 35.3951C182.228 35.3951 182.438 35.2968 182.438 34.9111C182.438 34.5255 182.235 34.4348 181.86 34.4348H181.056V35.3951H181.875ZM181.792 35.7278H181.041V36.7485H180.688V34.1021H181.86C182.528 34.1021 182.783 34.3743 182.783 34.8582C182.799 35.0483 182.743 35.2373 182.626 35.3874C182.509 35.5374 182.34 35.6374 182.153 35.6673L182.746 36.7107H182.363L181.777 35.6899" fill="#231F20"/>
</g>
<defs>
<clipPath id="clip0">
<rect width="189" height="52" fill="white"/>
</clipPath>
</defs>
</svg>
