<svg width="191" height="31" viewBox="0 0 191 31" fill="none" xmlns="http://www.w3.org/2000/svg">
<path d="M82.3246 27.3751L74.1109 4.50014C74.0059 4.18389 73.8496 3.76639 73.8496 3.40014C73.8496 2.40889 74.6871 1.46764 75.8871 1.46764C76.9346 1.46764 77.6171 2.14764 77.9296 3.13889L84.7359 22.8514L91.5909 3.08889C91.9034 2.15139 92.5321 1.47139 93.5734 1.47139H93.7859C94.8871 1.47139 95.5671 2.15139 95.8796 3.08889L102.678 22.8514L109.592 3.03889C109.853 2.19764 110.425 1.47014 111.527 1.47014C112.677 1.47014 113.516 2.35514 113.516 3.35139C113.516 3.71639 113.357 4.13264 113.255 4.45139L104.988 27.3764C104.566 28.5739 103.732 29.2026 102.788 29.2026H102.632C101.585 29.2026 100.798 28.5739 100.43 27.3764L93.6834 7.93889L86.8784 27.3764C86.5121 28.5739 85.7246 29.2026 84.6809 29.2026H84.5709C83.5796 29.2026 82.7459 28.5739 82.3246 27.3764" fill="#696566"/>
<path d="M142.2 3.50019C142.2 2.39644 143.09 1.45395 144.188 1.45395C145.347 1.45395 146.235 2.34519 146.235 3.50019V8.14145C148.225 3.63395 152.638 1.50644 155.563 1.50644C156.775 1.50644 157.561 2.39645 157.561 3.54895C157.561 4.65145 156.831 5.43394 155.773 5.59144C150.53 6.22019 146.236 10.1539 146.236 17.9664V27.1577C146.236 28.2589 145.398 29.2002 144.246 29.2002C143.092 29.2002 142.201 28.3052 142.201 27.1577L142.2 3.49519V3.50019Z" fill="#696566"/>
<path d="M170.575 29.5C163.278 29.5 157.325 23.8413 157.325 15.5375V15.43C157.325 7.70125 162.72 1.48 170.062 1.48C177.916 1.48 182.388 7.96 182.388 15.0675C182.388 16.16 181.507 16.9412 180.537 16.9412H161.337C161.897 22.7475 165.952 26.015 170.683 26.015C173.972 26.015 176.378 24.7175 178.333 22.9013C178.642 22.645 179.001 22.4375 179.466 22.4375C180.438 22.4375 181.212 23.2163 181.212 24.1538C181.212 24.6188 181.007 25.0875 180.591 25.4462C178.077 27.8825 175.095 29.4963 170.578 29.4963L170.575 29.5ZM178.436 13.9838C178.023 9.1025 175.248 4.8525 169.957 4.8525C165.335 4.8525 161.842 8.74125 161.335 13.9838H178.436Z" fill="#696566"/>
<path d="M113.7 21.125V21.02C113.7 15.325 118.405 12.29 125.248 12.29C128.7 12.29 131.155 12.76 133.563 13.4437V12.4987C133.563 7.64248 130.576 5.12998 125.512 5.12998C122.793 5.12998 121.211 5.47623 119.221 6.36248C118.963 6.46748 118.7 6.52123 118.496 6.52123C117.555 6.52123 116.715 5.73498 116.715 4.79623C116.715 3.96248 117.078 3.44623 117.815 3.11998C120.476 1.96498 122.482 1.58123 125.93 1.58123C129.742 1.58123 132.67 2.57123 134.652 4.55873C136.485 6.38748 137.426 8.99998 137.426 12.4512V27.3637C137.426 28.51 136.59 29.3487 135.486 29.3487C134.341 29.3487 133.565 28.5112 133.565 27.4675V24.89C131.68 27.3512 128.541 29.5425 123.795 29.5425C118.775 29.5387 113.7 26.6675 113.7 21.1275V21.125ZM133.612 19.0362V16.4225C131.622 15.8487 128.953 15.2725 125.663 15.2725C120.601 15.2725 117.775 17.47 117.775 20.8637V20.9675C117.775 24.3637 120.907 26.35 124.57 26.35C129.532 26.35 133.612 23.3175 133.612 19.0362Z" fill="#696566"/>
<path d="M9.19978 3.25014C8.31478 1.31013 6.12728 0.431387 4.08478 1.33889C2.03978 2.24764 1.28728 4.51514 2.21103 6.45639L10.7873 25.0939C12.136 28.0151 13.5573 29.5464 16.2248 29.5464C19.0748 29.5464 20.3173 27.8789 21.6648 25.0939C21.6648 25.0939 29.1448 8.80639 29.2198 8.63139C29.296 8.45889 29.536 7.93264 30.2973 7.93764C30.941 7.94139 31.4823 8.45514 31.4823 9.14514V25.0701C31.4823 27.5251 32.8435 29.5389 35.4635 29.5389C38.081 29.5389 39.496 27.5251 39.496 25.0701V12.0326C39.496 9.51889 41.2973 7.88764 43.7523 7.88764C46.2073 7.88764 47.841 9.57764 47.841 12.0326V25.0701C47.841 27.5251 49.2073 29.5389 51.8223 29.5389C54.4398 29.5389 55.8623 27.5251 55.8623 25.0701V12.0326C55.8623 9.51889 57.656 7.88764 60.1123 7.88764C62.5635 7.88764 64.2035 9.57764 64.2035 12.0326V25.0701C64.2035 27.5251 65.5685 29.5389 68.186 29.5389C70.8023 29.5389 72.2223 27.5251 72.2223 25.0701V10.2326C72.2223 4.78139 67.8385 0.962635 62.5635 0.962635C57.2948 0.962635 53.9948 4.60764 53.9948 4.60764C52.241 2.33389 49.8235 0.967638 45.7323 0.967638C41.4148 0.967638 37.636 4.60764 37.636 4.60764C35.881 2.33389 32.8935 0.967638 30.4198 0.967638C26.5935 0.967638 23.5548 2.65014 21.701 6.88889L16.2248 19.8014L9.19978 3.25014Z" fill="#696566"/>
<path d="M182.7 4.875V4.8525C182.7 3.02875 184.18 1.4925 186.04 1.4925C187.926 1.4925 189.386 3.0125 189.386 4.83875V4.8525C189.386 6.6825 187.91 8.21875 186.04 8.21875C184.153 8.21875 182.7 6.70375 182.7 4.875ZM188.743 4.8525V4.84375C188.743 3.34375 187.585 2.11375 186.04 2.11375C184.508 2.11375 183.332 3.365 183.332 4.8525V4.87C183.332 6.36625 184.495 7.59625 186.04 7.59625C187.566 7.59625 188.743 6.3475 188.743 4.8525Z" fill="#696566"/>
<path d="M184.825 3.50021C184.825 3.30146 184.983 3.14272 185.185 3.14272H186.3C186.72 3.14272 187.043 3.26146 187.245 3.47396C187.428 3.65271 187.528 3.91146 187.528 4.21146V4.22147C187.528 4.73147 187.271 5.04272 186.882 5.20647L187.375 5.80647C187.443 5.89647 187.49 5.97022 187.49 6.08022C187.49 6.27772 187.322 6.40771 187.152 6.40771C186.993 6.40771 186.886 6.32647 186.802 6.22397L186.108 5.34647H185.54V6.05147C185.54 6.25022 185.386 6.40647 185.186 6.40647C184.985 6.40647 184.826 6.24897 184.826 6.05147V3.50021H184.825ZM186.26 4.71521C186.607 4.71521 186.798 4.53397 186.798 4.25772V4.24646C186.798 3.94521 186.593 3.78271 186.247 3.78271H185.536V4.71397H186.26V4.71521Z" fill="#696566"/>
</svg>
