<svg width="215" height="52" viewBox="0 0 215 52" fill="none" xmlns="http://www.w3.org/2000/svg">
<g clip-path="url(#clip0)">
<path d="M0 0.0410156H23.5998C23.3001 0.121023 22.9924 0.167106 22.6825 0.178404C19.2149 0.616592 15.8702 1.74844 12.8466 3.50688C11.3057 4.41594 9.85927 5.47748 8.52913 6.67561C7.30522 7.82104 6.13148 9.03438 5.14328 10.3907C2.4082 14.0318 0.680119 18.3328 0.133778 22.8587C0.12306 23.1296 0.0781082 23.398 0 23.6575L0 0.0410156Z" fill="white"/>
<path d="M96.515 23.5263C97.1322 23.0798 97.9078 22.9009 98.665 22.9192C99.4908 22.8857 100.383 23.075 101.004 23.6565C101.442 24.1126 101.72 24.6949 101.932 25.286C101.967 25.4022 101.985 25.5226 101.987 25.6439C99.7169 25.6271 97.4483 25.6359 95.1772 25.6399C95.3246 24.7972 95.7944 23.9992 96.515 23.5263Z" fill="white"/>
<path d="M118.011 23.0383C118.475 22.8985 118.967 22.9057 119.444 22.928C120.285 22.9807 121.117 23.357 121.652 24.0215C121.962 24.3794 122.13 24.8315 122.384 25.2253L122.388 25.2317C122.437 25.7261 122.627 26.1902 122.663 26.6894C122.696 27.3101 122.806 27.9315 122.724 28.553C122.671 29.3597 122.485 30.1729 122.068 30.8694C121.832 31.3095 121.502 31.692 121.101 31.9894C120.701 32.2868 120.24 32.4919 119.751 32.59C119.229 32.6623 118.7 32.6623 118.178 32.59C117.347 32.3999 116.633 31.8167 116.212 31.0811C115.784 30.3686 115.584 29.5403 115.517 28.7175C115.48 28.2918 115.398 27.8676 115.427 27.4395C115.523 26.3923 115.64 25.2868 116.251 24.3962C116.652 23.75 117.277 23.2348 118.011 23.0383Z" fill="white"/>
<path d="M159.445 22.9246C160.155 22.8807 160.9 22.9518 161.525 23.32C162.447 23.852 163.054 24.8081 163.344 25.8154C163.44 26.1916 163.549 26.5678 163.579 26.9576C163.618 27.4656 163.753 27.9649 163.738 28.4753C163.719 28.9593 163.6 29.4338 163.573 29.9131C163.55 30.2374 163.452 30.5521 163.386 30.8668C163.124 31.9284 162.44 32.9133 161.45 33.4045C160.744 33.7448 159.937 33.728 159.178 33.6689C158.112 33.5355 157.174 32.7982 156.697 31.8461C156.361 31.2151 156.189 30.5105 156.09 29.8068C155.962 29.318 156.001 28.8116 155.997 28.3131C156.003 27.7963 155.97 27.2747 156.101 26.7659C156.208 25.8298 156.517 24.8976 157.1 24.1483C157.49 23.6819 157.985 23.2833 158.57 23.0948C158.854 23.0037 159.147 22.9466 159.445 22.9246Z" fill="white"/>
<path d="M179.511 23.0513C179.981 23.0129 180.443 22.8819 180.919 22.9171C181.896 22.8835 182.891 23.2653 183.547 24.0002C184.258 24.799 184.593 25.8605 184.699 26.9085C184.728 27.2991 184.797 27.6865 184.836 28.0763C184.876 28.534 184.773 28.9869 184.733 29.4406C184.653 30.479 184.377 31.5254 183.777 32.3833C183.499 32.7615 183.142 33.0741 182.731 33.2993C182.319 33.5244 181.864 33.6567 181.396 33.6869C181.024 33.7121 180.649 33.7121 180.277 33.6869C179.495 33.6233 178.765 33.2685 178.231 32.6924C177.733 32.1453 177.418 31.4511 177.228 30.7402C177.043 30.0009 176.955 29.2403 176.968 28.4781C176.929 27.4988 177.05 26.5196 177.326 25.5794C177.548 24.8972 177.905 24.2422 178.445 23.7614C178.758 23.4682 179.157 23.2973 179.507 23.0552L179.511 23.0513Z" fill="white"/>
<path d="M211.287 23.6876C212.524 23.6605 213.763 23.698 215 23.6685V32.9949C214.439 33.0532 213.893 33.2274 213.328 33.2242C212.877 33.2242 212.423 33.2569 211.974 33.1818C211.77 33.1323 211.523 33.0596 211.437 32.8471C211.252 32.4278 211.285 31.9581 211.285 31.5108C211.287 28.9036 211.288 26.2959 211.287 23.6876Z" fill="white"/>
<path d="M0 28.3667C0.0714845 28.5808 0.12111 28.8016 0.148111 29.0257V29.0744C0.144384 29.3068 0.16144 29.5392 0.199074 29.7685C0.859127 34.3639 2.73468 38.6979 5.63061 42.3196C6.4078 43.3133 7.2885 44.2191 8.19707 45.0914C11.1634 47.878 14.7422 49.9248 18.6437 51.0662C18.8061 51.1036 18.9707 51.1303 19.1366 51.146L19.1716 51.1556C19.6494 51.3857 20.1805 51.4528 20.691 51.5734C21.4076 51.7124 22.1315 51.8657 22.8649 51.8577H22.9007C23.1396 51.9145 23.3785 51.9816 23.6174 52.0367H0V28.3667Z" fill="white"/>
<path d="M139.511 30.1229C140.382 29.9919 141.263 29.8905 142.105 29.6069C142.221 30.1086 142.113 30.6214 142.046 31.1246C142 31.4209 142.016 31.7285 141.917 32.0144C141.826 32.2999 141.705 32.5749 141.556 32.8348C141.287 33.2355 140.923 33.5631 140.496 33.7882C140.07 34.0133 139.595 34.1289 139.113 34.1248C138.45 34.116 137.765 34.1975 137.127 33.9714C136.894 33.9064 136.68 33.7858 136.503 33.6198C136.326 33.4539 136.191 33.2476 136.111 33.0185C136.031 32.6822 136.047 32.3307 136.07 31.9889C136.105 31.5208 136.417 31.115 136.8 30.8658C137.208 30.5742 137.708 30.4664 138.185 30.3482C138.626 30.2619 139.061 30.1477 139.511 30.1229Z" fill="white"/>
<path d="M23.5998 0.0410156H24.389C23.7758 0.261476 23.1149 0.169618 22.4826 0.302214C19.7218 0.670151 17.0383 1.48256 14.5356 2.70811C11.7698 4.0754 9.26628 5.92173 7.14039 8.16212C5.52603 9.87507 4.14614 11.7959 3.03707 13.8741C1.4945 16.7999 0.523902 19.9946 0.177574 23.2861C0.136963 23.6854 0.168815 24.1008 0 24.4754V23.6591C0.0781082 23.3996 0.12306 23.1312 0.133778 22.8603C0.679847 18.3338 2.40795 14.0322 5.14328 10.3907C6.13467 9.03278 7.30522 7.82105 8.52913 6.67561C9.85927 5.47748 11.3057 4.41594 12.8466 3.50688C15.8702 1.74844 19.2149 0.616593 22.6825 0.178404C22.9924 0.167106 23.3001 0.121023 23.5998 0.0410156Z" fill="#BBA3A4"/>
<path d="M27.5645 0.0400391H28.2931C28.5333 0.115896 28.7827 0.15836 29.0344 0.166245C31.7186 0.48338 34.3357 1.22476 36.7888 2.36287C39.1507 3.45272 41.3358 4.89278 43.2706 6.63469C44.0874 7.38735 44.8639 8.18298 45.5966 9.01823C47.6561 11.4029 49.2628 14.1459 50.3369 17.1114C50.48 17.4349 50.5799 17.776 50.634 18.1258C50.3521 17.5259 50.1817 16.8821 49.9173 16.2735C48.0624 11.7058 44.9525 7.76041 40.9494 4.89657C38.7523 3.31185 36.3164 2.09025 33.7342 1.27813C31.8606 0.673457 29.9206 0.299813 27.957 0.165446C27.8207 0.14326 27.6884 0.101002 27.5645 0.0400391Z" fill="#BBA3A4"/>
<path d="M25.0187 3.33887C25.3086 3.13837 25.5642 2.88836 25.874 2.71902C25.9934 2.70544 26.0762 2.80609 26.1694 2.862C26.7037 3.26139 27.2436 3.65438 27.7755 4.06016C28.0566 4.28062 28.3767 4.45475 28.626 4.71435C28.6331 7.04357 28.626 9.37438 28.626 11.7036C28.6315 11.9959 28.6068 12.2915 28.6498 12.5822C28.7077 12.6851 28.7804 12.7787 28.8656 12.8602C30.5947 14.5872 32.32 16.3178 34.0416 18.0522C34.3314 18.3518 34.6412 18.6329 34.9175 18.9493C34.9085 22.0016 34.9085 25.0537 34.9175 28.1056C36.9815 30.1983 39.0758 32.2592 41.1334 34.3607C41.1334 37.3921 41.1246 40.4234 41.1334 43.4548C41.0306 43.5642 40.9202 43.6662 40.8029 43.7599C40.1531 44.224 39.5177 44.7088 38.8743 45.1817C38.6983 45.2983 38.543 45.5124 38.3073 45.474C38.207 45.4685 38.1361 45.3854 38.0565 45.3351C37.3319 44.7815 36.5953 44.2439 35.8587 43.7072C35.7679 43.6225 35.6079 43.5602 35.6286 43.4116C35.6453 41.1679 35.6397 38.9233 35.6286 36.6796C34.484 35.508 33.3284 34.3477 32.1615 33.1985C31.7291 33.558 31.3716 33.9973 30.9591 34.3775C30.3388 35.007 29.7089 35.6252 29.0894 36.2546C28.9501 36.3814 28.8239 36.5219 28.7127 36.674C28.6236 36.8281 28.6411 37.0151 28.6331 37.1868C28.6379 39.238 28.6331 41.2893 28.6331 43.3373C28.6228 43.4316 28.6562 43.5578 28.5535 43.6113C27.7269 44.2296 26.8813 44.8222 26.0746 45.4684C25.9369 45.4589 25.784 45.4788 25.6765 45.3774C24.9558 44.847 24.2431 44.3062 23.5169 43.7846C23.4093 43.7134 23.3078 43.6333 23.2135 43.545C23.1793 43.2638 23.2087 42.9803 23.204 42.6991C23.204 40.8883 23.204 39.0783 23.204 37.2675C23.1665 37.0023 23.2191 36.6732 22.9993 36.4775C22.0677 35.5498 21.1402 34.6179 20.2171 33.6818C20.0654 33.5153 19.9023 33.3597 19.7289 33.2161C19.6079 33.2497 19.5227 33.3495 19.4343 33.4334C18.3665 34.5237 17.2668 35.5829 16.2117 36.686C16.2005 38.7156 16.2117 40.7453 16.2061 42.775C16.2005 43.0282 16.2356 43.283 16.1966 43.5346C16.1301 43.5993 16.0585 43.6583 15.9824 43.7112C15.206 44.2607 14.4551 44.847 13.6866 45.4077C13.621 45.4515 13.5432 45.473 13.4645 45.4691C13.3858 45.4652 13.3105 45.4361 13.2495 45.3862C12.4747 44.8007 11.6824 44.2375 10.9068 43.6536C10.8436 43.6107 10.7931 43.5515 10.7608 43.4821C10.7284 43.4128 10.7153 43.336 10.7228 43.2599C10.718 40.3843 10.718 37.5068 10.7228 34.6275C10.7149 34.4678 10.7395 34.296 10.867 34.185C12.889 32.1615 14.9087 30.135 16.926 28.1056C16.926 25.1416 16.926 22.1779 16.926 19.2144C16.9307 19.0707 16.9124 18.9029 17.0375 18.8015C18.2319 17.5778 19.4478 16.374 20.655 15.1623C21.4776 14.3188 22.3368 13.5096 23.1363 12.6422C23.1602 12.3826 23.2064 12.1253 23.2103 11.8642C23.2103 9.76019 23.2103 7.65622 23.2103 5.55386C23.2103 5.30704 23.1546 5.06501 23.145 4.81899C23.1928 4.68719 23.3123 4.60412 23.4182 4.52185C23.9557 4.13524 24.4749 3.71988 25.0187 3.33887ZM24.3148 3.97788C23.9732 4.24787 23.5854 4.46274 23.274 4.76947C23.208 5.02347 23.2231 5.29026 23.2127 5.55146C23.2127 7.62827 23.2127 9.70507 23.2127 11.7819C23.2127 12.0734 23.2597 12.3658 23.2287 12.6605C23.1717 12.7534 23.1026 12.8383 23.0232 12.9129C21.0802 14.8508 19.15 16.8014 17.2102 18.74C17.141 18.7967 17.0868 18.8697 17.0525 18.9524C17.0182 19.0352 17.0048 19.1252 17.0136 19.2144C17.0088 21.9303 17.0088 24.6461 17.0136 27.3619C17.0072 27.6311 17.0414 27.9051 16.9833 28.1703C16.8575 28.3612 16.6743 28.5034 16.5159 28.6655C14.6159 30.573 12.716 32.4802 10.816 34.3871C10.8048 37.3178 10.816 40.2477 10.8096 43.1784C10.8096 43.315 10.804 43.4747 10.9394 43.5546C11.7723 44.2016 12.6507 44.7887 13.4708 45.4533C14.33 44.8143 15.1948 44.1752 16.0556 43.5362C16.2013 43.4388 16.2021 43.2527 16.2029 43.0961C16.1997 41.2062 16.1997 39.3158 16.2029 37.4248C16.2029 37.1421 16.1703 36.8577 16.2029 36.5765C16.3375 36.3952 16.5215 36.257 16.6759 36.0973C17.6004 35.1611 18.5369 34.2361 19.4582 33.2968C19.5466 33.2361 19.6175 33.0939 19.7417 33.1187C19.9551 33.2744 20.1231 33.4829 20.3118 33.6666C21.2538 34.6132 22.1903 35.5653 23.1435 36.4999C23.2557 36.5869 23.2478 36.7331 23.2422 36.8617C23.2302 37.1285 23.208 37.3961 23.2127 37.6605C23.2215 39.5815 23.2072 41.5034 23.2199 43.4244C24.0711 44.1026 24.9781 44.7064 25.8349 45.3782C25.9265 45.4828 26.0276 45.3638 26.1065 45.3119C26.9386 44.6729 27.8002 44.0682 28.6299 43.4244C28.6299 41.7422 28.6299 40.0605 28.6299 38.3794C28.6299 37.9001 28.6419 37.4208 28.6164 36.9416C28.6164 36.825 28.5965 36.7019 28.6355 36.5917C28.7681 36.4316 28.9121 36.2813 29.0663 36.142C29.8626 35.3432 30.6589 34.5445 31.4552 33.7457C31.6821 33.5116 31.9115 33.28 32.1567 33.0651C33.2397 34.1275 34.3118 35.2016 35.373 36.2874C35.4877 36.3882 35.5916 36.5009 35.6827 36.6237C35.7369 36.8633 35.6979 37.1029 35.6756 37.3426C35.6446 37.6878 35.6356 38.0346 35.6485 38.381C35.6485 39.8981 35.6485 41.4158 35.6485 42.934C35.658 43.1057 35.6389 43.2934 35.7281 43.45C35.9129 43.6433 36.147 43.7791 36.3556 43.9436C37.0364 44.434 37.691 44.9604 38.387 45.4293C39.2732 44.7615 40.189 44.1337 41.0458 43.4276C41.0386 40.4154 41.0577 37.4033 41.0354 34.3911C40.224 33.546 39.3847 32.7297 38.5669 31.8917C38.0342 31.3877 37.5413 30.8446 37.0086 30.3413C36.479 29.7822 35.9153 29.2542 35.3833 28.6967C35.2026 28.5081 34.9892 28.346 34.8506 28.1231C34.8076 27.8436 34.8355 27.5592 34.8299 27.278C34.8299 24.5095 34.8363 21.7418 34.8251 18.9708C34.3561 18.4484 33.8266 17.9859 33.3504 17.4699C32.2555 16.3868 31.1781 15.2845 30.0856 14.2014C29.6707 13.766 29.2415 13.3435 28.8035 12.9305C28.7324 12.8699 28.6733 12.7965 28.6291 12.714C28.6355 10.0781 28.6427 7.44695 28.6291 4.8134C28.2445 4.49788 27.8432 4.20633 27.4395 3.91718C26.929 3.53776 26.4298 3.13997 25.8986 2.78851C25.3763 3.20387 24.8324 3.57371 24.3148 3.97868V3.97788Z" fill="#BBA3A4"/>
<path d="M204.813 12.5225C205.261 12.4848 205.711 12.473 206.161 12.4873C207.567 12.4873 208.974 12.4873 210.381 12.4873C210.671 12.4873 210.962 12.5065 211.253 12.5289C211.313 13.0513 211.28 13.5769 211.287 14.1008C211.287 15.299 211.287 16.4972 211.287 17.6953C212.523 17.7241 213.76 17.7017 214.997 17.7081V17.8016C213.735 17.8016 212.474 17.8016 211.213 17.8016C211.169 16.7016 211.205 15.6001 211.194 14.4994C211.177 13.8764 211.244 13.2478 211.127 12.6311C209.056 12.6311 206.99 12.6367 204.922 12.6311C204.896 12.7746 204.878 12.9194 204.867 13.0648C204.867 19.6946 204.867 26.3244 204.867 32.9542C204.877 33.3305 204.915 33.7059 204.927 34.0821C204.946 34.8337 205.149 35.5692 205.518 36.2236C205.92 36.9082 206.518 37.456 207.234 37.7964C208.232 38.2956 209.361 38.4091 210.459 38.4969C211.599 38.4969 212.747 38.5608 213.883 38.3995C214.254 38.3531 214.628 38.3196 214.997 38.2525V38.3627C214.386 38.425 213.784 38.5776 213.166 38.564C212.21 38.5944 211.255 38.6231 210.299 38.572C209.691 38.576 209.092 38.4698 208.499 38.3507C207.573 38.1383 206.659 37.7309 206.001 37.028C205.387 36.4057 205.017 35.5726 204.886 34.7115C204.736 34.0286 204.787 33.3273 204.779 32.6347C204.779 26.3511 204.779 20.0674 204.779 13.7837C204.763 13.363 204.774 12.9417 204.813 12.5225Z" fill="#BBA3A4"/>
<path d="M58.8844 13.8985C59.3717 13.8002 59.867 13.8425 60.3583 13.8697H65.8528C66.5631 13.8865 67.2742 13.8106 67.9821 13.8929C68.0564 13.9786 68.1147 14.0771 68.1541 14.1836C69.9229 18.5785 71.6976 22.9717 73.4781 27.3633C73.5577 27.5231 73.5697 27.7531 73.7528 27.8386C73.8659 27.4847 74.0029 27.1397 74.1398 26.7954C75.6592 22.7904 77.2 18.7941 78.7241 14.7907C78.8316 14.4789 78.9579 14.1741 79.1024 13.8777C79.5156 13.8377 79.9297 13.8921 80.3446 13.8737C82.6013 13.8689 84.858 13.8737 87.1131 13.8737C87.4316 13.8737 87.7501 13.8018 88.0686 13.8649C88.2136 13.8873 88.2693 14.0454 88.2645 14.1764C88.2645 21.7381 88.2645 29.2998 88.2645 36.8615C88.2645 37.356 88.2558 37.8504 88.2781 38.3448C87.9516 38.4439 87.61 38.4039 87.2755 38.4079C85.6559 38.4079 84.0367 38.4079 82.4181 38.4079C82.1546 38.4039 81.887 38.4303 81.6282 38.3712C81.6068 38.2682 81.5964 38.1633 81.5971 38.0581C81.5971 33.7942 81.5971 29.5304 81.5971 25.2666C81.4068 25.6659 81.2516 26.0869 81.0851 26.4999C79.5873 30.1399 78.1094 33.7878 76.6147 37.4294C76.4881 37.7418 76.3416 38.0469 76.2436 38.3712C75.9412 38.4074 75.6363 38.4197 75.3319 38.4079C73.9782 38.4079 72.6245 38.4079 71.2708 38.4079C71.145 38.3976 71.0088 38.4199 70.8949 38.3608C70.7866 38.1651 70.7189 37.951 70.6306 37.7474C69.099 34.0427 67.5664 30.338 66.0327 26.6333C65.8735 26.253 65.7317 25.8632 65.5398 25.4974C65.5136 26.011 65.5287 26.5246 65.5223 27.0382C65.5223 30.2866 65.5223 33.5349 65.5223 36.7832C65.5223 37.3144 65.5398 37.8456 65.5175 38.3808C65.3639 38.3968 65.211 38.4119 65.0581 38.4167C63.3596 38.4095 61.6603 38.4167 59.9618 38.4127C59.5962 38.4273 59.2301 38.4158 58.8661 38.3784C58.8557 38.0341 58.8557 37.6898 58.8581 37.3456V15.2995C58.8613 14.8314 58.8406 14.3657 58.8844 13.8985ZM58.964 14.0582C58.9808 22.1474 58.964 30.2365 58.9736 38.3257C61.1236 38.3536 63.2736 38.3257 65.4236 38.3384C65.4459 37.9534 65.4363 37.5668 65.4339 37.1818V25.5996C65.4411 25.4495 65.4723 25.3014 65.5263 25.1611C65.6672 25.4415 65.7708 25.7386 65.895 26.027C67.4812 29.8459 69.0523 33.6712 70.6377 37.4902C70.7524 37.7761 70.8687 38.0629 71.0056 38.3392C72.6062 38.3353 74.2067 38.3392 75.8073 38.3392C75.9139 38.3384 76.0203 38.3304 76.1258 38.3153C76.2946 37.9838 76.4093 37.6283 76.5574 37.2873C78.0496 33.6497 79.5379 30.0099 81.0222 26.3681C81.1815 25.9335 81.3925 25.5182 81.5279 25.0749H81.6632C81.6855 25.515 81.6736 25.9535 81.676 26.3976C81.676 30.3766 81.676 34.3555 81.676 38.3345C83.8207 38.3345 85.9646 38.3345 88.1077 38.3345C88.126 37.8696 88.1077 37.4047 88.1148 36.9398C88.1148 29.8041 88.1148 22.6684 88.1148 15.5327C88.1148 15.0327 88.1093 14.5327 88.1212 14.0326C87.7637 13.9528 87.3966 13.9991 87.035 13.9895C84.4176 13.9831 81.801 14.0015 79.1844 13.9807C79.0696 14.1894 78.9718 14.4072 78.8921 14.6317C78.6899 15.2148 78.4589 15.7875 78.236 16.3635C76.9619 19.7183 75.6807 23.0705 74.3923 26.42C74.2115 26.9368 73.9766 27.4352 73.8349 27.9648L73.5745 27.9568C73.4948 27.5998 73.3228 27.2747 73.1954 26.9344C71.7313 23.3202 70.2693 19.7045 68.8094 16.0871C68.5236 15.3858 68.2608 14.6741 67.9415 13.9863C65.07 13.9916 62.1988 13.9916 59.3279 13.9863C59.2034 13.991 59.0803 14.0152 58.9632 14.0582H58.964Z" fill="#BBA3A4"/>
<path d="M22.5353 20.9699C23.6318 19.8788 24.7291 18.7893 25.8113 17.6846C25.9323 17.7045 26.0677 17.7133 26.1458 17.8252C26.6036 18.3236 27.1133 18.7717 27.5711 19.2717C28.042 19.7302 28.5073 20.1943 28.967 20.664C29.1526 20.8725 29.4751 21.0418 29.44 21.3661C29.4241 23.6434 29.4552 25.9191 29.4241 28.1988C28.4845 29.1198 27.5671 30.0631 26.6371 30.9945C26.4133 31.2086 26.2182 31.4546 25.9714 31.6439C25.8432 31.6726 25.7731 31.5464 25.6871 31.4801C24.7379 30.5128 23.776 29.5583 22.8204 28.5982C22.6803 28.452 22.5154 28.325 22.4079 28.1517C22.431 26.1587 22.4135 24.1634 22.4191 22.1697C22.427 21.8502 22.3856 21.5307 22.4071 21.2111C22.3984 21.1081 22.4788 21.0394 22.5353 20.9699ZM25.402 18.2493C24.4348 19.2169 23.4683 20.1855 22.5027 21.1552C22.4547 21.4095 22.4281 21.6673 22.4231 21.926C22.4231 23.8431 22.4231 25.7601 22.4231 27.6772C22.4231 27.8617 22.4231 28.0686 22.5712 28.2036C23.6756 29.3299 24.8104 30.4266 25.9045 31.5624C26.2628 31.2501 26.5821 30.897 26.9174 30.5616C27.7352 29.758 28.5346 28.9345 29.3485 28.1269C29.3588 25.8105 29.3532 23.494 29.3485 21.1728C28.257 20.079 27.1671 18.9855 26.0789 17.8923C26.0556 17.8629 26.0264 17.8387 25.9932 17.8214C25.96 17.804 25.9235 17.7939 25.8862 17.7916C25.7006 17.917 25.5613 18.0927 25.402 18.2493Z" fill="#BBA3A4"/>
<path d="M97.5464 17.7447C98.3427 17.7064 99.1453 17.6984 99.9448 17.7327C101.748 17.8698 103.468 18.5484 104.882 19.6801C106.858 21.2521 108.054 23.6476 108.494 26.1078C108.534 26.4457 108.601 26.7796 108.648 27.1167C108.702 28.0656 108.695 29.0186 108.659 29.9683C108.663 30.0203 108.654 30.0725 108.632 30.12C108.611 30.1675 108.578 30.2088 108.536 30.2399C108.218 30.2862 107.899 30.2551 107.581 30.259C103.44 30.259 99.299 30.259 95.1583 30.259C95.1539 30.5322 95.1896 30.8046 95.2642 31.0674C95.4234 31.7064 95.691 32.3534 96.1863 32.8071C96.7079 33.296 97.4078 33.5404 98.0974 33.6554C98.7061 33.7246 99.3208 33.7219 99.9289 33.6474C100.552 33.5156 101.164 33.2624 101.649 32.8399C101.776 32.7384 101.905 32.605 102.084 32.6242C103.648 32.617 105.213 32.6242 106.782 32.6194C107.208 32.6194 107.635 32.613 108.061 32.6378C108.077 32.7799 108.054 32.9235 107.996 33.0539C107.686 33.7153 107.393 34.3895 106.981 34.9958C106.5 35.7428 105.904 36.4087 105.216 36.9687C104.031 37.8905 102.596 38.4481 101.128 38.7108C100.757 38.7636 100.392 38.8706 100.013 38.853C99.4806 38.8155 98.951 38.9481 98.4207 38.877C98.0226 38.8243 97.6244 38.881 97.2263 38.8291C96.43 38.6909 95.64 38.5367 94.8828 38.2595C93.8078 37.849 92.7742 37.2922 91.9205 36.5118C90.2945 35.1036 89.2745 33.0907 88.8309 31.0003C88.7632 30.5586 88.6486 30.1217 88.643 29.6735C88.4479 27.7078 88.6589 25.6757 89.4313 23.8465C90.2587 21.7529 91.8576 19.9916 93.8269 18.9205C94.788 18.4085 95.8232 18.0187 96.903 17.8525C97.1204 17.819 97.3298 17.7671 97.5464 17.7447ZM97.626 17.8565C97.2279 17.9316 96.813 17.9364 96.422 18.0578C94.755 18.4324 93.2139 19.2357 91.95 20.3886C90.437 21.7633 89.4234 23.6412 88.9774 25.6302C88.8652 26.0296 88.85 26.4481 88.7608 26.8531C88.6326 28.2629 88.6525 29.6991 88.9703 31.0826C89.3283 32.8237 90.134 34.4407 91.3074 35.773C92.8339 37.4328 94.995 38.4488 97.2223 38.6925C97.591 38.7657 97.966 38.8029 98.3419 38.8035C99.0331 38.7915 99.7314 38.8514 100.412 38.7013C102.069 38.5295 103.707 37.9616 105.053 36.9631C106.178 36.0949 107.037 34.9119 107.614 33.6171C107.745 33.3311 107.899 33.0531 107.979 32.7464C106.004 32.7528 104.029 32.7464 102.054 32.7504C101.901 32.7352 101.795 32.8574 101.685 32.9413C101.253 33.3006 100.747 33.5587 100.203 33.697C99.6191 33.8016 99.0195 33.9366 98.4279 33.8016C97.6117 33.7169 96.7636 33.4861 96.1505 32.9094C95.5389 32.375 95.2419 31.5746 95.0978 30.7934C95.0611 30.5778 94.9815 30.3493 95.058 30.1328C95.2761 30.11 95.4957 30.1036 95.7149 30.1137C99.8819 30.1137 104.049 30.1089 108.217 30.1137C108.335 30.1017 108.495 30.1504 108.557 30.0114C108.606 29.5561 108.59 29.096 108.597 28.6391C108.586 28.1335 108.622 27.6223 108.517 27.1215C108.278 24.7148 107.369 22.3113 105.675 20.5548C104.254 19.0551 102.35 18.1078 100.3 17.8805C99.7872 17.7655 99.2592 17.8006 98.7384 17.795C98.3697 17.8062 97.9939 17.7798 97.626 17.8565Z" fill="#BBA3A4"/>
<path d="M116.578 17.7416C117.348 17.6949 118.121 17.6949 118.892 17.7416C119.722 17.8678 120.551 18.0739 121.302 18.4605C121.83 18.7169 122.285 19.0931 122.735 19.4661C122.815 19.0915 122.79 18.7097 122.783 18.3311C122.817 18.1777 122.984 18.1897 123.107 18.1873C124.753 18.1929 126.4 18.1873 128.044 18.1873C128.341 18.1929 128.642 18.1569 128.935 18.2161C129.068 18.5276 129.01 18.875 129.021 19.2033C129.017 24.6616 129.017 30.1199 129.021 35.5782C129.021 36.0574 129.044 36.5415 128.985 37.0199C128.915 37.6054 128.905 38.1981 128.771 38.7772C128.546 40.2879 127.849 41.6881 126.78 42.7759C125.937 43.6322 124.885 44.2472 123.794 44.7289C122.865 45.1131 121.873 45.3056 120.884 45.4478C120.111 45.4645 119.346 45.6171 118.575 45.59C118.038 45.6123 117.513 45.4845 116.982 45.4598C115.184 45.2361 113.399 44.625 111.965 43.478C111.447 43.0155 110.95 42.5195 110.571 41.9324C110.183 41.3525 109.905 40.7055 109.753 40.0241C109.584 39.4514 109.642 38.8459 109.514 38.2668C109.609 38.2192 109.711 38.1877 109.816 38.1734C111.822 38.1734 113.83 38.1861 115.835 38.167C115.914 38.3062 115.972 38.4564 116.007 38.6127C116.087 39.0383 116.263 39.4401 116.521 39.7877C116.766 40.116 117.137 40.3245 117.512 40.4706C117.888 40.6168 118.274 40.7294 118.677 40.7382C119.405 40.755 120.163 40.7949 120.853 40.5114C121.625 40.2478 122.14 39.5417 122.434 38.8092C122.571 38.4677 122.657 38.1074 122.688 37.7404C122.727 37.1973 122.867 36.6485 122.743 36.1069C121.805 36.9417 120.62 37.4529 119.399 37.7045C119.008 37.8155 118.603 37.8147 118.2 37.8538C117.552 37.9066 116.905 37.8395 116.26 37.7931C114.749 37.6167 113.32 37.0066 112.146 36.0358C110.903 34.9919 110.033 33.5461 109.566 31.9973C109.372 31.3709 109.23 30.7298 109.14 30.0802C109.079 29.815 109.044 29.5446 109.035 29.2727C109.03 28.8461 108.979 28.422 108.964 27.9946C108.94 27.3804 109.024 26.7701 109.044 26.1574C109.177 25.1429 109.431 24.1479 109.798 23.1932C110.464 21.495 111.615 19.963 113.157 18.9725C114.187 18.3023 115.358 17.881 116.578 17.7416ZM116.449 17.8814C115.034 18.026 113.697 18.645 112.58 19.5133C112.159 19.861 111.767 20.2434 111.409 20.6563C110.28 22.0206 109.584 23.7092 109.271 25.4449C109.226 25.8731 109.112 26.2916 109.1 26.723C109.049 27.5905 109.061 28.4606 109.138 29.3262C109.217 29.7783 109.248 30.2392 109.357 30.6841C109.675 32.4302 110.407 34.134 111.641 35.4264C112.792 36.6012 114.29 37.3729 115.913 37.627C116.341 37.7143 116.777 37.7595 117.214 37.762C117.864 37.7732 118.522 37.7828 119.161 37.6382C120.509 37.4097 121.814 36.8394 122.824 35.9048C122.874 36.2755 122.855 36.6501 122.854 37.0231C122.854 37.3362 122.854 37.6542 122.774 37.9601C122.63 38.77 122.29 39.5776 121.673 40.1383C121.355 40.4411 120.943 40.6104 120.532 40.7382C119.846 40.8908 119.128 40.9778 118.433 40.8285C117.969 40.7652 117.519 40.6236 117.102 40.4099C116.487 40.0856 116.086 39.4466 115.933 38.7804C115.892 38.5993 115.823 38.4261 115.726 38.2676C113.833 38.2812 111.939 38.2716 110.046 38.2716C109.921 38.2786 109.797 38.2954 109.675 38.3219C109.647 39.3731 109.876 40.4153 110.342 41.3573C111.091 42.7687 112.368 43.8526 113.818 44.4908C114.862 44.9781 115.999 45.2145 117.132 45.3799C118.291 45.4727 119.455 45.4684 120.613 45.3671C121.086 45.276 121.569 45.2625 122.041 45.1386C123.455 44.8507 124.787 44.2477 125.938 43.3742C127.3 42.331 128.293 40.7853 128.593 39.0856C128.764 38.301 128.857 37.5011 128.869 36.698V19.2049C128.863 18.8974 128.909 18.5811 128.806 18.2848C126.839 18.3007 124.873 18.2919 122.907 18.2895C122.797 18.7552 122.907 19.2361 122.828 19.7058C122.495 19.4326 122.191 19.1243 121.827 18.8902C121.136 18.415 120.332 18.1386 119.518 17.9573C119.04 17.891 118.572 17.7767 118.089 17.7975C117.541 17.8127 116.986 17.76 116.447 17.8814H116.449Z" fill="#BBA3A4"/>
<path d="M137.589 17.8198C138.09 17.7112 138.604 17.7399 139.113 17.72C139.803 17.6896 140.493 17.7383 141.183 17.7351C141.683 17.7232 142.167 17.8765 142.666 17.8949C143.72 18.0392 144.743 18.36 145.692 18.8438C146.416 19.2496 147.093 19.768 147.597 20.4358C148.184 21.2084 148.514 22.1467 148.541 23.1181C148.558 23.3864 148.603 23.6532 148.608 23.9232C148.608 26.5592 148.608 29.1951 148.608 31.831C148.608 32.2848 148.625 32.7409 148.582 33.1938C148.547 33.5564 148.618 33.9166 148.627 34.2785C148.697 35.6452 148.672 37.0143 148.663 38.3818C148.214 38.4345 147.763 38.4049 147.314 38.4097C146.04 38.4097 144.766 38.4057 143.492 38.4137C143.346 38.4087 143.2 38.3919 143.057 38.3634C143.387 38.3376 143.719 38.3301 144.05 38.341C145.552 38.341 147.054 38.341 148.557 38.341C148.567 37.555 148.561 36.7699 148.562 35.9847C148.562 35.5597 148.576 35.1316 148.515 34.7066C148.448 34.2274 148.479 33.7393 148.468 33.2561C148.468 30.0913 148.468 26.9263 148.468 23.7611C148.501 22.7882 148.309 21.7849 147.815 20.9406C147.261 20.062 146.479 19.352 145.552 18.8878C144.563 18.3845 143.475 18.1002 142.378 17.9628C142.004 17.9236 141.629 17.8997 141.258 17.847C140.78 17.7775 140.302 17.8038 139.825 17.7966C139.294 17.7966 138.761 17.7743 138.232 17.8534C137.77 17.9197 137.302 17.9332 136.847 18.0355C135.399 18.2647 133.973 18.7791 132.791 19.661C131.835 20.4094 131.026 21.3879 130.633 22.5493C130.465 23.0288 130.35 23.5255 130.291 24.0303C130.221 24.4279 130.197 24.8324 130.221 25.2356C132.291 25.2356 134.361 25.2356 136.432 25.2356C136.503 24.6213 136.547 23.9727 136.868 23.4272C137.07 23.0756 137.385 22.8036 137.761 22.6564C138.558 22.2937 139.453 22.3536 140.301 22.4103C140.899 22.4591 141.568 22.65 141.916 23.1788C142.229 23.646 142.221 24.2355 142.175 24.7763C142.107 25.1126 141.776 25.3035 141.498 25.4473C140.83 25.7516 140.095 25.8666 139.374 25.9665C139.048 26.0204 138.719 26.0561 138.389 26.0735C136.833 26.266 135.27 26.4729 133.77 26.9418C132.87 27.2285 132.009 27.6774 131.311 28.3228C130.531 29.0945 129.949 30.0953 129.774 31.1888C129.707 31.6681 129.629 32.1434 129.625 32.6266C129.64 33.0189 129.678 33.4099 129.74 33.7976C129.834 34.534 130.078 35.2431 130.457 35.8808C130.836 36.5184 131.342 37.0709 131.943 37.5039C132.827 38.1429 133.882 38.5088 134.954 38.6637C136.507 38.9401 138.11 38.8011 139.634 38.4241C140.568 38.2185 141.451 37.8298 142.234 37.2803C142.343 37.2236 142.473 37.0846 142.601 37.1732C142.708 37.5774 142.8 37.9872 142.972 38.3714L142.835 38.3147C142.676 37.98 142.603 37.6126 142.526 37.2531C142.307 37.3725 142.094 37.5032 141.889 37.6445C140.865 38.2556 139.696 38.5743 138.528 38.7628C138.249 38.8295 137.964 38.8614 137.678 38.8578C137.226 38.8514 136.775 38.9193 136.324 38.8882C135.815 38.8554 135.297 38.8834 134.799 38.7492C133.622 38.5607 132.472 38.1014 131.55 37.3338C131.152 36.9881 130.8 36.5921 130.503 36.1556C130.07 35.4856 129.78 34.7323 129.654 33.9438C129.504 33.3567 129.581 32.7456 129.558 32.1506C129.553 31.845 129.589 31.5402 129.664 31.244C129.898 29.6256 130.979 28.1895 132.402 27.4162C133.653 26.7213 135.086 26.4841 136.474 26.2181C136.817 26.1382 137.175 26.1606 137.518 26.0719C137.911 25.9681 138.325 26.0272 138.722 25.9369C138.929 25.8889 139.14 25.8608 139.352 25.853C139.751 25.8411 140.139 25.7101 140.536 25.6534C141.019 25.5351 141.532 25.393 141.904 25.0415C142.233 24.686 142.115 24.1557 142.026 23.7291C141.98 23.4931 141.873 23.2734 141.716 23.0919C141.558 22.9104 141.356 22.7734 141.13 22.6947C140.606 22.5298 140.058 22.4547 139.509 22.4726C138.922 22.4413 138.335 22.5406 137.791 22.7634C137.549 22.8691 137.333 23.0261 137.157 23.2235C136.981 23.4209 136.849 23.6542 136.772 23.9072C136.607 24.3546 136.682 24.8538 136.503 25.2955C136.42 25.3168 136.334 25.3273 136.249 25.3267C134.522 25.3195 132.796 25.3267 131.073 25.3227C130.772 25.3187 130.469 25.3466 130.171 25.3035C130.102 25.1158 130.141 24.9121 130.145 24.718C130.162 23.2291 130.667 21.7194 131.665 20.6003C132.423 19.7157 133.384 19.0302 134.466 18.6034C135.455 18.1753 136.521 17.9468 137.589 17.8198Z" fill="#BBA3A4"/>
<path d="M159.737 17.7533C160.532 17.6991 161.33 17.6941 162.126 17.7381C163.263 17.8492 164.366 18.194 165.364 18.7511C166.363 19.3082 167.237 20.0657 167.931 20.9764C168.74 22.0479 169.329 23.2696 169.664 24.5708C169.715 24.7865 169.841 25.011 169.734 25.2314C169.588 24.6946 169.451 24.1531 169.257 23.6339C168.774 22.3239 168.034 21.097 167.027 20.1273C165.837 18.9882 164.313 18.1791 162.679 17.9378C162.102 17.829 161.515 17.7835 160.927 17.802C160.301 17.7677 159.683 17.8819 159.071 17.9985C158.264 18.2038 157.46 18.4826 156.769 18.9571C156.451 19.1809 156.148 19.4262 155.862 19.6911C155.739 19.2366 155.815 18.7638 155.782 18.2997C153.794 18.2997 151.806 18.2997 149.817 18.2997C149.787 18.8428 149.805 19.3868 149.802 19.9308V43.2549C149.802 43.8244 149.792 44.3939 149.811 44.9635C151.885 44.9597 153.958 44.9597 156.033 44.9635C156.056 44.767 156.086 44.5713 156.091 44.3732C156.08 42.4298 156.091 40.4863 156.091 38.5421C156.098 38.0046 156.069 37.4662 156.108 36.9294C156.529 37.2489 156.932 37.5948 157.398 37.8456C158.175 38.2734 159.021 38.5608 159.898 38.6947C160.524 38.8281 161.166 38.8105 161.803 38.8009C162.209 38.7898 162.607 38.7051 163.007 38.6412C164.311 38.4067 165.533 37.8404 166.556 36.9965C167.81 35.9925 168.72 34.6002 169.28 33.1041C169.469 32.6248 169.582 32.1232 169.734 31.6336C169.825 31.8732 169.703 32.108 169.645 32.3365C169.293 33.5897 168.7 34.7621 167.901 35.788C166.685 37.3288 164.908 38.4303 162.971 38.7594C162.721 38.8261 162.462 38.8578 162.203 38.8537C161.776 38.8441 161.353 38.9208 160.929 38.8832C160.505 38.8457 160.086 38.8832 159.68 38.765C158.775 38.5993 157.907 38.272 157.118 37.7985C156.771 37.5924 156.465 37.328 156.149 37.0796C156.115 37.6715 156.134 38.265 156.13 38.8576C156.13 40.9017 156.125 42.9458 156.134 44.989C156.013 45.0335 155.883 45.053 155.754 45.0465C154.082 45.0401 152.409 45.0465 150.737 45.0465C150.373 45.0417 150.008 45.0745 149.649 45.0066C149.665 40.0023 149.649 34.9988 149.656 29.9945C149.656 26.0853 149.661 22.1761 149.656 18.2669C149.773 18.2256 149.896 18.2014 150.02 18.195C151.852 18.195 153.683 18.195 155.515 18.195C155.63 18.1942 155.744 18.2059 155.857 18.2302C155.923 18.6463 155.865 19.0697 155.887 19.4883C156.318 19.1759 156.722 18.8221 157.198 18.5761C157.995 18.1674 158.852 17.8896 159.737 17.7533Z" fill="#BBA3A4"/>
<path d="M179.644 17.7327C180.395 17.7039 181.147 17.6983 181.899 17.7327C182.357 17.7159 182.801 17.8477 183.253 17.9028C185.596 18.3477 187.828 19.6074 189.245 21.5564C190.36 23.0501 190.988 24.8713 191.21 26.7149C191.226 27.0623 191.226 27.4114 191.275 27.7573C191.335 28.2086 191.297 28.6639 191.257 29.1152C191.247 29.2359 191.218 29.3541 191.169 29.465C191.126 28.4881 191.237 27.5009 191.065 26.5328C190.862 24.8729 190.291 23.2466 189.341 21.8663C187.868 19.6913 185.396 18.3166 182.828 17.9428C182.43 17.8996 182.036 17.8142 181.633 17.8046C181.156 17.7961 180.678 17.7961 180.2 17.8046C179.722 17.8046 179.245 17.91 178.771 17.9643C176.668 18.3126 174.641 19.3063 173.197 20.8934C171.592 22.6348 170.75 24.9887 170.615 27.3355C170.603 27.77 170.523 28.2038 170.564 28.6391C170.604 29.1184 170.632 29.5976 170.682 30.0769C170.864 31.7228 171.437 33.3007 172.354 34.6778C173.301 36.0828 174.625 37.1904 176.172 37.8729C176.952 38.2169 177.77 38.4653 178.609 38.6126C179.191 38.6853 179.771 38.8083 180.361 38.8035C180.811 38.8035 181.262 38.8131 181.715 38.7931C182.584 38.7148 183.446 38.5684 184.293 38.3554C184.245 38.4335 184.169 38.4906 184.08 38.5151C183.775 38.5999 183.464 38.6663 183.15 38.714C182.777 38.7611 182.412 38.8778 182.036 38.8578C181.503 38.8274 180.973 38.9377 180.443 38.8833C179.99 38.8298 179.528 38.8977 179.08 38.8035C178.71 38.7236 178.33 38.6956 177.965 38.5878C176.54 38.2639 175.206 37.6214 174.063 36.7083C173.151 35.995 172.418 35.0716 171.849 34.0668C171.305 33.1023 170.921 32.0556 170.713 30.9675C170.608 30.5618 170.594 30.1416 170.523 29.731C170.443 29.2382 170.463 28.7374 170.46 28.2397C170.46 27.8148 170.445 27.3866 170.517 26.9665C170.562 26.6989 170.597 26.4297 170.626 26.1605C170.935 24.2339 171.726 22.3552 173.043 20.9022C174.714 19.0195 177.168 17.9484 179.644 17.7327Z" fill="#BBA3A4"/>
<path d="M201.915 17.8208C202.444 17.6874 202.993 17.7186 203.535 17.7154C203.694 17.7394 203.919 17.6842 204.025 17.8488C204.134 18.1827 204.093 18.5421 204.099 18.8872C204.099 20.432 204.092 21.9776 204.105 23.5201C204.115 23.6818 204.068 23.8419 203.97 23.9714C203.413 23.8052 202.832 23.8228 202.26 23.826C201.831 23.826 201.413 23.929 200.998 24.0209C200.166 24.2645 199.397 24.7909 198.946 25.5433C198.533 26.1888 198.309 26.942 198.226 27.7C198.189 27.9301 198.117 28.1561 198.113 28.391C198.095 31.7186 198.117 35.0463 198.102 38.3756C197.816 38.4054 197.529 38.4161 197.242 38.4076C195.808 38.4076 194.375 38.4076 192.942 38.4076C192.496 38.4028 192.049 38.4283 191.605 38.3812C191.599 32.1763 191.599 25.9726 191.605 19.7698C191.613 19.2514 191.581 18.7314 191.629 18.2138C192.199 18.1803 192.77 18.201 193.342 18.1955C194.822 18.1994 196.304 18.1891 197.785 18.201C197.805 18.8672 197.762 19.5358 197.828 20.198C198.054 19.9983 198.255 19.773 198.476 19.5661C199.451 18.6932 200.636 18.0915 201.915 17.8208ZM202.209 17.8831C200.941 18.0916 199.75 18.6341 198.759 19.4551C198.406 19.7451 198.122 20.1085 197.777 20.4072C197.711 19.7067 197.777 19.0022 197.743 18.3001C196.01 18.2953 194.278 18.3001 192.545 18.3001C192.301 18.3001 192.058 18.2865 191.817 18.3105L191.721 18.4047C191.696 18.7242 191.721 19.0501 191.714 19.3728C191.714 25.6927 191.714 32.0123 191.714 38.3317C193.809 38.3524 195.904 38.3405 197.998 38.3373C198.006 35.5304 197.998 32.7235 198.002 29.9174C198.007 29.4382 197.987 28.9549 198.034 28.4756C198.074 27.4372 198.303 26.3693 198.866 25.4778C199.385 24.6359 200.28 24.0656 201.237 23.8571C202.136 23.6535 203.068 23.7565 203.977 23.8068C203.994 22.1422 203.969 20.4783 203.989 18.8145C203.989 18.4806 203.989 18.1395 203.87 17.8232C203.317 17.8033 202.752 17.7505 202.209 17.8831Z" fill="#BBA3A4"/>
<path d="M50.6445 18.1548C50.7238 18.3223 50.7775 18.5008 50.8038 18.6844C50.7318 18.5141 50.6784 18.3366 50.6445 18.1548Z" fill="#BBA3A4"/>
<path d="M50.8101 18.7158C50.8886 18.8882 50.9565 19.0654 51.0131 19.2462C51.3308 20.445 51.5667 21.6641 51.7194 22.895C51.7322 23.5668 51.9583 24.2321 51.8166 24.9031C51.7067 24.1099 51.7091 23.3056 51.5721 22.5148C51.4398 21.48 51.2362 20.4557 50.9629 19.4491C50.9008 19.2071 50.8547 18.961 50.8101 18.7158Z" fill="#BBA3A4"/>
<path d="M97.8583 22.8647C98.4452 22.8127 99.0358 22.8161 99.6221 22.8751C100.094 22.9806 100.578 23.1379 100.942 23.471C101.454 23.9055 101.748 24.5302 101.989 25.1436C102.069 25.3297 102.069 25.535 102.077 25.7339C99.7508 25.7408 97.4248 25.7408 95.0991 25.7339C95.1005 25.6047 95.1112 25.4758 95.131 25.3481C95.4399 24.0733 96.5707 23.0596 97.8583 22.8647ZM96.5149 23.5261C95.7927 23.999 95.3205 24.797 95.1732 25.6397C97.4434 25.6357 99.7121 25.6269 101.983 25.6437C101.981 25.5224 101.963 25.402 101.928 25.2858C101.714 24.6963 101.438 24.1124 101 23.6563C100.379 23.0748 99.4867 22.8855 98.6609 22.919C97.9077 22.9007 97.1321 23.0796 96.5149 23.5261Z" fill="#BBA3A4"/>
<path d="M118.243 22.8673C118.64 22.8287 119.039 22.8193 119.437 22.8393C120.51 22.8393 121.542 23.4863 122.065 24.4193C122.208 24.6709 122.365 24.9289 122.391 25.2253C122.134 24.8315 121.97 24.3794 121.66 24.0215C121.125 23.3569 120.293 22.9831 119.452 22.928C118.975 22.9056 118.482 22.8984 118.019 23.0382C117.284 23.2347 116.659 23.7499 116.261 24.3961C115.649 25.2868 115.533 26.3931 115.437 27.4395C115.407 27.8684 115.49 28.2925 115.527 28.7175C115.593 29.5402 115.793 30.3685 116.222 31.0811C116.642 31.8167 117.356 32.3998 118.188 32.5899C118.71 32.6622 119.239 32.6622 119.76 32.5899C120.249 32.4918 120.71 32.2868 121.111 31.9893C121.511 31.6919 121.841 31.3095 122.078 30.8694C122.497 30.1705 122.68 29.3573 122.733 28.5529C122.813 27.9315 122.705 27.3101 122.673 26.6894C122.64 26.1926 122.446 25.7261 122.398 25.2317C122.684 25.6981 122.705 26.2701 122.79 26.7964C122.87 27.1647 122.853 27.5425 122.863 27.9147C122.895 29.0011 122.666 30.1169 122.098 31.0515C121.633 31.8143 120.886 32.415 120.018 32.6427C119.354 32.7988 118.663 32.7988 117.999 32.6427C117.34 32.4637 116.78 32.0188 116.365 31.4852C115.883 30.8072 115.578 30.0192 115.476 29.1928C115.425 28.8477 115.342 28.5042 115.354 28.1544C115.359 27.5641 115.311 26.9658 115.445 26.3859C115.554 25.5999 115.806 24.8195 116.277 24.1741C116.741 23.5022 117.445 23.0345 118.243 22.8673Z" fill="#BBA3A4"/>
<path d="M159.368 22.8386C159.786 22.8152 160.205 22.8262 160.621 22.8714C161.103 22.9612 161.555 23.1671 161.94 23.4713C162.87 24.1686 163.379 25.2901 163.606 26.4068C163.65 26.6943 163.702 26.9819 163.75 27.2694C163.796 27.7231 163.76 28.1808 163.772 28.6361C163.78 29.0731 163.783 29.5148 163.679 29.9413C163.571 30.8383 163.289 31.7314 162.75 32.4646C162.298 33.0358 161.693 33.5102 160.982 33.6971C160.701 33.7554 160.418 33.7994 160.137 33.8457C159.76 33.8968 159.388 33.8066 159.022 33.7499C158.254 33.6292 157.571 33.1747 157.069 32.5932C156.511 31.9279 156.224 31.082 156.053 30.2417C155.98 29.9517 155.942 29.6541 155.938 29.355C155.853 28.6921 155.853 28.021 155.938 27.3581C156.017 26.0257 156.393 24.5943 157.426 23.6789C157.948 23.1679 158.639 22.8686 159.368 22.8386ZM159.447 22.9233C159.149 22.9468 158.855 23.0055 158.571 23.0982C157.987 23.2868 157.491 23.6853 157.101 24.1518C156.518 24.9011 156.209 25.8332 156.103 26.7694C155.971 27.275 156.005 27.7998 155.998 28.3166C156.003 28.815 155.964 29.3215 156.092 29.8103C156.191 30.514 156.362 31.2186 156.699 31.8496C157.177 32.8017 158.113 33.539 159.18 33.6724C159.941 33.7315 160.746 33.7483 161.451 33.408C162.442 32.9167 163.124 31.9319 163.388 30.8703C163.453 30.5508 163.547 30.2409 163.574 29.9166C163.601 29.4373 163.721 28.958 163.74 28.4788C163.753 27.9668 163.617 27.4675 163.581 26.9611C163.55 26.5713 163.441 26.1951 163.346 25.8189C163.056 24.8116 162.448 23.8555 161.527 23.3235C160.9 22.9505 160.155 22.8794 159.445 22.9249L159.447 22.9233Z" fill="#BBA3A4"/>
<path d="M180.037 22.8659C180.434 22.8303 180.833 22.8202 181.231 22.8356C182.212 22.8356 183.158 23.338 183.771 24.0968C184.396 24.8884 184.698 25.8877 184.806 26.8797C184.931 27.4309 184.87 27.998 184.885 28.5572C184.885 28.9805 184.899 29.4102 184.806 29.8264C184.698 30.741 184.413 31.6516 183.884 32.4112C183.379 33.0854 182.638 33.6094 181.797 33.7404C181.426 33.7939 181.054 33.885 180.678 33.8538C180.462 33.8346 180.251 33.7899 180.041 33.7588C179.244 33.6621 178.521 33.2092 178.015 32.5957C177.479 31.9168 177.161 31.0845 177.014 30.2362C176.881 29.7146 176.928 29.1722 176.839 28.6442C176.774 28.1873 176.896 27.736 176.907 27.2799C176.916 26.8007 177.022 26.3326 177.134 25.8701C177.373 24.9643 177.829 24.0737 178.594 23.5065C178.873 23.3124 179.156 23.0768 179.51 23.0536C179.16 23.2933 178.761 23.4666 178.448 23.7597C177.908 24.239 177.551 24.8956 177.329 25.5777C177.053 26.518 176.932 27.4971 176.971 28.4765C176.958 29.2387 177.046 29.9993 177.231 30.7386C177.421 31.4495 177.736 32.1436 178.234 32.6908C178.769 33.2673 179.499 33.622 180.281 33.6853C180.654 33.7104 181.028 33.7104 181.401 33.6853C181.868 33.6549 182.323 33.5225 182.734 33.2973C183.145 33.0721 183.502 32.7596 183.78 32.3817C184.383 31.5238 184.656 30.475 184.736 29.439C184.776 28.9853 184.879 28.5324 184.839 28.0747C184.799 27.6849 184.731 27.2975 184.702 26.9069C184.596 25.8589 184.261 24.7949 183.55 23.9986C182.891 23.2637 181.896 22.8803 180.922 22.9154C180.445 22.8803 179.984 23.0113 179.514 23.0496C179.67 22.944 179.85 22.8807 180.037 22.8659Z" fill="#BBA3A4"/>
<path d="M211.196 25.3609C211.202 24.7659 211.179 24.17 211.216 23.5757C212.478 23.5757 213.739 23.5757 215 23.5757V23.6683C213.763 23.6979 212.525 23.6604 211.287 23.6875C211.287 26.2968 211.287 28.9045 211.287 31.5107C211.287 31.958 211.254 32.4277 211.44 32.847C211.526 33.0595 211.772 33.1322 211.977 33.1817C212.422 33.2568 212.877 33.2232 213.33 33.224C213.897 33.224 214.445 33.0531 215.003 32.9948V33.1082C214.793 33.1273 214.584 33.159 214.378 33.2033C213.954 33.2975 213.519 33.3031 213.091 33.3566C212.767 33.3942 212.446 33.3287 212.126 33.2991C211.877 33.2688 211.598 33.2288 211.427 33.0259C211.17 32.6841 211.224 32.232 211.204 31.8278C211.19 29.6735 211.199 27.5168 211.196 25.3609Z" fill="#BBA3A4"/>
<path d="M169.742 25.2515C169.901 25.3737 169.911 25.575 169.934 25.7579C169.97 26.1333 170.093 26.496 170.093 26.8762C170.083 27.3554 170.206 27.8347 170.202 28.314C170.202 28.6592 170.181 29.0042 170.138 29.3468C170.083 29.838 170.121 30.3404 169.987 30.8213C169.902 31.0857 170 31.4372 169.748 31.6201C169.843 31.1296 169.907 30.6344 169.987 30.1407C170.072 29.5896 170.051 29.0313 170.058 28.4761C170.047 27.917 170.07 27.3618 169.988 26.8107C169.914 26.2891 169.829 25.7699 169.742 25.2515Z" fill="#BBA3A4"/>
<path d="M51.8491 25.4888C51.8909 25.8016 51.8909 26.1185 51.8491 26.4313C51.8029 26.1188 51.8029 25.8012 51.8491 25.4888Z" fill="#BBA3A4"/>
<path d="M51.5609 29.625C51.7043 28.7863 51.7202 27.9332 51.8181 27.0889C51.9352 27.6304 51.8094 28.1752 51.7576 28.7152C51.6923 29.6665 51.51 30.6043 51.322 31.538C51.2273 31.9749 51.1548 32.4231 50.9629 32.8312C51.0218 32.3248 51.1771 31.8376 51.2735 31.3383C51.3865 30.7704 51.4845 30.1993 51.5609 29.625Z" fill="#BBA3A4"/>
<path d="M0 27.6416C0.199074 28.0777 0.125019 28.5626 0.148111 29.0259C0.12111 28.8017 0.0714845 28.581 0 28.3669L0 27.6416Z" fill="#BBA3A4"/>
<path d="M0.152345 29.0752C0.283734 29.4179 0.306827 29.7845 0.349827 30.1455C1.13156 34.9977 3.26632 39.5288 6.50731 43.2151C9.74831 46.9014 13.9632 49.5923 18.6646 50.9767C18.8239 51.027 18.9832 51.0893 19.1424 51.1468C18.9766 51.1311 18.8119 51.1044 18.6495 51.067C14.748 49.9256 11.1692 47.8788 8.2029 45.0922C7.29433 44.2199 6.41362 43.3141 5.63644 42.3204C2.73981 38.6986 0.863689 34.3643 0.203308 29.7685C0.165721 29.5394 0.148666 29.3074 0.152345 29.0752Z" fill="#BBA3A4"/>
<path d="M138.668 30.1296C139.843 29.9435 141.045 29.8612 142.178 29.4658C142.202 29.8277 142.19 30.1903 142.196 30.5537C142.212 31.4052 142.047 32.2911 141.565 33.0068C141.076 33.6586 140.321 34.1314 139.502 34.1961C138.909 34.3048 138.301 34.3048 137.708 34.1961C137.055 34.1474 136.341 33.8439 136.069 33.2049C135.939 32.8055 135.83 32.3717 135.962 31.958C135.999 31.7203 136.085 31.4932 136.216 31.2916C136.346 31.0901 136.518 30.9186 136.72 30.7886C137.297 30.398 137.998 30.279 138.668 30.1296ZM139.511 30.1232C139.061 30.148 138.625 30.2622 138.186 30.3485C137.708 30.4699 137.209 30.5745 136.8 30.8661C136.417 31.1153 136.106 31.5211 136.071 31.9891C136.047 32.331 136.034 32.6825 136.112 33.0187C136.192 33.2479 136.326 33.4542 136.503 33.6201C136.68 33.786 136.894 33.9066 137.128 33.9717C137.765 34.1977 138.45 34.1163 139.114 34.125C139.596 34.1284 140.071 34.0119 140.497 33.7858C140.924 33.5597 141.287 33.2311 141.556 32.8294C141.705 32.5695 141.826 32.2945 141.917 32.0091C142.015 31.7231 141.996 31.4156 142.046 31.1193C142.112 30.6184 142.221 30.1056 142.105 29.6016C141.263 29.8908 140.382 29.9922 139.511 30.1232Z" fill="#BBA3A4"/>
<path d="M191.002 30.7456C191.035 30.3188 191.091 29.8941 191.169 29.4731C191.274 29.9034 191.214 30.3572 191.002 30.7456Z" fill="#BBA3A4"/>
<path d="M190.661 32.0397C190.796 31.6147 190.875 31.1754 191.001 30.748C191.117 31.0005 190.966 31.2553 190.921 31.5053C190.383 33.7051 189.094 35.7388 187.237 37.0488C186.4 37.6366 185.477 38.0894 184.5 38.3907L184.295 38.3555C184.686 38.211 185.085 38.0896 185.468 37.9202C186.852 37.3328 188.068 36.4074 189.006 35.2284C189.746 34.2753 190.307 33.1947 190.661 32.0397Z" fill="#BBA3A4"/>
<path d="M50.7861 33.3294C50.7939 33.1695 50.8494 33.0156 50.9454 32.8877C51.0027 33.0538 50.99 33.2767 50.7861 33.3294Z" fill="#BBA3A4"/>
<path d="M50.6484 33.9302C50.6827 33.7473 50.7281 33.5676 50.7806 33.3887C50.7848 33.5777 50.7392 33.7645 50.6484 33.9302Z" fill="#BBA3A4"/>
<path d="M50.2869 34.8509C50.3735 34.5427 50.4909 34.244 50.6373 33.9595C50.5218 34.5697 50.2757 35.1425 50.0504 35.7168C49.3947 37.3693 48.569 38.9488 47.5867 40.4295C46.4002 42.2531 44.9485 43.8938 43.3535 45.3667C40.2488 48.1866 36.5113 50.2129 32.4586 51.2736C31.3707 51.5487 30.2675 51.7589 29.1548 51.9031C28.8521 51.9267 28.5516 51.9729 28.2558 52.0412H27.4595C28.0248 51.8392 28.634 51.9039 29.2169 51.8016C33.9416 51.1883 38.4068 49.2822 42.1233 46.2923C45.8398 43.3024 48.6642 39.344 50.2869 34.8509Z" fill="#BBA3A4"/>
<path d="M19.1719 51.1558C19.4463 51.1969 19.7185 51.2521 19.9873 51.3211C20.5686 51.4673 21.1594 51.5655 21.7479 51.6782C22.1226 51.7164 22.4949 51.7764 22.8627 51.8579C22.1293 51.8659 21.4055 51.7125 20.6888 51.5735C20.1808 51.4529 19.6497 51.3858 19.1719 51.1558Z" fill="#BBA3A4"/>
<path d="M22.9009 51.8608C23.3882 51.8752 23.8891 51.8608 24.3517 52.0398H23.6144C23.3755 51.9846 23.139 51.9199 22.9009 51.8608Z" fill="#BBA3A4"/>
<path d="M24.3887 0.0410156H27.5644C27.6884 0.101978 27.8206 0.144237 27.9569 0.166423C29.9205 0.300789 31.8605 0.674434 33.7341 1.27911C36.3163 2.09122 38.7522 3.31283 40.9493 4.89754C44.9535 7.76094 48.0646 11.7063 49.9204 16.2744C50.1816 16.8831 50.352 17.5269 50.637 18.1268L50.6466 18.1555C50.6804 18.3373 50.7338 18.5149 50.8059 18.6851L50.8162 18.7171C50.8608 18.9623 50.907 19.2083 50.9707 19.4504C51.2434 20.457 51.4464 21.4813 51.5783 22.516C51.7152 23.306 51.7128 24.1136 51.8227 24.9044C51.8227 25.1001 51.8379 25.295 51.8554 25.4899C51.8092 25.8023 51.8092 26.1199 51.8554 26.4324C51.8328 26.6508 51.8222 26.8703 51.8235 27.0898C51.7288 27.9341 51.7097 28.7872 51.5663 29.6259C51.4867 30.2002 51.3919 30.7713 51.2789 31.3393C51.1825 31.8385 51.0272 32.3257 50.9683 32.8322L50.9468 32.8889C50.8508 33.0168 50.7953 33.1707 50.7875 33.3306L50.782 33.3897C50.7302 33.5686 50.684 33.7484 50.6498 33.9313L50.6386 33.9608C50.4922 34.2454 50.3748 34.544 50.2883 34.8523C48.6734 39.351 45.8505 43.3146 42.1314 46.3053C38.4122 49.296 33.9414 51.1975 29.2127 51.7998C28.6298 51.9036 28.0183 51.8389 27.4553 52.0394H24.3497C23.8871 51.8605 23.3862 51.8749 22.8989 51.8605H22.863C22.4952 51.779 22.123 51.719 21.7482 51.6808C21.1598 51.5681 20.5689 51.4699 19.9876 51.3237C19.718 51.2547 19.445 51.1995 19.1698 51.1584L19.1348 51.1488C18.9755 51.0913 18.8202 51.029 18.657 50.9787C13.9542 49.5967 9.73788 46.9066 6.4965 43.2198C3.25512 39.5331 1.12129 35.0007 0.342175 30.1475C0.299175 29.7865 0.276082 29.4198 0.144693 29.0771V29.0284C0.121601 28.5651 0.195656 28.0803 -0.00341797 27.6442V24.4754C0.165397 24.1008 0.133545 23.6846 0.174156 23.2861C0.521477 19.9944 1.49316 16.7997 3.03684 13.8741C4.14591 11.7959 5.5258 9.87507 7.14016 8.16212C9.26605 5.92173 11.7695 4.0754 14.5354 2.70811C17.0381 1.48256 19.7216 0.670151 22.4824 0.302214C23.1123 0.169618 23.7756 0.261476 24.3887 0.0410156ZM25.0186 3.33994C24.4747 3.72095 23.9555 4.13871 23.4133 4.52052C23.3074 4.6004 23.1879 4.68587 23.1401 4.81767C23.1497 5.06369 23.2054 5.30572 23.2054 5.55254C23.2007 7.6557 23.2054 9.75966 23.2054 11.8628C23.2054 12.124 23.1553 12.3812 23.1314 12.6408C22.3351 13.5083 21.4727 14.3183 20.6501 15.161C19.4413 16.3759 18.2262 17.574 17.031 18.801C16.9059 18.9024 16.9242 19.0701 16.9195 19.2139C16.9195 22.1774 16.9195 25.1411 16.9195 28.105C14.9059 30.1371 12.8868 32.1649 10.862 34.1885C10.7346 34.2995 10.71 34.4697 10.7179 34.631C10.7179 37.5066 10.7179 40.384 10.7179 43.2633C10.7104 43.3395 10.7235 43.4163 10.7559 43.4856C10.7882 43.5549 10.8387 43.6142 10.9019 43.6571C11.6775 44.241 12.4698 44.8041 13.2446 45.3896C13.3056 45.4396 13.3809 45.4687 13.4596 45.4725C13.5383 45.4764 13.6161 45.4549 13.6817 45.4112C14.4502 44.8521 15.2011 44.2642 15.9775 43.7146C16.0536 43.6618 16.1252 43.6027 16.1917 43.5381C16.2307 43.2865 16.1917 43.0317 16.2012 42.7785C16.2012 40.7488 16.1956 38.7191 16.2068 36.6894C17.2619 35.5863 18.3616 34.5272 19.4294 33.4368C19.5178 33.353 19.603 33.2531 19.724 33.2196C19.8974 33.3631 20.0605 33.5187 20.2122 33.6853C21.1337 34.6225 22.0612 35.5544 22.9944 36.481C23.2142 36.6767 23.1616 37.0057 23.1991 37.2709C23.2046 39.0818 23.1991 40.8918 23.1991 42.7026C23.2038 42.9838 23.1744 43.2673 23.2086 43.5485C23.3029 43.6368 23.4044 43.7169 23.512 43.7881C24.2382 44.3097 24.9509 44.8505 25.6716 45.3809C25.7815 45.4823 25.9343 45.4607 26.0697 45.4719C26.8748 44.8257 27.722 44.233 28.5486 43.6148C28.6529 43.5613 28.6195 43.4351 28.6282 43.3408C28.6282 41.2904 28.6282 39.2391 28.6282 37.1903C28.6362 37.0185 28.6187 36.8316 28.7078 36.6775C28.819 36.5253 28.9452 36.3848 29.0845 36.2581C29.704 35.6287 30.3339 35.0104 30.9542 34.381C31.3667 34 31.7242 33.5614 32.1566 33.202C33.3213 34.3533 34.477 35.5136 35.6237 36.683C35.6356 38.9268 35.6412 41.1713 35.6237 43.4151C35.603 43.5637 35.763 43.626 35.8538 43.7106C36.5904 44.2474 37.327 44.785 38.0516 45.3385C38.1312 45.3889 38.2021 45.4719 38.3024 45.4775C38.5413 45.5159 38.6934 45.3018 38.8694 45.1852C39.5128 44.7123 40.1482 44.2266 40.798 43.7634C40.9153 43.6697 41.0257 43.5677 41.1285 43.4582C41.1165 40.4229 41.1229 37.3955 41.1285 34.3642C39.0708 32.265 36.9766 30.2018 34.9126 28.109C34.9083 25.0572 34.9083 22.0051 34.9126 18.9527C34.6395 18.6332 34.3297 18.3552 34.0367 18.0557C32.3092 16.3272 30.5839 14.5965 28.8607 12.8637C28.7755 12.7822 28.7028 12.6885 28.6449 12.5857C28.6019 12.2958 28.6266 12.0002 28.621 11.7071C28.621 9.37785 28.6258 7.04704 28.621 4.71782C28.3718 4.45822 28.0517 4.28409 27.7706 4.06363C27.2387 3.65945 26.6988 3.26486 26.1645 2.86547C26.0713 2.80956 25.9885 2.70572 25.869 2.72249C25.5609 2.88943 25.3085 3.13945 25.0186 3.33994Z" fill="#ED1B24"/>
<path d="M25.4019 18.2493C25.5611 18.0896 25.7037 17.917 25.8892 17.79C25.9262 17.7929 25.9621 17.8035 25.9947 17.8211C26.0273 17.8387 26.056 17.863 26.0787 17.8923C27.1665 18.9882 28.2569 20.082 29.3499 21.1736C29.3499 23.4901 29.3579 25.8065 29.3499 28.1277C28.5361 28.9353 27.7366 29.7588 26.9188 30.5624C26.5836 30.8979 26.2643 31.2509 25.9059 31.5632C24.8118 30.4274 23.6763 29.3307 22.5726 28.2044C22.4261 28.0694 22.4229 27.8625 22.4245 27.678C22.4245 25.761 22.4245 23.8439 22.4245 21.9269C22.4295 21.6682 22.4562 21.4103 22.5042 21.1561C23.4682 20.1885 24.4341 19.2196 25.4019 18.2493Z" fill="#ED1B24"/>
<path d="M204.87 13.0597C204.88 12.9143 204.899 12.7695 204.925 12.626C206.995 12.6348 209.061 12.626 211.129 12.626C211.246 13.2426 211.179 13.8713 211.196 14.4943C211.207 15.595 211.172 16.6965 211.215 17.7964C212.477 17.7964 213.738 17.7964 215 17.7964V23.5731C213.739 23.5731 212.477 23.5731 211.216 23.5731C211.179 24.1674 211.202 24.7633 211.196 25.3584C211.196 27.5151 211.19 29.6718 211.201 31.8284C211.222 32.2278 211.168 32.6823 211.425 33.0266C211.595 33.2295 211.875 33.2662 212.124 33.2998C212.442 33.3293 212.761 33.3948 213.088 33.3573C213.517 33.3038 213.951 33.2982 214.376 33.2039C214.582 33.1597 214.79 33.1279 215 33.1089V38.2482C214.63 38.3161 214.256 38.3488 213.885 38.3951C212.751 38.5549 211.603 38.4902 210.461 38.4926C209.364 38.4047 208.232 38.2913 207.236 37.7921C206.522 37.451 205.925 36.9029 205.524 36.2185C205.155 35.564 204.952 34.8286 204.933 34.077C204.921 33.7008 204.882 33.3253 204.873 32.9491C204.871 26.3193 204.87 19.6895 204.87 13.0597Z" fill="#231F20"/>
<path d="M58.9634 14.0586C59.0795 14.0162 59.2014 13.9922 59.3249 13.9875C62.1963 13.9929 65.0675 13.9929 67.9384 13.9875C68.257 14.6753 68.5205 15.387 68.8064 16.0883C70.2705 19.7035 71.7325 23.3193 73.1924 26.9356C73.3198 27.2759 73.4934 27.601 73.5714 27.958L73.8318 27.966C73.9767 27.4364 74.2117 26.938 74.3892 26.4212C75.6713 23.0664 76.9525 19.7142 78.233 16.3647C78.4559 15.7888 78.6868 15.216 78.8891 14.6329C78.9688 14.4084 79.0665 14.1907 79.1813 13.9819C81.798 14.0027 84.4146 13.9819 87.032 13.9907C87.3935 14.0003 87.7606 13.9532 88.1182 14.0339C88.1062 14.5339 88.1134 15.0339 88.1118 15.5339C88.1118 22.6696 88.1118 29.8053 88.1118 36.941C88.1118 37.4059 88.123 37.8708 88.1046 38.3357C85.961 38.3357 83.8171 38.3357 81.673 38.3357C81.6698 34.3573 81.6698 30.3783 81.673 26.3988C81.673 25.9579 81.6825 25.5162 81.6602 25.0761H81.5248C81.3895 25.5194 81.1792 25.9347 81.0192 26.3693C79.5291 30.0085 78.0408 33.6482 76.5544 37.2885C76.4062 37.6295 76.2916 37.985 76.1228 38.3165C76.0172 38.3316 75.9108 38.3396 75.8042 38.3405C74.2037 38.3405 72.6031 38.3405 71.0026 38.3405C70.8656 38.0641 70.7494 37.7773 70.6347 37.4914C69.0493 33.6724 67.4782 29.8471 65.892 26.0282C65.7677 25.7398 65.6642 25.4427 65.5233 25.1623C65.4693 25.3026 65.4381 25.4507 65.4309 25.6009V37.183C65.4309 37.568 65.4428 37.9546 65.4205 38.3397C63.2705 38.3285 61.1205 38.3548 58.9705 38.3269C58.961 30.2385 58.9801 22.1494 58.9634 14.0586Z" fill="#231F20"/>
<path d="M97.6261 17.8566C97.9924 17.7767 98.3682 17.8062 98.7409 17.799C99.2617 17.8062 99.7896 17.7695 100.302 17.8845C102.353 18.1118 104.256 19.0591 105.677 20.5588C107.371 22.3161 108.284 24.7188 108.519 27.1255C108.621 27.6239 108.585 28.1351 108.599 28.6432C108.593 29.1001 108.609 29.5601 108.559 30.0154C108.497 30.1544 108.337 30.1057 108.219 30.1177C104.052 30.1089 99.8852 30.1177 95.7174 30.1177C95.4987 30.1085 95.2796 30.1157 95.062 30.1393C94.9824 30.3557 95.062 30.5842 95.1018 30.7998C95.2459 31.581 95.543 32.3814 96.1545 32.9158C96.7677 33.4925 97.6157 33.7233 98.4319 33.808C99.0236 33.9422 99.6264 33.808 100.207 33.7034C100.751 33.563 101.256 33.3027 101.687 32.9413C101.798 32.8615 101.903 32.7353 102.057 32.7504C104.031 32.7464 106.006 32.7504 107.981 32.7464C107.901 33.0532 107.747 33.3311 107.616 33.6171C107.04 34.9119 106.183 36.0933 105.056 36.9632C103.709 37.9616 102.072 38.5295 100.415 38.7013C99.7339 38.8514 99.0355 38.7915 98.3443 38.8035C97.9695 38.8027 97.5956 38.7656 97.2279 38.6925C94.9983 38.4529 92.8395 37.4328 91.313 35.773C90.1396 34.4407 89.3339 32.8237 88.9759 31.0826C88.6574 29.6991 88.6383 28.2629 88.7665 26.8531C88.8557 26.4481 88.8708 26.0304 88.9831 25.6302C89.429 23.6413 90.4435 21.7633 91.9557 20.3887C93.2195 19.2357 94.7606 18.4325 96.4276 18.0578C96.8146 17.9388 97.2279 17.9316 97.6261 17.8566ZM97.857 22.8648C96.5694 23.0597 95.4387 24.0734 95.1297 25.3474C95.1099 25.4751 95.0992 25.604 95.0978 25.7332C97.4241 25.7428 99.7501 25.7428 102.076 25.7332C102.065 25.5343 102.065 25.3291 101.988 25.1429C101.749 24.5295 101.452 23.9048 100.94 23.4703C100.576 23.1372 100.093 22.9799 99.6208 22.8744C99.035 22.8158 98.445 22.8126 97.8586 22.8648H97.857Z" fill="#231F20"/>
<path d="M116.447 17.8815C116.986 17.7601 117.541 17.8088 118.09 17.8016C118.573 17.7841 119.046 17.8983 119.519 17.9614C120.331 18.1427 121.134 18.4191 121.828 18.8944C122.19 19.1284 122.496 19.4367 122.829 19.7099C122.908 19.2402 122.801 18.7594 122.908 18.2937C124.875 18.2937 126.841 18.3049 128.807 18.2889C128.91 18.5852 128.864 18.9015 128.87 19.2091V36.7022C128.858 37.5053 128.766 38.3051 128.594 39.0897C128.294 40.7895 127.301 42.3351 125.939 43.3783C124.788 44.2518 123.456 44.8548 122.042 45.1428C121.574 45.2666 121.087 45.2802 120.614 45.3712C119.456 45.4725 118.292 45.4768 117.133 45.384C116.001 45.2187 114.864 44.9846 113.82 44.495C112.37 43.8559 111.092 42.7728 110.343 41.3614C109.877 40.4194 109.648 39.3773 109.676 38.3261C109.798 38.2995 109.922 38.2827 110.047 38.2757C111.94 38.2757 113.834 38.2853 115.727 38.2717C115.824 38.4302 115.893 38.6034 115.934 38.7845C116.087 39.4507 116.491 40.0897 117.103 40.414C117.52 40.6278 117.97 40.7693 118.434 40.8326C119.129 40.9828 119.847 40.8949 120.533 40.7423C120.944 40.6145 121.358 40.4452 121.674 40.1425C122.291 39.5833 122.63 38.7742 122.775 37.9642C122.855 37.6583 122.855 37.3404 122.855 37.0273C122.855 36.6542 122.875 36.2796 122.825 35.909C121.811 36.8419 120.506 37.4139 119.162 37.6423C118.525 37.7869 117.865 37.7773 117.215 37.7661C116.778 37.7636 116.342 37.7184 115.914 37.6311C114.291 37.3767 112.792 36.6045 111.641 35.4289C110.407 34.1365 109.672 32.4327 109.357 30.6866C109.249 30.2393 109.22 29.7784 109.138 29.3287C109.062 28.4631 109.049 27.593 109.1 26.7255C109.113 26.2942 109.227 25.8756 109.271 25.4475C109.584 23.7117 110.28 22.0231 111.409 20.6588C111.767 20.2459 112.159 19.8636 112.581 19.5158C113.695 18.6451 115.032 18.0261 116.447 17.8815ZM118.243 22.8674C117.442 23.0337 116.735 23.5028 116.27 24.1774C115.799 24.8228 115.548 25.6032 115.438 26.3892C115.304 26.9691 115.352 27.5674 115.347 28.1577C115.335 28.5092 115.419 28.8526 115.469 29.1961C115.571 30.0226 115.876 30.8105 116.358 31.4886C116.773 32.0222 117.333 32.4671 117.992 32.646C118.656 32.8022 119.347 32.8022 120.011 32.646C120.879 32.4183 121.626 31.8177 122.091 31.0548C122.659 30.1203 122.887 29.0044 122.856 27.9181C122.846 27.5442 122.856 27.1664 122.783 26.7998C122.698 26.2718 122.678 25.7015 122.391 25.235L122.386 25.2286C122.36 24.9323 122.203 24.6743 122.06 24.4226C121.539 23.4897 120.507 22.8451 119.432 22.8427C119.035 22.8219 118.638 22.8302 118.243 22.8674Z" fill="#231F20"/>
<path d="M138.237 17.8568C138.763 17.7769 139.296 17.8032 139.83 17.8001C140.308 17.8072 140.785 17.7809 141.263 17.8504C141.634 17.9031 142.009 17.9303 142.383 17.9662C143.48 18.1036 144.568 18.3879 145.557 18.8912C146.484 19.3554 147.266 20.0654 147.82 20.944C148.317 21.7883 148.506 22.7916 148.474 23.7645C148.474 26.9292 148.474 30.0942 148.474 33.2595C148.484 33.7427 148.453 34.2292 148.521 34.71C148.581 35.1318 148.566 35.5599 148.567 35.9881C148.567 36.7733 148.572 37.5585 148.562 38.3444C147.059 38.3389 145.557 38.3444 144.055 38.3444C143.724 38.3343 143.392 38.3426 143.062 38.3692L142.982 38.378C142.81 37.9938 142.718 37.584 142.611 37.1798C142.481 37.0912 142.352 37.2302 142.244 37.2869C141.461 37.8364 140.578 38.2251 139.644 38.4307C138.12 38.8085 136.517 38.9475 134.964 38.6703C133.892 38.5154 132.837 38.1464 131.953 37.5105C131.352 37.0775 130.846 36.525 130.467 35.8874C130.088 35.2497 129.843 34.5406 129.749 33.8042C129.688 33.4165 129.65 33.0255 129.635 32.6332C129.635 32.154 129.714 31.6747 129.784 31.1954C129.959 30.1019 130.541 29.1011 131.321 28.3295C132.019 27.684 132.88 27.2351 133.78 26.9484C135.282 26.4811 136.845 26.2726 138.399 26.0801C138.729 26.0628 139.058 26.027 139.384 25.9731C140.105 25.8732 140.839 25.7582 141.508 25.4539C141.789 25.3101 142.117 25.1192 142.184 24.7829C142.231 24.2445 142.239 23.655 141.926 23.1854C141.578 22.6542 140.909 22.4665 140.311 22.417C139.463 22.3602 138.565 22.3003 137.771 22.663C137.395 22.8102 137.079 23.0822 136.878 23.4338C136.559 23.9793 136.513 24.6279 136.441 25.2422C134.371 25.239 132.301 25.239 130.23 25.2422C130.207 24.839 130.231 24.4345 130.301 24.0369C130.36 23.5321 130.475 23.0354 130.643 22.5559C131.035 21.3945 131.848 20.416 132.801 19.6676C133.983 18.7889 135.409 18.2713 136.856 18.0421C137.309 17.939 137.778 17.9231 138.237 17.8568ZM138.666 30.1299C137.997 30.2793 137.295 30.3983 136.718 30.7905C136.516 30.9205 136.344 31.0919 136.214 31.2935C136.083 31.4951 135.996 31.7222 135.96 31.9599C135.831 32.3736 135.937 32.8074 136.066 33.2068C136.339 33.8458 137.053 34.1493 137.706 34.198C138.299 34.3067 138.907 34.3067 139.5 34.198C140.319 34.1333 141.074 33.6605 141.563 33.0087C142.041 32.2898 142.21 31.4071 142.194 30.5556C142.188 30.1922 142.2 29.8295 142.176 29.4677C141.046 29.8615 139.843 29.9438 138.668 30.1299H138.666Z" fill="#231F20"/>
<path d="M159.075 17.9947C159.687 17.8773 160.305 17.7639 160.931 17.7982C161.519 17.7797 162.106 17.8252 162.683 17.934C164.317 18.1736 165.841 18.9844 167.031 20.1234C168.04 21.0932 168.783 22.3201 169.261 23.6301C169.454 24.1525 169.591 24.694 169.739 25.2276V25.2484C169.826 25.7668 169.911 26.2868 169.977 26.8076C170.057 27.3587 170.036 27.9171 170.047 28.473C170.04 29.0281 170.062 29.5865 169.977 30.1376C169.897 30.6313 169.832 31.1265 169.738 31.617L169.734 31.6321C169.581 32.1218 169.469 32.625 169.279 33.1027C168.722 34.6012 167.809 35.991 166.556 36.9951C165.532 37.839 164.31 38.4053 163.007 38.6398C162.608 38.7005 162.21 38.7851 161.803 38.7995C161.166 38.8091 160.523 38.8267 159.897 38.6933C159.021 38.5593 158.175 38.2719 157.398 37.8442C156.931 37.5934 156.528 37.2459 156.108 36.928C156.068 37.4648 156.097 38.0031 156.09 38.5407C156.09 40.4841 156.084 42.4275 156.09 44.3717C156.085 44.5698 156.056 44.7655 156.032 44.962C153.958 44.962 151.884 44.962 149.81 44.962C149.791 44.3925 149.803 43.823 149.801 43.2535V19.9293C149.801 19.3854 149.787 18.8414 149.816 18.2983C151.804 18.2983 153.793 18.2983 155.782 18.2983C155.81 18.7623 155.734 19.2352 155.861 19.6897C156.147 19.4248 156.45 19.1795 156.768 18.9556C157.464 18.4788 158.268 18.2 159.075 17.9947ZM159.368 22.8385C158.637 22.8675 157.944 23.1672 157.421 23.6796C156.386 24.595 156.009 26.0264 155.933 27.3587C155.849 28.0217 155.849 28.6927 155.933 29.3556C155.937 29.6547 155.976 29.9523 156.049 30.2423C156.219 31.0826 156.506 31.9285 157.064 32.5939C157.566 33.1754 158.25 33.6323 159.017 33.7505C159.387 33.8072 159.759 33.8975 160.132 33.8463C160.413 33.8 160.696 33.7561 160.977 33.6978C161.688 33.5109 162.293 33.0364 162.745 32.4653C163.284 31.732 163.566 30.839 163.674 29.9419C163.778 29.5146 163.775 29.0737 163.767 28.6368C163.755 28.1815 163.791 27.7238 163.746 27.2701C163.697 26.9825 163.645 26.6949 163.601 26.4074C163.375 25.2891 162.866 24.1708 161.936 23.4719C161.551 23.1677 161.098 22.9619 160.616 22.872C160.202 22.8268 159.784 22.8156 159.368 22.8385Z" fill="#231F20"/>
<path d="M178.768 17.9594C179.246 17.9067 179.717 17.8044 180.198 17.7996C180.679 17.7948 181.153 17.7932 181.631 17.7996C182.029 17.8092 182.427 17.8947 182.825 17.9378C185.393 18.3116 187.865 19.6863 189.338 21.8614C190.288 23.2417 190.859 24.8679 191.062 26.5278C191.234 27.4959 191.124 28.4832 191.167 29.4601V29.4745C191.089 29.8954 191.033 30.3201 190.999 30.7469C190.874 31.1742 190.794 31.6136 190.659 32.0385C190.305 33.193 189.744 34.273 189.004 35.2256C188.067 36.4047 186.85 37.33 185.466 37.9175C185.084 38.0868 184.684 38.2082 184.294 38.3528C183.447 38.5659 182.585 38.7122 181.715 38.7905C181.264 38.8105 180.812 38.7985 180.362 38.8009C179.772 38.8057 179.192 38.6827 178.61 38.61C177.769 38.4623 176.949 38.2132 176.168 37.8679C174.621 37.1855 173.297 36.0778 172.35 34.6729C171.433 33.2957 170.86 31.7178 170.678 30.0719C170.628 29.5927 170.598 29.1134 170.56 28.6342C170.519 28.1988 170.599 27.7651 170.611 27.3306C170.746 24.9838 171.588 22.6298 173.193 20.8885C174.641 19.3013 176.668 18.3076 178.768 17.9594ZM180.034 22.8654C179.846 22.8801 179.665 22.944 179.509 23.0507C179.155 23.0739 178.872 23.3095 178.593 23.5036C177.828 24.0708 177.373 24.9614 177.134 25.8672C177.021 26.3297 176.915 26.7986 176.906 27.277C176.895 27.7331 176.773 28.1844 176.838 28.6413C176.927 29.1693 176.88 29.7117 177.013 30.2333C177.16 31.0816 177.478 31.9107 178.014 32.5929C178.52 33.2063 179.244 33.6592 180.04 33.7559C180.252 33.787 180.463 33.8318 180.677 33.8509C181.053 33.8821 181.425 33.791 181.796 33.7375C182.637 33.6089 183.378 33.0825 183.883 32.4083C184.412 31.6487 184.697 30.7381 184.805 29.8235C184.9 29.4074 184.885 28.9776 184.885 28.5543C184.87 27.9951 184.93 27.428 184.805 26.8769C184.698 25.8848 184.396 24.8855 183.77 24.0939C183.157 23.3351 182.211 22.8359 181.23 22.8327C180.832 22.8181 180.434 22.8291 180.037 22.8654H180.034Z" fill="#231F20"/>
<path d="M202.209 17.8829C202.752 17.7503 203.317 17.8031 203.871 17.8206C203.993 18.1401 203.987 18.478 203.991 18.8119C203.97 20.4757 203.995 22.1396 203.978 23.8042C203.066 23.7539 202.138 23.6509 201.238 23.8545C200.282 24.063 199.386 24.6333 198.867 25.4753C198.304 26.3667 198.071 27.4306 198.035 28.473C197.988 28.9523 198.008 29.4316 198.003 29.9148C197.997 32.7209 198.003 35.5278 197.999 38.3347C195.905 38.3347 193.81 38.3498 191.716 38.3291C191.713 32.0092 191.713 25.6896 191.716 19.3702C191.72 19.0507 191.697 18.724 191.722 18.4021L191.818 18.3079C192.057 18.2839 192.302 18.2991 192.546 18.2975C194.279 18.2975 196.012 18.2975 197.744 18.2975C197.78 18.9996 197.712 19.7041 197.778 20.4047C198.123 20.1059 198.407 19.7425 198.761 19.4525C199.751 18.6325 200.942 18.0908 202.209 17.8829Z" fill="#231F20"/>
</g>
<defs>
<clipPath id="clip0">
<rect width="215" height="52" fill="white"/>
</clipPath>
</defs>
</svg>
