<svg width="38" height="48" viewBox="0 0 38 48" fill="none" xmlns="http://www.w3.org/2000/svg">
<g clip-path="url(#clip0_0:230)">
<path d="M0.75 32.62H36.61" stroke="#001F73" stroke-width="1.5" stroke-linecap="round" stroke-linejoin="round"/>
<path d="M7.12 44.05V35.65H10.44C11.2824 35.6073 12.1103 35.882 12.76 36.42C13.0486 36.6775 13.2763 36.9958 13.4268 37.3521C13.5772 37.7084 13.6467 38.0936 13.63 38.48C13.6459 38.8863 13.5633 39.2904 13.3891 39.6578C13.215 40.0252 12.9545 40.3451 12.63 40.59C11.9438 41.1168 11.0943 41.3858 10.23 41.35H8.6V44.05H7.12ZM8.6 40H10.32C10.796 40.0217 11.2641 39.8728 11.64 39.58C11.7991 39.4431 11.9257 39.2724 12.0105 39.0804C12.0953 38.8884 12.1361 38.6798 12.13 38.47C12.1422 38.2594 12.1041 38.0489 12.0189 37.8559C11.9337 37.6629 11.8039 37.4929 11.64 37.36C11.256 37.0886 10.7886 36.9611 10.32 37H8.6V40Z" fill="#FF006E"/>
<path d="M15.14 44.05V35.65H18.27C19.4586 35.6045 20.6167 36.0325 21.49 36.84C21.8855 37.2331 22.1993 37.7006 22.4135 38.2154C22.6277 38.7303 22.7379 39.2824 22.7379 39.84C22.7379 40.3976 22.6277 40.9497 22.4135 41.4646C22.1993 41.9795 21.8855 42.4469 21.49 42.84C21.0615 43.2432 20.5569 43.5569 20.0057 43.763C19.4546 43.969 18.8679 44.0632 18.28 44.04L15.14 44.05ZM16.62 42.71H18.27C18.6575 42.7261 19.0443 42.6636 19.4069 42.5261C19.7696 42.3886 20.1006 42.179 20.38 41.91C20.9031 41.3536 21.1944 40.6187 21.1944 39.855C21.1944 39.0913 20.9031 38.3564 20.38 37.8C20.102 37.5291 19.7712 37.3182 19.4082 37.1806C19.0452 37.043 18.6578 36.9815 18.27 37H16.62V42.71Z" fill="#001F73"/>
<path d="M24.52 44.05V35.65H30.78V37H26V39.3H30.24V40.64H26V44.06L24.52 44.05Z" fill="#001F73"/>
<path d="M26.92 0.75V10.42L36.61 10.44" stroke="#FF006E" stroke-width="1.5" stroke-miterlimit="10"/>
<path d="M14.4 22.68C13.8721 24.1871 13.076 25.5863 12.05 26.81C11.8506 27.0308 11.5999 27.1991 11.32 27.3C11.0868 27.3776 10.836 27.3847 10.5988 27.3205C10.3616 27.2562 10.1486 27.1235 9.98644 26.9389C9.82425 26.7544 9.72007 26.526 9.68691 26.2826C9.65375 26.0391 9.69309 25.7912 9.80001 25.57C10.2384 24.93 10.8119 24.3941 11.48 24C13.9567 22.3683 16.7288 21.237 19.64 20.67C20.83 20.38 22.03 20.05 23.24 19.83C24.29 19.64 25.7 19.24 26.67 19.9C27.64 20.56 27.26 21.42 26.37 21.79C24.3 22.65 22.21 20.16 21.09 18.79C19.2979 16.5048 17.8275 13.9847 16.72 11.3C16.3143 10.4547 16.1815 9.50414 16.34 8.58C16.3945 8.32035 16.5289 8.08428 16.7244 7.90493C16.9199 7.72558 17.1666 7.61195 17.43 7.58C17.6945 7.59416 17.9473 7.69329 18.1509 7.86265C18.3545 8.03201 18.4979 8.26255 18.56 8.52C18.6851 9.03248 18.6851 9.56752 18.56 10.08C17.5543 14.3963 16.162 18.6134 14.4 22.68V22.68Z" stroke="#001F73" stroke-width="1.5" stroke-linecap="round" stroke-linejoin="round"/>
<path d="M36.61 10.44V47.05H0.75V0.75H26.92L36.61 10.44Z" stroke="#001F73" stroke-width="1.5" stroke-linecap="round" stroke-linejoin="round"/>
</g>
<defs>
<clipPath id="clip0_0:230">
<rect width="37.36" height="47.8" fill="white"/>
</clipPath>
</defs>
</svg>
