<svg xmlns="http://www.w3.org/2000/svg" id="a82fadd0-7543-4f13-8c65-0c6871206dcb" data-name="Layer 5" viewBox="0 0 452.3 454.34"><path d="M421,340.1l-83.2-55.49a24.28,24.28,0,0,0-32.52,5.28l-24.24,31.16a10.36,10.36,0,0,1-13.28,2.8l-4.61-2.54c-15.29-8.33-34.3-18.7-72.62-57s-48.71-57.36-57-72.62L131,187.05a10.37,10.37,0,0,1,2.74-13.33l31.14-24.23A24.31,24.31,0,0,0,170.16,117l-55.49-83.2A24.17,24.17,0,0,0,82.1,26.43L47.31,47.34a49,49,0,0,0-22.38,29C12.4,122,21.82,200.82,137.88,316.9,230.21,409.21,298.94,434,346.18,434a121.2,121.2,0,0,0,32.2-4.21,49,49,0,0,0,29-22.38l20.93-34.77A24.17,24.17,0,0,0,421,340.1Z" style="fill:none;stroke:#ff006e;stroke-linecap:round;stroke-linejoin:round;stroke-width:25px"></path><path d="M383.82,208A130.31,130.31,0,0,0,253.66,77.81" style="fill:none;stroke:#ff006e;stroke-linecap:round;stroke-linejoin:round;stroke-width:25px"></path><path d="M342.71,208a89.14,89.14,0,0,0-89-89" style="fill:none;stroke:#ff006e;stroke-linecap:round;stroke-linejoin:round;stroke-width:25px"></path><path d="M301.61,208a48,48,0,0,0-48-47.95" style="fill:none;stroke:#ff006e;stroke-linecap:round;stroke-linejoin:round;stroke-width:25px"></path></svg>